<svg id="Layer_1" data-name="Layer 1" xmlns="http://www.w3.org/2000/svg" viewBox="0 0 118 36.76"><defs><style>.cls-1,.cls-2{fill:#e4002b;}.cls-2{fill-rule:evenodd;}</style></defs><path class="cls-1" d="M3.5,22.8H6.19L9.54,33.2l3.38-10.4H15.6L18,37.71H15.36L13.81,28.3l-3.07,9.41H8.32L5.27,28.3,3.68,37.71H1Z" transform="translate(-1 -1.62)"/><path class="cls-1" d="M24.63,22.8h2.79L33,37.71H30.12L29,34.64h-5.9l-1.18,3.07H19.05Zm1.41,4L24.1,31.87H28Z" transform="translate(-1 -1.62)"/><path class="cls-1" d="M48.46,25.23l-1.94,2a5.63,5.63,0,0,0-4.29-2,4.83,4.83,0,0,0-3.57,1.46,4.88,4.88,0,0,0-1.44,3.55,5.11,5.11,0,0,0,5.18,5.16,4.39,4.39,0,0,0,2.41-.62,4.3,4.3,0,0,0,1.58-1.93H42.2V30.15h7.27l0,.63a7.44,7.44,0,0,1-1,3.71A6.94,6.94,0,0,1,46,37.17a7.1,7.1,0,0,1-3.66.92,8,8,0,0,1-4-1,7.27,7.27,0,0,1-2.79-2.87,8.3,8.3,0,0,1-1-4A7.65,7.65,0,0,1,36.36,25a7.39,7.39,0,0,1,5.86-2.6,8.71,8.71,0,0,1,3.53.72A8.08,8.08,0,0,1,48.46,25.23Z" transform="translate(-1 -1.62)"/><path class="cls-1" d="M51.82,22.8h2.74V37.71H51.82Z" transform="translate(-1 -1.62)"/><path class="cls-1" d="M70.94,25.42,69,27.31a5.91,5.91,0,0,0-4.42-2.14,4.65,4.65,0,0,0-3.49,1.47,4.94,4.94,0,0,0-1.42,3.6,5.49,5.49,0,0,0,.63,2.65,4.6,4.6,0,0,0,1.77,1.81,5.36,5.36,0,0,0,4.75.2A7.94,7.94,0,0,0,69,33.22l1.86,2a10.09,10.09,0,0,1-3,2.23,8,8,0,0,1-3.26.63,7.4,7.4,0,0,1-5.52-2.21,7.76,7.76,0,0,1-2.14-5.65,7.93,7.93,0,0,1,1-4,7.38,7.38,0,0,1,2.81-2.79,7.7,7.7,0,0,1,3.92-1.05,8,8,0,0,1,3.45.78A8.26,8.26,0,0,1,70.94,25.42Z" transform="translate(-1 -1.62)"/><path class="cls-1" d="M92.28,25.42l-1.93,1.89a5.91,5.91,0,0,0-4.42-2.14,4.67,4.67,0,0,0-3.49,1.47A4.94,4.94,0,0,0,81,30.24a5.49,5.49,0,0,0,.63,2.65,4.56,4.56,0,0,0,1.78,1.81,5,5,0,0,0,2.55.66,5.08,5.08,0,0,0,2.19-.46,7.94,7.94,0,0,0,2.18-1.68l1.87,2a10.24,10.24,0,0,1-3,2.23,8,8,0,0,1-3.25.63,7.37,7.37,0,0,1-5.52-2.21,7.72,7.72,0,0,1-2.15-5.65,7.83,7.83,0,0,1,1-4,7.29,7.29,0,0,1,2.8-2.79A7.7,7.7,0,0,1,86,22.43a8,8,0,0,1,3.45.78A8.29,8.29,0,0,1,92.28,25.42Z" transform="translate(-1 -1.62)"/><path class="cls-1" d="M98.89,22.8h8v2.8h-2.63V37.71h-2.79V25.6H98.89Z" transform="translate(-1 -1.62)"/><path class="cls-1" d="M107.74,22.8h3l2.7,5.37,2.68-5.37H119l-4.23,8.46v6.45H112V31.26Z" transform="translate(-1 -1.62)"/><path class="cls-2" d="M96.89,38c1.6-6.49,0-15.89-2-19.75,1.79,4.24,1.26,13.84-2.45,20.13l2.11-.23Z" transform="translate(-1 -1.62)"/><path class="cls-2" d="M93.2,17.62q-8.33,2.86-5.71,11.13c.06-.48.13-.95.23-1.41a3.34,3.34,0,0,1-.37-.68,4.16,4.16,0,0,0,.42.42L88,26.2a3,3,0,0,1-.49-.84,4.33,4.33,0,0,0,.58.55l.24-.81a3.59,3.59,0,0,1-.53-.87,4.41,4.41,0,0,0,.64.58,8.89,8.89,0,0,1,.36-.93,3,3,0,0,1-.43-.75,3.66,3.66,0,0,0,.53.51c.11-.27.24-.54.37-.8a3.23,3.23,0,0,1-.44-.76,4.68,4.68,0,0,0,.56.53c.1-.22.22-.43.34-.64a3,3,0,0,1-.46-.81,2.94,2.94,0,0,0,.6.57c.14-.23.28-.47.44-.7a2.72,2.72,0,0,1-.31-.59,4.16,4.16,0,0,0,.42.42c.16-.24.34-.48.52-.72a2.35,2.35,0,0,1-.21-.42A2.76,2.76,0,0,0,91,20c.19-.24.39-.48.59-.71a3.54,3.54,0,0,1-.16-.34l.23.25c.18-.22.38-.43.57-.64l-.11-.24a1.37,1.37,0,0,0,.17.17c.29-.3.59-.6.91-.89ZM93,16.78Q84.35,15,82.63,23.5c.28-.39.58-.75.88-1.11a2.93,2.93,0,0,1,0-.78,3,3,0,0,0,.16.59l.61-.66a3.21,3.21,0,0,1,0-1,4.12,4.12,0,0,0,.23.78c.2-.19.4-.39.61-.57a3.13,3.13,0,0,1,0-1,5.72,5.72,0,0,0,.26.83c.25-.21.5-.42.76-.62a3.24,3.24,0,0,1,0-.88,3,3,0,0,0,.21.72c.23-.18.46-.34.7-.5a3.74,3.74,0,0,1,0-.89,5,5,0,0,0,.23.75l.61-.38a3.23,3.23,0,0,1,0-.94,4.73,4.73,0,0,0,.25.81c.24-.13.47-.27.72-.39a3.83,3.83,0,0,1,0-.67,2.77,2.77,0,0,0,.17.58l.79-.36a3.94,3.94,0,0,1,0-.47,2.88,2.88,0,0,0,.11.42c.28-.12.57-.22.85-.33,0-.12,0-.23,0-.36,0,.11,0,.22.08.32l.81-.26c0-.08,0-.17,0-.26l.06.24c.4-.11.81-.22,1.23-.31Zm-.11-.64q-7.66-5.89-13.48,2.8c.16-.14.34-.28.51-.41a3.08,3.08,0,0,1,.53-.8,4.7,4.7,0,0,0-.29.61c.39-.3.77-.58,1.15-.84a3.13,3.13,0,0,1,.53-.79,3.51,3.51,0,0,0-.18.55c.34-.22.68-.44,1-.63a3.73,3.73,0,0,1,.52-.77,3.28,3.28,0,0,0-.23.61c.48-.27,1-.51,1.43-.72a3.4,3.4,0,0,1,.56-.86,4.38,4.38,0,0,0-.23.73,10.07,10.07,0,0,1,1.19-.43,3.32,3.32,0,0,1,.51-.75,3.09,3.09,0,0,0-.22.67,9.72,9.72,0,0,1,1.17-.24,2.91,2.91,0,0,1,.39-.54,3.2,3.2,0,0,0-.18.52,7.63,7.63,0,0,1,5.32,1.29Zm-.2-.7q-6-7.65-13.74-.71l.61-.27a3,3,0,0,1,.7-.65,5.91,5.91,0,0,0-.43.53c.45-.2.9-.37,1.32-.53a3.09,3.09,0,0,1,.7-.63,3.81,3.81,0,0,0-.3.49c.38-.13.75-.25,1.12-.35a3.44,3.44,0,0,1,.68-.62c-.14.18-.26.36-.38.53.54-.14,1.07-.25,1.58-.33a2.91,2.91,0,0,1,.74-.69,5.6,5.6,0,0,0-.4.64c.44,0,.86-.09,1.27-.11a2.85,2.85,0,0,1,.67-.6,3.38,3.38,0,0,0-.38.6,9.28,9.28,0,0,1,1.19.07,3,3,0,0,1,.5-.42,5,5,0,0,0-.3.45,7.75,7.75,0,0,1,4.85,2.6ZM92,14Q85,8.63,89.92,1.62c-.08.47-.15.95-.2,1.41a4,4,0,0,0-.55.54,3.35,3.35,0,0,1,.53-.28c0,.31-.06.61-.07.91a3.07,3.07,0,0,0-.72.65,3.65,3.65,0,0,1,.72-.34,8,8,0,0,0,0,.85,2.89,2.89,0,0,0-.77.66,4.25,4.25,0,0,1,.78-.36c0,.34,0,.67.06,1a3.08,3.08,0,0,0-.64.58,3.31,3.31,0,0,1,.66-.31c0,.28.07.58.11.87a3.13,3.13,0,0,0-.64.59,3.64,3.64,0,0,1,.69-.33c0,.24.09.48.14.72a2.56,2.56,0,0,0-.68.61,3.12,3.12,0,0,1,.74-.34c.06.27.13.53.21.8a3,3,0,0,0-.48.47,4.3,4.3,0,0,1,.52-.27c.09.29.19.57.28.86a3.22,3.22,0,0,0-.32.32l.37-.19c.11.29.22.58.34.87l-.24.26L91,12c.12.27.24.54.36.79l-.18.2.21-.12c.19.38.39.77.61,1.15Zm.53.78Q90.09,5.3,100.09,2.94l-.57.34a2.81,2.81,0,0,0-.92.21,5.73,5.73,0,0,1,.67-.05c-.42.26-.81.53-1.19.8a2.68,2.68,0,0,0-.91.2,3.28,3.28,0,0,1,.56,0l-.94.73a2.77,2.77,0,0,0-.89.21,3.52,3.52,0,0,1,.65,0,12.55,12.55,0,0,0-1.18,1.1,3.24,3.24,0,0,0-1,.22,3.54,3.54,0,0,1,.74,0,10.39,10.39,0,0,0-.82,1,3.45,3.45,0,0,0-.88.2,4.12,4.12,0,0,1,.7,0,10.26,10.26,0,0,0-.65,1,3.36,3.36,0,0,0-.63.18,3.13,3.13,0,0,1,.53,0,8.23,8.23,0,0,0-.81,5.57Zm.15-.6q.38-8,8.68-7.24l-.52.11A2.62,2.62,0,0,0,100.1,7a3.43,3.43,0,0,1,.53.13c-.39.09-.76.2-1.11.31a2.55,2.55,0,0,0-.75-.07,3.33,3.33,0,0,1,.42.17c-.31.1-.61.21-.89.33a2.2,2.2,0,0,0-.74-.07,3.13,3.13,0,0,1,.49.16c-.41.18-.81.36-1.18.56a2.06,2.06,0,0,0-.81-.09,3.5,3.5,0,0,1,.55.22c-.3.18-.59.36-.86.56A2.35,2.35,0,0,0,95,9.15a3.33,3.33,0,0,1,.52.21,6.61,6.61,0,0,0-.74.63,2.38,2.38,0,0,0-.54,0,2.74,2.74,0,0,1,.4.15,6.64,6.64,0,0,0-2,4.1Zm1.63-1.13q5.18-4.7,9.59.38l-1-.39a3.3,3.3,0,0,0-.31-.53,4.05,4.05,0,0,1,.12.47c-.23-.08-.44-.14-.67-.2a2.59,2.59,0,0,0-.35-.68,4.26,4.26,0,0,1,.13.62l-.63-.15a2.85,2.85,0,0,0-.37-.71,3.05,3.05,0,0,1,.13.67l-.74-.12a2.65,2.65,0,0,0-.34-.6,2.53,2.53,0,0,1,.13.58l-.66-.05a2.67,2.67,0,0,0-.34-.61,3.75,3.75,0,0,1,.14.6h-.56a3,3,0,0,0-.35-.65,3.78,3.78,0,0,1,.14.65l-.64,0a3,3,0,0,0-.26-.45c0,.16.08.31.11.47-.23,0-.45,0-.68.07l-.19-.31c0,.11,0,.22.08.33-.24,0-.48.07-.71.12a2.29,2.29,0,0,0-.15-.24,2.5,2.5,0,0,1,.07.26c-.22,0-.43.09-.65.15a1.74,1.74,0,0,0-.11-.18,1.46,1.46,0,0,0,0,.2c-.32.08-.64.18-1,.28Zm.18.6q8.61-1.81,10.36,6.69c-.29-.38-.59-.75-.89-1.09a3.5,3.5,0,0,0,0-.79,4,4,0,0,1-.16.59c-.2-.23-.4-.44-.61-.66a3.22,3.22,0,0,0,0-1,3.5,3.5,0,0,1-.23.78c-.2-.19-.4-.39-.61-.57a3.16,3.16,0,0,0,0-1,4,4,0,0,1-.26.83c-.25-.21-.5-.42-.76-.62a3.16,3.16,0,0,0,0-.87,4.84,4.84,0,0,1-.2.72c-.24-.18-.47-.34-.71-.5a3.75,3.75,0,0,0,0-.89,4.83,4.83,0,0,1-.22.74l-.62-.37a3.62,3.62,0,0,0,0-.94,3.8,3.8,0,0,1-.25.81l-.72-.39a5.15,5.15,0,0,0,0-.67,4,4,0,0,1-.16.59c-.26-.13-.53-.25-.8-.36a3.93,3.93,0,0,0,0-.48c0,.14-.07.28-.1.42q-.44-.18-.87-.33a2.11,2.11,0,0,0,0-.35,3,3,0,0,1-.08.32L95.83,14c0-.08,0-.18,0-.27,0,.09,0,.17-.06.25-.41-.11-.82-.22-1.24-.31Zm-.9.72a.63.63,0,0,1,.86.28.66.66,0,0,1-.28.88.63.63,0,0,1-.86-.28.67.67,0,0,1,.28-.88Zm1.58.13a.63.63,0,0,1,.86.3.66.66,0,0,1-.28.88.63.63,0,0,1-.85-.29.68.68,0,0,1,.27-.89ZM93.91,16a.63.63,0,0,1,.85.29.66.66,0,0,1-.27.88.62.62,0,0,1-.86-.29.67.67,0,0,1,.28-.88Z" transform="translate(-1 -1.62)"/></svg>