<svg id="Layer_1" data-name="Layer 1" xmlns="http://www.w3.org/2000/svg" viewBox="0 0 380.85 28.81"><defs><style>.cls-1{fill:#e4002b;}</style></defs><path class="cls-1" d="M14.33,8.29h5.08l6.36,19.13L32.19,8.29h5.08l4.6,27.42h-5L33.88,18.39,28.06,35.71H23.45L17.68,18.39l-3,17.32H9.58Z" transform="translate(-9.58 -7.6)"/><path class="cls-1" d="M54.91,8.29h5.3L70.76,35.71H65.33l-2.14-5.65H52l-2.23,5.65H44.34Zm2.68,7.27L53.91,25h7.34Z" transform="translate(-9.58 -7.6)"/><path class="cls-1" d="M98.19,12.76,94.51,16.4a10.89,10.89,0,0,0-8.14-3.7,9.29,9.29,0,0,0-6.78,2.69,8.79,8.79,0,0,0-2.74,6.53,9.05,9.05,0,0,0,2.84,6.73,9.66,9.66,0,0,0,7,2.76,8.52,8.52,0,0,0,4.56-1.14,8,8,0,0,0,3-3.56H86.31V21.8h13.8l0,1.16a13.43,13.43,0,0,1-1.86,6.82,12.94,12.94,0,0,1-4.83,4.93,13.8,13.8,0,0,1-7,1.69,15.4,15.4,0,0,1-7.61-1.85,13.61,13.61,0,0,1-5.3-5.29,14.7,14.7,0,0,1-2-7.4,13.74,13.74,0,0,1,3.6-9.47A14.17,14.17,0,0,1,86.34,7.6,17,17,0,0,1,93,8.92,15.53,15.53,0,0,1,98.19,12.76Z" transform="translate(-9.58 -7.6)"/><path class="cls-1" d="M104.47,8.29h5.19V35.71h-5.19Z" transform="translate(-9.58 -7.6)"/><path class="cls-1" d="M140.86,13.11l-3.65,3.48a11.31,11.31,0,0,0-8.39-3.94A9.19,9.19,0,0,0,119.51,22a9.81,9.81,0,0,0,1.19,4.87,8.62,8.62,0,0,0,3.37,3.35,10.43,10.43,0,0,0,9,.36,14.92,14.92,0,0,0,4.14-3.09l3.54,3.69A19.49,19.49,0,0,1,135,35.26a15.72,15.72,0,0,1-6.17,1.14,14.23,14.23,0,0,1-10.47-4A14.06,14.06,0,0,1,114.29,22a14.31,14.31,0,0,1,1.85-7.29,13.9,13.9,0,0,1,5.32-5.13,15,15,0,0,1,7.45-1.93,15.79,15.79,0,0,1,12,5.51Z" transform="translate(-9.58 -7.6)"/><path class="cls-1" d="M181.32,13.11l-3.65,3.48a11.29,11.29,0,0,0-8.38-3.94A9.19,9.19,0,0,0,160,22a9.81,9.81,0,0,0,1.19,4.87,8.58,8.58,0,0,0,3.38,3.35,9.85,9.85,0,0,0,4.84,1.21,10,10,0,0,0,4.16-.85,15,15,0,0,0,4.13-3.09l3.54,3.69a19.59,19.59,0,0,1-5.74,4.12,15.75,15.75,0,0,1-6.17,1.14,14.2,14.2,0,0,1-10.47-4A14,14,0,0,1,154.75,22a14.22,14.22,0,0,1,1.86-7.29,13.8,13.8,0,0,1,5.31-5.13,15,15,0,0,1,7.45-1.93,15.75,15.75,0,0,1,11.95,5.51Z" transform="translate(-9.58 -7.6)"/><path class="cls-1" d="M185.17,8.29h5.18V35.71h-5.18Z" transform="translate(-9.58 -7.6)"/><path class="cls-1" d="M193.5,8.29h15.16v5.14h-5V35.71h-5.29V13.43H193.5Z" transform="translate(-9.58 -7.6)"/><path class="cls-1" d="M211,8.29h5.6l5.12,9.86,5.09-9.86h5.54l-8,15.55V35.71H219V23.84Z" transform="translate(-9.58 -7.6)"/><path class="cls-1" d="M272.49,13.11l-3.65,3.48a11.29,11.29,0,0,0-8.38-3.94A9.19,9.19,0,0,0,251.14,22a9.81,9.81,0,0,0,1.19,4.87,8.58,8.58,0,0,0,3.38,3.35,10.41,10.41,0,0,0,9,.36,14.92,14.92,0,0,0,4.14-3.09l3.54,3.69a19.59,19.59,0,0,1-5.74,4.12,15.8,15.8,0,0,1-6.18,1.14,14.19,14.19,0,0,1-10.46-4A14,14,0,0,1,245.92,22a14.22,14.22,0,0,1,1.86-7.29,13.8,13.8,0,0,1,5.31-5.13,15,15,0,0,1,7.45-1.93,15.75,15.75,0,0,1,11.95,5.51Z" transform="translate(-9.58 -7.6)"/><path class="cls-1" d="M284.91,8.29h5.29l10.55,27.42h-5.42l-2.15-5.65H282l-2.23,5.65h-5.43Zm2.68,7.27L283.91,25h7.34Z" transform="translate(-9.58 -7.6)"/><path class="cls-1" d="M318.93,12l-3.87,3.42q-2-2.84-4.15-2.84a2.57,2.57,0,0,0-1.68.55,1.59,1.59,0,0,0-.65,1.24,2.14,2.14,0,0,0,.46,1.31,35.68,35.68,0,0,0,3.83,3.52q3,2.5,3.63,3.15a11,11,0,0,1,2.25,3.07,7.7,7.7,0,0,1,.66,3.2,7.33,7.33,0,0,1-2.33,5.57A8.52,8.52,0,0,1,311,36.4a9,9,0,0,1-5.1-1.43,11.34,11.34,0,0,1-3.73-4.51l4.39-2.65q2,3.63,4.56,3.63a3.36,3.36,0,0,0,2.26-.78,2.31,2.31,0,0,0,.91-1.81,3.11,3.11,0,0,0-.69-1.86,20.25,20.25,0,0,0-3-2.86,30.23,30.23,0,0,1-5.79-5.64,7.08,7.08,0,0,1-1.31-4,6.5,6.5,0,0,1,2.17-4.89,7.55,7.55,0,0,1,5.37-2,8.36,8.36,0,0,1,3.91,1A14.34,14.34,0,0,1,318.93,12Z" transform="translate(-9.58 -7.6)"/><path class="cls-1" d="M324,8.29h5.19V35.71H324Z" transform="translate(-9.58 -7.6)"/><path class="cls-1" d="M335.2,8.29h5l11.73,18v-18h5.23V35.71h-5l-11.72-18v18H335.2Z" transform="translate(-9.58 -7.6)"/><path class="cls-1" d="M376.22,7.6a13.61,13.61,0,0,1,10,4.21,14,14,0,0,1,4.19,10.27,13.86,13.86,0,0,1-4.13,10.17A14.33,14.33,0,0,1,366,32.13,14.12,14.12,0,0,1,361.91,22a14.21,14.21,0,0,1,1.91-7.23,14.35,14.35,0,0,1,12.4-7.16Zm-.05,5.1a8.62,8.62,0,0,0-6.4,2.65,9.23,9.23,0,0,0-2.6,6.73,8.76,8.76,0,0,0,3.27,7.2,8.94,8.94,0,0,0,5.82,2.07,8.5,8.5,0,0,0,6.33-2.68,9.14,9.14,0,0,0,2.61-6.62,9.14,9.14,0,0,0-2.63-6.63A8.58,8.58,0,0,0,376.17,12.7Z" transform="translate(-9.58 -7.6)"/></svg>