<svg id="Layer_1" data-name="Layer 1" xmlns="http://www.w3.org/2000/svg" viewBox="0 0 200 200"><defs><style>.cls-1{fill:#fff;fill-rule:evenodd;}</style></defs><path class="cls-1" d="M125.13,190.55c8.07-32.65.06-79.94-10.09-99.35,9,21.35,6.34,69.64-12.33,101.28l10.62-1.13Z"/><path class="cls-1" d="M106.6,88q-41.94,14.46-28.77,56c.32-2.39.7-4.76,1.18-7a17,17,0,0,1-1.87-3.44,23.45,23.45,0,0,0,2.12,2.11c.35-1.5.68-2.95,1.06-4.43A16.1,16.1,0,0,1,77.83,127a23.87,23.87,0,0,0,2.91,2.78c.41-1.36.81-2.74,1.24-4.07a16.55,16.55,0,0,1-2.65-4.4,22.82,22.82,0,0,0,3.17,3c.55-1.59,1.16-3.13,1.82-4.71a14.65,14.65,0,0,1-2.17-3.78,20,20,0,0,0,2.69,2.59c.56-1.38,1.19-2.7,1.84-4a16.9,16.9,0,0,1-2.19-3.83,19.09,19.09,0,0,0,2.8,2.67c.54-1.08,1.13-2.17,1.71-3.2a17,17,0,0,1-2.32-4.06,16.76,16.76,0,0,0,3,2.86c.71-1.16,1.44-2.37,2.22-3.53a16.88,16.88,0,0,1-1.56-3,26.31,26.31,0,0,0,2.1,2.12c.85-1.22,1.71-2.44,2.63-3.63a14.57,14.57,0,0,1-1-2.13,15.36,15.36,0,0,0,1.46,1.54c.94-1.25,1.94-2.45,2.95-3.62a17,17,0,0,1-.79-1.66,15,15,0,0,0,1.18,1.21c.89-1.08,1.87-2.13,2.87-3.2-.22-.4-.39-.78-.6-1.22.29.31.57.61.9.9,1.44-1.54,3-3,4.58-4.53Zm-1.22-4.19q-43.35-9-52,33.8c1.4-1.94,2.89-3.78,4.42-5.57a14.9,14.9,0,0,1,0-3.94,19.78,19.78,0,0,0,.82,3c1-1.13,2-2.23,3.07-3.33a16.23,16.23,0,0,1-.12-5,19.86,19.86,0,0,0,1.18,3.91c1-1,2-1.94,3-2.88a16.41,16.41,0,0,1-.16-5.16,24.05,24.05,0,0,0,1.3,4.18c1.25-1.08,2.53-2.15,3.82-3.14a18.45,18.45,0,0,1,0-4.41,17.94,17.94,0,0,0,1.07,3.59C73,98,74.17,97.2,75.4,96.39a16.73,16.73,0,0,1,0-4.49,21.9,21.9,0,0,0,1.12,3.76c1-.64,2-1.27,3-1.89a16.53,16.53,0,0,1,0-4.74,20.75,20.75,0,0,0,1.23,4.07c1.19-.65,2.39-1.34,3.61-1.95a21.45,21.45,0,0,1,.11-3.35,16.4,16.4,0,0,0,.84,2.91c1.28-.64,2.61-1.22,4-1.83a22,22,0,0,1,.12-2.34c.17.72.31,1.4.53,2.09,1.42-.59,2.87-1.12,4.31-1.65,0-.6.05-1.19.11-1.83.12.56.25,1.11.4,1.63,1.33-.44,2.69-.89,4.07-1.3.06-.43.06-.88.09-1.35.11.42.2.83.28,1.24,2-.57,4.1-1.1,6.22-1.56Zm-.57-3.25Q66.29,50.92,37,94.68c.82-.7,1.72-1.4,2.57-2.08a16.23,16.23,0,0,1,2.66-4,33.9,33.9,0,0,0-1.45,3.09c2-1.5,3.89-2.92,5.79-4.24a16.8,16.8,0,0,1,2.65-4,22.85,22.85,0,0,0-.88,2.8c1.69-1.14,3.4-2.22,5-3.18A17.71,17.71,0,0,1,56,79.17a20.23,20.23,0,0,0-1.16,3.07c2.43-1.36,4.84-2.59,7.22-3.63a16.45,16.45,0,0,1,2.79-4.33,21.16,21.16,0,0,0-1.12,3.66,58.11,58.11,0,0,1,6-2.15A17.05,17.05,0,0,1,72.21,72a18.31,18.31,0,0,0-1.12,3.4A45.8,45.8,0,0,1,77,74.21a16.77,16.77,0,0,1,2-2.72,17.34,17.34,0,0,0-.9,2.6,38.47,38.47,0,0,1,26.78,6.47Zm-1-3.49Q73.63,38.52,34.67,73.46c1-.46,2-.91,3.06-1.33a15.53,15.53,0,0,1,3.55-3.28,24.27,24.27,0,0,0-2.17,2.66c2.25-1,4.5-1.86,6.65-2.66a16.22,16.22,0,0,1,3.5-3.17,23.76,23.76,0,0,0-1.51,2.46q2.86-1,5.66-1.73a15.35,15.35,0,0,1,3.42-3.13,26.89,26.89,0,0,0-1.9,2.66,76.58,76.58,0,0,1,7.91-1.66,15.1,15.1,0,0,1,3.75-3.48,29.93,29.93,0,0,0-2,3.21c2.23-.25,4.32-.43,6.38-.52a15.27,15.27,0,0,1,3.37-3,19.27,19.27,0,0,0-1.88,3,46.39,46.39,0,0,1,6,.38,19.38,19.38,0,0,1,2.53-2.14c-.53.73-1,1.47-1.49,2.27a39,39,0,0,1,24.4,13.11ZM100.67,70Q65.12,42.82,90.1,7.52c-.45,2.38-.76,4.77-1,7.12a17,17,0,0,0-2.81,2.68A18.34,18.34,0,0,1,89,15.94c-.16,1.53-.29,3.07-.35,4.58A16.91,16.91,0,0,0,85,23.75a18.4,18.4,0,0,1,3.62-1.69c-.07,1.41-.07,2.84,0,4.26a14.69,14.69,0,0,0-3.85,3.36,18.63,18.63,0,0,1,3.89-1.82c0,1.68.13,3.35.3,5a16.21,16.21,0,0,0-3.2,2.9A19.45,19.45,0,0,1,89,34.23c.16,1.43.37,3,.59,4.39a16.41,16.41,0,0,0-3.26,3,22.17,22.17,0,0,1,3.48-1.66c.2,1.24.45,2.41.71,3.61a14.63,14.63,0,0,0-3.43,3.11,14.92,14.92,0,0,1,3.75-1.74c.28,1.37.63,2.7,1,4a14.61,14.61,0,0,0-2.39,2.34,21.73,21.73,0,0,1,2.62-1.36c.45,1.45.94,2.86,1.42,4.32A15.05,15.05,0,0,0,91.9,55.9a19.44,19.44,0,0,1,1.86-1c.52,1.47,1.09,3,1.7,4.39-.4.42-.82.84-1.22,1.33a11.47,11.47,0,0,1,1.41-.81c.59,1.33,1.19,2.69,1.82,4-.32.31-.61.66-.93,1,.36-.21.73-.4,1.08-.62.94,2,2,3.9,3,5.81Zm2.68,3.94Q90.93,26,141.24,14.15c-1,.59-1.89,1.17-2.85,1.73A14.24,14.24,0,0,0,133.76,17a20.84,20.84,0,0,1,3.35-.25c-2.09,1.3-4.08,2.63-6,4a14,14,0,0,0-4.58,1,18.79,18.79,0,0,1,2.81.18c-1.6,1.23-3.17,2.43-4.7,3.68a15.49,15.49,0,0,0-4.47,1,22.15,22.15,0,0,1,3.26,0,74.83,74.83,0,0,0-6,5.56,15.76,15.76,0,0,0-4.94,1.08,21,21,0,0,1,3.7.25,59.72,59.72,0,0,0-4.13,4.94,17.32,17.32,0,0,0-4.4,1,19.53,19.53,0,0,1,3.49.21,58.65,58.65,0,0,0-3.26,5.15,15.78,15.78,0,0,0-3.17.9,16.74,16.74,0,0,1,2.65.1,41.67,41.67,0,0,0-4.06,28.06Zm.75-3q1.94-40.2,43.67-36.46c-.89.16-1.76.37-2.59.57a13.36,13.36,0,0,0-3.87-.37,22.67,22.67,0,0,1,2.65.67c-2,.46-3.8,1-5.6,1.53a12.55,12.55,0,0,0-3.77-.32,13.08,13.08,0,0,1,2.14.87q-2.34.73-4.51,1.62a11.15,11.15,0,0,0-3.71-.34,17,17,0,0,1,2.5.81c-2.09.9-4.11,1.81-6,2.79a11.9,11.9,0,0,0-4.06-.45A20.23,20.23,0,0,1,123.76,43a41.13,41.13,0,0,0-4.36,2.79,11,11,0,0,0-3.63-.33,13.58,13.58,0,0,1,2.64,1,37.59,37.59,0,0,0-3.75,3.15,13.88,13.88,0,0,0-2.69-.11,9.72,9.72,0,0,1,2,.74,33.51,33.51,0,0,0-9.9,20.64Zm8.22-5.71q26.07-23.64,48.22,1.93c-1.73-.7-3.43-1.38-5.13-2a15.23,15.23,0,0,0-1.53-2.68,19.45,19.45,0,0,1,.58,2.37c-1.12-.37-2.22-.7-3.35-1a13.06,13.06,0,0,0-1.78-3.45,18.65,18.65,0,0,1,.65,3.16c-1-.29-2.14-.54-3.16-.76A12.63,12.63,0,0,0,145,59.22a14,14,0,0,1,.67,3.37c-1.24-.25-2.49-.44-3.73-.61a12.57,12.57,0,0,0-1.7-3,12.44,12.44,0,0,1,.64,2.91c-1.1-.12-2.2-.2-3.32-.24a12.19,12.19,0,0,0-1.7-3.07,16.08,16.08,0,0,1,.69,3c-.94,0-1.91,0-2.82,0a13.09,13.09,0,0,0-1.74-3.24,15.33,15.33,0,0,1,.68,3.24c-1.05,0-2.1.08-3.18.17a13.45,13.45,0,0,0-1.34-2.25c.21.76.41,1.52.56,2.33-1.16.08-2.28.21-3.43.38-.29-.5-.61-1.05-1-1.57.13.55.28,1.1.4,1.66-1.18.15-2.4.37-3.55.58-.23-.38-.49-.76-.79-1.17a8.28,8.28,0,0,1,.36,1.28c-1.1.22-2.16.46-3.26.75a9.85,9.85,0,0,0-.56-.88c.07.33.19.63.26,1-1.6.4-3.2.9-4.82,1.42Zm.88,3q43.38-9.11,52.13,33.67-2.19-2.9-4.44-5.51a20.39,20.39,0,0,0-.07-4,23.52,23.52,0,0,1-.83,2.95c-1-1.13-2-2.22-3-3.28a16.66,16.66,0,0,0,.1-5,18.28,18.28,0,0,1-1.18,3.9c-1-.95-2-2-3.05-2.87A15.66,15.66,0,0,0,153,83a21.73,21.73,0,0,1-1.3,4.18c-1.24-1.08-2.52-2.12-3.82-3.12a15.85,15.85,0,0,0,0-4.41,20.14,20.14,0,0,1-1,3.62c-1.19-.87-2.35-1.69-3.56-2.5a18,18,0,0,0,.05-4.48A21.52,21.52,0,0,1,142.18,80c-1-.61-2-1.27-3.12-1.87a16,16,0,0,0,.12-4.73,18.58,18.58,0,0,1-1.27,4.06c-1.18-.65-2.4-1.31-3.6-1.92a24.81,24.81,0,0,0-.12-3.39,24.61,24.61,0,0,1-.78,3c-1.34-.63-2.68-1.27-4.06-1.82a21.4,21.4,0,0,0-.09-2.37c-.14.7-.34,1.41-.51,2.09-1.45-.58-2.89-1.13-4.34-1.64a11.06,11.06,0,0,0-.13-1.78c-.09.53-.24,1.08-.38,1.62-1.35-.48-2.68-.91-4.07-1.31,0-.43,0-.89-.08-1.35-.12.41-.2.84-.3,1.24-2-.58-4.11-1.13-6.25-1.56Zm-4.49,3.6a3.17,3.17,0,0,1,4.3,1.44,3.32,3.32,0,0,1-1.39,4.42,3.14,3.14,0,0,1-4.32-1.42,3.38,3.38,0,0,1,1.41-4.44Zm7.94.7A3.2,3.2,0,0,1,121,74a3.37,3.37,0,0,1-1.41,4.45A3.17,3.17,0,0,1,115.26,77a3.4,3.4,0,0,1,1.39-4.46Zm-6.5,7.13a3.14,3.14,0,0,1,4.29,1.46,3.33,3.33,0,0,1-1.38,4.43,3.17,3.17,0,0,1-4.33-1.45,3.38,3.38,0,0,1,1.42-4.44Z"/></svg>