<svg id="Layer_1" data-name="Layer 1" xmlns="http://www.w3.org/2000/svg" viewBox="0 0 182.73 258.7"><defs><style>.cls-1{fill:#e4002b;fill-rule:evenodd;}</style></defs><path class="cls-1" d="M235.07,326.3c11.29-45.66.09-111.8-14.11-139,12.61,29.86,8.87,97.4-17.24,141.66l14.86-1.59Z" transform="translate(-108.56 -70.3)"/><path class="cls-1" d="M209.16,182.88q-58.66,20.22-40.24,78.33c.44-3.34,1-6.66,1.66-9.86a23.48,23.48,0,0,1-2.62-4.82,30.63,30.63,0,0,0,3,3c.48-2.1.94-4.12,1.49-6.2a22.27,22.27,0,0,1-3.49-5.93,33.91,33.91,0,0,0,4.07,3.88c.57-1.91,1.13-3.84,1.74-5.69a22.81,22.81,0,0,1-3.71-6.16,31.62,31.62,0,0,0,4.43,4.14c.77-2.23,1.62-4.38,2.54-6.58a21.29,21.29,0,0,1-3-5.29,28,28,0,0,0,3.76,3.62c.78-1.93,1.67-3.78,2.58-5.65a22.65,22.65,0,0,1-3.06-5.36,26.59,26.59,0,0,0,3.91,3.74c.76-1.51,1.58-3,2.39-4.48a23.51,23.51,0,0,1-3.24-5.68,23.25,23.25,0,0,0,4.23,4c1-1.62,2-3.31,3.11-4.94a22.45,22.45,0,0,1-2.18-4.15,31.63,31.63,0,0,0,2.94,3c1.18-1.7,2.38-3.4,3.67-5.07a22.36,22.36,0,0,1-1.47-3,23.44,23.44,0,0,0,2,2.16c1.33-1.75,2.72-3.43,4.13-5.06-.42-.74-.74-1.51-1.11-2.33a20.38,20.38,0,0,0,1.66,1.69c1.24-1.5,2.62-3,4-4.48-.3-.56-.55-1.08-.83-1.7.4.43.79.85,1.25,1.26,2-2.15,4.15-4.25,6.41-6.33ZM207.45,177q-60.63-12.63-72.68,47.28c1.95-2.72,4-5.29,6.17-7.79a21.24,21.24,0,0,1,0-5.51,29,29,0,0,0,1.15,4.17c1.41-1.58,2.82-3.12,4.3-4.64a22.79,22.79,0,0,1-.17-7,27.71,27.71,0,0,0,1.65,5.47c1.42-1.34,2.79-2.71,4.26-4a23,23,0,0,1-.23-7.22,33.15,33.15,0,0,0,1.82,5.84c1.74-1.5,3.53-3,5.35-4.39a25.78,25.78,0,0,1-.05-6.17,24.53,24.53,0,0,0,1.5,5c1.63-1.2,3.24-2.34,4.95-3.48a23.81,23.81,0,0,1,0-6.28,31.18,31.18,0,0,0,1.57,5.26c1.41-.89,2.86-1.77,4.27-2.64a23.43,23.43,0,0,1-.08-6.63A29.27,29.27,0,0,0,173,190c1.66-.92,3.34-1.88,5-2.74a30.24,30.24,0,0,1,.16-4.68,22.06,22.06,0,0,0,1.18,4.07c1.79-.89,3.64-1.7,5.56-2.56a32.13,32.13,0,0,1,.16-3.27c.24,1,.45,2,.75,2.92,2-.82,4-1.57,6-2.31,0-.83.07-1.66.15-2.56.17.79.35,1.56.57,2.29,1.85-.62,3.75-1.25,5.68-1.82.09-.6.09-1.23.13-1.89.16.59.28,1.16.4,1.74,2.86-.8,5.73-1.55,8.69-2.19Zm-.79-4.54q-53.9-41.46-94.88,19.75c1.15-1,2.4-2,3.59-2.91a22.54,22.54,0,0,1,3.74-5.65,43.58,43.58,0,0,0-2,4.32c2.74-2.1,5.44-4.09,8.1-5.93a23.47,23.47,0,0,1,3.71-5.57,31.16,31.16,0,0,0-1.23,3.92c2.36-1.6,4.74-3.11,7-4.45a24.71,24.71,0,0,1,3.63-5.43,28.11,28.11,0,0,0-1.63,4.3,112.3,112.3,0,0,1,10.1-5.08,23.19,23.19,0,0,1,3.91-6.06,30.46,30.46,0,0,0-1.58,5.12,83.47,83.47,0,0,1,8.36-3,24,24,0,0,1,3.57-5.29,27.06,27.06,0,0,0-1.56,4.76,64.21,64.21,0,0,1,8.22-1.69,23.77,23.77,0,0,1,2.75-3.8,23.22,23.22,0,0,0-1.26,3.63,53.85,53.85,0,0,1,37.46,9.06Zm-1.39-4.89q-42.24-53.91-96.71-5c1.45-.65,2.86-1.28,4.28-1.87a21.84,21.84,0,0,1,5-4.58,36.37,36.37,0,0,0-3,3.71c3.14-1.38,6.29-2.6,9.3-3.71a22.62,22.62,0,0,1,4.89-4.44,31.16,31.16,0,0,0-2.11,3.45c2.67-.92,5.32-1.73,7.92-2.42a21,21,0,0,1,4.78-4.37,35.86,35.86,0,0,0-2.67,3.72A104.88,104.88,0,0,1,148,149.7a21.23,21.23,0,0,1,5.25-4.87,40.68,40.68,0,0,0-2.85,4.49c3.11-.36,6-.6,8.92-.72a21.42,21.42,0,0,1,4.71-4.25,27.39,27.39,0,0,0-2.62,4.18,66.88,66.88,0,0,1,8.33.53,27.31,27.31,0,0,1,3.54-3c-.74,1-1.41,2.05-2.09,3.18a54.55,54.55,0,0,1,34.13,18.33Zm-4.41-9.92q-49.73-38-14.78-87.36c-.62,3.34-1.07,6.68-1.41,10A24.52,24.52,0,0,0,180.74,84a25,25,0,0,1,3.74-1.93c-.22,2.14-.4,4.29-.48,6.4A23.27,23.27,0,0,0,178.92,93,24.62,24.62,0,0,1,184,90.65c-.1,2-.1,4,0,5.95a20.38,20.38,0,0,0-5.39,4.7A26.19,26.19,0,0,1,184,98.76c.06,2.35.18,4.68.43,7a22.72,22.72,0,0,0-4.48,4.07,27,27,0,0,1,4.61-2.2c.23,2,.51,4.13.83,6.15a23.26,23.26,0,0,0-4.56,4.12,31,31,0,0,1,4.87-2.32c.27,1.73.62,3.37,1,5.06a20.32,20.32,0,0,0-4.8,4.34,21.31,21.31,0,0,1,5.25-2.44c.4,1.92.89,3.78,1.45,5.67a19.89,19.89,0,0,0-3.35,3.28,27.78,27.78,0,0,1,3.67-1.9c.62,2,1.31,4,2,6A22.68,22.68,0,0,0,188.6,138a25.8,25.8,0,0,1,2.6-1.39c.73,2.06,1.53,4.12,2.38,6.14-.56.58-1.15,1.18-1.72,1.86a18.47,18.47,0,0,1,2-1.14c.83,1.87,1.67,3.76,2.54,5.56-.44.44-.85.92-1.29,1.39.5-.28,1-.56,1.51-.86,1.32,2.73,2.76,5.45,4.26,8.13Zm3.75,5.51q-17.36-67,53-83.58c-1.35.82-2.64,1.63-4,2.42a19.89,19.89,0,0,0-6.48,1.48,30.23,30.23,0,0,1,4.69-.34c-2.93,1.82-5.71,3.68-8.38,5.56A19.79,19.79,0,0,0,237,90.17a27.94,27.94,0,0,1,3.93.25c-2.23,1.72-4.43,3.4-6.57,5.16A20.93,20.93,0,0,0,228.15,97a28.9,28.9,0,0,1,4.56,0,104.83,104.83,0,0,0-8.35,7.77,22.14,22.14,0,0,0-6.91,1.51,28.81,28.81,0,0,1,5.18.36,82.23,82.23,0,0,0-5.78,6.9A24.19,24.19,0,0,0,210.7,115a27.53,27.53,0,0,1,4.87.3c-1.67,2.37-3.22,4.82-4.56,7.2a23.07,23.07,0,0,0-4.43,1.26,24.14,24.14,0,0,1,3.71.14,58.31,58.31,0,0,0-5.68,39.25Zm1-4.23q2.72-56.2,61.08-51c-1.25.22-2.46.51-3.63.79a18.58,18.58,0,0,0-5.4-.51,31.34,31.34,0,0,1,3.71.93c-2.74.64-5.32,1.39-7.84,2.15a17.68,17.68,0,0,0-5.27-.46,18.64,18.64,0,0,1,3,1.22q-3.27,1-6.31,2.26a15.78,15.78,0,0,0-5.19-.46,23.8,23.8,0,0,1,3.49,1.13c-2.92,1.25-5.74,2.53-8.32,3.91a16.25,16.25,0,0,0-5.69-.64,28.26,28.26,0,0,1,3.88,1.61,57.81,57.81,0,0,0-6.1,3.9,15.44,15.44,0,0,0-5.08-.46,18.81,18.81,0,0,1,3.69,1.47,50.43,50.43,0,0,0-5.24,4.41,18.44,18.44,0,0,0-3.77-.17,14.91,14.91,0,0,1,2.84,1,46.92,46.92,0,0,0-13.84,28.87Zm11.5-8q36.45-33.08,67.44,2.7c-2.42-1-4.8-1.93-7.17-2.77a22.16,22.16,0,0,0-2.14-3.75,25.4,25.4,0,0,1,.8,3.32c-1.57-.52-3.1-1-4.67-1.4a18.39,18.39,0,0,0-2.5-4.82,25.5,25.5,0,0,1,.91,4.42c-1.45-.4-3-.75-4.42-1a17.31,17.31,0,0,0-2.62-5,19.11,19.11,0,0,1,.94,4.71c-1.73-.34-3.48-.61-5.21-.84a17.35,17.35,0,0,0-2.38-4.23,17.57,17.57,0,0,1,.9,4.07c-1.55-.18-3.08-.28-4.65-.35a17,17,0,0,0-2.38-4.29,24.7,24.7,0,0,1,1,4.18c-1.32-.06-2.67-.06-3.94-.06a18.41,18.41,0,0,0-2.44-4.53,21.76,21.76,0,0,1,1,4.53c-1.47.06-2.94.11-4.45.24a18.16,18.16,0,0,0-1.88-3.15c.3,1.06.58,2.13.79,3.25-1.62.12-3.19.3-4.8.53-.4-.7-.85-1.45-1.33-2.18.18.76.4,1.53.56,2.31-1.65.22-3.35.52-5,.82-.32-.54-.68-1.07-1.1-1.65a13.66,13.66,0,0,1,.5,1.81c-1.53.29-3,.64-4.56,1a13.83,13.83,0,0,0-.78-1.22c.1.45.26.87.36,1.35-2.24.57-4.48,1.27-6.74,2Zm1.23,4.22q60.67-12.75,72.9,47.1-3-4.07-6.2-7.72A26.52,26.52,0,0,0,285,189a30.56,30.56,0,0,1-1.15,4.13c-1.38-1.58-2.81-3.11-4.25-4.59a23.51,23.51,0,0,0,.14-7,26,26,0,0,1-1.65,5.46c-1.41-1.33-2.82-2.75-4.27-4a22,22,0,0,0,.2-7.23,30,30,0,0,1-1.82,5.83c-1.73-1.51-3.53-3-5.34-4.36a21.86,21.86,0,0,0,0-6.16,28.31,28.31,0,0,1-1.45,5.06c-1.66-1.22-3.28-2.37-5-3.5a25,25,0,0,0,.08-6.27,30.78,30.78,0,0,1-1.57,5.24c-1.39-.86-2.82-1.78-4.36-2.62a22.15,22.15,0,0,0,.17-6.62A27.16,27.16,0,0,1,253,168.1c-1.65-.91-3.35-1.83-5-2.69a35.34,35.34,0,0,0-.16-4.74,35.8,35.8,0,0,1-1.09,4.13c-1.88-.89-3.75-1.77-5.69-2.55a31.35,31.35,0,0,0-.12-3.31c-.2,1-.48,2-.72,2.93-2-.81-4-1.59-6.07-2.3a15.37,15.37,0,0,0-.18-2.49c-.12.74-.33,1.52-.52,2.26-1.9-.66-3.76-1.26-5.69-1.82,0-.61-.08-1.25-.12-1.89-.16.57-.28,1.17-.42,1.73-2.87-.8-5.75-1.58-8.74-2.18Zm-6.28,5a4.42,4.42,0,0,1,6,2,4.62,4.62,0,0,1-1.94,6.17,4.4,4.4,0,0,1-6.05-2,4.74,4.74,0,0,1,2-6.21Zm11.1,1a4.48,4.48,0,0,1,6.07,2.05,4.72,4.72,0,0,1-2,6.22,4.44,4.44,0,0,1-6-2,4.77,4.77,0,0,1,1.94-6.24Zm-9.09,10a4.4,4.4,0,0,1,6,2,4.68,4.68,0,0,1-1.93,6.2,4.45,4.45,0,0,1-6.06-2,4.71,4.71,0,0,1,2-6.21Z" transform="translate(-108.56 -70.3)"/></svg>