<svg id="Layer_1" data-name="Layer 1" xmlns="http://www.w3.org/2000/svg" viewBox="0 0 390.92 195.82"><defs><style>.cls-1{fill:#fff;}</style></defs><path d="M395.46,257.17a23.19,23.19,0,0,1-23.19,23.19H152.54a23.18,23.18,0,0,1-23.18-23.19h0A23.18,23.18,0,0,1,152.54,234H372.27a23.18,23.18,0,0,1,23.19,23.18Z" transform="translate(-4.54 -102.09)"/><path class="cls-1" d="M88.21,157.81a21.2,21.2,0,0,1-2.78,9.76,34.9,34.9,0,0,1-8,9.86A43.22,43.22,0,0,1,64.83,185a45.58,45.58,0,0,1-16.94,3A22.66,22.66,0,0,1,40,186.65c-.35-.24-.53-.47-.53-.71a.63.63,0,0,1,.71-.72,17,17,0,0,0,3.32.72,30.93,30.93,0,0,0,4.56.35,29.86,29.86,0,0,0,12.64-2.68,33.84,33.84,0,0,0,10-7A33.39,33.39,0,0,0,77.37,167a26.09,26.09,0,0,0,2.42-10.76q0-7.51-4.57-10.21a21.5,21.5,0,0,0-11-2.68,33.12,33.12,0,0,0-8.06.9,6,6,0,0,0-3.59,3q-3.4,5.73-8.15,13.7t-9.58,16.49Q30,185.94,25.5,194T18,208a15.41,15.41,0,0,0-2,6.45,4.81,4.81,0,0,0,2.86,4.75c1.91.9,4.78,1.34,8.6,1.34,1.31,0,2,.18,2,.54s-.3.6-.89.72c-2.15.36-4.57.65-7.26.89s-5.34.36-8,.36a21.13,21.13,0,0,1-2.24-.18,17.09,17.09,0,0,1-3-.62A8.33,8.33,0,0,1,5.61,221a2.65,2.65,0,0,1-1.07-2.24,9.14,9.14,0,0,1,.9-3.22A130.45,130.45,0,0,1,12.06,203q4.13-7,7.89-13.26,4.47-7.53,9.67-16.75t9.14-16.58a16.29,16.29,0,0,0,1.07-2.06c.48-1,1-2.06,1.44-3.13s.89-2.09,1.25-3.05a6.88,6.88,0,0,0,.54-2c0-.47-.3-.71-.9-.71q-5.73.18-11.19.89a85.78,85.78,0,0,1-11.2.72c-2.27,0-3.4-.66-3.4-2a7.43,7.43,0,0,1,.62-1.88q.63-1.53,1.17-1.53c.23,0,.41.25.53.72s.84,1,2.15,1.25a21.54,21.54,0,0,0,3.94.45c1.55.06,3,.1,4.48.1,3.59,0,7.23-.13,10.93-.36s7.19-.54,10.48-.9,6.21-.66,8.78-.9,4.57-.36,6-.36a46.13,46.13,0,0,1,8,.72,23,23,0,0,1,7.35,2.6,15.6,15.6,0,0,1,5.38,5A13.93,13.93,0,0,1,88.21,157.81Z" transform="translate(-4.54 -102.09)"/><path class="cls-1" d="M159.33,105.31a21.72,21.72,0,0,1-2,7.35,93.88,93.88,0,0,1-5.64,11.2,155.19,155.19,0,0,1-9,13.61,154.33,154.33,0,0,1-12,14.43A149.61,149.61,0,0,1,116,165.6a115.44,115.44,0,0,1-17.2,11.56q-1.62,2.86-4.48,7.7t-5.64,10.21a115.13,115.13,0,0,0-4.84,10.57,24.61,24.61,0,0,0-2.06,8.78q0,5.75,5.19,5.74a20.17,20.17,0,0,0,9.32-2.52,52.63,52.63,0,0,0,9.22-6.08,90.57,90.57,0,0,0,8.25-7.62q3.84-4,6.53-7.25,1.26-1.26,1.44-.63a1.37,1.37,0,0,1-.54,1.34q-3.23,3.94-7.61,8.42a86.24,86.24,0,0,1-9.32,8.24,56.58,56.58,0,0,1-10.3,6.28,25.25,25.25,0,0,1-10.75,2.5c-3.11,0-5.35-.74-6.72-2.24a7.78,7.78,0,0,1-2.06-5.46q0-3.22,2.78-9.23t6.54-12.63q3.76-6.63,7.52-12.54t5.55-9c2-3.46,4.15-7.07,6.37-10.84s4.39-7.43,6.54-11,4.21-7,6.18-10.31,3.78-6.18,5.46-8.69q3-4.65,6.27-8.77a53.83,53.83,0,0,1,8.24-8.25,73.78,73.78,0,0,1,12.54-8.77c3.83-2,6.39-3,7.71-3a3.36,3.36,0,0,1,2.33.81A3.1,3.1,0,0,1,159.33,105.31ZM151.27,110c0-1.91-.78-2.86-2.33-2.86a4.55,4.55,0,0,0-2,.53,12.34,12.34,0,0,0-2.78,2.24,59,59,0,0,0-4.12,4.75q-2.41,3-6.18,7.88c-.95,1.32-2.3,3.23-4,5.74s-3.94,5.82-6.63,9.94-5.91,9.2-9.67,15.23-8.22,13.17-13.35,21.41a108.76,108.76,0,0,0,20.16-14.78,130.78,130.78,0,0,0,16.21-17.83,99.41,99.41,0,0,0,10.75-17.74Q151.28,115.89,151.27,110Z" transform="translate(-4.54 -102.09)"/><path class="cls-1" d="M174.27,197.58q-4.11,5-9,10.12a117.06,117.06,0,0,1-9.95,9.23,55.07,55.07,0,0,1-9.94,6.63,20.19,20.19,0,0,1-9.05,2.51c-2.38,0-4.06-.6-5-1.79a6.93,6.93,0,0,1-1.43-4.48,21,21,0,0,1,1.52-6.72,48,48,0,0,1,4.56-9.05q-2.33,3-5.37,6.45a67.44,67.44,0,0,1-6.27,6.18,42.73,42.73,0,0,1-6.45,4.66,11.75,11.75,0,0,1-5.73,1.88q-3.77,0-3.76-3.76,0-4.12,3.22-10.39a53.52,53.52,0,0,1,8.69-12.1,58.11,58.11,0,0,1,12.45-10,27.79,27.79,0,0,1,14.51-4.21,10.57,10.57,0,0,1,1.61-2.51,5.83,5.83,0,0,1,1.44-1.07l5-1.44.36.18a12.26,12.26,0,0,0-1.7,2.24c-.54.9-1.11,1.83-1.7,2.78.59,0,1.49.06,2.69.18s2.09.24,2.68.36.9.53.9.9a.47.47,0,0,1-.54.53,14.27,14.27,0,0,0-3.22-.53c-1.44-.12-2.51-.18-3.23-.18q-8.24,14.5-12.09,23t-3.85,12.63a4.37,4.37,0,0,0,.8,2.68c.54.72,1.65,1.08,3.32,1.08a15.31,15.31,0,0,0,6.81-2.06,50.4,50.4,0,0,0,8.42-5.73,118.16,118.16,0,0,0,9.22-8.51,134.17,134.17,0,0,0,9-10.22c.24-.35.48-.44.72-.26A.94.94,0,0,1,174.27,197.58Zm-28-13.62a18.8,18.8,0,0,0-11.64,4.3,51.18,51.18,0,0,0-9.85,10.13,63.75,63.75,0,0,0-6.9,11.55c-1.73,3.83-2.6,6.63-2.6,8.42q0,1.44,1.08,1.44a7.35,7.35,0,0,0,3.31-1.44,48.36,48.36,0,0,0,5.11-3.85,64.53,64.53,0,0,0,5.82-5.64,57.34,57.34,0,0,0,5.46-7q2.88-4.31,5.56-9.14t4.84-8.59Z" transform="translate(-4.54 -102.09)"/><path class="cls-1" d="M166.39,220.16a6.4,6.4,0,0,1-3.94-1.08,3.77,3.77,0,0,1-1.43-3.23q0-3.57,4.39-10.65t10.66-16.76a16.77,16.77,0,0,1,1.16-1.34,8.61,8.61,0,0,1,1-.81l2.42-.45a17.94,17.94,0,0,1,1.88-.26q.72,0,.72.54-6.45,11.28-10.84,18.36t-4.39,11c0,1.43.66,2.14,2,2.14a6.89,6.89,0,0,0,2.33-.53,22.72,22.72,0,0,0,3-1.43c1.07-.6,2.09-1.23,3-1.89a9.49,9.49,0,0,0,2.15-1.88q1.62-1.6,4.75-7.61t7.62-14.06a70.65,70.65,0,0,1,4-6.63c1.25-1.79,2.3-2.69,3.13-2.69a3.46,3.46,0,0,1,1.35,1.79,7.24,7.24,0,0,1,.62,2.87,9.61,9.61,0,0,1-1.61,3.31c-1.07,1.73-2.45,3.77-4.12,6.09s-3.49,4.81-5.46,7.44-3.86,5.08-5.65,7.34q-6.45,9.86-13,20.34t-13.16,20.24q-6.63,9.77-13.62,18.45A117.28,117.28,0,0,1,131,283.94a67.62,67.62,0,0,1-15.41,10.21,38.74,38.74,0,0,1-16.75,3.76,17.61,17.61,0,0,1-9.32-2.51q-4.11-2.5-4.12-8.78a16.86,16.86,0,0,1,.27-2.95,12.38,12.38,0,0,1,.63-2.42,1.16,1.16,0,0,1,.54-.72c.24-.12.35.06.35.54a12.74,12.74,0,0,0,3.59,8.78q3.58,3.93,12.72,3.94a32.15,32.15,0,0,0,14.6-3.67,67.78,67.78,0,0,0,14.15-9.77,113,113,0,0,0,13.35-14.15q6.45-8.07,12.45-16.84t11.38-17.65q5.37-8.86,9.85-16.75c.24-.48.24-.65,0-.54a2.09,2.09,0,0,0-.54.36,36.39,36.39,0,0,1-5.37,3.49A14.24,14.24,0,0,1,166.39,220.16Z" transform="translate(-4.54 -102.09)"/><path class="cls-1" d="M249.52,200.81a85.59,85.59,0,0,1-7.26,7.79,67.14,67.14,0,0,1-9.13,7.34,51.82,51.82,0,0,1-10.21,5.38,28.82,28.82,0,0,1-10.49,2.06q-8.42,0-8.42-7.53a26.76,26.76,0,0,1,2.6-10.83,45.51,45.51,0,0,1,6.72-10.75,43.5,43.5,0,0,1,9-8.25,17,17,0,0,1,9.4-3.31,5.24,5.24,0,0,1,3.5.9,3,3,0,0,1,1,2.33,10.06,10.06,0,0,1-1.34,4.66,16.34,16.34,0,0,1-4,4.74,22.91,22.91,0,0,1-6.81,3.77,28.6,28.6,0,0,1-9.85,1.52,27.64,27.64,0,0,0-2,5.1,23.85,23.85,0,0,0-1.08,7.08q0,7.35,6.63,7.35a20.64,20.64,0,0,0,8.51-2,48.81,48.81,0,0,0,8.51-4.92,60.83,60.83,0,0,0,7.61-6.45,68,68,0,0,0,5.83-6.54.68.68,0,0,1,.8-.18A.7.7,0,0,1,249.52,200.81Zm-18.81-14a2.06,2.06,0,0,0-2.33-2.33,6.34,6.34,0,0,0-3.67,1.34,19.89,19.89,0,0,0-3.67,3.5,46.62,46.62,0,0,0-3.41,4.66,40.47,40.47,0,0,0-2.69,4.84,4,4,0,0,0,1.26.27c.59,0,1.07.08,1.43.08a13,13,0,0,0,9.14-3.67A11.52,11.52,0,0,0,230.71,186.83Z" transform="translate(-4.54 -102.09)"/><path class="cls-1" d="M280.87,185.58a28.7,28.7,0,0,0-2.23,3,17,17,0,0,0-1.53,2.69.71.71,0,0,1-.72.54c-.12,0-.29-.18-.53-.54a7.4,7.4,0,0,0-1-1.16,6.47,6.47,0,0,0-1.7-1.17,6.94,6.94,0,0,0-3.05-.54,10.75,10.75,0,0,0-5.19,1.62,26.47,26.47,0,0,0-5,3.58,39.4,39.4,0,0,0-6,6.27q-2.59,3.41-4.93,7.08t-4.48,7.52q-2.15,3.86-4.65,7.8c-.12.35-.48.53-1.08.53-.24,0-.75-.36-1.52-1.07s-1.17-1.26-1.17-1.61a7.41,7.41,0,0,1,1.26-3.23q2.86-5,5.82-10.12l5.55-9.59q2.61-4.47,4.57-7.79A51.79,51.79,0,0,0,256,184.5c.6-1.07,1-1.61,1.26-1.61a5.71,5.71,0,0,1,1.78.89,2.82,2.82,0,0,1,1.44,2.51,4.87,4.87,0,0,1-.63,1.8c-.42.83-.9,1.7-1.43,2.59s-1.05,1.77-1.53,2.6-.83,1.43-1.07,1.79q-.54.9-.18.9a1.47,1.47,0,0,0,.9-.54c1.19-1.19,2.65-2.51,4.39-3.94a61,61,0,0,1,5.46-4,40,40,0,0,1,5.64-3.13,12.19,12.19,0,0,1,4.93-1.26,4.75,4.75,0,0,1,2.78.81A2.18,2.18,0,0,1,280.87,185.58Z" transform="translate(-4.54 -102.09)"/><path class="cls-1" d="M300,189.34c-.36.6-.66.66-.89.18q-1.08-2.33-4.48-2.33a10.07,10.07,0,0,0-5,1.43,4.66,4.66,0,0,0-2.51,4.3,5.36,5.36,0,0,0,.9,2.87q.88,1.44,2.51,3.76c.95,1.43,1.85,2.87,2.68,4.3a8.76,8.76,0,0,1,1.26,4.48,12.61,12.61,0,0,1-2.15,7.61,17.58,17.58,0,0,1-5.11,4.75,18.83,18.83,0,0,1-6,2.42,25.36,25.36,0,0,1-4.84.63q-10.92,0-12-7.35c.6-.35,1.28-.81,2.06-1.34a7.53,7.53,0,0,0,1.7-1.52c.24,0,.42.24.54.71a11.7,11.7,0,0,0,3.4,5.56,8.43,8.43,0,0,0,5.92,2.33,27.49,27.49,0,0,0,3.4-.27,9.89,9.89,0,0,0,3.67-1.26,9.25,9.25,0,0,0,3-2.77,8.36,8.36,0,0,0,1.25-4.84,10.37,10.37,0,0,0-.89-4.3,26.26,26.26,0,0,0-2-3.58l-2.16-3.59a7.57,7.57,0,0,1-1.07-3.94,9.18,9.18,0,0,1,1.52-4.66,20,20,0,0,1,3.85-4.57,25.51,25.51,0,0,1,5.11-3.49,11.91,11.91,0,0,1,5.47-1.43c1.9,0,2.86.59,2.86,1.79a21.61,21.61,0,0,0-1.07,2.06C300.58,188.06,300.28,188.74,300,189.34Z" transform="translate(-4.54 -102.09)"/><path class="cls-1" d="M168.09,234.25s-17.48,25.12-30.3,40.75l1.58,1s20.88-25.95,30.23-41.82" transform="translate(-4.54 -102.09)"/><path class="cls-1" d="M202.81,247.32l-2.62,2a14.36,14.36,0,0,0-5.23-4.27,15.39,15.39,0,0,0-6.7-1.45,14.82,14.82,0,0,0-7.37,1.93,13.7,13.7,0,0,0-5.25,5.16,14.16,14.16,0,0,0-1.85,7.26,13.61,13.61,0,0,0,4.2,10.15,14.48,14.48,0,0,0,10.55,4.05,14.79,14.79,0,0,0,11.69-5.51l2.63,2a16.71,16.71,0,0,1-6.2,4.92,19.54,19.54,0,0,1-8.32,1.75q-8.73,0-13.8-5.78a17.56,17.56,0,0,1-4.26-11.86,16.48,16.48,0,0,1,5.09-12.32,17.7,17.7,0,0,1,12.84-5,18.89,18.89,0,0,1,8.43,1.82A16.47,16.47,0,0,1,202.81,247.32Z" transform="translate(-4.54 -102.09)"/><path class="cls-1" d="M237.3,241.05h3.32l.08,30.1,12.81,0v3.22l-16.14,0Z" transform="translate(-4.54 -102.09)"/><path class="cls-1" d="M286.65,240.93H290L290,261a37.76,37.76,0,0,0,.15,4.46,7.24,7.24,0,0,0,1.16,3.29,6.71,6.71,0,0,0,2.79,2.21,8.79,8.79,0,0,0,3.78.89,7.45,7.45,0,0,0,3.17-.72,7,7,0,0,0,2.53-2,8,8,0,0,0,1.49-3,25.17,25.17,0,0,0,.32-5.21l-.05-20.11h3.33l.05,20.11a24.26,24.26,0,0,1-.85,7.21,9.75,9.75,0,0,1-3.48,4.8A9.94,9.94,0,0,1,298.1,275a12.07,12.07,0,0,1-6.91-1.9,9.27,9.27,0,0,1-3.86-5.09,27,27,0,0,1-.63-7Z" transform="translate(-4.54 -102.09)"/><path class="cls-1" d="M344.81,240.78h6.57a15.57,15.57,0,0,1,6.09.92,7.45,7.45,0,0,1,3.37,2.88,8.14,8.14,0,0,1,.18,8.37,8.08,8.08,0,0,1-3.18,3,12.24,12.24,0,0,1,4,2.06,8.33,8.33,0,0,1,2.18,2.87,8.58,8.58,0,0,1,.79,3.65,9,9,0,0,1-2.92,6.79,11,11,0,0,1-7.86,2.8l-9.14,0Zm3.27,3.25,0,10.67H350a15.08,15.08,0,0,0,5.11-.66,5.47,5.47,0,0,0,2.58-2,5.39,5.39,0,0,0,.95-3.09,4.44,4.44,0,0,0-1.61-3.59q-1.6-1.29-5.1-1.28Zm0,14,0,12.77h4.13a14.88,14.88,0,0,0,5.35-.73,6,6,0,0,0,2.72-2.23,5.82,5.82,0,0,0-.43-7.16,7.42,7.42,0,0,0-4-2.25,28.85,28.85,0,0,0-5.92-.39Z" transform="translate(-4.54 -102.09)"/></svg>