<svg id="Layer_1" data-name="Layer 1" xmlns="http://www.w3.org/2000/svg" viewBox="0 0 200 200"><defs><style>.cls-1{fill:#e4002b;}</style></defs><path class="cls-1" d="M189.66,142.39a2,2,0,0,0,2-2V39.49a2,2,0,0,0-2-2H138V24a2,2,0,0,0-2-2H113.34v-.25a13.34,13.34,0,0,0-26.68,0V22H64a2,2,0,0,0-2,2V37.48H10.34a2,2,0,0,0-2,2V140.37a2,2,0,0,0,2,2H24.23v29.68H10.34a2,2,0,0,0-2,2v15.48a2,2,0,0,0,2,2H189.66a2,2,0,0,0,2-2V174.09a2,2,0,0,0-2-2H175.77V142.39Zm-2,45.16H12.36V176.11H187.64ZM28.26,172.07V142.51H171.74v29.56ZM90.7,21.75a9.3,9.3,0,0,1,18.6,0V22H90.7ZM66,26h68V37.48H66ZM12.36,41.51H187.64v96.84H12.36Z"/><path class="cls-1" d="M178.39,48.75H21.61a2,2,0,0,0-2,2v78.32a2,2,0,0,0,2,2H178.39a2,2,0,0,0,2-2V50.77A2,2,0,0,0,178.39,48.75Zm-2,78.33H23.63V52.79H176.37Z"/><path class="cls-1" d="M40.89,83.37c3.35,0,4.23,2.11,4.23,2.11s-7,5.94-7,13.6v9.39h16V99.08c0-9.67,11.69-24.14,11.69-24.14l-4.7-3.55a8.78,8.78,0,0,1-6,2.68c-3.64,0-5.46-2.68-11.31-2.68s-8.53,2.68-8.53,2.68v-2.3h-6v16h5.46A6.51,6.51,0,0,1,40.89,83.37Z"/><path class="cls-1" d="M146.43,83.37c3.35,0,4.23,2.11,4.23,2.11s-7,5.94-7,13.6v9.39h16V99.08c0-9.67,11.69-24.14,11.69-24.14l-4.7-3.55a8.78,8.78,0,0,1-6,2.68c-3.65,0-5.47-2.68-11.31-2.68s-8.53,2.68-8.53,2.68v-2.3h-6v16h5.47A6.51,6.51,0,0,1,146.43,83.37Z"/><path class="cls-1" d="M92.79,83.37c3.35,0,4.23,2.11,4.23,2.11s-7,5.94-7,13.6v9.39h16V99.08c0-9.67,11.69-24.14,11.69-24.14L113,71.39a8.78,8.78,0,0,1-6,2.68c-3.64,0-5.46-2.68-11.31-2.68s-8.53,2.68-8.53,2.68v-2.3h-6v16h5.46A6.51,6.51,0,0,1,92.79,83.37Z"/><path class="cls-1" d="M72.5,121.91a2,2,0,0,0,2-2V60a2,2,0,1,0-4,0v59.91A2,2,0,0,0,72.5,121.91Z"/><path class="cls-1" d="M126.54,121.91a2,2,0,0,0,2-2V60a2,2,0,1,0-4,0v59.91A2,2,0,0,0,126.54,121.91Z"/></svg>