<svg id="Layer_1" data-name="Layer 1" xmlns="http://www.w3.org/2000/svg" viewBox="0 0 194 193.8"><defs><style>.cls-1{fill:#fff;}</style></defs><path class="cls-1" d="M194.87,144.85a2.14,2.14,0,0,0,2.13-2.14V36a2.13,2.13,0,0,0-2.13-2.13H140.23V19.61a2.14,2.14,0,0,0-2.14-2.14h-24v-.26a14.11,14.11,0,0,0-28.22,0v.26h-24a2.14,2.14,0,0,0-2.14,2.14V33.85H5.13A2.13,2.13,0,0,0,3,36V142.71a2.14,2.14,0,0,0,2.13,2.14h14.7v31.4H5.13A2.14,2.14,0,0,0,3,178.39v16.38a2.14,2.14,0,0,0,2.13,2.13H194.87a2.14,2.14,0,0,0,2.13-2.13V178.39a2.14,2.14,0,0,0-2.13-2.14h-14.7v-31.4Zm-2.14,47.78H7.27V180.52H192.73ZM24.1,176.25V145H175.9v31.27Zm66.06-159a9.84,9.84,0,0,1,19.68,0v.26H90.16ZM64,21.74H136V33.85H64ZM7.27,38.12H192.73V140.58H7.27Z" transform="translate(-3 -3.1)"/><path class="cls-1" d="M182.94,45.78H17.06a2.13,2.13,0,0,0-2.13,2.13v82.87a2.13,2.13,0,0,0,2.13,2.14H182.94a2.13,2.13,0,0,0,2.13-2.14V47.91A2.13,2.13,0,0,0,182.94,45.78Zm-2.14,82.87H19.2V50.05H180.8Z" transform="translate(-3 -3.1)"/><path class="cls-1" d="M37.46,82.4c3.55,0,4.48,2.23,4.48,2.23s-7.4,6.29-7.4,14.4V109H51.47V99c0-10.24,12.36-25.55,12.36-25.55l-5-3.75a9.33,9.33,0,0,1-6.39,2.84c-3.85,0-5.78-2.84-12-2.84s-9,2.84-9,2.84V70.14H25.11V87.07h5.78A6.89,6.89,0,0,1,37.46,82.4Z" transform="translate(-3 -3.1)"/><path class="cls-1" d="M149.12,82.4c3.55,0,4.48,2.23,4.48,2.23s-7.4,6.29-7.4,14.4V109h16.93V99c0-10.24,12.37-25.55,12.37-25.55l-5-3.75a9.3,9.3,0,0,1-6.39,2.84c-3.85,0-5.77-2.84-12-2.84s-9,2.84-9,2.84V70.14h-6.39V87.07h5.78A6.89,6.89,0,0,1,149.12,82.4Z" transform="translate(-3 -3.1)"/><path class="cls-1" d="M92.37,82.4c3.55,0,4.48,2.23,4.48,2.23s-7.4,6.29-7.4,14.4V109h16.93V99c0-10.24,12.37-25.55,12.37-25.55l-5-3.75a9.33,9.33,0,0,1-6.39,2.84c-3.85,0-5.78-2.84-12-2.84s-9,2.84-9,2.84V70.14H80V87.07H85.8A6.89,6.89,0,0,1,92.37,82.4Z" transform="translate(-3 -3.1)"/><path class="cls-1" d="M70.9,123.18A2.14,2.14,0,0,0,73,121V57.65a2.14,2.14,0,0,0-4.27,0V121A2.13,2.13,0,0,0,70.9,123.18Z" transform="translate(-3 -3.1)"/><path class="cls-1" d="M128.08,123.18a2.14,2.14,0,0,0,2.14-2.14V57.65a2.14,2.14,0,0,0-4.27,0V121A2.13,2.13,0,0,0,128.08,123.18Z" transform="translate(-3 -3.1)"/></svg>