<svg id="Layer_1" data-name="Layer 1" xmlns="http://www.w3.org/2000/svg" viewBox="0 0 193.46 194.4"><defs><style>.cls-1{fill:#fff;}</style></defs><path class="cls-1" d="M194.3,147.25H5.5a2.13,2.13,0,0,0-2.13,2.14V161A36.29,36.29,0,0,0,39.62,197.2H160.18A36.29,36.29,0,0,0,196.43,161V149.39A2.14,2.14,0,0,0,194.3,147.25ZM192.16,161a32,32,0,0,1-32,32H39.62a32,32,0,0,1-32-32v-9.43H192.16Z" transform="translate(-3.27 -2.8)"/><path class="cls-1" d="M5.5,75.72H194.3a2.13,2.13,0,0,0,2.13-2.13V67.51A64.78,64.78,0,0,0,131.72,2.8H68.08A64.78,64.78,0,0,0,3.37,67.51v6.08A2.13,2.13,0,0,0,5.5,75.72Zm2.14-8.21A60.5,60.5,0,0,1,68.08,7.07h63.64a60.5,60.5,0,0,1,60.44,60.44v3.94H7.64Z" transform="translate(-3.27 -2.8)"/><path class="cls-1" d="M5.5,87.54c7,0,10.36,3.27,14.24,7s8.49,8.26,17.22,8.26,13.24-4.39,17.22-8.26,7.24-7,14.24-7,10.36,3.27,14.24,7,8.49,8.26,17.22,8.26,13.25-4.39,17.23-8.26,7.24-7,14.24-7,10.36,3.27,14.25,7,8.49,8.26,17.22,8.26,13.25-4.39,17.23-8.26,7.24-7,14.25-7a2.14,2.14,0,0,0,0-4.27c-8.74,0-13.25,4.39-17.23,8.26s-7.25,7-14.25,7-10.36-3.27-14.24-7-8.49-8.26-17.23-8.26-13.24,4.39-17.22,8.26-7.25,7-14.25,7-10.35-3.27-14.24-7-8.49-8.26-17.22-8.26S55.18,87.66,51.2,91.53s-7.24,7-14.24,7-10.35-3.27-14.24-7S14.23,83.27,5.5,83.27a2.14,2.14,0,0,0,0,4.27Z" transform="translate(-3.27 -2.8)"/><path class="cls-1" d="M45.74,25.94a3.34,3.34,0,0,0-1,2.4,3.4,3.4,0,0,0,1,2.41,3.32,3.32,0,0,0,2.41,1,3.08,3.08,0,0,0,1.31-.27,3,3,0,0,0,1.09-.74,3.48,3.48,0,0,0,.77-1.09,3.64,3.64,0,0,0,.24-1.32,3.3,3.3,0,0,0-1-2.4A3.47,3.47,0,0,0,45.74,25.94Z" transform="translate(-3.27 -2.8)"/><path class="cls-1" d="M73.75,19.35a3.52,3.52,0,0,0-.3-.58,3.26,3.26,0,0,0-.44-.52,3.49,3.49,0,0,0-4.81,0,3.35,3.35,0,0,0-1,2.41A3.4,3.4,0,0,0,73,23.06,3,3,0,0,0,73.75,22,3.08,3.08,0,0,0,74,20.66a3,3,0,0,0-.08-.66A3.19,3.19,0,0,0,73.75,19.35Z" transform="translate(-3.27 -2.8)"/><path class="cls-1" d="M89.45,25.94a3.44,3.44,0,0,0,0,4.81,3.38,3.38,0,0,0,2.44,1,3.34,3.34,0,0,0,2.4-1A3,3,0,0,0,95,29.66a3.66,3.66,0,0,0,.27-1.32,3.43,3.43,0,0,0-1-2.4A3.51,3.51,0,0,0,89.45,25.94Z" transform="translate(-3.27 -2.8)"/><path class="cls-1" d="M151.5,25.94a3.42,3.42,0,0,0,2.44,5.82,3.17,3.17,0,0,0,1.31-.27,3.3,3.3,0,0,0,1.09-.74,3,3,0,0,0,.74-1.09,3.12,3.12,0,0,0,.27-1.32,3.43,3.43,0,0,0-1-2.4A3.51,3.51,0,0,0,151.5,25.94Z" transform="translate(-3.27 -2.8)"/><path class="cls-1" d="M126.35,21.73a2.69,2.69,0,0,0-.33-.6,2.84,2.84,0,0,0-.41-.52,3.54,3.54,0,0,0-4.82,0,2.84,2.84,0,0,0-.41.52,2.66,2.66,0,0,0-.32.6,2.2,2.2,0,0,0-.19.63,2.36,2.36,0,0,0-.08.65,3.51,3.51,0,0,0,1,2.42,3.3,3.3,0,0,0,3.71.73,3.29,3.29,0,0,0,1.11-.73,3.39,3.39,0,0,0,1-2.42,2.82,2.82,0,0,0-.08-.65A2.56,2.56,0,0,0,126.35,21.73Z" transform="translate(-3.27 -2.8)"/><path class="cls-1" d="M17.17,138.35H182.83a13.9,13.9,0,1,0,0-27.79H17.17a13.9,13.9,0,1,0,0,27.79Zm0-23.91H182.83a10,10,0,0,1,0,20H17.17a10,10,0,0,1,0-20Z" transform="translate(-3.27 -2.8)"/></svg>