<svg id="Layer_1" data-name="Layer 1" xmlns="http://www.w3.org/2000/svg" viewBox="0 0 200 200"><defs><style>.cls-1{fill:#e4002b;}</style></defs><path class="cls-1" d="M189.12,144.66H10.69a2,2,0,0,0-2,2V157.6a34.3,34.3,0,0,0,34.26,34.27h114a34.3,34.3,0,0,0,34.26-34.27V146.68A2,2,0,0,0,189.12,144.66Zm-2,12.94a30.26,30.26,0,0,1-30.22,30.23H42.93A30.26,30.26,0,0,1,12.7,157.6v-8.9H187.1Z"/><path class="cls-1" d="M10.69,77.05H189.12a2,2,0,0,0,2-2V69.3A61.24,61.24,0,0,0,130,8.13H69.83A61.23,61.23,0,0,0,8.67,69.3V75A2,2,0,0,0,10.69,77.05Zm2-7.75A57.2,57.2,0,0,1,69.83,12.17H130A57.19,57.19,0,0,1,187.1,69.3V73H12.7Z"/><path class="cls-1" d="M10.69,88.23c6.61,0,9.78,3.08,13.46,6.66s8,7.8,16.27,7.8,12.52-4.14,16.27-7.8,6.85-6.66,13.46-6.66,9.79,3.08,13.46,6.66,8,7.8,16.28,7.8,12.52-4.14,16.28-7.8,6.85-6.66,13.46-6.66,9.79,3.08,13.47,6.66,8,7.8,16.28,7.8,12.51-4.14,16.28-7.8,6.84-6.66,13.46-6.66a2,2,0,0,0,0-4c-8.25,0-12.52,4.15-16.28,7.81s-6.85,6.66-13.46,6.66-9.79-3.09-13.47-6.66-8-7.81-16.28-7.81S117.11,88.34,113.35,92s-6.84,6.66-13.46,6.66S90.1,95.57,86.43,92s-8-7.81-16.28-7.81S57.64,88.34,53.88,92,47,98.66,40.42,98.66,30.63,95.57,27,92s-8-7.81-16.27-7.81a2,2,0,1,0,0,4Z"/><path class="cls-1" d="M48.72,30a3.15,3.15,0,0,0-1,2.27A3,3,0,0,0,48,33.52a3,3,0,0,0,.7,1,3.08,3.08,0,0,0,2.27,1,2.9,2.9,0,0,0,1.24-.25,2.94,2.94,0,0,0,1-.7,3.54,3.54,0,0,0,.72-1,3.47,3.47,0,0,0,.23-1.25A3.19,3.19,0,0,0,53.27,30,3.31,3.31,0,0,0,48.72,30Z"/><path class="cls-1" d="M75.19,23.77a3.91,3.91,0,0,0-.28-.54,2.52,2.52,0,0,0-.42-.49,3.27,3.27,0,0,0-4.54,0A3.14,3.14,0,0,0,69,25a3.28,3.28,0,0,0,3.23,3.23,3.14,3.14,0,0,0,2.27-1,2.82,2.82,0,0,0,.7-1A2.9,2.9,0,0,0,75.45,25a2.64,2.64,0,0,0-.08-.62A3.08,3.08,0,0,0,75.19,23.77Z"/><path class="cls-1" d="M90,30a3.25,3.25,0,0,0,0,4.55,3.16,3.16,0,0,0,2.3,1,3.13,3.13,0,0,0,2.27-1,2.74,2.74,0,0,0,.7-1,3.29,3.29,0,0,0,.26-1.25,3.24,3.24,0,0,0-1-2.27A3.33,3.33,0,0,0,90,30Z"/><path class="cls-1" d="M148.68,30a3.23,3.23,0,0,0,2.3,5.5,3,3,0,0,0,1.24-.25,3.19,3.19,0,0,0,1-.7,3,3,0,0,0,.7-1,3,3,0,0,0,.26-1.25,3.28,3.28,0,0,0-1-2.27A3.33,3.33,0,0,0,148.68,30Z"/><path class="cls-1" d="M124.9,26a2.57,2.57,0,0,0-.31-.56,2.22,2.22,0,0,0-.38-.49,3.34,3.34,0,0,0-4.56,0A4.09,4.09,0,0,0,119,26a2,2,0,0,0-.18.6,2.49,2.49,0,0,0-.08.61,3.3,3.3,0,0,0,1,2.29,3.19,3.19,0,0,0,2.29.95,3.4,3.4,0,0,0,1.21-.25,3.22,3.22,0,0,0,2-3,2.49,2.49,0,0,0-.08-.61A2.32,2.32,0,0,0,124.9,26Z"/><path class="cls-1" d="M21.71,136.25H178.29a13.14,13.14,0,0,0,0-26.27H21.71a13.14,13.14,0,0,0,0,26.27Zm0-22.6H178.29a9.47,9.47,0,1,1,0,18.93H21.71a9.47,9.47,0,1,1,0-18.93Z"/></svg>