<svg id="Layer_1" data-name="Layer 1" xmlns="http://www.w3.org/2000/svg" viewBox="0 0 193.88 194.58"><defs><style>.cls-1{fill:#fff;}</style></defs><path class="cls-1" d="M196.31,86.38,172.42,62.49a2.13,2.13,0,0,0-2.74-.22l-9.82,7a2.15,2.15,0,0,0-.89,1.57,2.11,2.11,0,0,0,.62,1.68l6.22,6.22L111.65,132.9c-44.6,44.6-71.79,27.73-88.36,11.16L12.11,132.88a2.12,2.12,0,0,0-3,0l-5.4,5.4a2.12,2.12,0,0,0,0,3l37.47,37.47c12.32,12.33,26.15,18.52,41.26,18.52a61.27,61.27,0,0,0,14-1.7c20.53-4.86,36.8-18.79,44.66-26.65s8.57-15.86,7.74-21.16a24.87,24.87,0,0,0-2.8-8.14L196.31,89.4A2.12,2.12,0,0,0,196.31,86.38Zm-54.45,51.44a2.14,2.14,0,0,0-.22,2.76c.38.52,9,12.8-3.53,25.34-8.66,8.66-53.91,49.86-93.93,9.84l-36-36,2.38-2.38,9.67,9.67c12.31,12.31,24.1,18.27,37.1,18.75,17.54.62,36.81-9.42,57.3-29.91l55.67-55.67a2.14,2.14,0,0,0,0-3l-6-5.94,6.29-4.5,21.1,21.1Z" transform="translate(-3.06 -2.71)"/><path class="cls-1" d="M69.54,102.7a12.86,12.86,0,1,0,9.09-3.77A12.74,12.74,0,0,0,69.54,102.7Zm17.69,9.09a8.59,8.59,0,1,1-2.52-6.08A8.57,8.57,0,0,1,87.23,111.79Z" transform="translate(-3.06 -2.71)"/><path class="cls-1" d="M53.66,80.82a2.14,2.14,0,0,0,1.64-3.51c-.17-.2-16.35-19.88-8-43.22C54.45,14,73.9,7.56,76.1,6.89A2.14,2.14,0,1,0,74.85,2.8C70.93,4,51,11.07,43.26,32.66c-9.15,25.61,8,46.52,8.76,47.39A2.13,2.13,0,0,0,53.66,80.82Z" transform="translate(-3.06 -2.71)"/><path class="cls-1" d="M59.26,35.86C55.52,44.23,53,58,62.3,76.21q.23.42.3.6a2.14,2.14,0,0,0,2,1.29,2.1,2.1,0,0,0,.84-.17,2.14,2.14,0,0,0,1.12-2.8c-.07-.16-.21-.45-.42-.86-8.54-16.68-6.32-29.15-3-36.67,6-13.44,18.15-18.93,23.09-20.67a2.13,2.13,0,1,0-1.41-4C79.38,14.82,66,20.9,59.26,35.86Z" transform="translate(-3.06 -2.71)"/><path class="cls-1" d="M75.34,39C71.51,45.1,68,56,73.22,73.16c.09.28.15.5.2.66a2.13,2.13,0,0,0,2,1.57,2.22,2.22,0,0,0,.57-.07,2.13,2.13,0,0,0,1.49-2.63c0-.18-.12-.44-.23-.77C73.51,59.4,74.07,49.07,79,41.22A35.81,35.81,0,0,1,96.38,27a2.14,2.14,0,1,0-1.53-4A40.09,40.09,0,0,0,75.34,39Z" transform="translate(-3.06 -2.71)"/></svg>