<svg id="Layer_1" data-name="Layer 1" xmlns="http://www.w3.org/2000/svg" viewBox="0 0 200 200"><defs><style>.cls-1{fill:#e4002b;}</style></defs><path class="cls-1" d="M191,87.13,168.45,64.55a2,2,0,0,0-2.6-.21L156.57,71a2,2,0,0,0-.25,3.07l5.88,5.88L111,131.09C68.86,173.25,43.16,157.3,27.5,141.64L16.93,131.07a2,2,0,0,0-2.85,0L9,136.18A2,2,0,0,0,9,139l35.42,35.41C56,186.1,69.1,192,83.38,192a57.67,57.67,0,0,0,13.28-1.6c19.41-4.6,34.78-17.76,42.21-25.19s8.1-15,7.32-20a23.18,23.18,0,0,0-2.65-7.69L191,90A2,2,0,0,0,191,87.13Zm-51.47,48.61a2,2,0,0,0-.2,2.62c.35.48,8.51,12.09-3.34,23.94-8.19,8.19-51,47.13-88.78,9.3l-34-34,2.26-2.26,9.14,9.14c11.63,11.64,22.78,17.27,35.06,17.72,16.58.6,34.79-8.9,54.15-28.26l52.62-52.62a2,2,0,0,0,0-2.85l-5.62-5.62,5.95-4.25,19.94,20Z"/><path class="cls-1" d="M71.21,102.55A12.16,12.16,0,1,0,79.81,99,12,12,0,0,0,71.21,102.55Zm16.72,8.59a8.13,8.13,0,1,1-2.38-5.74A8.11,8.11,0,0,1,87.93,111.14Z"/><path class="cls-1" d="M56.2,81.87a2.06,2.06,0,0,0,1.3-.47,2,2,0,0,0,.25-2.84c-.16-.19-15.45-18.79-7.58-40.85C57,18.73,75.33,12.63,77.41,12a2,2,0,1,0-1.18-3.86C72.52,9.27,53.65,16,46.37,36.35c-8.64,24.21,7.59,44,8.29,44.8A2,2,0,0,0,56.2,81.87Z"/><path class="cls-1" d="M61.5,39.38c-3.54,7.91-5.92,21,2.87,38.14.14.26.24.45.29.56a2,2,0,0,0,1.85,1.23,2,2,0,0,0,.79-.17,2,2,0,0,0,1.07-2.65l-.4-.81C59.9,59.92,62,48.14,65.18,41,70.87,28.32,82.34,23.13,87,21.49a2,2,0,0,0-1.34-3.81C80.51,19.49,67.82,25.24,61.5,39.38Z"/><path class="cls-1" d="M76.69,42.3c-3.62,5.82-6.91,16.14-2,32.33l.18.63a2,2,0,0,0,1.95,1.48,1.88,1.88,0,0,0,.53-.07,2,2,0,0,0,1.42-2.48c0-.17-.12-.42-.22-.73-3.59-11.84-3.06-21.6,1.57-29A33.91,33.91,0,0,1,96.58,31a2,2,0,1,0-1.45-3.76A38,38,0,0,0,76.69,42.3Z"/></svg>