<svg id="Layer_1" data-name="Layer 1" xmlns="http://www.w3.org/2000/svg" viewBox="0 0 200 200"><defs><style>.cls-1{fill:#e4002b;}</style></defs><path class="cls-1" d="M190,55.84a11.78,11.78,0,0,0-7.18-5.51l-30-8V20.21A11.84,11.84,0,0,0,141,8.38H59A11.85,11.85,0,0,0,47.16,20.21V42.54l-30,8A11.86,11.86,0,0,0,8.78,65.07L40.34,182.85a11.86,11.86,0,0,0,11.43,8.77,11.55,11.55,0,0,0,3.06-.41L100.46,179l44.7,12a11.83,11.83,0,0,0,14.49-8.36L191.21,64.82A11.75,11.75,0,0,0,190,55.84ZM51.2,20.21A7.79,7.79,0,0,1,59,12.42h82a7.8,7.8,0,0,1,7.8,7.79V142.15a7.81,7.81,0,0,1-7.8,7.79h-.08L110.86,37.72a11.84,11.84,0,0,0-14.49-8.36L51.2,41.46Zm2.59,167.11a7.8,7.8,0,0,1-9.55-5.51L12.68,64a7.81,7.81,0,0,1,5.51-9.55L97.41,33.25a7.88,7.88,0,0,1,5.92.78A7.75,7.75,0,0,1,107,38.76l31.56,117.78a7.8,7.8,0,0,1-5.51,9.55h0ZM187.31,63.78,155.75,181.56a7.79,7.79,0,0,1-9.54,5.51L108.26,176.9,134.05,170a11.83,11.83,0,0,0,8.36-14.49l-.42-1.58a11.83,11.83,0,0,0,10.84-11.77V46.47l29,7.76a7.78,7.78,0,0,1,5.51,9.55Z"/><path class="cls-1" d="M70.57,77.66A2.87,2.87,0,0,0,67.88,77a2.83,2.83,0,0,0-2,1.81L54.2,109.93a2.94,2.94,0,0,0,.89,3.08l25.54,21a2.88,2.88,0,0,0,1.94.75,2.76,2.76,0,0,0,.75-.1,2.81,2.81,0,0,0,2-1.81l11.67-31a.42.42,0,0,0,0-.1,2.94,2.94,0,0,0-.89-3.08Zm11.49,52.26L58.32,110.44,69.14,81.7l23.74,19.48Z"/></svg>