<svg id="Layer_1" data-name="Layer 1" xmlns="http://www.w3.org/2000/svg" viewBox="0 0 193.88 193.88"><defs><style>.cls-1{fill:#fff;}</style></defs><path class="cls-1" d="M195.26,53.28a12.46,12.46,0,0,0-7.6-5.83L155.9,38.94V15.58A12.53,12.53,0,0,0,143.39,3.06H56.61A12.54,12.54,0,0,0,44.09,15.58V39.2L12.34,47.71A12.53,12.53,0,0,0,3.49,63L36.88,187.66a12.5,12.5,0,0,0,15.33,8.85l48.28-12.94,47.3,12.68a12.53,12.53,0,0,0,15.33-8.85L196.51,62.78A12.47,12.47,0,0,0,195.26,53.28ZM48.36,15.58a8.26,8.26,0,0,1,8.25-8.25h86.78a8.26,8.26,0,0,1,8.24,8.25v129a8.26,8.26,0,0,1-8.24,8.25h-.09L111.49,34.11a12.49,12.49,0,0,0-5.84-7.61,12.35,12.35,0,0,0-9.49-1.24l-47.8,12.8ZM51.1,192.39A8.25,8.25,0,0,1,41,186.56L7.61,61.94a8.26,8.26,0,0,1,5.83-10.1L97.26,29.38a8.15,8.15,0,0,1,6.26.82,8.18,8.18,0,0,1,3.84,5l33.39,124.62a8.25,8.25,0,0,1-5.83,10.1h0ZM192.38,61.67,159,186.29a8.24,8.24,0,0,1-10.1,5.83l-40.16-10.76,27.3-7.31a12.51,12.51,0,0,0,8.85-15.33l-.45-1.66a12.54,12.54,0,0,0,11.47-12.47V43.36l30.65,8.21a8.25,8.25,0,0,1,5.83,10.1Z" transform="translate(-3.06 -3.06)"/><path class="cls-1" d="M68.86,76.36A3.06,3.06,0,0,0,66,75.67a3,3,0,0,0-2.08,1.92l-12.4,32.92a3.1,3.1,0,0,0,.94,3.25l27,22.17a3,3,0,0,0,2,.8,3.09,3.09,0,0,0,.8-.11,3,3,0,0,0,2.08-1.91l12.36-32.82,0-.1a3.11,3.11,0,0,0-.93-3.26ZM81,131.66,55.9,111.05,67.35,80.64l25.12,20.61Z" transform="translate(-3.06 -3.06)"/></svg>