<svg id="Layer_1" data-name="Layer 1" xmlns="http://www.w3.org/2000/svg" viewBox="0 0 193.87 194.68"><defs><style>.cls-1{fill:#fff;}</style></defs><path class="cls-1" d="M174.62,79a2.13,2.13,0,0,0-3.74,1.4V166a18,18,0,0,0-7.11-4.42,26.41,26.41,0,0,0-29.46,10.2c-3,4.63-3.75,9.73-2.15,14.36,2.42,7,9.77,11.18,18.19,11.18a26.82,26.82,0,0,0,8.77-1.5c9.53-3.3,15.82-11.2,16-19.09,0,0,0-.07,0-.1V86.07l9.12,10.46a34,34,0,0,1,8.39,22.38v5.22a2.14,2.14,0,1,0,4.27,0v-5.22a38.29,38.29,0,0,0-9.44-25.19ZM157.73,191.79c-9.41,3.26-19.07.1-21.53-7-1.17-3.36-.56-7.14,1.7-10.65a20.94,20.94,0,0,1,10.87-8.18,22.67,22.67,0,0,1,7.44-1.29,18.87,18.87,0,0,1,6.17,1c3.94,1.36,6.76,4,7.92,7.32C172.77,180.09,167.13,188.54,157.73,191.79Z" transform="translate(-3.07 -2.66)"/><path class="cls-1" d="M109.06,3a2.12,2.12,0,0,0-2-.22l-63.14,25a2.13,2.13,0,0,0-1.35,2v85.66c-5.24-5.36-14.5-7.28-23.51-4.16-11.62,4-18.45,14.91-15.21,24.27,2.42,7,9.77,11.18,18.19,11.18a27.09,27.09,0,0,0,8.77-1.5A25.27,25.27,0,0,0,43.9,135.3a17.62,17.62,0,0,0,3-9.29h0V57.68l58.86-23.27V90.46c-5.23-5.37-14.49-7.28-23.5-4.17-11.63,4-18.45,14.92-15.21,24.28,1.6,4.62,5.35,8.16,10.56,10a23.24,23.24,0,0,0,7.57,1.23A27.11,27.11,0,0,0,94,120.24,25.18,25.18,0,0,0,107,110.33a17.49,17.49,0,0,0,3-9.28h0V4.79A2.15,2.15,0,0,0,109.06,3ZM40.31,133a21,21,0,0,1-10.87,8.19c-9.41,3.25-19.07.09-21.53-7s3.17-15.59,12.57-18.84A22.85,22.85,0,0,1,27.93,114c6.6,0,12.27,3.09,14.08,8.32C43.18,125.69,42.57,129.48,40.31,133Zm6.55-79.89V31.21L105.72,7.93V29.82ZM103.45,108A22.15,22.15,0,0,1,79,116.49c-4-1.36-6.76-4-7.93-7.32C68.57,102,74.21,93.58,83.62,90.33a22.81,22.81,0,0,1,7.45-1.28c6.6,0,12.27,3.09,14.08,8.32C106.31,100.73,105.71,104.51,103.45,108Z" transform="translate(-3.07 -2.66)"/><path class="cls-1" d="M93.92,168.6l-9.7-1a13.42,13.42,0,0,1-11.86-11.86l-1-9.7a2.14,2.14,0,0,0-4.25,0l-1,9.7A13.41,13.41,0,0,1,54.2,167.57l-9.7,1a2.14,2.14,0,0,0,0,4.25l9.7,1a13.4,13.4,0,0,1,11.85,11.85l1,9.7a2.14,2.14,0,0,0,4.25,0l1-9.7a13.41,13.41,0,0,1,11.86-11.85l9.7-1a2.14,2.14,0,0,0,0-4.25ZM69.21,180.8a17.85,17.85,0,0,0-10.08-10.08,17.8,17.8,0,0,0,10.08-10.07,17.76,17.76,0,0,0,10.07,10.07A17.8,17.8,0,0,0,69.21,180.8Z" transform="translate(-3.07 -2.66)"/><path class="cls-1" d="M145.61,33.77l9.7,1a13.39,13.39,0,0,1,11.85,11.85l1,9.7a2.14,2.14,0,0,0,4.25,0l1-9.7a13.4,13.4,0,0,1,11.86-11.85l9.7-1a2.13,2.13,0,0,0,0-4.24l-9.71-1a13.42,13.42,0,0,1-11.85-11.86l-1-9.7a2.14,2.14,0,0,0-4.25,0l-1,9.7A13.41,13.41,0,0,1,155.31,28.5l-9.7,1a2.13,2.13,0,0,0,0,4.24Zm24.71-12.19a17.76,17.76,0,0,0,10.07,10.07,17.8,17.8,0,0,0-10.07,10.08,17.85,17.85,0,0,0-10.08-10.08A17.8,17.8,0,0,0,170.32,21.58Z" transform="translate(-3.07 -2.66)"/><path class="cls-1" d="M136,121.82l.61,5.76a2.13,2.13,0,0,0,4.24,0l.62-5.76a7.07,7.07,0,0,1,6.27-6.26l5.75-.62a2.13,2.13,0,0,0,0-4.24l-5.75-.61a7.08,7.08,0,0,1-6.27-6.27l-.62-5.76a2.13,2.13,0,0,0-4.24,0l-.61,5.76a7.1,7.1,0,0,1-6.27,6.27l-5.76.61a2.13,2.13,0,0,0,0,4.24l5.76.62A7.09,7.09,0,0,1,136,121.82Zm2.73-13a11.49,11.49,0,0,0,4,4,11.49,11.49,0,0,0-4,4,11.49,11.49,0,0,0-4-4A11.49,11.49,0,0,0,138.71,108.81Z" transform="translate(-3.07 -2.66)"/></svg>