<svg id="Layer_1" data-name="Layer 1" xmlns="http://www.w3.org/2000/svg" viewBox="0 0 200 200"><defs><style>.cls-1{fill:#e4002b;}</style></defs><path class="cls-1" d="M170.53,80.13A2,2,0,0,0,167,81.46v80.93a17.07,17.07,0,0,0-6.72-4.18,24.93,24.93,0,0,0-27.84,9.64c-2.83,4.38-3.55,9.2-2,13.58,2.28,6.6,9.23,10.56,17.18,10.56a25.5,25.5,0,0,0,8.3-1.42c9-3.11,14.94-10.58,15.12-18a.29.29,0,0,0,0-.1V86.84l8.62,9.88a32.18,32.18,0,0,1,7.93,21.15v4.94a2,2,0,0,0,4,0v-4.94a36.15,36.15,0,0,0-8.93-23.8Zm-16,106.63c-8.89,3.07-18,.09-20.35-6.66A11.49,11.49,0,0,1,135.82,170a19.83,19.83,0,0,1,10.27-7.73,21.53,21.53,0,0,1,7-1.21A17.86,17.86,0,0,1,159,162a11.47,11.47,0,0,1,7.49,6.92C168.78,175.69,163.45,183.68,154.56,186.76Z"/><path class="cls-1" d="M108.56,8.35a2,2,0,0,0-1.87-.21L47,31.73a2,2,0,0,0-1.27,1.88v81c-5-5.07-13.7-6.88-22.22-3.93-11,3.8-17.44,14.09-14.37,22.94,2.28,6.6,9.23,10.56,17.18,10.56a25.53,25.53,0,0,0,8.3-1.41A23.94,23.94,0,0,0,47,133.36a16.61,16.61,0,0,0,2.79-8.78h0V60l55.64-22V91c-5-5.07-13.7-6.88-22.21-3.93-11,3.8-17.44,14.09-14.38,22.94a15.4,15.4,0,0,0,10,9.41A21.73,21.73,0,0,0,86,120.57a25.47,25.47,0,0,0,8.35-1.44,23.92,23.92,0,0,0,12.35-9.36,16.61,16.61,0,0,0,2.79-8.78h0V10A2,2,0,0,0,108.56,8.35Zm-65,122.82a19.81,19.81,0,0,1-10.27,7.74c-8.89,3.08-18,.09-20.35-6.65s3-14.73,11.88-17.81a21.69,21.69,0,0,1,7.05-1.21c6.24,0,11.59,2.92,13.3,7.86A11.48,11.48,0,0,1,43.58,131.17Zm6.19-75.5V35l55.64-22V33.67Zm53.49,51.91a20.94,20.94,0,0,1-23.14,8,11.5,11.5,0,0,1-7.49-6.92c-2.33-6.75,3-14.74,11.89-17.81a21.59,21.59,0,0,1,7-1.21c6.24,0,11.6,2.92,13.31,7.86A11.54,11.54,0,0,1,103.26,107.58Z"/><path class="cls-1" d="M94.25,164.84l-9.17-1a12.66,12.66,0,0,1-11.2-11.2l-1-9.17a2,2,0,0,0-4,0l-1,9.17a12.68,12.68,0,0,1-11.21,11.2l-9.17,1a2,2,0,0,0,0,4l9.17,1A12.69,12.69,0,0,1,67.92,181l1,9.17a2,2,0,0,0,4,0l1-9.17a12.68,12.68,0,0,1,11.2-11.21l9.17-1a2,2,0,0,0,0-4ZM70.9,176.37a16.86,16.86,0,0,0-9.53-9.53,16.81,16.81,0,0,0,9.53-9.52,16.77,16.77,0,0,0,9.52,9.52A16.81,16.81,0,0,0,70.9,176.37Z"/><path class="cls-1" d="M143.1,37.41l9.17,1a12.69,12.69,0,0,1,11.21,11.21l1,9.16a2,2,0,0,0,4,0l1-9.16a12.67,12.67,0,0,1,11.2-11.21l9.17-1a2,2,0,0,0,0-4l-9.17-1a12.67,12.67,0,0,1-11.2-11.2l-1-9.17a2,2,0,0,0-4,0l-1,9.17a12.68,12.68,0,0,1-11.21,11.2l-9.17,1a2,2,0,0,0,0,4Zm23.36-11.53A16.8,16.8,0,0,0,176,35.4a16.82,16.82,0,0,0-9.52,9.52,16.88,16.88,0,0,0-9.52-9.52A16.85,16.85,0,0,0,166.46,25.88Z"/><path class="cls-1" d="M134,120.63l.58,5.44a2,2,0,0,0,4,0l.58-5.44a6.7,6.7,0,0,1,5.93-5.93l5.44-.58a2,2,0,0,0,0-4l-5.44-.58a6.7,6.7,0,0,1-5.93-5.92l-.58-5.44a2,2,0,0,0-4,0l-.58,5.44a6.7,6.7,0,0,1-5.92,5.92l-5.45.58a2,2,0,0,0,0,4l5.45.58A6.7,6.7,0,0,1,134,120.63Zm2.59-12.3a10.92,10.92,0,0,0,3.79,3.79,10.75,10.75,0,0,0-3.79,3.79,10.86,10.86,0,0,0-3.8-3.79A11,11,0,0,0,136.59,108.33Z"/></svg>