<svg id="Layer_1" data-name="Layer 1" xmlns="http://www.w3.org/2000/svg" xmlns:xlink="http://www.w3.org/1999/xlink" viewBox="0 0 146.41 172.49"><defs><style>.cls-1{fill:url(#linear-gradient);}</style><linearGradient id="linear-gradient" x1="197.79" y1="57.26" x2="197.79" y2="-115.23" gradientUnits="userSpaceOnUse"><stop offset="0" stop-color="#363636"/><stop offset="0.12" stop-color="#686868"/><stop offset="0.25" stop-color="#e2e2e2"/><stop offset="0.32" stop-color="#e4e4e4"/><stop offset="0.43" stop-color="#8c8c8c"/><stop offset="0.46" stop-color="#7b7b7b"/><stop offset="0.57" stop-color="#8b8b8b"/><stop offset="0.66" stop-color="#656565"/><stop offset="0.77" stop-color="#959595"/><stop offset="0.9" stop-color="#d3d3d3"/><stop offset="1" stop-color="#efefef"/></linearGradient></defs><path class="cls-1" d="M159.73-66.71c.45-1.83.89-3.3,1.33-5a.4.4,0,0,1,.76,0c.44,1.47.88,2.7,1.33,4.31a.39.39,0,0,1-.28.48c-1,.27-1.69.45-2.65.73A.4.4,0,0,1,159.73-66.71ZM175,6.35a.89.89,0,0,0,.6-.2,138,138,0,0,0,11-10.38.92.92,0,0,0,.24-.59,99.85,99.85,0,0,1,2.36-19.93.88.88,0,0,0-.41-.95l-1.18-.67a.92.92,0,0,0-.4-.11.93.93,0,0,0-.64.26q-3.9,3.87-8.12,7.43a.87.87,0,0,0-.27.41,99.09,99.09,0,0,0-4,23.82A.88.88,0,0,0,175,6.35Zm68-70.11,2.57.93a.39.39,0,0,0,.52-.46c-.43-1.84-.86-3.33-1.29-5.09a.39.39,0,0,0-.75,0c-.44,1.42-.87,2.6-1.3,4.16A.4.4,0,0,0,243-63.76ZM187,3a.86.86,0,0,0-.9-.81.83.83,0,0,0-.57.24,137.43,137.43,0,0,1-11.08,9.67.88.88,0,0,0-.34.7,98.79,98.79,0,0,0,2.38,19.06.86.86,0,0,0,.92.68.84.84,0,0,0,.4-.14,135.28,135.28,0,0,0,12.05-8.91.86.86,0,0,0,.29-.9A98.64,98.64,0,0,1,187,3Zm17.31-74.28c1,0,1.72.08,2.74.16a.4.4,0,0,0,.41-.5c-.46-1.76-.92-3.14-1.38-4.79a.39.39,0,0,0-.75,0c-.47,1.59-.93,2.92-1.39,4.63A.41.41,0,0,0,204.32-71.33ZM159.2-45.06A100,100,0,0,0,140-43.2a.64.64,0,0,0,.13,1.27h.07q2.16,0,4.29.09A100.42,100.42,0,0,1,214.9-8.65c.36.38.71.77,1,1.18a19.6,19.6,0,0,1-13.53,31.93h0a.43.43,0,0,0-.37.43c0,.29.32.41.4.44a2.34,2.34,0,0,0,.24.09,25.09,25.09,0,0,0,7.79,1.62q.58,0,1.17,0A25.2,25.2,0,0,0,236.84,1.87a25.1,25.1,0,0,0-7-17.38l-.86-.86A99,99,0,0,0,161.74-45C160.89-45,160.05-45.06,159.2-45.06ZM271-63.37a137.86,137.86,0,0,1-1.08,17.22c-.24,1.88-.51,3.75-.83,5.61l-.15.86-.15.85c0,.18-.07.35-.1.53s-.06.35-.1.52c-.4,2.12-.85,4.21-1.35,6.29-.25,1-.51,2.07-.78,3.1L266-26.85c-.29,1-.58,2-.89,3.06-.15.51-.31,1-.47,1.52A135.26,135.26,0,0,1,250.17,9q-3.57,5.67-7.68,11c-.68.88-1.38,1.75-2.08,2.61q-3.16,3.89-6.62,7.52-2.41,2.57-5,5c-1.13,1.08-2.29,2.14-3.46,3.18q-4.38,3.91-9.1,7.43c-1.26.94-2.53,1.85-3.82,2.75q-3.54,2.44-7.22,4.67l-.72.43-1.71,1c-.82.47-1.65.94-2.48,1.39s-1.67.9-2.52,1.34h0l-2.64-1.41c-.84-.46-1.68-.93-2.51-1.41q-5.89-3.4-11.4-7.37-4.61-3.32-8.93-7-1.49-1.26-2.94-2.58a135.66,135.66,0,0,1-13-13.49c-.81-.95-1.6-1.92-2.37-2.89A135,135,0,0,1,142,3.24c-.5-.88-1-1.78-1.47-2.67-.07-.15-.15-.29-.22-.43L139.72-1A135,135,0,0,1,127-37.78c0-.15,0-.29-.08-.44-.26-1.41-.51-2.83-.72-4.25-.09-.58-.17-1.16-.25-1.74s-.14-1-.21-1.5v-.07h0q-.41-3.15-.67-6.36a1.5,1.5,0,0,0,0-.2c0-.53-.08-1.06-.11-1.6l-.06-.87c0-.45-.06-.91-.08-1.36s0-.78,0-1.17,0-.79,0-1.18,0-1,0-1.48l0-.93c0-.8,0-1.61,0-2.42v0c0-.6,0-1.2,0-1.79v-.26a2.84,2.84,0,0,1,1.33-2.35l.58-.36c1.26-.78,2.54-1.53,3.82-2.27l1.94-1.09q3.25-1.79,6.61-3.41c1.68-.81,3.37-1.58,5.09-2.32q1.71-.73,3.45-1.44c1.16-.46,2.33-.91,3.5-1.34.59-.21,1.18-.43,1.77-.63,1.78-.63,3.57-1.21,5.37-1.77q3.62-1.09,7.31-2a135.74,135.74,0,0,1,24.78-3.68l1.9-.09c1.91-.08,3.82-.12,5.74-.12q5.25,0,10.4.39t10.18,1.15l1.73.28c.58.09,1.15.19,1.73.3l.77.14.77.14,1,.2,1,.2,1,.21,1,.22,2,.47c1.3.31,2.59.63,3.87,1l1.92.53,1.9.56,2,.63,1.43.46,1.43.49c1.82.62,3.63,1.29,5.42,2q6,2.37,11.77,5.29c1.27.64,2.54,1.3,3.79,2,2.27,1.23,4.49,2.54,6.67,3.9h0A2.83,2.83,0,0,1,271-65.42v.26C271-64.57,271-64,271-63.37Zm-36.15,7.12c1.67.46,3.33,1,5,1.51a.39.39,0,0,0,.5-.27c.44-1.65.7-2.64,1.14-4.27a.38.38,0,0,1,.5-.27c1.76.59,3.51,1.23,5.23,1.91a.35.35,0,0,1,.24.28c.42,1.87.83,3.56,1.24,5.43a.42.42,0,0,0,.24.28q2.36.94,4.68,2a.39.39,0,0,0,.54-.44c-1.88-8.71-3.78-16-5.71-24.78a.42.42,0,0,0-.24-.28q-3.57-1.43-7.22-2.64a.39.39,0,0,0-.5.28c-2,7.34-3.93,13.44-5.89,20.79A.39.39,0,0,0,234.85-56.25ZM218.2-60.18a.39.39,0,0,0,.33.38c4.51.74,9,1.66,13.39,2.76a.39.39,0,0,0,.49-.38v-3.77a.39.39,0,0,0-.3-.38c-2.58-.68-5.19-1.27-7.82-1.79a.4.4,0,0,1-.31-.39v-18.2a.41.41,0,0,0-.32-.39c-1.66-.32-3.34-.61-5-.87a.39.39,0,0,0-.45.39Zm-.78,3.94q-3.71-.54-7.49-.87c-1.38-.12-2.78-.22-4.18-.31h-.14c-.84,0-1.67-.09-2.51-.12l-.85,0a.49.49,0,0,1,.38.75,99.61,99.61,0,0,0-6.73,12.25.49.49,0,0,0,.44.69.39.39,0,0,0,.15,0l.44-.13h0q2.91-.9,5.91-1.62t6-1.25c1.83-.32,3.68-.6,5.54-.82q2-.24,4-.39c2.56-.2,5.16-.3,7.77-.3,1.49,0,3,0,4.46.1s3,.16,4.41.29c1.15.1,2.29.22,3.42.37a98.33,98.33,0,0,1,22.28,5.42h0a134.67,134.67,0,0,0-21.5-9c-1.07-.34-2.14-.67-3.22-1a134.26,134.26,0,0,0-15.08-3.48C219.77-55.88,218.6-56.07,217.42-56.24Zm-21.6-5.14c1.71,0,3.42,0,5.13,0a.41.41,0,0,0,.39-.3c.48-1.89.76-3,1.25-4.87a.38.38,0,0,1,.39-.29c1.84.06,3.67.17,5.5.32a.38.38,0,0,1,.35.3c.5,2,.78,3.1,1.27,5.1a.38.38,0,0,0,.34.29c1.7.16,3.39.35,5.08.57a.39.39,0,0,0,.43-.48c-2-8.17-4-15.11-6.08-23.3a.41.41,0,0,0-.34-.3q-3.79-.33-7.59-.44a.39.39,0,0,0-.4.29c-2,7.95-4.08,14.66-6.1,22.59A.39.39,0,0,0,195.82-61.38Zm-13-9.72a.39.39,0,0,0,.43.39c3.85-.45,7.72-.71,11.59-.82a.4.4,0,0,0,.38-.39v-3.62a.4.4,0,0,0-.41-.39q-5.83.17-11.65.83a.39.39,0,0,0-.34.39ZM173.7-59.73a.4.4,0,0,0,.46.39c1.66-.3,3.33-.56,5-.78a.39.39,0,0,0,.33-.39V-83.15a.39.39,0,0,0-.44-.39c-1.68.23-3.36.5-5,.79a.4.4,0,0,0-.33.39Zm-21.65,6.2c1.6-.57,3.21-1.1,4.83-1.61a.39.39,0,0,0,.26-.28l1.26-5.5a.38.38,0,0,1,.27-.29c1.77-.53,3.55-1,5.34-1.48a.4.4,0,0,1,.48.28c.45,1.71.72,2.73,1.18,4.44a.38.38,0,0,0,.46.28q2.52-.6,5.07-1.1a.39.39,0,0,0,.3-.48c-2-7.51-4-13.79-6-21.3a.4.4,0,0,0-.47-.28q-3.72.91-7.38,2a.38.38,0,0,0-.27.29c-2,8.61-3.92,16-5.85,24.54A.38.38,0,0,0,152.05-53.53ZM134.13-48c1.12.26,1.8.42,3,.73a.39.39,0,0,0,.26,0c2.85-1.36,5.7-2.65,8.61-3.87a.49.49,0,0,0,.14-.11c1.35-1.53,2.06-2.32,3.4-3.8a.43.43,0,0,0,.1-.27V-75.5a.39.39,0,0,0-.53-.36c-1.59.6-3.17,1.24-4.73,1.9a.39.39,0,0,0-.24.36v18.34a.41.41,0,0,1-.24.36c-1.65.7-2.61,1.13-4.15,1.86a.39.39,0,0,1-.56-.35c0-1.08,0-3.07-.07-4.16a.39.39,0,0,0-.56-.35q-2.31,1.11-4.58,2.31a.39.39,0,0,0-.21.35c0,1.63.07,5.14.08,6.83A.39.39,0,0,0,134.13-48Zm97,70.87,0,0c.45-.53.89-1.08,1.33-1.62,1.24-1.52,2.41-3,2.6-3.27,9.22-12.18,4.52-27.46-1.17-34.06a86.5,86.5,0,0,0-14.52-12.67c-.78-.53-.16-1.66.65-1.6a1,1,0,0,1,.36.1c5.43,2.8,17.14,10.84,20.61,14.31,4.12,4.12,6.56,8.67,7.24,13.1h0l.19-.37c.33-.65.65-1.3,1-2l0,0c2.18-5.16,1.2-10-3.37-14.93-3-3.23-11-10.36-13.89-12.8a.91.91,0,0,1,.65-1.6,1,1,0,0,1,.35.1c5.43,2.8,17.14,10.83,20.61,14.3.47.47.92.95,1.35,1.43l0-.1c.19-.52.37-1.05.55-1.58l0-.12v0a9,9,0,0,0,.35-1.78c.16-2.87-1.62-5.17-3.06-6.5s-7.41-6.54-8.68-7.63a.92.92,0,0,1,.65-1.61,1,1,0,0,1,.35.11,127.69,127.69,0,0,1,13.15,8.37v0c.22-.86.44-1.71.65-2.58.05-.18.09-.37.14-.56.15-.64.3-1.27.44-1.91.09-.39.18-.81.27-1.23q.21-.93.39-1.86c0-.23.09-.46.14-.7.17-.84.33-1.69.48-2.53v-.06c0-.06,0-.12,0-.17a.66.66,0,0,1-.46.15h0l-2.11-.09c-2.12-.07-4.24-.11-6.38-.11q-7.86,0-15.55.67c-1.27.11-2.53.24-3.78.37a177.82,177.82,0,0,0-19,3.13c-.89.2-1.78.4-2.66.62l-2,.49-.5.13h-.18l-.18-.06a98.51,98.51,0,0,0-9.17-4.49c-1.23-.52-2.47-1-3.73-1.5l-.52-.2-1.7-.62c-.86-.3-1.72-.59-2.59-.87a.5.5,0,0,1-.27-.74,99.94,99.94,0,0,1,10.2-13.05.52.52,0,0,1,.37-.16h-.22c-.94,0-1.88,0-2.83,0A135.68,135.68,0,0,0,146-47.41c-4,1.66-7.93,3.5-11.73,5.52h0l-.17.09v0c.17,1,.34,1.93.52,2.89A135.1,135.1,0,0,0,145.16-6.57,99.77,99.77,0,0,1,173.06-33h0a97.76,97.76,0,0,1,9.06,3.8l1.32.65,1.18.6c-1.07.45-2.14.9-3.21,1.37l-.45.19A176.61,176.61,0,0,0,145.61-5.63c.45.93.91,1.85,1.38,2.77S148.1-.73,148.67.32a136.59,136.59,0,0,0,11.23,17.3c.76,1,1.54,2,2.33,2.95a135.17,135.17,0,0,0,12.65,13.66c.94.89,1.89,1.77,2.86,2.62,0,0,0,0,0,0l.86.75c-.16-.15-.38-1.06.12-1.41a134.9,134.9,0,0,0,11.75-8.35.9.9,0,0,1,.6-.19.87.87,0,0,1,.77.6,99.4,99.4,0,0,0,8,17.85.86.86,0,0,1,0,.81c-.61,1.26-1.23,2.5-1.88,3.74a.85.85,0,0,1-.84.46.9.9,0,0,1-.32-.09l.73.45.07,0q2-1.21,4-2.49a136.26,136.26,0,0,0,29.59-26.22m30.47-91.55a.39.39,0,0,0-.2-.34q-2.28-1.22-4.6-2.32a.4.4,0,0,0-.56.36v22.34a.37.37,0,0,0,.22.35c1.54.73,3.07,1.49,4.57,2.29a.39.39,0,0,0,.57-.35ZM210.17,4.93a9.42,9.42,0,0,0-8.94-9.41h-.48a9.42,9.42,0,1,0,0,18.83h0A9.41,9.41,0,0,0,210.17,4.93ZM141.85-80.14v-23.13a.28.28,0,0,0-.4-.26c-1.62.71-2.56,1.14-4.24,2a.34.34,0,0,0-.14.15q-1.94,4.8-3.81,9.6a.29.29,0,0,1-.51,0c-1.35-2-2.14-3.23-3.52-5.31a.3.3,0,0,0-.38-.09c-1.61.93-2.5,1.46-4.11,2.47a.27.27,0,0,0-.14.24v23.08a.29.29,0,0,0,.44.24c1.45-.91,2.33-1.43,3.9-2.33a.27.27,0,0,0,.14-.24V-86a.29.29,0,0,1,.53-.16c1.15,1.75,1.91,2.89,3.14,4.75a.29.29,0,0,0,.51,0q1.63-4.17,3.3-8.34a.29.29,0,0,1,.55.11v11.46a.28.28,0,0,0,.41.25c1.57-.75,2.5-1.18,4.16-1.9A.3.3,0,0,0,141.85-80.14Zm14.71-5.26c1.74-.53,2.74-.82,4.5-1.29a.29.29,0,0,0,.21-.35q-2.62-10.81-5.24-21.62a.3.3,0,0,0-.38-.2c-2.53.79-3.91,1.26-6.45,2.2a.28.28,0,0,0-.18.21q-2.57,12.56-5.09,25.12a.29.29,0,0,0,.4.32c1.59-.66,2.56-1,4.27-1.68a.29.29,0,0,0,.18-.21c.44-2.14.67-3.28,1.11-5.41a.27.27,0,0,1,.19-.21c1.84-.67,2.86-1,4.69-1.61a.29.29,0,0,1,.37.21c.41,1.67.64,2.64,1.05,4.32A.29.29,0,0,0,156.56-85.4Zm-2.73-8.8c-1,.31-1.55.51-2.44.83a.3.3,0,0,1-.39-.33l1.22-5.89a.29.29,0,0,1,.57,0c.43,1.78.74,3,1.23,5A.31.31,0,0,1,153.83-94.2Zm24.1,1.44v-11.12a.31.31,0,0,0-.34-.3c-2.68.37-5.36.82-8,1.36a.3.3,0,0,0-.24.29v3.79a.29.29,0,0,0,.36.29c1-.21,1.71-.33,2.76-.52a.3.3,0,0,1,.35.29V-94a.3.3,0,0,1-.24.29c-1.93.34-3,.55-4.9,1a.3.3,0,0,1-.36-.29v-14.38a.3.3,0,0,1,.24-.28c1.92-.42,3-.63,4.92-1a.29.29,0,0,1,.34.29v1.14a.3.3,0,0,0,.35.29l4.52-.7a.31.31,0,0,0,.25-.3v-3.3a.32.32,0,0,0-.14-.25l-3.09-1.86a.28.28,0,0,0-.2,0c-3,.47-6,1-8.9,1.73a.39.39,0,0,0-.14.08c-1.24,1.23-1.89,1.89-3.12,3.14a.3.3,0,0,0-.08.21v18.48a.28.28,0,0,0,.15.25l3,1.57a.34.34,0,0,0,.2,0c.81-.17,6.11-1.3,9-1.75a.46.46,0,0,0,.16-.07c1.24-1.14,1.9-1.73,3.15-2.83A.3.3,0,0,0,177.93-92.76Zm7.38,1.55v-23.15a.31.31,0,0,0-.33-.3c-1.77.16-2.79.27-4.57.49a.29.29,0,0,0-.26.29v23.15a.3.3,0,0,0,.33.3c1.76-.22,2.78-.33,4.56-.48A.3.3,0,0,0,185.31-91.21ZM203.38-94v-3.51a.21.21,0,0,0-.21-.21c-.71,0-3-.09-4.75-.1a.21.21,0,0,0-.21.22v1.49a.21.21,0,0,1-.22.21c-2,0-3.12,0-5.12.09a.22.22,0,0,1-.23-.21v-14.55a.22.22,0,0,1,.21-.21c2-.08,3.12-.1,5.14-.1a.22.22,0,0,1,.22.22v1.35a.21.21,0,0,0,.21.22l4.74.09a.21.21,0,0,0,.22-.21v-3.34a.21.21,0,0,0-.09-.17c-1.27-1-1.95-1.51-3.24-2.48a.21.21,0,0,0-.13,0c-3-.05-6.06,0-9.08.17a.21.21,0,0,0-.13.05c-1.25,1-1.91,1.55-3.16,2.58a.23.23,0,0,0-.08.17v18.56a.22.22,0,0,0,.1.18l3.14,2.17a.28.28,0,0,0,.13,0c.68,0,6.19-.22,9.08-.17a.2.2,0,0,0,.13,0c1.29-.92,2-1.4,3.24-2.28A.26.26,0,0,0,203.38-94Zm26.86,3.58v-3.45a.26.26,0,0,0-.2-.26c-.67-.15-2.86-.64-4.54-1a.27.27,0,0,0-.32.26v1.28a.26.26,0,0,1-.31.26c-1.91-.37-3-.56-4.94-.87a.27.27,0,0,1-.23-.26v-14.44a.26.26,0,0,1,.31-.26c1.93.3,3,.49,5,.87a.26.26,0,0,1,.21.26v1.35a.28.28,0,0,0,.21.26l4.53,1a.26.26,0,0,0,.32-.26v-3.22a.24.24,0,0,0-.07-.18c-.37-.37-2-2-3.18-3.12a.33.33,0,0,0-.13-.07c-3-.62-5.94-1.14-8.92-1.56a.28.28,0,0,0-.18,0c-1.21.75-1.86,1.17-3.07,1.94a.27.27,0,0,0-.12.22v18.52a.25.25,0,0,0,.09.19l3.13,2.78a.31.31,0,0,0,.13.06c.7.11,6.09,1,8.92,1.56a.29.29,0,0,0,.18,0l3.08-1.63A.24.24,0,0,0,230.24-90.38Zm7.1,4.13v-23.17a.29.29,0,0,0-.2-.27c-1.75-.5-2.74-.77-4.46-1.2a.28.28,0,0,0-.35.28v23.16a.29.29,0,0,0,.21.28c1.76.43,2.75.7,4.44,1.19A.29.29,0,0,0,237.34-86.25Zm16.55-13.49v-3.71a.32.32,0,0,0-.19-.28c-4.6-1.91-9.22-3.61-14-5.12a.3.3,0,0,0-.4.29v3.73a.31.31,0,0,0,.22.3c1.75.53,2.72.85,4.46,1.44a.31.31,0,0,1,.21.29v18.93a.31.31,0,0,0,.21.29c1.69.59,2.65.94,4.26,1.56a.31.31,0,0,0,.42-.29v-18.47a.31.31,0,0,1,.42-.28c1.51.59,2.43,1,3.91,1.6A.31.31,0,0,0,253.89-99.74Zm11.6,16.79,5.42-11.49a.24.24,0,0,0-.09-.3c-1.69-1.06-2.64-1.62-4.35-2.59a.24.24,0,0,0-.34.11c-1.07,2.48-1.67,3.89-2.7,6.3a.25.25,0,0,1-.46,0q-1.46-4.87-2.94-9.74a.24.24,0,0,0-.12-.14c-1.69-.84-2.64-1.3-4.24-2a.24.24,0,0,0-.33.29q2.76,8.55,5.45,17.11a.19.19,0,0,1,0,.07v8.6a.23.23,0,0,0,.13.21c1.67.85,2.59,1.34,4.17,2.22a.24.24,0,0,0,.36-.21v-8.29A.16.16,0,0,1,265.49-82.95Z" transform="translate(-124.59 115.23)"/></svg>