<svg id="Layer_1" data-name="Layer 1" xmlns="http://www.w3.org/2000/svg" viewBox="0 0 394.28 46.69"><defs><style>.cls-1{fill:#fff;}</style></defs><path class="cls-1" d="M21.3,29.62a37.66,37.66,0,0,1,1.53-9.06.34.34,0,0,1,.1-.16C24,19.5,25,18.56,26,17.57a.33.33,0,0,1,.4-.05c.15.08.3.16.44.25a.33.33,0,0,1,.16.36,38,38,0,0,0-.9,7.59.31.31,0,0,1-.09.22,52,52,0,0,1-4.18,3.95A.33.33,0,0,1,21.3,29.62Zm4.88-.94a.33.33,0,0,0-.56-.22,50.86,50.86,0,0,1-4.21,3.68.31.31,0,0,0-.13.27,38.44,38.44,0,0,0,.9,7.25.33.33,0,0,0,.51.2,50.62,50.62,0,0,0,4.58-3.39.34.34,0,0,0,.11-.34A38.1,38.1,0,0,1,26.18,28.68ZM8.27,11.11a.24.24,0,0,0,.05.48h0a38.09,38.09,0,0,1,23.3,7.91,38.7,38.7,0,0,1,5.15,4.76,5.82,5.82,0,0,1,.4.45,7.47,7.47,0,0,1-5.15,12.15h0a.16.16,0,0,0-.14.17c0,.11.12.15.15.17l.09,0A9.58,9.58,0,0,0,43.21,34a9.57,9.57,0,0,0-.71-12.39l-.33-.33A37.68,37.68,0,0,0,15.6,10.4,38.44,38.44,0,0,0,8.27,11.11Zm49.45-1c-.09.67-.19,1.33-.3,2,0,.22-.07.44-.11.65s-.05.27-.08.4a51.28,51.28,0,0,1-7,17.8A51.65,51.65,0,0,1,44,39a52,52,0,0,1-11.15,8.92l-.65.38c-.63.36-1.26.71-1.9,1l-1-.53-1-.54A50.29,50.29,0,0,1,24,45.46c-1.17-.84-2.31-1.73-3.4-2.66-.38-.32-.75-.65-1.12-1a51,51,0,0,1-4.94-5.14c-.31-.36-.61-.73-.9-1.1a52.09,52.09,0,0,1-4.58-6.79c-.19-.34-.37-.68-.55-1l-.09-.17c-.08-.14-.15-.28-.22-.42a51.57,51.57,0,0,1-4.85-14l0-.16Q3.16,12.2,3,11.39q-.1-.63-.18-1.26a54.1,54.1,0,0,1,54.86,0ZM32,5.64a.19.19,0,0,1,.15.29,36.26,36.26,0,0,0-2.56,4.66.18.18,0,0,0,.22.25l.17-.05h0c.74-.23,1.49-.43,2.25-.61s1.51-.34,2.28-.48,1.4-.23,2.11-.31q.76-.09,1.53-.15c1-.07,2-.11,3-.11s2.26,0,3.37.15c.44,0,.87.08,1.3.14a37.28,37.28,0,0,1,8.48,2.06h0a51.7,51.7,0,0,0-8.18-3.42l-1.22-.37A49.84,49.84,0,0,0,39.1,6.36c-.45-.08-.89-.15-1.34-.21q-1.41-.21-2.85-.33-.79-.08-1.59-.12h-.06l-.95,0Zm22.41,6.2a.21.21,0,0,1-.17.05c-1.07-.05-2.15-.07-3.23-.07q-3,0-5.92.25l-1.44.15a64.08,64.08,0,0,0-7.25,1.19l-1,.23-.78.19-.19.05a.2.2,0,0,1-.13,0,37.55,37.55,0,0,0-3.49-1.71c-.47-.2-.94-.39-1.42-.57l-.2-.08-.65-.23c-.32-.12-.65-.23-1-.33a.19.19,0,0,1-.1-.28,36.65,36.65,0,0,1,3.88-5,.17.17,0,0,1,.14-.06H30.29a51.58,51.58,0,0,0-19.73,3.9q-2.3.95-4.47,2.1h0l-.06,0v0c.06.37.13.74.2,1.1a51.34,51.34,0,0,0,4,12.29A38,38,0,0,1,20.88,15c1.17.43,2.32.91,3.44,1.45l.51.25.44.22-1.22.52-.17.08a66.81,66.81,0,0,0-13.45,7.91h0c.17.35.34.7.52,1.05s.42.81.64,1.21a51.27,51.27,0,0,0,4.28,6.59c.29.38.58.75.88,1.12a52.72,52.72,0,0,0,4.82,5.2l1.09,1h0l.33.28c-.06,0-.15-.4,0-.53a52.34,52.34,0,0,0,4.47-3.18.33.33,0,0,1,.52.15,37.11,37.11,0,0,0,3,6.8.34.34,0,0,1,0,.31c-.23.47-.47.95-.72,1.42a.33.33,0,0,1-.44.14,2.61,2.61,0,0,0,.28.17l0,0c.5-.31,1-.62,1.5-1A51.76,51.76,0,0,0,43,36.24c.61-.72,1.41-1.74,1.51-1.87,3.51-4.64,1.72-10.45-.45-13a33.15,33.15,0,0,0-5.52-4.83c-.34-.23,0-.75.38-.57a48,48,0,0,1,7.84,5.45,9.16,9.16,0,0,1,2.76,5c-.13.26.18-.34.45-.91.83-2,.46-3.81-1.28-5.68-1.14-1.23-4.2-3.94-5.29-4.87a.34.34,0,0,1,.38-.57,48.11,48.11,0,0,1,7.85,5.44c.18.18.35.36.51.55.17-.49.15-.41.24-.69a3,3,0,0,0-1-3.16c-.54-.49-2.82-2.49-3.3-2.9a.34.34,0,0,1,.38-.57,48.59,48.59,0,0,1,5,3.18s.55-2,1-4.36ZM35,29.43A3.59,3.59,0,1,0,31.41,33,3.59,3.59,0,0,0,35,29.43Z" transform="translate(-2.86 -2.66)"/><path class="cls-1" d="M90.08,42.05h-6V24L79,35,73.81,24V42.05H67.89V10h5.92L79,21l5.17-11h6Z" transform="translate(-2.86 -2.66)"/><path class="cls-1" d="M107.44,42.05,106,34.9H99.8l-1.43,7.15H92.32L98.74,10h8.33l6.42,32.1ZM104.82,29l-1.92-9.6L101,29Z" transform="translate(-2.86 -2.66)"/><path class="cls-1" d="M133.46,38.7l-3.84,3.35H119l-3.78-3.35V13.32L119,10h10.6l3.84,3.37v5h-5.92V15.88h-6.42V36.12h6.42V29h-4.05V23h10Z" transform="translate(-2.86 -2.66)"/><path class="cls-1" d="M142.89,42.05H137V10h5.94Z" transform="translate(-2.86 -2.66)"/><path class="cls-1" d="M164.46,38.7l-3.88,3.35H150l-3.78-3.35V13.32L150,10h10.56l3.88,3.39v4.95h-5.92V15.88h-6.38V36.12h6.38V33.53h5.92Z" transform="translate(-2.86 -2.66)"/><path class="cls-1" d="M199,38.7l-3.88,3.35H184.6l-3.78-3.35V13.32L184.6,10h10.56L199,13.34v4.95h-5.92V15.88h-6.38V36.12h6.38V33.53H199Z" transform="translate(-2.86 -2.66)"/><path class="cls-1" d="M207.82,42.05h-5.94V10h5.94Z" transform="translate(-2.86 -2.66)"/><path class="cls-1" d="M228.43,15.88h-5.88V42.05h-6V15.88h-5.88V10h17.71Z" transform="translate(-2.86 -2.66)"/><path class="cls-1" d="M243.54,30.22V42.05h-6V30.18L230.42,10h6.09l4.05,12,4-11.95h6.29Z" transform="translate(-2.86 -2.66)"/><path class="cls-1" d="M277.24,38.7l-3.82,3.35H263.8L260,38.7V33.53h5.92v2.59h5.4V10h5.92Z" transform="translate(-2.86 -2.66)"/><path class="cls-1" d="M294.38,42.05,293,34.9h-6.21l-1.43,7.15h-6.05L285.68,10H294l6.42,32.1ZM291.76,29l-1.92-9.6L287.92,29Z" transform="translate(-2.86 -2.66)"/><path class="cls-1" d="M308.9,42.05H303V10h5.94Z" transform="translate(-2.86 -2.66)"/><path class="cls-1" d="M341.55,42.05l-1.43-7.15H333.9l-1.43,7.15h-6L332.84,10h8.34l6.41,32.1ZM338.93,29,337,19.37,335.09,29Z" transform="translate(-2.86 -2.66)"/><path class="cls-1" d="M364.87,42.05H350.18V10h5.94V36.12h8.75Z" transform="translate(-2.86 -2.66)"/><path class="cls-1" d="M382.57,42.05l-1.43-7.15h-6.21l-1.43,7.15h-6.05L373.86,10h8.34l6.42,32.1ZM380,29,378,19.37,376.11,29Z" transform="translate(-2.86 -2.66)"/><path class="cls-1" d="M397.14,42.05H391.2V10h5.94Z" transform="translate(-2.86 -2.66)"/><rect class="cls-1" x="316.14" y="19.62" width="6.03" height="12.67" transform="translate(342.26 -295.86) rotate(90)"/></svg>