<svg xmlns="http://www.w3.org/2000/svg" viewBox="0 0 557.58 569.34"><defs><style>.cls-1{fill:#e4002b;}</style></defs><g id="_ÎÓÈ_3" data-name="—ÎÓÈ_3"><path class="cls-1" d="M404.64,150.44l-.61-5.68a9.06,9.06,0,0,0-8-8l-5.68-.6,5.68-.61a9,9,0,0,0,8-8l.61-5.68.6,5.68a9.06,9.06,0,0,0,8.05,8l5.68.61-5.68.6a9.07,9.07,0,0,0-8.05,8Z"/><path class="cls-1" d="M443.33,64.46l-.6-5.68a9.06,9.06,0,0,0-8.05-8.05l-5.68-.6,5.68-.61a9,9,0,0,0,8.05-8.05l.6-5.68.61,5.68A9,9,0,0,0,452,49.52l5.68.61-5.68.6a9.06,9.06,0,0,0-8.05,8.05Z"/><path class="cls-1" d="M498,112.57l-.6-5.68a9.08,9.08,0,0,0-8.06-8.06l-5.68-.6,5.68-.6a9.07,9.07,0,0,0,8.06-8.06l.6-5.67.6,5.67a9.07,9.07,0,0,0,8.06,8.06l5.68.6-5.68.6a9.08,9.08,0,0,0-8.06,8.06Z"/><path class="cls-1" d="M543.25,39.1l-.61-5.68a9,9,0,0,0-8-8l-5.68-.6,5.68-.61a9,9,0,0,0,8-8l.61-5.68.6,5.68a9,9,0,0,0,8,8.05l5.68.61-5.68.6a9,9,0,0,0-8,8.05Z"/><path class="cls-1" d="M279.38,314.34l-.61-5.68a9.06,9.06,0,0,0-8-8.06L265,300l5.68-.6a9.06,9.06,0,0,0,8-8.06l.61-5.68.6,5.68a9.07,9.07,0,0,0,8,8.06l5.68.6-5.68.6a9.07,9.07,0,0,0-8,8.06Z"/><path class="cls-1" d="M329.34,375.09l-.6-5.68a9.07,9.07,0,0,0-8.05-8.05l-5.68-.6,5.68-.6a9.08,9.08,0,0,0,8.05-8.06l.6-5.68.61,5.68a9.07,9.07,0,0,0,8.05,8.06l5.68.6-5.68.6a9.06,9.06,0,0,0-8.05,8.05Z"/><path class="cls-1" d="M263.87,390.46l-.6-5.68a9.06,9.06,0,0,0-8.06-8l-5.67-.61,5.67-.6a9.07,9.07,0,0,0,8.06-8l.6-5.68.6,5.68a9.08,9.08,0,0,0,8.06,8l5.68.6-5.68.61a9.07,9.07,0,0,0-8.06,8Z"/><path class="cls-1" d="M293.71,471.48l-.6-5.68a9.07,9.07,0,0,0-8.05-8.05l-5.68-.6,5.68-.6a9.08,9.08,0,0,0,8.05-8.06l.6-5.68.61,5.68a9.07,9.07,0,0,0,8.05,8.06l5.68.6-5.68.6a9.06,9.06,0,0,0-8.05,8.05Z"/><path class="cls-1" d="M114.82,450l-.6-5.68a9.07,9.07,0,0,0-8.06-8l-5.67-.6,5.67-.61a9.06,9.06,0,0,0,8.06-8l.6-5.68.6,5.68a9.07,9.07,0,0,0,8.06,8l5.68.61-5.68.6a9.08,9.08,0,0,0-8.06,8Z"/><path class="cls-1" d="M45.44,569.34l-.61-5.68a9.06,9.06,0,0,0-8-8.06L31.1,555l5.68-.6a9.06,9.06,0,0,0,8-8.06l.61-5.68.6,5.68a9.07,9.07,0,0,0,8.05,8.06l5.68.6-5.68.6A9.07,9.07,0,0,0,46,563.66Z"/><path class="cls-1" d="M132.29,512.92l-.61-5.68a9.06,9.06,0,0,0-8.05-8.05l-5.68-.6,5.68-.61a9,9,0,0,0,8.05-8.05l.61-5.68.6,5.68a9.06,9.06,0,0,0,8.05,8.05l5.68.61-5.68.6a9.07,9.07,0,0,0-8.05,8.05Z"/><path class="cls-1" d="M156.06,0c2.21,8.67,3.56,16.06,4.32,21v0c.63,4.05.87,6.42.87,6.42A191.86,191.86,0,0,0,159.33,0Z"/><path class="cls-1" d="M104.48,0c.3,2.42.52,4.57.68,6.37v0c.34,3.78.42,6,.42,6S106,7.52,105.91,0Z"/><path class="cls-1" d="M140.77,0a188,188,0,0,1,3.36,22.44A164.12,164.12,0,0,0,143.34,0Z"/><path class="cls-1" d="M127.75,0a183.78,183.78,0,0,1,2.17,24.15A181.19,181.19,0,0,0,130.81,0Z"/><path class="cls-1" d="M93.54,4.42s.11-1.64.17-4.42H93.2C93.46,2.79,93.54,4.42,93.54,4.42Z"/><path class="cls-1" d="M178.37,0a257.65,257.65,0,0,1,9.16,30.76A218.33,218.33,0,0,0,181.43,0Z"/><path class="cls-1" d="M116.75,11.79s.52-4.62.66-11.79h-1.49C116.69,7.21,116.75,11.79,116.75,11.79Z"/><path class="cls-1" d="M308.81,0h-4.18c3.12,7.53,6.28,15.53,9.13,23.48a245.55,245.55,0,0,1,12.38,54.15v0c.36,3.35.48,5.25.48,5.25s1.71-31.3-9.47-62.17C314.61,13.69,311.74,6.66,308.81,0Z"/><path class="cls-1" d="M195.57,0a256.44,256.44,0,0,1,7.25,26.6v0c.86,4,1.24,6.4,1.24,6.4a209.24,209.24,0,0,0-4.81-33Z"/><path class="cls-1" d="M331.18,26.88c-4.29-9.22-9.11-18.44-13.8-26.88h-4c3.93,10,8.21,21.34,11.83,32.57a224.15,224.15,0,0,1,10.39,58.11s3-28.81-6.22-58.61a265.15,265.15,0,0,1,18,56.15A189.88,189.88,0,0,0,331.18,26.88Z"/><path class="cls-1" d="M170.07,0h-2.38c3.1,8.69,5.24,15.85,6.52,20.45v0c1,3.53,1.44,5.55,1.44,5.55A201.15,201.15,0,0,0,170.07,0Z"/><path class="cls-1" d="M368.75,26.59c-.82-1.05-1.65-2.08-2.48-3.11C390.59,48.9,404.64,79.1,404.64,79.1S392.3,41.54,368.21,15.68a288.35,288.35,0,0,1,34.1,36.93S385.67,23.61,358.59,0H334.64l2.87,3.88C344.5,15.55,355,33,363.73,50.32A245.6,245.6,0,0,1,384,106.41s-2.52-29.85-17.35-58.84c-.82-1.61-1.67-3.23-2.53-4.83,17.31,28.46,24.25,58.2,24.25,58.2a185,185,0,0,0-10.46-40.7,246.61,246.61,0,0,1,11.89,27.53v0c1.05,2.93,1.57,4.62,1.57,4.62S386,65.43,371.17,41c13.72,19.87,22.38,40.68,26.17,50.86v0c1.49,4,2.23,6.34,2.23,6.34S391.43,55.67,368.75,26.59Z"/><path class="cls-1" d="M203.17,0a250.27,250.27,0,0,1,10,40.39A221.72,221.72,0,0,0,207.56,0Z"/><path class="cls-1" d="M273,0h-2.76A353,353,0,0,1,286.3,50.32v0h0c.69,3,1,4.65,1,4.65S285,30.18,273,0Z"/><path class="cls-1" d="M184.43,0A265.17,265.17,0,0,1,194,36.06,232.59,232.59,0,0,0,188.07,0Z"/><path class="cls-1" d="M296,0h-4.67c1.9,4.83,3.77,9.77,5.52,14.69A247.11,247.11,0,0,1,310,76.9s2-33.15-9.53-65.27C299.06,7.73,297.55,3.83,296,0Z"/><path class="cls-1" d="M288.92,0h-4.84c1.34,3.33,2.64,6.69,3.88,10a228.48,228.48,0,0,1,13.43,61.17s2.48-31.72-9.55-63.75C290.91,5,289.93,2.48,288.92,0Z"/><path class="cls-1" d="M303.88,0h-5.36c2.64,6.27,5.26,12.8,7.65,19.34a233.9,233.9,0,0,1,13,64.11s2.9-35.76-9-68C308.2,10.21,306.08,5,303.88,0Z"/><path class="cls-1" d="M334.63,0h-3.5c7,12.23,17,29.9,25.17,47.33a223.52,223.52,0,0,1,17.05,53.45v0c.6,3.32.83,5.21.83,5.21s.25-31.09-14.15-61.48A377.3,377.3,0,0,0,334.63,0Z"/><path class="cls-1" d="M281.63,5.12q-.94-2.56-1.95-5.12h-4.33c1,2.64,2,5.3,3,7.94,12.66,34.44,15,59.52,15,59.52s.08-1.17,0-3.56A187.3,187.3,0,0,0,281.63,5.12Z"/><path class="cls-1" d="M324.8,0h-3.1c5.2,10.63,11.25,23.36,16.47,35.81a237.89,237.89,0,0,1,15.68,54.72A166.32,166.32,0,0,0,341.21,34C336.18,22.14,330.21,10.12,324.8,0Z"/><path class="cls-1" d="M330.26,0h-3.2c6,11.89,13.67,27.51,20.08,42.79a228.15,228.15,0,0,1,15.64,56.86,162.12,162.12,0,0,0-12.26-59A415,415,0,0,0,330.26,0Z"/><path class="cls-1" d="M233.87,0a293.55,293.55,0,0,1,12.21,40.33A234.62,234.62,0,0,0,237.25,0Z"/><path class="cls-1" d="M240.5,0a276.77,276.77,0,0,1,11.84,41.88v0c.71,3.62,1,5.69,1,5.69A198.63,198.63,0,0,0,244.67,0Z"/><path class="cls-1" d="M214.54,0A261.39,261.39,0,0,1,225.7,43.58,234.36,234.36,0,0,0,219.12,0Z"/><path class="cls-1" d="M225,0a273.48,273.48,0,0,1,12.14,47.92A243.91,243.91,0,0,0,229.83,0Z"/><path class="cls-1" d="M248.11,0a247.84,247.84,0,0,1,12,49.44A199.37,199.37,0,0,0,252.73,0Z"/><path class="cls-1" d="M263.49,0a255.58,255.58,0,0,1,14.77,63.89S279.54,31.53,268.81,0Z"/><path class="cls-1" d="M256.56,0a255.61,255.61,0,0,1,13.62,54.91A203.74,203.74,0,0,0,261.42,0Z"/><path class="cls-1" d="M4.25,0Q2,3.42,0,6.5v5.18C2.51,8.27,5.44,4.31,8.67,0Z"/><path class="cls-1" d="M411.52,257s-9.42-21.21-30.21-41.47c10.39,7.19,18.18,13.39,22.78,17.24h0c3.11,2.6,4.77,4.13,4.77,4.13s-22.93-27.09-61.59-47.28c-35.44-18.5-77.1-34.22-85.29-36.28l-1.1-1c10.38,4,46.82,15.12,78.74,28.62a271.86,271.86,0,0,1,57.6,33.23l0,0,0,0c3.11,2.38,4.78,3.8,4.78,3.8s-23.39-26.31-60.78-42c-34.45-14.42-74.54-24.49-82-25.23-1.83-1.67-3.71-3.37-5.64-5.08,8.21,3.19,47.35,13.76,81.69,27.09,38.49,15,64.28,35.52,64.28,35.52s-24.66-25.8-62.88-40.48c-36.76-14.14-79.37-23.32-84.2-23.12l-3.86-3.38c9.12,2.46,39.9,9.26,67.53,17.43A312.89,312.89,0,0,1,372,181.2a213.23,213.23,0,0,0-55.37-25.26c-28.93-8.49-61.41-14.6-69-15.43q-2.9-2.5-5.92-5.06c10.89,3.13,49.28,11.34,83.48,22.34A296.35,296.35,0,0,1,388,186.61h0c3.44,2.13,5.31,3.41,5.31,3.41a200.58,200.58,0,0,0-49.49-30.65c31.11,12,51.52,25.3,51.52,25.3S366,159.83,323.81,147C285,135.24,241,128.32,232.87,128.18q-2.56-2.07-5.22-4.17c10.48,2.65,51.52,9.64,88.32,19.7,42.37,11.6,72.57,30.08,72.57,30.08s-29.94-23.89-72-35.27c-39-10.52-82.9-15.87-90.33-15.65q-4.45-3.5-9.13-7c8.8,2.17,51.57,8.55,90,17.84,42.81,10.34,67.84,23.81,67.84,23.81a34.14,34.14,0,0,0-3.28-2.2c-8.07-5.15-30.72-18.2-64.23-26.2-40.33-9.61-85.55-14.46-91.34-14q-4-3-8.09-6c10.37,1.88,52.86,5.86,91.34,13.34a335.76,335.76,0,0,1,70.13,22.07l.09.06-.05,0c4,1.79,6.19,2.9,6.19,2.9s-32.83-21.92-76.41-30.26c-40.59-7.76-85.51-9.87-92.66-9q-3.74-2.67-7.58-5.34c9.26,1.79,54.75,5.7,95.94,13.32,45.82,8.48,79.73,24.83,79.73,24.83s-34.41-21.87-79.85-30.12c-43.22-7.84-91.2-9.81-97-8.82-1.64-1.13-3.28-2.25-4.95-3.37,8.82,1.23,53.85,2.73,94.84,7.87a379.79,379.79,0,0,1,73.05,16.79l.12.06-.07,0c4.22,1.44,6.54,2.35,6.54,2.35a257.47,257.47,0,0,0-62.78-21.18,341.62,341.62,0,0,1,42.63,10.56A260.06,260.06,0,0,0,272.86,96c-38.1-3.77-79.74-3.24-87.49-2.29q-2.77-1.8-5.59-3.58c10.69.67,54.32-.4,94.54,2.59A356.91,356.91,0,0,1,332,102c3.81,1.1,7,2.1,9.57,2.93l.07,0,0,0c4.31,1.4,6.69,2.3,6.69,2.3s-1.53-.79-4.33-2.07c7.53,2.14,11.84,3.68,11.84,3.68a231.32,231.32,0,0,0-36.84-13.39,238.75,238.75,0,0,0-52.71-11.19c-42.93-3.85-89.52-1.42-95.72.12-1.67-1-3.35-2-5.05-3,10.37.25,53.78-2.63,94-1.28a349.71,349.71,0,0,1,74.86,11h0c4.36,1.15,6.78,1.92,6.78,1.92a203.56,203.56,0,0,0-22.46-8c-14-5.28-41.59-14.09-73-15.56-41.24-1.93-85.52,2.19-94,4.12q-2.28-1.26-4.61-2.49c11.76-.64,50.52-5.95,87.15-6.49a278.05,278.05,0,0,1,79.08,10.7S275,57.63,232.14,58.44c-38.6.73-78.9,8.62-87.16,11.59q-2.78-1.47-5.6-2.91c11.15-1,52.49-8.08,91.34-10.73a340.79,340.79,0,0,1,74.77,3.51l.07,0,0,0c4.44.72,6.92,1.25,6.92,1.25s-39.18-13.2-83.66-10c-40.45,2.9-82.93,12.21-91,15.16-1.62-.82-3.26-1.63-4.9-2.44,11.86-2.19,50.46-12.12,87.33-17.62a323.41,323.41,0,0,1,73.56-2.12l.12,0-.07,0c4.44.4,6.95.74,6.95.74s-40-10.36-83.13-3.76c-38.16,5.81-77.46,17.94-86.51,21.9q-2.82-1.37-5.68-2.71c12-3.06,50.06-15.38,86.54-23.21a319.83,319.83,0,0,1,80.62-6.67s-40.41-7.69-83.36,1.69c-37.62,8.21-76.15,22.7-85.5,27.39q-4.2-2-8.48-3.85c8.59-2.22,47.7-17.6,85.47-27.74a314.33,314.33,0,0,1,72.15-10.16h0c4.4-.09,6.89,0,6.89,0s-40.6-6-82.22,5.3c-38.81,10.56-78,28.29-83.4,32.14q-2.68-1.17-5.41-2.33c9-2.89,48.24-20.4,86.09-32.66A318.24,318.24,0,0,1,274.4,5.35s-40.65-3.6-82.61,10.15C153,28.21,113.74,48,107.7,52.39l-4.59-1.9c10.62-4.07,48-21.85,84.17-34.7A327.93,327.93,0,0,1,253.75,0H233.89A218.89,218.89,0,0,0,184.1,11.18C147,24.5,109.58,44.41,101.65,49.9q-2.41-1-4.85-1.92c11.6-5.56,45.93-24.59,79.56-39,8.2-3.5,16.23-6.47,23.84-9H184.45c-3.87,1.37-7.79,2.9-11.69,4.59-34.4,14.86-68.53,35.84-77.7,42.71-1.8-.7-3.62-1.38-5.45-2.06,9.43-5,43.72-27,77.65-43.94L169.91,0H157.66C125.11,17.09,94.6,38.88,88.27,44.75,86.2,44,84.11,43.23,82,42.49,90,38,119.16,17.53,149.85,0H139C110.6,17.33,85.75,36.89,80.79,42.07q-2.54-.87-5.1-1.73C81.87,36.52,105.2,17.92,131.59,0h-9.46C98,17.58,78.2,35.49,74.65,40c-2.57-.85-5.15-1.68-7.76-2.49C72.53,33.77,92.18,17.13,115.3,0h-8.75C85.57,16.78,69,32.86,65.82,37.18q-3.39-1-6.82-2C65.31,30.56,82.67,15.71,103.26,0H94.8C76.21,15.35,61.61,29.74,57.57,34.74c-2.31-.65-4.63-1.3-7-1.92C56.61,28,71.16,14.67,88.72,0H80.85C65.1,14.33,52.93,27.29,49,32.4q-4.28-1.12-8.63-2.17C44.91,26.56,57.3,14.08,72.82,0H65c-13.66,13.78-23.63,25.93-26,29.92-3-.7-5.93-1.37-8.93-2C34.27,24.32,45.68,13.16,59.81,0H55.57C42.4,13,32.28,24,29.34,27.75c-2.45-.52-4.9-1-7.37-1.49C26,22.71,35.83,12.4,48.43,0H41.7c-11,12.15-18.89,22.25-21.1,26q-2.67-.51-5.35-1c3.88-4,11.52-13.56,21.42-25H28.43c-8,11.17-13.55,20.45-15.34,24.66-3.38-.57-6.77-1.1-10.19-1.58C6.59,18.74,13.32,10.2,21.69,0H17C9.55,10.05,3.91,18.47,1.34,22.86L0,22.69v5.48c3.52.42,7,.88,10.51,1.4,5.63,5,19.8,16.77,34.5,30.06A351.31,351.31,0,0,0,0,31v3.73c12.19,8.16,30.51,20.46,45.8,33.14,25.78,21.39,34.58,43.61,34.58,43.61S78.21,95.61,65,78.62C85.73,100,94.77,118.06,94.77,118.06S88.28,95.76,64.85,73a477.2,477.2,0,0,0-51.94-43q6.47,1,12.82,2.21C33.85,40.19,55,59.76,72,78.56c16.15,17.82,25,33.75,28.56,40.82v0h0c1.23,2.46,1.81,3.85,1.81,3.85S97.69,100.85,75.92,77a464.6,464.6,0,0,0-47.5-44.35Q33.84,33.75,39.18,35c7.36,7.5,29.18,27.93,46.57,47.49,16,17.94,24.72,33.93,28.17,41v0c1.2,2.46,1.76,3.85,1.76,3.85S111.21,105,89.69,81a458.63,458.63,0,0,0-48-45.45q3.6.84,7.15,1.74c6.8,7.21,28.8,28.29,46.21,48.43,21.12,24.41,29.12,45.16,29.12,45.16s-4.06-22.41-25.13-46.59A454.5,454.5,0,0,0,51.3,37.9L55.56,39c5.8,5.92,30.05,27.39,49.28,48,16.45,17.61,25.64,33.46,29.3,40.51l0,.06v0c1.28,2.46,1.89,3.86,1.89,3.86s-5.14-22.37-27.34-46C90.42,66,66.66,46.17,57.8,39.65c2.41.67,4.82,1.36,7.2,2.07,7.28,6.71,31.11,26.6,50.35,45.85a194.26,194.26,0,0,1,31,39.79v0c1.39,2.43,2.06,3.81,2.06,3.81s-.42-1.5-1.43-4.1c1.56,2.83,2.76,5.2,3.62,7v0c1.18,2.47,1.73,3.86,1.73,3.86s-4.3-22.38-25.63-46.45A463.18,463.18,0,0,0,79.59,46.34q3.36,1.14,6.69,2.31C93.63,56.4,116.5,78,134.14,98.88c21.67,25.61,28,48,28,48s-.55-9.62-6.3-23.05a155.8,155.8,0,0,1,10.6,22.5.62.62,0,0,1,0,.09v-.05c.94,2.54,1.35,4,1.35,4s-1.63-19.25-17-42.2c.28.4.57.79.85,1.18C170,135,175.54,155.94,175.54,155.94s-1.33-22.26-19.65-47.73a432.62,432.62,0,0,0-41.63-48.55q8.14,3.51,16,7.27c6.07,9.12,22,31.31,34,52,15.43,26.68,18.45,47.64,18.45,47.64s1.35-21.88-14.1-48.32C157.2,98.76,141.45,78.1,133.24,68.35l4.84,2.37c4.39,6.91,23,31.41,36.55,54.27,11.68,19.72,16.07,36.45,17.56,43.81v0c.52,2.56.69,4,.69,4s2.32-22.27-13.48-48.66c-12.8-21.39-31.19-44-38.79-52.15q3.42,1.73,6.79,3.48c4.82,7.4,22.79,31.45,36.19,53.83,15.94,26.58,19.33,47.58,19.33,47.58s.51-12.33-5.9-29.59c10.11,24,10.95,41.52,10.95,41.52s3.52-21.48-9.47-48.58c-10.79-22.49-26.95-46.8-33.16-54.89,2.36,1.36,4.7,2.74,7,4.12,2.66,5.4,20.3,32.06,32.82,56.53,13.84,27.13,15.57,48.07,15.57,48.07s2.75-21.65-11.18-48.58c-11.85-23-29.49-47.82-35.49-55q4.44,2.67,8.74,5.37c3.7,7.21,19.31,32.69,30.32,56C226,179.29,227,200.16,227,200.16s1.47-8.91-.93-22.49a133.32,133.32,0,0,1,4.65,25.25v0c.19,2.54.18,4,.18,4s4.66-21.18-7-48.55c-9.66-22.7-24.64-47.4-30.48-55.65,1.57,1,3.12,2.07,4.66,3.1,2.15,5.12,18.56,32.46,29.86,57.39,12.32,27.41,12.85,48.22,12.85,48.22s4-21.35-8.38-48.53c-10.72-23.43-27.21-48.87-32.71-56q3.6,2.44,7.09,4.89c3.57,7.21,18.83,32.83,29.49,56.33,12.5,27.43,13.09,48.25,13.09,48.25s3.92-21.39-8.6-48.58a372.46,372.46,0,0,0-31.61-54.34q4.33,3.08,8.51,6.14c2.55,6.15,17.4,33.06,27.43,57.56,11.35,27.65,11,48.37,11,48.37s4.32-18.68-4.63-43.7l.81,2c10.81,27.7,10.12,48.38,10.12,48.38s3.46-13.73-1-33.54a137.14,137.14,0,0,1,6.22,34.19v0c.1,2.52.05,3.91.05,3.91s5.45-20.94-5.25-48.45c-9.09-23.42-23.74-49-29-56.75q4.2,3.31,8.18,6.56c.35,3.33,17.21,34.83,27.53,64a143.24,143.24,0,0,1,8.37,50.29v0h0c-.08,2.93-.26,4.57-.26,4.57s8.3-25.63-2.53-55.85c-.25-.69-.5-1.37-.76-2.06,1.55,3.86,3,7.74,4.44,11.59,11.57,31.75,11,57.21,11,57.21s5.33-26.79-6.31-58.29c-9.42-25.53-24.16-52.5-30.36-62.13q2.7,2.31,5.27,4.57c1.58,4.6,19,37.94,31.95,68.54,13.77,32.64,17.57,58.09,17.57,58.09s-.5-26.46-14.27-58.83c-12.24-28.77-29.45-59.71-34.14-66.83,1.66,1.46,3.28,2.91,4.86,4.33,1.37,4.27,21.13,37.93,35.1,69.18,14.79,33.08,17.08,59.68,17.08,59.68s2.21-28.07-12.58-60.87c-12.68-28.1-31.32-57.79-37.56-66.14l1.78,1.62c3.13,6.17,28.4,40.24,46.74,72.57A215.85,215.85,0,0,1,337.79,293v0c.77,3.6,1.06,5.62,1.06,5.62s1-26.18-13.37-56.85c1.15,1.93,2.29,3.86,3.39,5.79a230.2,230.2,0,0,1,24.49,61.14v0c.85,3.69,1.18,5.77,1.18,5.77s.6-33.11-20.19-69a488.42,488.42,0,0,0-33.84-49.85c10.84,13.44,31.72,38.57,48.56,62.95a244.9,244.9,0,0,1,30.46,60v0h0c1.2,3.63,1.74,5.69,1.74,5.69s-2.84-33.46-27.06-68.19c-14.75-21.18-33.26-42.56-46-56.12,12.38,11.47,28,26.23,41.89,40.88,28.6,30.23,42,58.06,42,58.06s-3.66-12-13.26-28.27a206.82,206.82,0,0,1,14,21.72s-10.83-30.68-40.23-60c-19.22-19.21-42.21-38.13-56.42-49,14.76,10.82,35.79,26.35,54.29,42.08a273.15,273.15,0,0,1,46.37,50.63l0,.05v0c2.25,3.24,3.39,5.12,3.39,5.12s-13.26-31.89-45.95-59.51c-30.61-25.87-69.3-49.85-76-52.63-1.65-1.65-3.37-3.36-5.16-5.11,9.27,6.31,44,27.08,73.61,48.27,34.56,24.76,54.77,49.36,54.77,49.36S383.84,233.4,349.46,209a669.68,669.68,0,0,0-68.73-42.26c16.86,7.91,46.13,21.22,71.57,36.55a211.75,211.75,0,0,1,55.07,48.26l0,.07,0,0C410.12,255,411.52,257,411.52,257ZM96.28,65c-11.45-9.77-22.11-18-28.2-22.35q4.23,1.29,8.42,2.67C80.23,49.16,87.63,56.31,96.28,65ZM90.37,50.13q6.1,2.23,12.08,4.62c4.91,5.85,14.69,16.91,25,29.44A416,416,0,0,0,90.37,50.13Zm50.29,44.38a457,457,0,0,0-34.83-38.39c1.84.75,3.68,1.51,5.5,2.28C116.2,64.54,128.5,78.84,140.66,94.51Zm48,35.33c-.25-.43-.49-.85-.75-1.28a408.83,408.83,0,0,0-38-51.75q6.89,3.66,13.51,7.45C166.31,90,178.28,109.54,188.7,129.84ZM164.09,80.61q-5.28-3.08-10.73-6.07c11.34.28,51.11-1.56,89.14.06C205.56,74.73,170.23,78.86,164.09,80.61Zm7.66,4.55c5.47.52,21.93.66,42.58,1.36-18.26.61-32.1,1.87-35.93,2.74C176.21,87.88,174,86.52,171.75,85.16ZM273.31,100q8.51.87,16.38,2c-.81-.11-1.62-.23-2.44-.33-42.73-5.22-89.63-4.85-95.34-3.69-1.77-1.19-3.57-2.37-5.39-3.56C196.65,95.34,236.69,96.24,273.31,100Zm-67.75,29A364.45,364.45,0,0,0,185,97.27c2.19,1.38,4.35,2.78,6.49,4.18C193.27,105.35,199,116,205.56,129Zm14.05-8q3.1,2.3,6.1,4.58c1.37,3.85,10.39,21,19,40.19C235.59,146.44,224.36,127.81,219.61,121Zm22.16,30.52A279.8,279.8,0,0,0,227.3,126.8c1.51,1.16,3,2.32,4.48,3.47C232.75,132.94,236.78,141,241.77,151.53Zm-7.31-22.06c7.68,2.15,29.76,6.84,54.8,13.27-23.67-5.46-43.85-8.51-49.21-8.65Q237.31,131.8,234.46,129.47Zm31.41,50.3c-8.7-18.65-18.47-34.91-22.4-40.13q3.54,2.91,6.89,5.76C252,149.86,258.65,163.38,265.87,179.77Zm27.56,6.55a17.38,17.38,0,0,0,1.13,1.69l-2-2.54ZM287,176.69a39.19,39.19,0,0,0-3.43-2.2l-1.24-1.28Q284.35,174.73,287,176.69Zm-6.81-4.23a49.4,49.4,0,0,0,3.32,5.39c-3.1-3.94-5.91-7.37-8.28-10.16Q277.82,170.14,280.2,172.46Zm-9-10.33,0,0,.1.05Zm-3.18-3.06c-1.36-1.29-2.75-2.61-4.18-3.94,2.95,1.44,7.73,3.6,13.78,6.33A65.58,65.58,0,0,0,268.05,159.07Z"/><path class="cls-1" d="M110.05,32S72.57,30,41.73,42.3A284.14,284.14,0,0,0,0,63.42v4.29C11.92,61.62,29,53,46.56,46.08,77.78,33.78,110.05,32,110.05,32Z"/><path class="cls-1" d="M78.37,24.77S51.51,29.49,26,42.77c-9.11,4.73-18.12,10-26,14.8v2.72c8.59-5,18.59-10.63,28.53-15.76A281.34,281.34,0,0,1,78.37,24.77Z"/><path class="cls-1" d="M122.06,43.88s-31.83.51-63.48,11A482.77,482.77,0,0,0,0,78.86v1.33c10.42-3.94,36.15-14.6,61.3-22.84A326.6,326.6,0,0,1,122.06,43.88Z"/><path class="cls-1" d="M261.6,251.69s-20-22.75-54.5-39.78C174.21,195.71,135,182,129.86,181.12c-.91-1.14-1.85-2.28-2.8-3.43,6.8,3.05,43.74,15.73,75.85,29.65A335.35,335.35,0,0,1,257.07,237l.07.06,0,0c2.93,2,4.5,3.18,4.5,3.18s-16.49-15.66-43.87-29.71a296,296,0,0,1,31.32,17.77s-21.29-18-54.34-31.39c-30.24-12.3-65.13-22.8-71.93-24.21q-1.59-1.85-3.24-3.71c8.6,3.2,45.38,13.88,77.69,26.23A333.58,333.58,0,0,1,241.54,216c2.71,1.67,5,3.13,6.76,4.31l.07.06,0,0c3,2,4.67,3.21,4.67,3.21s-1-.9-2.78-2.43c5.41,3.31,8.38,5.4,8.38,5.4a181.18,181.18,0,0,0-25.35-18,214.8,214.8,0,0,0-39.43-20.77c-34.23-13.6-74-24.19-79.74-24.82-1-1.07-2-2.15-3-3.22,8.47,2.84,45.8,12.33,78.8,23.66a328.94,328.94,0,0,1,57.95,26.4h0c3.17,1.86,4.88,3,4.88,3a161.62,161.62,0,0,0-15.51-10.87A220.79,220.79,0,0,0,182.58,173c-33.58-11.95-72.11-20.87-79.9-21.85-.94-.92-1.88-1.85-2.84-2.77,10,2.65,44.42,9.39,75.12,18.58,36.28,10.85,61.59,27.32,61.59,27.32a183.62,183.62,0,0,0-60.83-31.75c-32.43-9.58-69.13-15.09-77.16-15.36-1.15-1.09-2.31-2.19-3.5-3.29,9.69,2.27,46.91,8.56,80.3,17a346.35,346.35,0,0,1,60.82,21.65l.08,0,0,0c3.41,1.61,5.28,2.59,5.28,2.59s-27.38-18.52-65.68-28.06C141,148.37,101.91,143.2,94.07,143,93,142,92,141.1,91,140.16c10.73,1.7,46.82,5.48,79.7,11.6a346.42,346.42,0,0,1,62.07,17.79l.1,0-.05,0c3.54,1.41,5.49,2.27,5.49,2.27a233.23,233.23,0,0,0-67.71-24C136.49,141.59,99,139,89.85,139.17q-1.8-1.6-3.66-3.19c11.19,1.19,47.78,3.31,81.27,7.86a350.41,350.41,0,0,1,69.75,16.77A245.2,245.2,0,0,0,167.16,140c-34.59-4.59-72.41-5.47-82.06-4.95-1.81-1.55-3.66-3.1-5.53-4.63,8,.83,46.7,1.29,82.17,4.72a357.23,357.23,0,0,1,64.06,12.35l0,0,0,0c3.71,1.09,5.76,1.79,5.76,1.79a244,244,0,0,0-70.55-18c-36.51-3.44-76.19-2.43-82.19-1.41q-1.77-1.44-3.58-2.88c8.6.5,48.25-.33,84.64,1.79a383,383,0,0,1,66.18,9.78h0c3.79.93,5.9,1.53,5.9,1.53a258.35,258.35,0,0,0-72.8-15.1c-37.36-2.06-77.87.21-84.65,1.42-1-.81-2.06-1.6-3.1-2.4,10.42.2,48.63-1.3,83.88,0a372,372,0,0,1,72.58,9.79,261.2,261.2,0,0,0-73.4-13.53c-36.19-1.24-75.27,1.6-84,3-1.08-.83-2.18-1.66-3.28-2.48,11.85-.49,48-3.57,81.73-3.91a375.06,375.06,0,0,1,72.89,6.42,264.54,264.54,0,0,0-74.14-10.14c-34.56.44-71.33,4.8-81.66,6.75-1.23-.91-2.45-1.82-3.7-2.72,9.8-.67,47.11-5.67,82.09-7.53A370.11,370.11,0,0,1,217.27,113a265.12,265.12,0,0,0-74.46-7c-35.74,2-73.41,8.39-81.42,10.57-1.42-1-2.85-2-4.31-3.06,9.15-.83,46.39-7,81.44-9.89a365.78,365.78,0,0,1,72.67,1.36s-35-8.34-74.48-5c-35.79,3-73.28,10.64-80.48,13l-3.56-2.42c8-1,45-9,80.21-13.4A360.81,360.81,0,0,1,205,95.34s-35.53-6.94-74.26-1.91C95,98,58,107.48,51.94,109.93q-2.7-1.8-5.48-3.59c8-1.15,44.45-9.93,79.17-15.11A354.72,354.72,0,0,1,197.34,88s-35.7-6.21-74-.36C88.05,93,51.77,103.25,45.71,105.86c-1.61-1-3.24-2-4.89-3.06,9.68-1.71,44.52-10.25,77.84-15.45a353.86,353.86,0,0,1,71.58-3.66s-35.73-6-74,.09c-33.89,5.39-68.65,15.31-76.47,18.4q-2.51-1.53-5.05-3C45,97,78.54,87.77,110.77,81.82a355.09,355.09,0,0,1,64.77-5.6l.1,0-.06,0c3.95,0,6.18.14,6.18.14s-35.9-5.12-73.59,1.94C75.35,84.45,42,95,33.6,98.47q-3.12-1.83-6.33-3.61c8-1.73,39.43-11.68,70.07-18a288.64,288.64,0,0,1,66.07-5.45s-34.54-5.42-69,1.79C63.16,79.74,32,91.22,26.31,94.32c-2.18-1.21-4.4-2.41-6.64-3.59,7.88-1.93,39.7-11.47,69.77-18.66a466.14,466.14,0,0,1,57.28-9.79h0c3.41-.35,5.32-.5,5.32-.5a317.42,317.42,0,0,0-64.37,8.29c-30.39,7.32-62,17.67-68.61,20.35-1.83-1-3.69-1.91-5.56-2.85,8.5-2.11,41-13.09,72.65-20.48a318,318,0,0,1,68.56-8s-35.76-4-71.55,4.48C51,71.23,18.76,83.67,12.49,87.05L8.43,85c9.47-3,39.38-15.59,69.72-23.87,35.8-9.76,71-8.2,71-8.2S109,46.78,73.57,56.6c-31,8.6-60.19,23.06-66.8,27.65Q3.43,82.66,0,81.11v4.37c.9.41,1.82.8,2.71,1.21,2.7,4.67,9.82,15.73,16.77,27.91A218.82,218.82,0,0,0,0,91.43V97a277.74,277.74,0,0,1,16.88,23c13,20.21,11.48,36.52,11.48,36.52s4.47-10.55.2-24.71c8.78,18.89,9.13,32.64,9.13,32.64s3.46-15.76-7-36.24A280.42,280.42,0,0,0,4.56,87.54q5,2.31,9.78,4.73c3.58,7.19,13.41,25,20.12,41.31C40.83,149,41.9,161.4,42,166.77v0h0c0,1.87,0,2.9,0,2.9s5-15.36-3.69-36.06A261.38,261.38,0,0,0,16.4,93.32c2.72,1.39,5.4,2.79,8,4.23,3.17,6.67,13.2,25.21,19.9,42.06,6.2,15.47,7.11,27.84,7.17,33.21v0c0,1.87-.06,2.89-.06,2.89s5.15-15.29-3.25-36A255.93,255.93,0,0,0,26.3,98.56c1.78,1,3.53,2,5.27,3,2.81,6.34,12.73,25.34,19.23,42.56,7.89,20.89,6.31,36.07,6.31,36.07s5.51-15.2-2.42-35.94a252.52,252.52,0,0,0-21.35-41.68c1,.61,2.08,1.23,3.11,1.85C39,109.69,50.6,129.5,58.4,147.47c6.7,15.39,8.05,27.77,8.3,33.18v0l0,0c.08,1.89,0,2.93,0,2.93s4.59-15.46-4.51-36.13a260.86,260.86,0,0,0-24.16-42.11q2.61,1.58,5.18,3.18c3.41,6.17,15.32,24.88,23.68,42,7.46,15.31,9.47,27.74,10,33.17v0h0c.19,1.89.2,2.93.2,2.93a24.75,24.75,0,0,0,.44-3c.18,2.2.23,4,.23,5.37h0c0,1.86-.09,2.88-.09,2.88s5.32-15.24-2.89-36c-6.25-15.77-16.24-33.06-21.29-40.74q2.34,1.59,4.64,3.19c3.05,6.81,13.5,26.4,19.9,44.14,7.87,21.8,4.3,37.55,4.3,37.55s3.36-6.22,3.9-16.2a78.58,78.58,0,0,1-.11,17l0,.05,0,0c-.24,1.85-.46,2.85-.46,2.85s6.3-12.58,2.61-31.07c.08.33.17.66.25,1,5.06,21,1.32,35.66,1.32,35.66s7.73-14.39,2.59-35.23a228.38,228.38,0,0,0-15.36-41.44q5.39,4.34,10.44,8.75c1.43,7.35,5.85,25.47,7.62,41.66,2.26,20.85-3.55,34.87-3.55,34.87s9.82-13.46,7.46-34.17c-1.77-15.28-6.67-32.4-9.63-40.69l3.08,2.75c.92,5.52,6.68,25.81,8.88,43.74a74.77,74.77,0,0,1-2.79,32.22v0h0c-.58,1.75-1,2.69-1,2.69s10.77-13.45,8.1-34.21c-2.16-16.81-8.48-35.83-11.57-43q2.16,2,4.26,4c1.09,5.95,6.49,25.78,8.75,43.35,2.71,20.93-2.8,35.06-2.8,35.06s5.32-7.65,6.83-20.2c-1.1,17.76-7.36,29-7.36,29a52.21,52.21,0,0,0,11.41-33.12c-.06-17-3.85-36.54-5.82-43.26,1.43,1.47,2.83,3,4.21,4.42.07,4.11,4.17,25.52,4.88,44.22.74,20.71-6.13,34.38-6.13,34.38s10.89-12.95,10-33.57c-.73-17.57-5.56-37.81-7.71-43.91q2.64,2.83,5.14,5.66c.22,5.54,3.09,25.66,3,43.24-.13,20.63-7.63,34-7.63,34a47.52,47.52,0,0,0,8.15-14.41,76,76,0,0,1-6.15,17.12l0,0,0,0c-.85,1.65-1.41,2.54-1.41,2.54a53,53,0,0,0,13.47-32.45c1-16.84-1.69-36.32-3.27-43l2.65,3.17c-.24,3.81,2.55,25.32,2.06,44-.62,20.5-8.45,33.77-8.45,33.77a52.32,52.32,0,0,0,12.29-32.8c.38-17.57-3.24-37.91-5-43.83q2,2.48,4,4.93c.11,5.49,2.63,25.61,2.18,43.2-.49,20.57-8.26,33.86-8.26,33.86a52.4,52.4,0,0,0,12.13-32.9,187.5,187.5,0,0,0-4.73-42.48c1.58,2,3.14,4.06,4.64,6.06-.32,4.54,1.35,25.39,0,43.46-1.54,20.4-10,33.39-10,33.39a52.75,52.75,0,0,0,13.5-28.78c0,.5-.09,1-.14,1.5-2,20.29-10.79,33.16-10.79,33.16a52.37,52.37,0,0,0,12.51-21.41,78.84,78.84,0,0,1-8.39,23.2l0,0,0,0c-.92,1.62-1.52,2.48-1.52,2.48a53.51,53.51,0,0,0,14.87-31.94c1.74-17.14-.28-37.11-1.6-43.35q2.17,3.18,4.2,6.27c-1,2.22.49,26.46-2.49,47.53a83.56,83.56,0,0,1-13,33.91h0c-1.23,1.83-2,2.82-2,2.82s17.09-14,20.07-35.91c.07-.51.13-1,.2-1.55-.25,2.86-.55,5.72-.91,8.53a100.43,100.43,0,0,1-13.53,39s15.07-15.52,17.89-38.42c2.29-18.56.73-39.4-.6-47.1q1.32,2.16,2.57,4.25c-.51,3.32.76,28.89-.62,51.55-1.5,24.19-8.44,41.24-8.44,41.24a97.59,97.59,0,0,0,11.48-40.84c1.23-21.33-.8-45.32-1.88-51q1.2,2,2.32,4c-.55,3.07,2.53,29.43,1.76,52.78-.83,24.72-9.49,42.1-9.49,42.1A78.82,78.82,0,0,0,169,286.49c.59-21-3.13-44.6-5-51.5l.83,1.48c.17,4.72,7.66,32.78,10.1,58A111.79,111.79,0,0,1,170.56,338l0,0,0,0c-.79,2.47-1.35,3.82-1.35,3.82a76.64,76.64,0,0,0,11.45-39.33c.18,1.51.36,3,.51,4.52a118.53,118.53,0,0,1-3.89,45h0c-.76,2.54-1.31,3.93-1.31,3.93a80.16,80.16,0,0,0,10.58-48.78,246,246,0,0,0-8.35-40.21c3.69,11.32,11.08,32.57,15.42,52.31,6.22,28.45.71,49.84.71,49.84s10.92-21.85,4.55-50.07c-3.87-17.19-10.77-35.47-16-47.34,5.75,10.45,12.91,23.82,18.63,36.66,11.8,26.51,11.89,47.55,11.89,47.55s1.72-8.53.18-21.29a103.15,103.15,0,0,1,3,17.34s3.16-22.17-9.66-48.34c-8.38-17.14-20-35.07-27.54-45.59,8,10.66,19.34,25.95,28.5,40.7a145.83,145.83,0,0,1,18.49,44v0c.58,2.64.79,4.13.79,4.13s1.61-23.57-14.63-49.51c-15.21-24.29-37.91-49.5-42.34-53q-1.08-2.22-2.26-4.57c5.2,6.38,25.86,28.53,42.11,49.61,18.94,24.62,26,45.4,26,45.4s-3.52-22.4-22.43-46.78a441.26,441.26,0,0,0-40.45-44.55c10.9,9.38,30,25.39,45.09,41.69,16.91,18.28,24.09,36.52,26.68,44.77v0c.91,2.88,1.25,4.55,1.25,4.55s.58-15.83-8.68-34a192.22,192.22,0,0,1,12.12,16.8h0c1.56,2.45,2.33,3.85,2.33,3.85s-8.33-23.06-32.5-45.86c-22.16-20.89-50.6-41.66-56.59-45.08l-.51-.92c7.06,5.21,33,21.72,54.18,38.54a182.32,182.32,0,0,1,34.76,36v0c1.64,2.31,2.46,3.64,2.46,3.64s-9-22.69-33.94-42.29c-23-18.06-52.32-34.85-58.25-37.25-.86-1.53-1.76-3.1-2.68-4.69,5.54,4.14,33.95,21,57.26,38.36,26.09,19.46,39.4,39.13,39.4,39.13S245.28,278,219.29,258.8c-25-18.49-56.83-35.37-60.92-36.5-.61-1-1.23-2.08-1.87-3.14,6.61,3.92,29.54,16.22,49.3,28.57,23.41,14.63,37.62,28.66,37.62,28.66S230.61,260.47,207.36,246C186.65,233.16,162,220.85,156,218.34c-.95-1.55-1.91-3.13-2.92-4.73,7.83,4.81,36.52,20,60.62,35.81A217,217,0,0,1,254.57,284h0c2,2.23,3.06,3.53,3.06,3.53s-9.21-16.13-29-32.22A235.77,235.77,0,0,1,258.1,281h0c2.2,2.31,3.35,3.65,3.35,3.65s-14.53-23.3-44.59-42.36c-27.67-17.55-61.55-33.36-68.22-35.55q-1.32-2-2.7-4c7.66,4.39,39.06,19.48,65.71,35.4C242.32,256.49,260.12,276,260.12,276s-15.44-22.87-45.94-41c-28.3-16.78-62.71-31.57-69-33.36-1.55-2.25-3.17-4.52-4.83-6.81,6.41,3.64,39.52,18.8,67.83,34.67,31.54,17.66,47,32.67,47,32.67a20.48,20.48,0,0,0-1.85-2.23C248.7,254.6,235,240.46,210.3,226.7c-29.77-16.56-65.52-31.39-70.48-32.61q-2.12-2.91-4.37-5.86c7.87,3.88,41.67,17.44,70.75,32.18a275.24,275.24,0,0,1,49.61,32.17l.05.06,0,0c2.62,2.17,4,3.44,4,3.44s-18.62-22.37-51.58-39c-30.73-15.46-67.32-28.49-73.56-29.82q-2-2.66-4.19-5.34c6.95,3.52,43.3,17.83,74.59,33.37C239.87,232.55,261.6,251.69,261.6,251.69ZM60,131.33c-5.65-9.13-11.24-17.09-14.59-21.42q3,1.92,6,3.87C53,117.18,56.28,123.61,60,131.33Zm1-10.88q4.18,3,8.2,6c1.77,5,5.52,14.5,9.1,25.08A234.94,234.94,0,0,0,61,120.45Zm24.23,41.09a246.61,246.61,0,0,0-13.75-33.31c1.22,1,2.45,1.9,3.65,2.86C76.79,136.23,81.37,148.48,85.27,161.54Zm26,34.78-.12-1A208.52,208.52,0,0,0,100,152.75c2.86,2.73,5.61,5.47,8.29,8.22C108.4,165.36,110.6,180.8,111.22,196.32Zm-7.47-44.12c9.31,3.12,43.18,12.31,74.21,23.24-30.83-9.54-61.91-16.14-67.7-16.62Q107.1,155.51,103.75,152.2Zm11.07,11.47c4.33,1.75,18,6.13,34.93,12-15.45-4.37-27.48-7.18-31-7.62Q116.82,165.84,114.82,163.67Zm6.28,11.12c1.27,1.44,2.52,2.89,3.74,4.32-.1,2.93.48,11.15.76,21A185.14,185.14,0,0,0,121.1,174.79Zm2.34-1.41c8,3.19,41,14.18,70.07,26.07q6.75,2.76,12.84,5.56l-1.92-.85c-33.52-14.42-72.75-26.4-77.91-27.13Q125,175.21,123.44,173.38ZM176,259.17a10.92,10.92,0,0,0,.26,1.32c-.22-.71-.45-1.41-.67-2.08Zm-1.49-7.71a24.79,24.79,0,0,0-2-2.31c-.17-.38-.35-.75-.52-1.14C172.66,249,173.51,250.16,174.47,251.46Zm-4-4.47a27,27,0,0,0,.62,4.27c-1-3.3-2-6.2-2.86-8.57C169,244.17,169.75,245.6,170.46,247Zm-3.37-8.86v0l.06.06Zm5.62,1.25a58.34,58.34,0,0,0-7.05-4c-.62-1.17-1.26-2.37-1.92-3.58C165.63,233.48,168.76,236.09,172.71,239.38Zm-16.34-17.23c-.38,3.25-.25,13.5-.74,25.72.16-14-1.51-26.82-2.72-31.14Q154.71,219.48,156.37,222.15Zm33.42,8.43c-17.55-9.6-33.13-16.78-37.52-18.25-.92-1.45-1.86-2.9-2.83-4.37C155,211.3,171.49,220,189.79,230.58Zm-42.89-22.8c-.25,1.95-.1,8.12-.12,16.07a141.8,141.8,0,0,0-2.23-19.43C145.35,205.55,146.13,206.67,146.9,207.78Zm-3.19-4.54c-.39,2.82.29,16-.15,30.26.1-14.55-1.85-29.19-3.1-34.72Q142.13,201,143.71,203.24Z"/><path class="cls-1" d="M100,40.21h0c3.18-.49,5-.71,5-.71s-30.13.77-59.18,11.35A423.51,423.51,0,0,0,0,71V73.1c11.6-5,30.22-13.19,48.63-19.83A289.58,289.58,0,0,1,100,40.21Z"/><path class="cls-1" d="M233.22,390.15c-19.95-41.63-47.51-81.6-54.79-89.63C145.08,243.45,88.64,169,0,112.1v7.13c1.44.92,2.89,1.84,4.31,2.77-.23,9.41,5.07,45.16,3.16,79.69a170.63,170.63,0,0,1-7.47,40v11.59c7.61-14.5,15.68-34.32,16.66-54.48,1.54-31.56-5.24-63.43-9.35-74.8q6,4,11.82,8.09c-.34,10,2.45,46.37.21,80.42A224.38,224.38,0,0,1,2,283.8s21.65-33.67,24-72.75C28,178.86,23.76,145,21.1,133.46c1.77,1.26,3.52,2.52,5.26,3.8.43,10.63,6.68,48,6.63,84.1-.05,31.12-8.62,59.43-13,72h0c-1.54,4.38-2.59,6.85-2.59,6.85s23.87-40.43,23.72-82c-.13-33-7.48-66.26-11.75-78.78q4.7,3.5,9.26,7c.41,12.07,3.77,50.3,3.72,85.9a343.6,343.6,0,0,1-7.53,69.89h0c-.88,4.07-1.48,6.34-1.48,6.34S47,273.3,46.93,231.15c0-34.17-4.4-70.41-6.81-83.48,2.06,1.62,4.09,3.24,6.11,4.87.38,10.25,6,50.1,6.79,88.13a304,304,0,0,1-9.77,80.56S59.94,281.07,58.91,238c-.88-35.61-7.55-72.11-10.84-84q3.26,2.66,6.44,5.34c-.09,8.91,5.6,49.68,5.59,89-.05,43.79-13,82.32-13,82.32S67,288.48,66.8,245.14c-.15-36.37-7-73-10.38-84.17q3.64,3.1,7.21,6.24c.19,9.11,7.2,48.54,8.05,86.73.69,31.72-6.37,60.72-10.07,73.61v0c-1.29,4.49-2.18,7-2.18,7s20.62-41.61,19.47-84C78,215.88,70.05,181,66,169.32q3.87,3.44,7.63,6.92c.52,11.8,6.13,50.87,6,88.53C79.51,309.11,65,347.91,65,347.91s22.25-42.42,22.16-86.32c0-34.19-6.57-68.72-10.55-82.58q4.36,4.1,8.57,8.23c.28,10.74,6.09,50.2,5.93,88.62-.12,32.79-8.09,63-12.2,76.36h0c-1.42,4.66-2.39,7.3-2.39,7.3S98.63,316,98.59,272.24c0-34.5-6.65-69-10.58-82.21q4.77,4.74,9.33,9.49c.81,14.18,5.23,51,4.62,86.85-.77,44.92-15.79,85.07-15.79,85.07s22.8-44.32,23.33-88.75c.39-31.78-4.63-63.52-8.37-79.19q3.89,4.14,7.64,8.27c.43,13.73,2.9,48.65,2.16,81.76A328.35,328.35,0,0,1,99.77,370.1s15.32-37.06,16.12-78.57a500.27,500.27,0,0,0-5-77.34q3.48,3.9,6.85,7.79c0,13.75,1.69,50.57-.11,84.7a297,297,0,0,1-12.14,69.18l0,.08,0,0c-1.22,4-2,6.22-2,6.22s17.5-34,19.57-76.22a507.42,507.42,0,0,0-3.17-81.47q3.07,3.62,6,7.2c-.06,12.72,1.91,48.51-.19,82.14a264.39,264.39,0,0,1-16.15,74.71s19.9-35.35,22.27-76.28c1.8-30.84-1.14-63.13-3.48-77.59q3.36,4.11,6.58,8.2c-.24,12.14,1.47,48.57-1,82.83a274.89,274.89,0,0,1-14.41,68.71h0c-1.4,4-2.32,6.27-2.32,6.27S137.32,365,140.06,324c2.12-31.37-.61-64.17-2.8-78.27q3.5,4.49,6.83,8.93c-.67,11.92,0,49.58-3.64,84.73a269.16,269.16,0,0,1-19.54,75.4s21.72-35.09,25.83-76.71c3.2-32.3,1.32-66.41-.51-80.53q3.06,4.13,6,8.19c-.76,12.45-1.89,47.93-4.83,79.81-3.62,39.26-12.08,66.72-12.08,66.72s11.57-27,15.1-66c2.79-31,3.14-65.59,2.76-79.2q2.64,3.71,5.16,7.36c-1.1,11.59-2.34,50.36-6.88,85.94-5.39,42.09-16.58,68.09-16.58,68.09a34.59,34.59,0,0,0,1.91-3.45c4.47-8.49,15.56-32.17,19.67-65.15,4.18-33.57,4.17-69.8,3.3-83.35q3.3,4.83,6.41,9.55c-1,8.82-1.32,47.73-5.7,82.86-5,39.66-19.15,68.65-19.15,68.65s19.88-29.22,24.64-68.54c4-32.93,2.9-69.19,1.54-80.92q3.42,5.26,6.6,10.36c-1.11,10.14-2.07,47.08-6.8,81a266.12,266.12,0,0,1-17.48,63.74l0,0,0,0c-1.53,3.65-2.5,5.66-2.5,5.66s20.19-30.89,25.46-69.95c4.26-31.43,3.93-65.31,2.86-78q2.31,3.75,4.5,7.4c-1.06,9.2-1,47-5.54,81.93a244.42,244.42,0,0,1-21.2,71.2s22.52-32.85,27.51-72.29c4-31.67,2.62-65.31,1-77.84q2.66,4.5,5.11,8.83c-1.13,7.57-2,45.09-6.66,79.26a259.86,259.86,0,0,1-16.42,61.11l0,0,0,0c-1.44,3.5-2.35,5.43-2.35,5.43s18.85-29.34,23.85-66.91c4.24-31.74,3.79-66.22,2.71-76.93q2.22,4,4.28,7.74c-.4,3.92.36,22.09.54,44.46-1.31,12.85-3,27.59-5.46,41.69a233.09,233.09,0,0,1-20.67,63.62s18.82-26,25.34-61.26c-2.2,38.45-11.54,66.83-11.54,66.83s14.59-30.79,16.24-70.71c.51-12.46.43-25.34,0-37.21,1.19-18.58,1-33.71.42-38.22l.93,1.8c.63,2,2,5.25,3.93,9.6-.61,8.65-.15,44.89-2.79,77.45-3,37.13-13.26,63.89-13.26,63.89s14.55-26.75,17.43-63.58c2.34-30.05,1-63.26-.22-75.14l4.13,9.25c-.48,10.77.19,46.29-2.43,78.44-3.1,38.21-14.45,65.94-14.45,65.94S206.77,479,209.74,441a482.82,482.82,0,0,0-.64-74.93c.55,1.24,1.12,2.51,1.69,3.82,0,10.51,2.71,47.68,1.41,81.52A243.37,243.37,0,0,1,201.05,515v0h0c-1.18,3.61-2,5.6-2,5.6s17.18-30.09,18.56-69.42a448.06,448.06,0,0,0-2.58-60.87q.45,2.85,1,6c1,16.08,2.54,40.2,2.38,63a270.45,270.45,0,0,1-9.2,68.29,190.72,190.72,0,0,0,13.73-69c0-2.09,0-4.19,0-6.29A255.23,255.23,0,0,1,218.24,519h0c-.83,4-1.43,6.3-1.43,6.3a196.72,196.72,0,0,0,11.12-46.73,258.83,258.83,0,0,1-3.3,40.44s9-29.89,6.67-63.63a276.53,276.53,0,0,1-1.19,74.9s14.6-47,6.49-90.62c-.3-1.62-.61-3.24-.94-4.85C247.5,476,245.88,515,245.88,515s7.44-44.94-3.91-86.44a393.32,393.32,0,0,1,14.29,50.69v.05c1.1,5.29,1.58,8.32,1.58,8.32S255.59,436.81,233.22,390.15ZM195.27,349.3c-.68-8.2-1.41-14.47-2-17.72q1.75,3.27,3.39,6.39C196.29,339,195.84,343.07,195.27,349.3Z"/><path class="cls-1" d="M0,126.78v87.07a104.11,104.11,0,0,0,5.74-28.36A223.49,223.49,0,0,0,0,126.78Z"/><path class="cls-1" d="M79.56,356.8s-17.44-23.07-44.2-34.21A251.73,251.73,0,0,0,0,311.18v4c10.37,3.29,22.81,7.48,34.48,12.39A159.06,159.06,0,0,1,79.56,356.8Z"/><path class="cls-1" d="M85.18,372.17s-15.89-24.72-43.4-38.51A289.28,289.28,0,0,0,0,317.12v3.78c11.57,4.57,26.47,10.67,40.15,17.61A165.63,165.63,0,0,1,85.18,372.17Z"/><path class="cls-1" d="M84.81,348.13l0,0,0,0c2.59,2,4,3.18,4,3.18S68.64,328.12,38.36,317A305.53,305.53,0,0,0,0,306v4.07c11.41,3.21,24.86,7.24,37.53,12A190.47,190.47,0,0,1,84.81,348.13Z"/><path class="cls-1" d="M57,260.61S30.25,247.16,0,249.48v5.41l.55,0A160.14,160.14,0,0,1,57,260.61Z"/><path class="cls-1" d="M94.09,431.87s-6.1-22.41-31.57-43c-23.65-19.15-55.19-37.52-61.32-40C.81,348,.4,347.08,0,346.2V352c2.64,5.92,5,11.78,7,17.5-1.3,4.37-3.76,14.17-7,25.72v10.69a345.93,345.93,0,0,0,7.6-34.65c1,3,2,6,2.88,8.88C9.1,383.26,5.31,397.3,0,413.24v11.69c6.29-18.45,10.23-37.14,10.92-43.3q.91,3.09,1.73,6.1c-1.56,4.46-5.28,18.15-10.13,32.94-.81,1.64-1.66,3.32-2.52,5V438.2c8.87-16.32,15.58-33.69,16-36.43.29,1.38.57,2.74.82,4.08v0c-.84.42-7.91,16.18-16.82,32.8v5.78c9.36-17.47,16.53-35.76,16.89-38.3.23,1.2.45,2.38.66,3.55l-.06,0,0,0,0,0v0C16.08,411.17,9.12,428.32,0,446.6v8.46c10.07-20,17.22-41.17,17.65-44.81.31,1.78.59,3.5.85,5.19-2.19,3.79-9.19,23.23-18.5,43.13V470c10.18-20.68,17.25-43.91,18.86-52.12.1.7.2,1.39.29,2.07V420c-1.69,2.07-8.84,31.1-19.14,57.16v14.35c.1-.21.21-.41.31-.63,11.26-23.64,18.83-51.9,20.06-60.09.06.6.11,1.18.15,1.76-1.38,3.94-4.81,34.49-11.42,61A157.1,157.1,0,0,1,0,519.65v6a104.05,104.05,0,0,0,13.36-30.89,308.55,308.55,0,0,0,7.32-48.13c.25,12.27.84,33.18-.39,52.36-1.88,29.33-11.4,49.84-11.4,49.84s13.9-20.18,15.65-49.27c1.61-27-1.76-57.65-3.25-62.82,0-1-.07-2.1-.12-3.23,1.66,12.33,4.95,34.46,5.85,54.88,1.32,30.22-7,52.13-7,52.13s13.22-22,11.8-52c-1.42-29.53-9.64-62.69-11.34-64.66-.17-1.85-.36-3.78-.59-5.77,2.95,9.68,11.69,34.66,17.37,57.79a181.92,181.92,0,0,1,5.29,47.4h0c-.09,2.72-.22,4.22-.22,4.22s6-23.14-1.24-52.12c-6.71-26.95-18.84-56.23-21.63-60.83-.23-1.78-.5-3.62-.79-5.51,3.29,9,15.75,37.26,24.05,63.58,9.92,31.51,8.47,56.46,8.47,56.46s6.05-26.15-3.91-57.38c-9.63-30.11-26.31-62.41-29-65.36-.22-1.35-.46-2.71-.71-4.1C21,410.08,35,436.66,45,461.52a192.72,192.72,0,0,1,12.64,48.36v0c.33,2.85.42,4.45.42,4.45s2.61-24.93-9.19-53.91c-11.25-27.66-28.74-57-31.69-60.2-.27-1.42-.56-2.85-.86-4.31,2.15,5.27,20.6,35.45,33.79,63.85,14.34,30.85,16.77,56.48,16.77,56.48s1.83-27.42-12.53-58-36.42-62.68-38.13-63.13h0l-.05,0h0c-.31-1.41-.62-2.85-1-4.3,3.39,6.14,23.56,34.38,38.66,61.3,16.79,30,21.35,55.54,21.35,55.54S74.71,480,57.91,450.28c-16.5-29.13-40.44-59.16-43-60.65-.35-1.45-.72-2.93-1.1-4.42,4.85,6.29,25.75,28.29,42.06,50.68a175,175,0,0,1,25.7,51.36,127.65,127.65,0,0,0-12-38.27,188.86,188.86,0,0,1,15.1,31.25l0,.07v0c1.15,3.12,1.69,4.92,1.69,4.92s-4.27-30.73-24.74-57.06c-19.07-24.56-44.84-47.23-49.7-50-.4-1.36-.81-2.73-1.24-4.11C17.49,381.2,39,400.55,56.2,421.1a173.08,173.08,0,0,1,27.7,47.15l0,.09v-.06c1.2,3.13,1.78,5,1.78,5s-4.89-31.92-25.84-56.65C41,394.37,16.09,375,9.89,371.65c-.45-1.39-.91-2.79-1.39-4.19,5.92,5.63,29,23.58,47.5,42.63a157.92,157.92,0,0,1,28.88,41.84v0c1.28,2.76,1.91,4.38,1.91,4.38A111.06,111.06,0,0,0,75.61,428c10.77,15.12,15.7,27,15.7,27s-6.69-28.77-29.88-52C39,380.48,9.24,360.55,5.67,359.65c-.55-1.43-1.12-2.87-1.7-4.31,5.62,4.91,31.26,22.42,52.19,41.25A174.43,174.43,0,0,1,89.25,437.3l0,0v0c1.57,2.71,2.36,4.3,2.36,4.3S83,413.74,59.24,392.55c-3-2.69-6.14-5.32-9.3-7.87,2.79,2.16,5.54,4.34,8.21,6.52C83.67,412,94.09,431.87,94.09,431.87Zm-73.92-3.26c-.52.67-1.53,3.18-3,7a127.8,127.8,0,0,0,2.24-13.46Q19.88,425.56,20.17,428.61ZM15,397.07q.51,2.21,1,4.35h0c-.55.31-3.27,6.07-7.25,14.09A144.7,144.7,0,0,0,15,397.07Zm-.34-1.45c-.87,1.32-2.69,5.21-5.19,10.56,1.81-7.26,3.08-13.31,3.64-16.79C13.65,391.51,14.16,393.58,14.64,395.62Zm9.48-2.83c-5.28-5-9.24-8.32-10.72-9.15-.32-1.22-.66-2.46-1-3.7C14.43,382.4,18.69,386.93,24.12,392.79Zm-.07-16.67c-7.84-5.63-13.94-9.4-16.12-10.28-.59-1.68-1.21-3.38-1.85-5.08C8.32,363.06,15.21,368.65,24.05,376.12ZM3.44,354.07c-.54-1.32-1.1-2.65-1.68-4,4,3.05,14.83,10.3,27.52,19.33C16.53,360.74,6,354.82,3.44,354.07Z"/><path class="cls-1" d="M68,292.54h0c3,1.26,4.72,2.08,4.72,2.08s-26-17.48-58.07-20.69c-4.86-.48-9.78-.81-14.64-1v4.87c5.08.31,10.22.72,15.29,1.24A194.15,194.15,0,0,1,68,292.54Z"/><path class="cls-1" d="M89.63,403.43s-8.09-21.85-35.2-40.13C35.92,350.82,13.23,339.17,0,333.1v2.5c12.35,7,32.88,18.6,50.32,30.45C77.51,384.56,89.63,403.43,89.63,403.43Z"/><path class="cls-1" d="M94.55,394.92s-10.13-21.45-39-38.68C36.7,345,14,334.55,0,328.79v2.55c13.13,6.62,33.85,17,51.71,27.76C80.66,376.56,94.55,394.92,94.55,394.92Z"/><path class="cls-1" d="M62.21,271.3l.11.06-.06,0c3.36,1.07,5.25,1.8,5.25,1.8S37.44,256.41,4.81,257c-1.6,0-3.21.08-4.81.14v5.79c2.23-.08,4.47-.14,6.69-.16C31,262.44,52.61,268.25,62.21,271.3Z"/><path class="cls-1" d="M43.05,240a131.17,131.17,0,0,0-43-6.36v4.74A168.26,168.26,0,0,1,43.05,240Z"/><path class="cls-1" d="M13.14,270.36a202.22,202.22,0,0,1,56.28,9.7h0c3.28,1.07,5.1,1.78,5.1,1.78S45.7,265.64,12,265c-4-.07-8,0-12,.08v5.2C4.37,270.26,8.78,270.26,13.14,270.36Z"/><path class="cls-1" d="M85.74,406.06c.59.79,1.1,1.5,1.55,2.14l0,.07v0c1.57,2.24,2.33,3.53,2.33,3.53s-.24-.75-.79-2.09A89,89,0,0,1,96,419.31s-3.72-11.09-15.34-24.18a102.45,102.45,0,0,0-24.22-24.19C36.79,356.81,12,343.57,0,337.94v2.12c7.37,4.53,19.51,11.74,32.23,20C17.68,351.84,4.85,345.67,0,343.82v1.12c7.72,5,35.54,20.51,58,36.44A166.71,166.71,0,0,1,85.74,406.06Z"/><path class="cls-1" d="M57.73,251.74S31,239.94,0,242.74v5.41A174.81,174.81,0,0,1,57.73,251.74Z"/><path class="cls-1" d="M91.57,383l0,.05v0c2,2.17,3,3.45,3,3.45s-11-22.4-41.27-39.15C35.59,337.52,14.71,328.65,0,323.07v3.14c13.69,6.28,32.7,15.14,49.38,24.44C71.87,363.21,85.83,376.79,91.57,383Z"/><path class="cls-1" d="M92.08,345.29s-21.89-23.91-54-34.75A315.39,315.39,0,0,0,0,300.53v4.41c11.54,2.95,24.8,6.6,37.37,10.91A194.6,194.6,0,0,1,92.08,345.29Z"/><path class="cls-1" d="M82.35,332.2h0c2.81,2,4.36,3.2,4.36,3.2s-23.09-24.56-54.6-33.75a258.5,258.5,0,0,0-32.12-7v5.08c10.1,2.1,21.25,4.69,31.94,7.87A182.31,182.31,0,0,1,82.35,332.2Z"/><path class="cls-1" d="M70.38,301.94l0,0h0c2.87,1.42,4.45,2.33,4.45,2.33s-23.65-18.95-55.21-23.5c-6.5-.93-13.15-1.57-19.63-2v4.91c6.47.61,13.12,1.36,19.6,2.33A177.49,177.49,0,0,1,70.38,301.94Z"/><path class="cls-1" d="M77.84,320.24a120.85,120.85,0,0,0-29.41-19.62,178.69,178.69,0,0,1,28,12.81l0,0v0c2.84,1.64,4.39,2.66,4.39,2.66s-22.63-20.83-55-27.42c-8.53-1.75-17.37-3-25.79-3.92v8.94c8.29,1.21,17.08,2.69,25.56,4.55A159.58,159.58,0,0,1,77.84,320.24Z"/></g></svg>