<svg xmlns="http://www.w3.org/2000/svg" viewBox="0 0 557.58 569.34"><defs><style>.cls-1{fill:#e4002b;}</style></defs><g id="_ÎÓÈ_3" data-name="—ÎÓÈ_3"><path class="cls-1" d="M152.94,150.44l.61-5.68a9.06,9.06,0,0,1,8-8l5.68-.6-5.68-.61a9,9,0,0,1-8-8l-.61-5.68-.6,5.68a9.06,9.06,0,0,1-8.05,8l-5.68.61,5.68.6a9.07,9.07,0,0,1,8.05,8Z" transform="translate(0 0)"/><path class="cls-1" d="M114.25,64.46l.6-5.68a9.07,9.07,0,0,1,8.05-8.05l5.68-.6-5.68-.61a9.06,9.06,0,0,1-8.05-8.05l-.6-5.68-.61,5.68a9,9,0,0,1-8,8.05l-5.68.61,5.68.6a9.06,9.06,0,0,1,8,8.05Z" transform="translate(0 0)"/><path class="cls-1" d="M59.58,112.57l.6-5.68a9.09,9.09,0,0,1,8.06-8.06l5.68-.6-5.68-.6a9.08,9.08,0,0,1-8.06-8.06l-.6-5.67L59,89.57a9.07,9.07,0,0,1-8.06,8.06l-5.67.6,5.67.6A9.08,9.08,0,0,1,59,106.89Z" transform="translate(0 0)"/><path class="cls-1" d="M14.34,39.1l.6-5.68a9,9,0,0,1,8-8l5.68-.6L23,24.16a9,9,0,0,1-8-8l-.6-5.68-.61,5.68a9,9,0,0,1-8,8.05L0,24.77l5.68.6a9,9,0,0,1,8.05,8.05Z" transform="translate(0 0)"/><path class="cls-1" d="M278.2,314.34l.61-5.68a9.06,9.06,0,0,1,8.05-8.06l5.68-.6-5.68-.6a9.06,9.06,0,0,1-8.05-8.06l-.61-5.68-.6,5.68a9.07,9.07,0,0,1-8.05,8.06l-5.68.6,5.68.6a9.07,9.07,0,0,1,8.05,8.06Z" transform="translate(0 0)"/><path class="cls-1" d="M228.24,375.09l.6-5.68a9.07,9.07,0,0,1,8-8.05l5.68-.6-5.68-.6a9.08,9.08,0,0,1-8-8.06l-.6-5.68-.61,5.68a9.07,9.07,0,0,1-8,8.06l-5.68.6,5.68.6a9.06,9.06,0,0,1,8,8.05Z" transform="translate(0 0)"/><path class="cls-1" d="M293.71,390.46l.6-5.68a9.06,9.06,0,0,1,8.06-8l5.68-.61-5.68-.6a9.07,9.07,0,0,1-8.06-8l-.6-5.68-.6,5.68a9.07,9.07,0,0,1-8.06,8l-5.68.6,5.68.61a9.06,9.06,0,0,1,8.06,8Z" transform="translate(0 0)"/><path class="cls-1" d="M263.87,471.48l.6-5.68a9.07,9.07,0,0,1,8-8.05l5.68-.6-5.68-.6a9.08,9.08,0,0,1-8-8.06l-.6-5.68-.6,5.68a9.09,9.09,0,0,1-8.06,8.06l-5.68.6,5.68.6a9.08,9.08,0,0,1,8.06,8.05Z" transform="translate(0 0)"/><path class="cls-1" d="M442.76,450l.6-5.68a9.07,9.07,0,0,1,8.06-8l5.68-.6-5.68-.61a9.06,9.06,0,0,1-8.06-8l-.6-5.68-.6,5.68a9.06,9.06,0,0,1-8.06,8l-5.68.61,5.68.6a9.07,9.07,0,0,1,8.06,8Z" transform="translate(0 0)"/><path class="cls-1" d="M512.14,569.34l.61-5.68a9.06,9.06,0,0,1,8-8.06l5.68-.6-5.68-.6a9.06,9.06,0,0,1-8-8.06l-.61-5.68-.6,5.68a9.07,9.07,0,0,1-8.05,8.06l-5.68.6,5.68.6a9.07,9.07,0,0,1,8.05,8.06Z" transform="translate(0 0)"/><path class="cls-1" d="M425.29,512.92l.61-5.68a9.06,9.06,0,0,1,8.05-8.05l5.68-.6L434,498a9,9,0,0,1-8.05-8.05l-.61-5.68-.6,5.68a9.06,9.06,0,0,1-8.05,8.05l-5.68.61,5.68.6a9.07,9.07,0,0,1,8.05,8.05Z" transform="translate(0 0)"/><path class="cls-1" d="M401.52,0c-2.21,8.67-3.56,16.06-4.32,21v0c-.63,4.05-.87,6.42-.87,6.42A191.86,191.86,0,0,1,398.25,0Z" transform="translate(0 0)"/><path class="cls-1" d="M453.1,0c-.3,2.42-.52,4.57-.68,6.37v0c-.34,3.78-.42,6-.42,6s-.38-4.87-.33-12.39Z" transform="translate(0 0)"/><path class="cls-1" d="M416.81,0a190.56,190.56,0,0,0-3.36,22.44A164.12,164.12,0,0,1,414.24,0Z" transform="translate(0 0)"/><path class="cls-1" d="M429.83,0a183.78,183.78,0,0,0-2.17,24.15A181.19,181.19,0,0,1,426.77,0Z" transform="translate(0 0)"/><path class="cls-1" d="M464,4.42s-.11-1.64-.17-4.42h.51C464.12,2.79,464,4.42,464,4.42Z" transform="translate(0 0)"/><path class="cls-1" d="M379.21,0a260,260,0,0,0-9.16,30.76A218.33,218.33,0,0,1,376.15,0Z" transform="translate(0 0)"/><path class="cls-1" d="M440.83,11.79s-.52-4.62-.65-11.79h1.48C440.89,7.21,440.83,11.79,440.83,11.79Z" transform="translate(0 0)"/><path class="cls-1" d="M248.77,0H253c-3.13,7.53-6.29,15.53-9.14,23.48a245.55,245.55,0,0,0-12.38,54.15v0C231.07,81,231,82.9,231,82.9s-1.71-31.3,9.47-62.17C243,13.69,245.84,6.66,248.77,0Z" transform="translate(0 0)"/><path class="cls-1" d="M362,0a256.44,256.44,0,0,0-7.25,26.6v0c-.86,4-1.24,6.4-1.24,6.4a209.24,209.24,0,0,1,4.81-33Z" transform="translate(0 0)"/><path class="cls-1" d="M226.4,26.88c4.29-9.22,9.11-18.44,13.8-26.88h4c-3.93,10-8.21,21.34-11.83,32.57A224.66,224.66,0,0,0,222,90.68s-3-28.81,6.22-58.61a265.85,265.85,0,0,0-18,56.15A189.88,189.88,0,0,1,226.4,26.88Z" transform="translate(0 0)"/><path class="cls-1" d="M387.51,0h2.38c-3.1,8.69-5.24,15.85-6.52,20.45v0c-1,3.53-1.44,5.55-1.44,5.55A201.15,201.15,0,0,1,387.51,0Z" transform="translate(0 0)"/><path class="cls-1" d="M188.83,26.59c.82-1.05,1.65-2.08,2.48-3.11C167,48.9,152.94,79.1,152.94,79.1s12.34-37.56,36.43-63.42a288.35,288.35,0,0,0-34.1,36.93S171.91,23.61,199,0h23.95l-2.87,3.88c-7,11.67-17.44,29.15-26.22,46.44a245.6,245.6,0,0,0-20.24,56.09S176.13,76.56,191,47.57c.82-1.61,1.67-3.23,2.53-4.83-17.31,28.46-24.25,58.2-24.25,58.2a185,185,0,0,1,10.46-40.7,246.61,246.61,0,0,0-11.89,27.53v0c-1.05,2.93-1.57,4.62-1.57,4.62s5.38-27,20.18-51.37C172.69,60.91,164,81.72,160.24,91.9v0c-1.49,4-2.23,6.34-2.23,6.34S166.15,55.67,188.83,26.59Z" transform="translate(0 0)"/><path class="cls-1" d="M354.41,0a250.27,250.27,0,0,0-10,40.39A221.72,221.72,0,0,1,350,0Z" transform="translate(0 0)"/><path class="cls-1" d="M284.58,0h2.76a353,353,0,0,0-16.06,50.32v0h0c-.69,3-1,4.65-1,4.65S272.6,30.18,284.58,0Z" transform="translate(0 0)"/><path class="cls-1" d="M373.15,0a265.17,265.17,0,0,0-9.54,36.06A232.59,232.59,0,0,1,369.51,0Z" transform="translate(0 0)"/><path class="cls-1" d="M261.58,0h4.67c-1.9,4.83-3.77,9.77-5.52,14.69A247.11,247.11,0,0,0,247.59,76.9s-2-33.15,9.53-65.27C258.53,7.73,260,3.83,261.58,0Z" transform="translate(0 0)"/><path class="cls-1" d="M268.66,0h4.84c-1.34,3.33-2.64,6.69-3.88,10a228.48,228.48,0,0,0-13.43,61.17s-2.48-31.72,9.55-63.75C266.67,5,267.65,2.48,268.66,0Z" transform="translate(0 0)"/><path class="cls-1" d="M253.7,0h5.36c-2.64,6.27-5.26,12.8-7.64,19.34a234.15,234.15,0,0,0-13,64.11s-2.9-35.76,9-68C249.38,10.21,251.5,5,253.7,0Z" transform="translate(0 0)"/><path class="cls-1" d="M223,0h3.5c-7,12.23-17,29.9-25.17,47.33a223.52,223.52,0,0,0-17.05,53.45v0c-.6,3.32-.83,5.21-.83,5.21s-.25-31.09,14.15-61.48A377.3,377.3,0,0,1,223,0Z" transform="translate(0 0)"/><path class="cls-1" d="M276,5.12Q276.9,2.56,277.9,0h4.33c-1,2.64-2,5.3-3,7.94-12.66,34.44-15,59.52-15,59.52a33.83,33.83,0,0,1,0-3.56A187.3,187.3,0,0,1,276,5.12Z" transform="translate(0 0)"/><path class="cls-1" d="M232.78,0h3.1c-5.2,10.63-11.25,23.36-16.47,35.81a237.89,237.89,0,0,0-15.68,54.72A166.61,166.61,0,0,1,216.37,34C221.4,22.14,227.37,10.12,232.78,0Z" transform="translate(0 0)"/><path class="cls-1" d="M227.32,0h3.2c-6,11.89-13.67,27.51-20.08,42.79A228.15,228.15,0,0,0,194.8,99.65a162.12,162.12,0,0,1,12.26-59A415,415,0,0,1,227.32,0Z" transform="translate(0 0)"/><path class="cls-1" d="M323.71,0A293.55,293.55,0,0,0,311.5,40.33,234.62,234.62,0,0,1,320.33,0Z" transform="translate(0 0)"/><path class="cls-1" d="M317.08,0a278,278,0,0,0-11.84,41.88v0c-.71,3.62-1,5.69-1,5.69A199.23,199.23,0,0,1,312.91,0Z" transform="translate(0 0)"/><path class="cls-1" d="M343,0a261.39,261.39,0,0,0-11.16,43.58A234.36,234.36,0,0,1,338.46,0Z" transform="translate(0 0)"/><path class="cls-1" d="M332.63,0a273.48,273.48,0,0,0-12.14,47.92A243.91,243.91,0,0,1,327.75,0Z" transform="translate(0 0)"/><path class="cls-1" d="M309.47,0a247.84,247.84,0,0,0-12,49.44A199.37,199.37,0,0,1,304.85,0Z" transform="translate(0 0)"/><path class="cls-1" d="M294.09,0a255.58,255.58,0,0,0-14.77,63.89S278,31.53,288.77,0Z" transform="translate(0 0)"/><path class="cls-1" d="M301,0A255.61,255.61,0,0,0,287.4,54.91,203.74,203.74,0,0,1,296.16,0Z" transform="translate(0 0)"/><path class="cls-1" d="M553.33,0q2.28,3.42,4.25,6.5v5.18c-2.51-3.41-5.44-7.37-8.67-11.68Z" transform="translate(0 0)"/><path class="cls-1" d="M150.19,251.53l0,0,0-.07a211.75,211.75,0,0,1,55.07-48.26c25.44-15.33,54.71-28.64,71.57-36.55A669.68,669.68,0,0,0,208.12,209c-34.37,24.45-52.05,52.66-52.05,52.66s20.21-24.6,54.77-49.36c29.62-21.19,64.34-42,73.61-48.27-1.79,1.75-3.51,3.46-5.16,5.11-6.66,2.78-45.35,26.76-76,52.63-32.69,27.62-46,59.51-46,59.51s1.14-1.88,3.39-5.12v0l0-.05a273.15,273.15,0,0,1,46.37-50.63c18.5-15.73,39.54-31.26,54.29-42.08-14.21,10.82-37.2,29.74-56.42,49-29.4,29.35-40.23,60-40.23,60a206.82,206.82,0,0,1,14-21.72c-9.6,16.26-13.26,28.27-13.26,28.27s13.38-27.83,42-58.06C221.34,226.2,237,211.44,249.36,200c-12.74,13.56-31.25,34.94-46,56.12-24.22,34.73-27.06,68.19-27.06,68.19s.54-2.06,1.74-5.69h0v0a244.9,244.9,0,0,1,30.46-60c16.84-24.38,37.72-49.51,48.56-62.95a488.42,488.42,0,0,0-33.84,49.85c-20.79,35.88-20.19,69-20.19,69s.33-2.08,1.18-5.77v0a230.2,230.2,0,0,1,24.49-61.14q1.66-2.9,3.39-5.79c-14.36,30.67-13.37,56.85-13.37,56.85s.29-2,1.06-5.62v0a216,216,0,0,1,23.15-59.52c18.33-32.33,43.6-66.4,46.73-72.57l1.78-1.62c-6.24,8.35-24.88,38-37.56,66.14-14.79,32.8-12.58,60.87-12.58,60.87s2.29-26.6,17.08-59.68c14-31.25,33.73-64.91,35.1-69.18,1.58-1.42,3.2-2.87,4.86-4.33-4.69,7.12-21.9,38.06-34.14,66.83C250.44,252.26,250,278.72,250,278.72s3.79-25.45,17.56-58.09c12.93-30.6,30.37-63.94,31.95-68.54q2.57-2.26,5.27-4.57c-6.2,9.63-20.94,36.6-30.36,62.13-11.63,31.5-6.31,58.29-6.31,58.29s-.53-25.46,11-57.21c1.4-3.85,2.89-7.73,4.44-11.59-.26.69-.51,1.37-.76,2.06-10.83,30.22-2.53,55.85-2.53,55.85s-.18-1.64-.26-4.57h0v0a143.24,143.24,0,0,1,8.37-50.29c10.32-29.16,27.18-60.66,27.53-64q4-3.25,8.18-6.56c-5.26,7.7-19.91,33.33-29,56.75-10.7,27.51-5.25,48.45-5.25,48.45s-.05-1.39.05-3.91v0a137.14,137.14,0,0,1,6.22-34.19c-4.43,19.81-1,33.54-1,33.54s-.69-20.68,10.12-48.38l.81-2c-8.95,25-4.63,43.7-4.63,43.7s-.31-20.72,11-48.37c10-24.5,24.88-51.41,27.43-57.56q4.17-3.06,8.51-6.14a372.46,372.46,0,0,0-31.61,54.34c-12.52,27.19-8.6,48.58-8.6,48.58s.59-20.82,13.09-48.25c10.66-23.5,25.92-49.12,29.49-56.33q3.5-2.45,7.09-4.89c-5.5,7.11-22,32.55-32.71,56-12.4,27.18-8.38,48.53-8.38,48.53s.53-20.81,12.85-48.22c11.3-24.93,27.71-52.27,29.86-57.39,1.54-1,3.09-2.07,4.66-3.1-5.84,8.25-20.82,33-30.48,55.65-11.62,27.37-7,48.55-7,48.55s0-1.41.18-4v0a133.32,133.32,0,0,1,4.65-25.25c-2.4,13.58-.93,22.49-.93,22.49s.94-20.87,13.84-48.24c11-23.36,26.62-48.84,30.32-56q4.31-2.7,8.74-5.37c-6,7.17-23.64,32-35.49,55-13.93,26.93-11.18,48.58-11.18,48.58s1.73-20.94,15.57-48.07c12.52-24.47,30.16-51.13,32.82-56.53,2.32-1.38,4.66-2.76,7-4.12-6.21,8.09-22.37,32.4-33.16,54.89-13,27.1-9.47,48.58-9.47,48.58s.84-17.54,10.95-41.52c-6.41,17.26-5.9,29.59-5.9,29.59s3.39-21,19.33-47.58c13.4-22.38,31.37-46.43,36.2-53.83Q413.55,73.72,417,72c-7.6,8.16-26,30.76-38.79,52.15-15.8,26.39-13.48,48.66-13.48,48.66s.17-1.43.69-4v0c1.49-7.36,5.88-24.09,17.56-43.81,13.54-22.86,32.16-47.36,36.55-54.27l4.84-2.37c-8.21,9.75-24,30.41-35.38,49.93-15.45,26.44-14.1,48.32-14.1,48.32s3-21,18.45-47.64c12-20.72,27.92-42.91,34-52q7.88-3.75,16-7.27a432.62,432.62,0,0,0-41.63,48.55C383.37,133.68,382,155.94,382,155.94s5.5-21,23.85-46.68c.28-.39.57-.78.85-1.18-15.36,23-17,42.2-17,42.2s.41-1.42,1.35-4v.05a.62.62,0,0,1,0-.09,155.8,155.8,0,0,1,10.6-22.5c-5.75,13.43-6.3,23.05-6.3,23.05s6.36-22.34,28-48C441.08,78,464,56.4,471.3,48.65q3.33-1.17,6.69-2.31A463.18,463.18,0,0,0,430.86,91.5C409.53,115.57,405.23,138,405.23,138s.55-1.39,1.73-3.86v0c.86-1.8,2.06-4.17,3.62-7-1,2.6-1.43,4.1-1.43,4.1s.67-1.38,2.06-3.81v0a194.26,194.26,0,0,1,31-39.79c19.24-19.25,43.07-39.14,50.35-45.85q3.59-1.06,7.21-2.07c-8.87,6.52-32.63,26.34-50.91,45.8-22.19,23.62-27.34,46-27.34,46s.61-1.4,1.89-3.86v0l0-.06c3.66-7,12.85-22.9,29.3-40.51C472,66.43,496.22,45,502,39c1.42-.39,2.84-.77,4.27-1.14a453.42,453.42,0,0,0-47.77,46.38c-21.07,24.18-25.13,46.59-25.13,46.59s8-20.75,29.12-45.16c17.41-20.14,39.41-41.22,46.21-48.43q3.55-.9,7.15-1.74a458.63,458.63,0,0,0-48,45.45c-21.51,24-26,46.35-26,46.35s.56-1.39,1.76-3.85v0c3.45-7.09,12.17-23.08,28.17-41C489.22,62.89,511,42.46,518.4,35q5.34-1.22,10.76-2.29A464.6,464.6,0,0,0,481.66,77c-21.77,23.83-26.49,46.22-26.49,46.22s.58-1.39,1.81-3.85h0v0c3.52-7.07,12.41-23,28.56-40.82,17-18.8,38.18-38.37,46.3-46.41q6.36-1.2,12.82-2.21a477.2,477.2,0,0,0-51.94,43c-23.43,22.79-29.92,45.09-29.92,45.09S471.86,100,492.6,78.62c-13.23,17-15.4,32.82-15.4,32.82s8.8-22.22,34.58-43.61c15.29-12.68,33.62-25,45.8-33.14V31a351.31,351.31,0,0,0-45,28.67c14.7-13.29,28.87-25,34.5-30.06,3.48-.52,7-1,10.51-1.4V22.69l-1.34.17C553.67,18.47,548,10.05,540.55,0h-4.66c8.38,10.2,15.1,18.74,18.79,23.08-3.42.48-6.81,1-10.19,1.58C542.7,20.45,537.2,11.17,529.15,0h-8.24c9.9,11.48,17.54,21,21.42,25q-2.69.47-5.35,1c-2.21-3.76-10.09-13.86-21.1-26h-6.73c12.6,12.4,22.42,22.71,26.46,26.26-2.47.47-4.92,1-7.37,1.49C525.3,24,515.18,13,502,0h-4.24c14.14,13.16,25.54,24.32,29.68,27.92-3,.63-6,1.3-8.93,2-2.35-4-12.32-16.14-26-29.92h-7.78c15.52,14.08,27.91,26.56,32.45,30.23q-4.35,1.05-8.63,2.17c-3.93-5.11-16.1-18.07-31.85-32.4h-7.87C486.42,14.67,501,28,507,32.82c-2.33.62-4.65,1.27-7,1.92-4-5-18.64-19.39-37.23-34.74h-8.46c20.59,15.71,38,30.56,44.26,35.15q-3.43,1-6.82,2C488.54,32.86,472,16.78,451,0h-8.74c23.11,17.13,42.76,33.77,48.4,37.51-2.61.81-5.19,1.64-7.76,2.49-3.55-4.51-23.31-22.42-47.48-40H426c26.39,17.92,49.72,36.52,55.9,40.34q-2.56.85-5.1,1.73C471.83,36.89,447,17.33,418.56,0H407.73c30.69,17.53,59.85,38,67.84,42.49-2.1.74-4.19,1.5-6.26,2.26C463,38.88,432.47,17.09,399.92,0H387.67l2.65,1.3c33.93,16.94,68.22,39,77.65,43.94-1.83.68-3.65,1.36-5.45,2.06-9.17-6.87-43.3-27.85-77.7-42.71C380.92,2.9,377,1.37,373.13,0H357.38C365,2.51,373,5.48,381.22,9c33.63,14.41,68,33.44,79.56,39q-2.43.95-4.85,1.92c-7.93-5.49-45.35-25.4-82.45-38.72A218.89,218.89,0,0,0,323.69,0H303.83A327.93,327.93,0,0,1,370.3,15.79c36.18,12.85,73.55,30.63,84.18,34.7l-4.6,1.9c-6-4.41-45.27-24.18-84.09-36.89-42-13.75-82.61-10.15-82.61-10.15A318.16,318.16,0,0,1,362.69,20.2C400.54,32.46,439.81,50,448.78,52.86l-5.41,2.33C438,51.34,398.78,33.61,360,23.05c-41.62-11.31-82.21-5.3-82.21-5.3s2.49-.07,6.88,0h0A314.27,314.27,0,0,1,356.8,27.93c37.77,10.14,76.88,25.52,85.47,27.74q-4.27,1.89-8.48,3.85c-9.35-4.69-47.88-19.18-85.5-27.39-43-9.38-83.35-1.69-83.35-1.69a319.76,319.76,0,0,1,80.61,6.67c36.48,7.83,74.54,20.15,86.54,23.21q-2.86,1.35-5.68,2.71c-9.05-4-48.35-16.09-86.51-21.9-43.17-6.6-83.13,3.76-83.13,3.76s2.51-.34,7-.74l-.07,0,.12,0a323.41,323.41,0,0,1,73.56,2.12c36.87,5.5,75.47,15.43,87.33,17.62-1.64.81-3.28,1.62-4.9,2.44-8-2.95-50.51-12.26-91-15.16-44.48-3.22-83.66,10-83.66,10s2.48-.53,6.92-1.25l0,0,.07,0a340.79,340.79,0,0,1,74.77-3.51c38.85,2.65,80.19,9.73,91.34,10.73q-2.82,1.44-5.6,2.91c-8.26-3-48.56-10.86-87.16-11.59-42.87-.81-81.11,16.87-81.11,16.87a278.05,278.05,0,0,1,79.08-10.7c36.63.54,75.39,5.85,87.15,6.49-1.55.82-3.08,1.65-4.61,2.49-8.49-1.93-52.77-6-94-4.12-31.41,1.47-59,10.28-73,15.56a203.56,203.56,0,0,0-22.46,8s2.42-.77,6.78-1.92h0a349.71,349.71,0,0,1,74.86-11c40.24-1.35,83.65,1.53,94,1.28-1.7,1-3.38,2-5.05,3-6.2-1.54-52.79-4-95.72-.12a238.75,238.75,0,0,0-52.71,11.19,231.32,231.32,0,0,0-36.84,13.39s4.31-1.54,11.84-3.68c-2.8,1.28-4.33,2.07-4.33,2.07s2.38-.9,6.69-2.3l0,0,.07,0c2.55-.83,5.76-1.83,9.57-2.93a356.91,356.91,0,0,1,57.64-9.3c40.22-3,83.85-1.92,94.54-2.59q-2.82,1.78-5.59,3.58c-7.75-1-49.39-1.48-87.48,2.29a260.07,260.07,0,0,0-74.38,19.08A341.62,341.62,0,0,1,253,104.51a257.47,257.47,0,0,0-62.78,21.18s2.32-.91,6.54-2.35l-.07,0,.12-.06a379.79,379.79,0,0,1,73-16.79c41-5.14,86-6.64,94.84-7.87-1.67,1.12-3.31,2.24-4.95,3.37-5.77-1-53.75,1-97,8.82C217.32,119.1,182.91,141,182.91,141s33.91-16.35,79.73-24.83c41.19-7.62,86.68-11.53,95.94-13.32q-3.85,2.67-7.58,5.34c-7.15-.82-52.07,1.29-92.66,9-43.58,8.34-76.41,30.26-76.41,30.26s2.2-1.11,6.19-2.9l-.05,0,.09-.06a335.76,335.76,0,0,1,70.13-22.07c38.48-7.48,81-11.46,91.34-13.34q-4.12,3-8.09,6c-5.79-.44-51,4.41-91.34,14-33.51,8-56.16,21-64.23,26.2a34.14,34.14,0,0,0-3.28,2.2s25-13.47,67.84-23.81c38.41-9.29,81.18-15.67,90-17.84q-4.68,3.52-9.13,7c-7.43-.22-51.32,5.13-90.33,15.65-42.07,11.38-72,35.27-72,35.27s30.2-18.48,72.58-30.08c36.79-10.06,77.83-17.05,88.31-19.7q-2.65,2.1-5.22,4.17c-8.09.14-52.08,7.06-90.94,18.85-42.22,12.8-71.52,37.64-71.52,37.64s20.41-13.3,51.52-25.3A200.58,200.58,0,0,0,164.28,190s1.87-1.28,5.31-3.41h0a296.35,296.35,0,0,1,62.83-28.82c34.2-11,72.59-19.21,83.48-22.34q-3,2.55-5.92,5.06c-7.64.83-40.12,6.94-69.05,15.43a213.06,213.06,0,0,0-55.36,25.26,312.57,312.57,0,0,1,55.86-22.38c27.63-8.17,58.41-15,67.53-17.43l-3.86,3.38c-4.83-.2-47.44,9-84.2,23.12C182.68,182.57,158,208.37,158,208.37s25.79-20.55,64.28-35.52c34.34-13.33,73.48-23.9,81.69-27.09-1.93,1.71-3.81,3.41-5.64,5.08-7.47.74-47.56,10.81-82,25.23-37.39,15.65-60.78,42-60.78,42s1.67-1.42,4.78-3.8l0,0,0,0A272.13,272.13,0,0,1,218,181c31.93-13.5,68.36-24.64,78.74-28.62l-1.1,1c-8.19,2.06-49.85,17.78-85.29,36.28-38.66,20.19-61.59,47.28-61.59,47.28s1.66-1.53,4.77-4.13h0c4.6-3.85,12.39-10.05,22.78-17.24C155.48,235.82,146.06,257,146.06,257S147.46,255,150.19,251.53ZM481.08,45.32q4.19-1.38,8.43-2.67C483.41,47,472.75,55.23,461.3,65,470,56.31,477.35,49.16,481.08,45.32ZM430.15,84.19c10.29-12.53,20.07-23.59,25-29.44q6-2.39,12.08-4.62A416,416,0,0,0,430.15,84.19Zm16.1-25.79c1.82-.77,3.66-1.53,5.5-2.28a457,457,0,0,0-34.83,38.39C429.08,78.84,441.38,64.54,446.25,58.4ZM394.16,84.26q6.63-3.78,13.51-7.45a408.83,408.83,0,0,0-38,51.75c-.26.43-.5.85-.75,1.28C379.3,109.54,391.27,90,394.16,84.26ZM315.08,74.6c38-1.62,77.8.22,89.14-.06q-5.45,3-10.73,6.07C387.35,78.86,352,74.73,315.08,74.6Zm64.1,14.66c-3.83-.87-17.67-2.13-35.92-2.74,20.64-.7,37.1-.84,42.57-1.36C383.59,86.52,381.37,87.88,379.18,89.26Zm-8.12,5.18c-1.82,1.19-3.61,2.37-5.39,3.56-5.71-1.16-52.61-1.53-95.34,3.69-.82.1-1.63.22-2.44.33q7.86-1.17,16.38-2C320.89,96.24,360.93,95.34,371.06,94.44Zm-5,7c2.14-1.4,4.3-2.8,6.49-4.18A364.45,364.45,0,0,0,352,129C358.54,116,364.31,105.35,366.05,101.45Zm-53.16,64.33c8.59-19.15,17.61-36.34,19-40.19,2-1.52,4-3,6.1-4.58C333.22,127.81,322,146.44,312.89,165.78Zm12.91-35.51,4.48-3.47a279.8,279.8,0,0,0-14.47,24.73C320.8,141,324.83,132.94,325.8,130.27Zm-8.27,3.82c-5.36.14-25.54,3.19-49.21,8.65,25-6.43,47.12-11.12,54.8-13.27Q320.27,131.8,317.53,134.09ZM307.22,145.4q3.36-2.85,6.89-5.76c-3.93,5.22-13.7,21.48-22.4,40.13C298.94,163.38,305.55,149.86,307.22,145.4Zm-42.16,40.07L263,188a17.38,17.38,0,0,0,1.13-1.69Zm10.18-12.26L274,174.49a39.19,39.19,0,0,0-3.43,2.2Q273.22,174.73,275.24,173.21Zm7.11-5.52c-2.37,2.79-5.19,6.22-8.29,10.16a49.4,49.4,0,0,0,3.32-5.39C279,170.91,280.62,169.32,282.35,167.69Zm3.93-5.54.1-.05,0,0Zm-6.35-.69c6.05-2.73,10.83-4.89,13.78-6.33-1.43,1.33-2.82,2.65-4.18,3.94A65.58,65.58,0,0,0,279.93,161.46Z" transform="translate(0 0)"/><path class="cls-1" d="M447.53,32S485,30,515.85,42.3a284.14,284.14,0,0,1,41.73,21.12v4.29C545.66,61.62,528.56,53,511,46.08,479.8,33.78,447.53,32,447.53,32Z" transform="translate(0 0)"/><path class="cls-1" d="M479.22,24.77s26.85,4.72,52.4,18c9.11,4.73,18.12,10,26,14.8v2.72C549,55.3,539,49.66,529.05,44.53A281.42,281.42,0,0,0,479.22,24.77Z" transform="translate(0 0)"/><path class="cls-1" d="M435.52,43.88s31.83.51,63.48,11a482.77,482.77,0,0,1,58.58,24v1.33c-10.42-3.94-36.15-14.6-61.3-22.84A326.6,326.6,0,0,0,435.52,43.88Z" transform="translate(0 0)"/><path class="cls-1" d="M352.49,215.28c31.29-15.54,67.64-29.85,74.59-33.37q-2.15,2.68-4.19,5.34c-6.24,1.33-42.82,14.36-73.56,29.82-33,16.6-51.58,39-51.58,39s1.38-1.27,4-3.44l0,0,0-.06a275.24,275.24,0,0,1,49.61-32.17c29.08-14.74,62.88-28.3,70.75-32.18q-2.25,3-4.37,5.86c-5,1.22-40.71,16-70.48,32.61-24.72,13.76-38.4,27.9-43.07,33.25a22.22,22.22,0,0,0-1.85,2.23s15.48-15,47-32.67c28.31-15.87,61.42-31,67.83-34.67-1.66,2.29-3.28,4.56-4.83,6.81-6.27,1.79-40.68,16.58-69,33.36-30.5,18.13-45.94,41-45.94,41s17.8-19.52,48.47-37.87c26.65-15.92,58.05-31,65.71-35.4q-1.38,2-2.69,4c-6.68,2.19-40.56,18-68.23,35.55-30.06,19.06-44.59,42.36-44.59,42.36s1.15-1.34,3.35-3.65h0A235.77,235.77,0,0,1,329,255.27c-19.82,16.09-29,32.22-29,32.22s1-1.3,3.06-3.53h0a216.84,216.84,0,0,1,40.87-34.53c24.09-15.83,52.78-31,60.61-35.81q-1.5,2.4-2.92,4.73c-6,2.51-30.64,14.82-51.35,27.7-23.25,14.43-36.06,30.35-36.06,30.35s14.21-14,37.62-28.66c19.77-12.35,42.69-24.65,49.3-28.57-.64,1.06-1.26,2.11-1.87,3.14-4.09,1.13-35.93,18-60.92,36.5C312.3,278,302,300.69,302,300.69s13.31-19.67,39.4-39.13c23.31-17.36,51.72-34.22,57.26-38.36-.92,1.59-1.82,3.16-2.68,4.69-5.93,2.4-35.3,19.19-58.25,37.25-24.92,19.6-33.94,42.29-33.94,42.29s.82-1.33,2.46-3.64v0a182.32,182.32,0,0,1,34.76-36c21.21-16.82,47.12-33.33,54.18-38.54l-.51.92c-6,3.42-34.43,24.19-56.59,45.08-24.17,22.8-32.5,45.86-32.5,45.86s.77-1.4,2.33-3.85h0a192.22,192.22,0,0,1,12.12-16.8c-9.26,18.19-8.68,34-8.68,34s.34-1.67,1.25-4.55v0c2.59-8.25,9.77-26.49,26.69-44.77,15.09-16.3,34.18-32.31,45.08-41.69A442.46,442.46,0,0,0,344,288c-18.91,24.38-22.43,46.78-22.43,46.78s7.06-20.78,26-45.4c16.25-21.08,36.91-43.23,42.11-49.61q-1.18,2.36-2.26,4.57c-4.43,3.47-27.13,28.68-42.34,53-16.24,25.94-14.63,49.51-14.63,49.51s.21-1.49.79-4.13v0a145.83,145.83,0,0,1,18.49-44c9.16-14.75,20.52-30,28.51-40.7-7.54,10.52-19.17,28.45-27.55,45.59-12.82,26.17-9.66,48.34-9.66,48.34a103.15,103.15,0,0,1,3-17.34c-1.54,12.76.18,21.29.18,21.29s.09-21,11.89-47.55c5.72-12.84,12.88-26.21,18.63-36.66-5.23,11.87-12.13,30.15-16,47.34-6.37,28.22,4.55,50.07,4.55,50.07s-5.51-21.39.71-49.84c4.34-19.74,11.73-41,15.42-52.31A246,246,0,0,0,371,307.14a80.16,80.16,0,0,0,10.58,48.78s-.55-1.39-1.31-3.93h0a118.53,118.53,0,0,1-3.89-45c.15-1.5.33-3,.51-4.52a76.64,76.64,0,0,0,11.45,39.33s-.56-1.35-1.35-3.82l0,0,0,0a111.79,111.79,0,0,1-4.37-43.57c2.44-25.17,9.93-53.23,10.1-58l.83-1.48c-1.88,6.9-5.6,30.48-5,51.5a78.82,78.82,0,0,0,13.71,41.68s-8.66-17.38-9.48-42.1c-.78-23.35,2.3-49.71,1.75-52.78q1.13-2,2.32-4c-1.08,5.73-3.11,29.72-1.88,51a97.59,97.59,0,0,0,11.48,40.84s-6.94-17.05-8.44-41.24c-1.38-22.66-.11-48.23-.62-51.55q1.24-2.08,2.57-4.25c-1.33,7.7-2.89,28.54-.6,47.1,2.82,22.9,17.89,38.42,17.89,38.42a100.43,100.43,0,0,1-13.53-39c-.36-2.81-.66-5.67-.9-8.53.06.52.12,1,.19,1.55,3,21.89,20.07,35.91,20.07,35.91s-.8-1-2-2.82h0a83.56,83.56,0,0,1-13-33.91c-3-21.07-1.46-45.31-2.49-47.53q2-3.09,4.2-6.27c-1.32,6.24-3.33,26.21-1.6,43.35A53.51,53.51,0,0,0,423,284.37s-.6-.86-1.52-2.48l0,0,0,0a78.49,78.49,0,0,1-8.4-23.2,52.37,52.37,0,0,0,12.51,21.41s-8.79-12.87-10.79-33.16c0-.5-.1-1-.14-1.5a52.75,52.75,0,0,0,13.5,28.78s-8.48-13-10-33.39c-1.37-18.07.3-38.92,0-43.46,1.49-2,3.05-4,4.63-6.06a187.5,187.5,0,0,0-4.73,42.48,52.4,52.4,0,0,0,12.13,32.9s-7.77-13.29-8.26-33.86c-.45-17.59,2.07-37.71,2.18-43.2q1.94-2.46,4-4.93c-1.75,5.92-5.37,26.26-5,43.83a52.32,52.32,0,0,0,12.29,32.8s-7.83-13.27-8.45-33.77c-.49-18.66,2.3-40.17,2.07-44l2.64-3.17c-1.58,6.72-4.24,26.2-3.27,43a53,53,0,0,0,13.47,32.45s-.56-.89-1.41-2.54l0,0,0,0a76,76,0,0,1-6.15-17.12,47.52,47.52,0,0,0,8.15,14.41s-7.5-13.41-7.63-34c-.11-17.58,2.76-37.7,3-43.24q2.5-2.82,5.14-5.66c-2.15,6.1-7,26.34-7.71,43.91-.9,20.62,10,33.57,10,33.57s-6.87-13.67-6.13-34.38c.71-18.7,4.81-40.11,4.88-44.22,1.38-1.47,2.78-2.95,4.21-4.42-2,6.72-5.76,26.26-5.81,43.26a52.23,52.23,0,0,0,11.4,33.12s-6.26-11.28-7.36-29c1.51,12.55,6.83,20.2,6.83,20.2s-5.51-14.13-2.8-35.06c2.26-17.57,7.66-37.4,8.75-43.35q2.1-2,4.26-4c-3.09,7.15-9.41,26.17-11.57,43-2.67,20.76,8.1,34.21,8.1,34.21s-.43-.94-1-2.69h0v0a74.77,74.77,0,0,1-2.79-32.22c2.2-17.93,8-38.22,8.88-43.74l3.08-2.75c-3,8.29-7.86,25.41-9.63,40.69-2.36,20.71,7.46,34.17,7.46,34.17s-5.81-14-3.55-34.87c1.77-16.19,6.19-34.31,7.62-41.66q5.07-4.41,10.44-8.75a228.38,228.38,0,0,0-15.36,41.44c-5.14,20.84,2.59,35.23,2.59,35.23s-3.74-14.65,1.32-35.66c.08-.32.17-.65.25-1-3.69,18.49,2.61,31.07,2.61,31.07s-.22-1-.46-2.85l0,0,0-.05a78.58,78.58,0,0,1-.11-17c.54,10,3.9,16.2,3.9,16.2s-3.57-15.75,4.3-37.55c6.4-17.74,16.85-37.33,19.9-44.14q2.3-1.61,4.64-3.19c-5,7.68-15,25-21.29,40.74-8.2,20.74-2.89,36-2.89,36s-.1-1-.09-2.88h0c0-1.36.05-3.17.23-5.37a24.75,24.75,0,0,0,.44,3s0-1,.2-2.93h0v0c.54-5.43,2.55-17.86,10-33.17,8.36-17.12,20.27-35.83,23.68-42q2.56-1.61,5.18-3.18a260.86,260.86,0,0,0-24.16,42.11c-9.1,20.67-4.51,36.13-4.51,36.13s0-1,0-2.93l0,0v0c.25-5.41,1.6-17.79,8.3-33.18,7.8-18,19.44-37.78,21.95-43.08,1-.62,2.06-1.24,3.11-1.85a252.52,252.52,0,0,0-21.35,41.68c-7.93,20.74-2.42,35.94-2.42,35.94s-1.58-15.18,6.31-36.07c6.5-17.22,16.42-36.22,19.23-42.56,1.74-1,3.49-2,5.27-3a255.93,255.93,0,0,0-21.89,41.15c-8.4,20.72-3.25,36-3.25,36s-.08-1-.06-2.89v0c.06-5.37,1-17.74,7.17-33.21,6.7-16.85,16.73-35.39,19.9-42.06,2.64-1.44,5.31-2.84,8-4.23a261.38,261.38,0,0,0-21.91,40.3c-8.65,20.7-3.69,36.06-3.69,36.06s-.07-1,0-2.9h0v0c.13-5.37,1.2-17.74,7.57-33.19,6.71-16.29,16.54-34.12,20.12-41.31q4.8-2.43,9.78-4.73a280.42,280.42,0,0,0-26.14,40.65c-10.45,20.48-7,36.24-7,36.24s.35-13.75,9.13-32.64c-4.27,14.16.2,24.71.2,24.71S527.73,140.19,540.7,120a277.74,277.74,0,0,1,16.88-23v-5.6A218.82,218.82,0,0,0,538.1,114.6c6.95-12.18,14.07-23.24,16.77-27.91.89-.41,1.81-.8,2.71-1.21V81.11q-3.42,1.55-6.77,3.14C544.2,79.66,515,65.2,484,56.6,448.62,46.78,408.46,53,408.46,53s35.17-1.56,71,8.2C509.77,69.45,539.68,82,549.15,85l-4.06,2c-6.27-3.38-38.46-15.82-70.69-23.45-35.79-8.48-71.55-4.48-71.55-4.48a318,318,0,0,1,68.56,8c31.64,7.39,64.15,18.37,72.65,20.48-1.87.94-3.73,1.89-5.56,2.85-6.59-2.68-38.22-13-68.61-20.35a317.42,317.42,0,0,0-64.37-8.29s1.91.15,5.32.5h0a466.14,466.14,0,0,1,57.28,9.79C498.21,79.26,530,88.8,537.91,90.73c-2.24,1.18-4.46,2.38-6.64,3.59-5.72-3.1-36.85-14.58-68.08-21.12-34.48-7.21-69-1.79-69-1.79a288.64,288.64,0,0,1,66.07,5.45c30.64,6.32,62.12,16.27,70.07,18q-3.21,1.78-6.33,3.61c-8.35-3.48-41.75-14-74.57-20.17-37.69-7.06-73.59-1.94-73.59-1.94s2.23-.1,6.18-.14l-.06,0,.1,0a355.09,355.09,0,0,1,64.77,5.6c32.23,6,65.77,15.15,76,17.33q-2.55,1.5-5.05,3c-7.82-3.09-42.58-13-76.47-18.4-38.23-6.07-74-.09-74-.09a353.86,353.86,0,0,1,71.58,3.66c33.32,5.2,68.16,13.74,77.84,15.45-1.65,1-3.28,2-4.89,3.06-6.06-2.61-42.34-12.82-77.59-18.2-38.34-5.85-74,.36-74,.36A354.72,354.72,0,0,1,432,91.23c34.72,5.18,71.17,14,79.17,15.11q-2.78,1.78-5.48,3.59c-6.06-2.45-43.05-11.89-78.78-16.5-38.73-5-74.26,1.91-74.26,1.91A360.81,360.81,0,0,1,424.7,97c35.18,4.45,72.25,12.44,80.22,13.4-1.2.8-2.39,1.61-3.57,2.42-7.2-2.31-44.69-9.93-80.48-13-39.46-3.34-74.48,5-74.48,5a365.78,365.78,0,0,1,72.67-1.36c35.05,2.88,72.29,9.06,81.44,9.89-1.46,1-2.89,2-4.31,3.06-8-2.18-45.68-8.57-81.42-10.57a265.12,265.12,0,0,0-74.46,7,370.11,370.11,0,0,1,72.86-3.36c35,1.86,72.29,6.86,82.09,7.53-1.25.9-2.47,1.81-3.7,2.72-10.33-1.95-47.1-6.31-81.66-6.75a264.54,264.54,0,0,0-74.14,10.14,375.06,375.06,0,0,1,72.89-6.42c33.73.34,69.88,3.42,81.73,3.91-1.1.82-2.2,1.65-3.28,2.48-8.75-1.4-47.83-4.24-84-3a261.2,261.2,0,0,0-73.4,13.53A372,372,0,0,1,402.26,124c35.25-1.3,73.46.2,83.88,0-1,.8-2.08,1.59-3.1,2.4-6.78-1.21-47.29-3.48-84.65-1.42a258.35,258.35,0,0,0-72.8,15.1s2.11-.6,5.9-1.53h0a383,383,0,0,1,66.18-9.78c36.39-2.12,76.05-1.29,84.64-1.79q-1.81,1.44-3.58,2.88c-6-1-45.68-2-82.19,1.41a244,244,0,0,0-70.55,18s2.05-.7,5.76-1.79l0,0,.06,0a356.87,356.87,0,0,1,64-12.35c35.47-3.43,74.14-3.89,82.17-4.72-1.87,1.53-3.72,3.08-5.53,4.63-9.65-.52-47.47.36-82.05,4.95a245.21,245.21,0,0,0-70.06,20.63,350.41,350.41,0,0,1,69.75-16.77c33.49-4.55,70.08-6.67,81.27-7.86-1.23,1.06-2.46,2.12-3.66,3.19-9.1-.15-46.63,2.42-80.71,8.68a233.23,233.23,0,0,0-67.71,24s1.95-.86,5.49-2.27l-.05,0,.1,0a346.42,346.42,0,0,1,62.07-17.79c32.88-6.12,69-9.9,79.7-11.6-1.05.94-2.08,1.88-3.11,2.82-7.84.22-46.91,5.39-81.75,14.09-38.3,9.54-65.68,28.06-65.68,28.06s1.87-1,5.28-2.59l0,0,.07,0a346.35,346.35,0,0,1,60.82-21.65c33.39-8.43,70.61-14.72,80.3-17-1.19,1.1-2.35,2.2-3.5,3.29-8,.27-44.73,5.78-77.16,15.36A183.62,183.62,0,0,0,321,194.28s25.31-16.47,61.59-27.32c30.7-9.19,65.07-15.93,75.12-18.58-1,.92-1.9,1.85-2.84,2.77-7.79,1-46.32,9.9-79.9,21.85a220.49,220.49,0,0,0-54.6,28.82,161.13,161.13,0,0,0-15.52,10.87s1.71-1.11,4.88-3h0a328.94,328.94,0,0,1,58-26.4c33-11.33,70.33-20.82,78.8-23.66-1,1.07-2,2.15-3,3.22-5.74.63-45.51,11.22-79.74,24.82a214.8,214.8,0,0,0-39.43,20.77,181.18,181.18,0,0,0-25.35,18s3-2.09,8.38-5.4c-1.81,1.53-2.78,2.43-2.78,2.43s1.64-1.2,4.68-3.21l0,0,.07-.06c1.78-1.18,4.05-2.64,6.76-4.31a333.58,333.58,0,0,1,44.31-20.87c32.31-12.35,69.09-23,77.69-26.23q-1.65,1.86-3.24,3.71c-6.8,1.41-41.69,11.91-71.93,24.21-33.05,13.44-54.34,31.39-54.34,31.39a297.36,297.36,0,0,1,31.32-17.77C312.47,224.49,296,240.15,296,240.15s1.57-1.17,4.5-3.18l0,0,.07-.06a335.35,335.35,0,0,1,54.16-29.61c32.11-13.92,69.05-26.6,75.85-29.65-.95,1.15-1.89,2.29-2.8,3.43-5.16.86-44.35,14.59-77.23,30.79-34.55,17-54.51,39.78-54.51,39.78S317.71,232.55,352.49,215.28Zm153.7-101.5q2.94-1.95,5.95-3.87c-3.35,4.33-8.94,12.29-14.59,21.42C501.3,123.61,504.61,117.18,506.19,113.78Zm-26.95,37.78c3.58-10.58,7.33-20.1,9.1-25.08q4-3,8.2-6A234.94,234.94,0,0,0,479.24,151.56Zm3.17-20.47c1.2-1,2.43-1.91,3.65-2.86a246.61,246.61,0,0,0-13.75,33.31C476.21,148.48,480.79,136.23,482.41,131.09ZM449.31,161c2.68-2.75,5.43-5.49,8.29-8.22a209.18,209.18,0,0,0-11.12,42.54l-.12,1C447,180.8,449.18,165.36,449.31,161Zm-2-2.15c-5.79.48-36.87,7.08-67.7,16.62,31-10.93,64.9-20.12,74.21-23.24Q450.49,155.5,447.32,158.82ZM438.84,168c-3.53.44-15.56,3.25-31,7.62,16.94-5.82,30.6-10.2,34.93-12Q440.77,165.85,438.84,168ZM432,200.15c.28-9.89.86-18.11.76-21,1.22-1.43,2.47-2.88,3.74-4.32A185.14,185.14,0,0,0,432,200.15ZM431.06,177c-5.16.73-44.39,12.71-77.91,27.13l-1.92.85q6.09-2.79,12.84-5.56c29-11.89,62-22.88,70.07-26.07Q432.58,175.21,431.06,177Zm-49,81.38c-.22.67-.45,1.37-.67,2.08a10.92,10.92,0,0,0,.26-1.32Zm3.6-10.4c-.17.39-.35.76-.52,1.14a24.79,24.79,0,0,0-2,2.31C384.07,250.16,384.92,249,385.63,248Zm3.73-5.32c-.87,2.37-1.84,5.27-2.86,8.57a25.8,25.8,0,0,0,.62-4.27C387.83,245.6,388.57,244.17,389.36,242.69Zm1.08-4.53.06-.06v0Zm3.4-6.36c-.66,1.21-1.3,2.41-1.92,3.58a58.34,58.34,0,0,0-7.05,4C388.82,236.09,392,233.48,393.84,231.8Zm10.83-15.07c-1.21,4.32-2.88,17.11-2.72,31.14-.49-12.22-.36-22.47-.74-25.72Q402.88,219.48,404.67,216.73Zm3.47-8.77c-1,1.47-1.91,2.92-2.83,4.37-4.39,1.47-20,8.65-37.52,18.25C386.09,220,402.61,211.3,408.14,208Zm4.89-3.54a141.8,141.8,0,0,0-2.23,19.43c0-7.95.13-14.12-.12-16.07C411.45,206.67,412.23,205.55,413,204.42Zm4.09-5.64c-1.25,5.53-3.2,20.17-3.1,34.72-.44-14.29.24-27.44-.15-30.26Q415.46,201,417.12,198.78Z" transform="translate(0 0)"/><path class="cls-1" d="M457.57,40.21h0c-3.18-.49-5-.71-5-.71s30.14.77,59.18,11.35A423.51,423.51,0,0,1,557.58,71V73.1c-11.6-5-30.22-13.19-48.63-19.83A289.58,289.58,0,0,0,457.57,40.21Z" transform="translate(0 0)"/><path class="cls-1" d="M299.73,487.64s.48-3,1.58-8.32v-.05a395,395,0,0,1,14.29-50.69C304.26,470.08,311.7,515,311.7,515s-1.62-39,10.22-80.22c-.32,1.61-.64,3.23-.94,4.85-8.11,43.65,6.49,90.62,6.49,90.62a276.53,276.53,0,0,1-1.19-74.9C323.94,489.11,333,519,333,519a258.83,258.83,0,0,1-3.3-40.44,196.72,196.72,0,0,0,11.12,46.73s-.6-2.27-1.43-6.3h0a255.23,255.23,0,0,1-4.68-66.64c0,2.1,0,4.2,0,6.29a190.72,190.72,0,0,0,13.73,69,270.45,270.45,0,0,1-9.2-68.29c-.16-22.8,1.36-46.92,2.38-63q.51-3.15,1-6a447.94,447.94,0,0,0-2.59,60.87c1.38,39.33,18.56,69.42,18.56,69.42s-.77-2-1.94-5.6h0v0a243.8,243.8,0,0,1-11.15-63.62c-1.3-33.84,1.45-71,1.41-81.52.57-1.31,1.14-2.58,1.69-3.82a482.82,482.82,0,0,0-.64,74.93c3,37.94,19.18,65.74,19.18,65.74S355.67,479,352.57,440.81c-2.62-32.15-1.95-67.67-2.43-78.44l4.13-9.25c-1.21,11.88-2.56,45.09-.22,75.14,2.89,36.83,17.43,63.58,17.43,63.58S361.26,465.08,358.22,428c-2.64-32.56-2.18-68.8-2.79-77.45,1.92-4.35,3.3-7.64,3.93-9.6l.93-1.8c-.61,4.51-.77,19.64.42,38.22-.4,11.87-.48,24.75,0,37.21,1.65,39.92,16.24,70.71,16.24,70.71s-9.34-28.38-11.54-66.83c6.52,35.23,25.34,61.26,25.34,61.26a233.09,233.09,0,0,1-20.67-63.62c-2.42-14.1-4.15-28.84-5.46-41.69.18-22.37.94-40.54.54-44.46q2.06-3.78,4.28-7.74c-1.08,10.71-1.53,45.19,2.71,76.93C377.18,436.66,396,466,396,466s-.91-1.93-2.35-5.43l0,0,0,0a259.86,259.86,0,0,1-16.42-61.11c-4.69-34.17-5.53-71.69-6.66-79.26q2.46-4.32,5.11-8.83c-1.61,12.53-3,46.17,1,77.84,5,39.44,27.51,72.29,27.51,72.29a244.42,244.42,0,0,1-21.2-71.2c-4.57-35-4.48-72.73-5.54-81.93q2.19-3.64,4.5-7.4c-1.07,12.68-1.4,46.56,2.86,78,5.27,39.06,25.46,69.95,25.46,69.95s-1-2-2.5-5.66l0,0,0,0a266.12,266.12,0,0,1-17.48-63.74c-4.73-33.91-5.69-70.85-6.8-81q3.18-5.1,6.6-10.36c-1.36,11.73-2.43,48,1.54,80.92,4.76,39.32,24.64,68.54,24.64,68.54s-14.19-29-19.15-68.65c-4.38-35.13-4.65-74-5.69-82.86q3.09-4.71,6.4-9.55c-.87,13.55-.88,49.78,3.3,83.35,4.11,33,15.2,56.66,19.67,65.15a34.59,34.59,0,0,0,1.91,3.45s-11.19-26-16.58-68.09c-4.54-35.58-5.78-74.35-6.88-85.94q2.52-3.65,5.16-7.36c-.38,13.61,0,48.21,2.76,79.2,3.53,39,15.1,66,15.1,66s-8.46-27.46-12.08-66.72c-2.94-31.88-4.07-67.36-4.83-79.81q2.91-4.07,6-8.19c-1.83,14.12-3.71,48.23-.51,80.53,4.11,41.62,25.83,76.71,25.83,76.71a269.16,269.16,0,0,1-19.54-75.4c-3.63-35.15-3-72.81-3.64-84.73q3.33-4.44,6.83-8.93c-2.19,14.1-4.92,46.9-2.8,78.27,2.74,41,22.8,76.63,22.8,76.63s-.91-2.25-2.32-6.27h0a275.36,275.36,0,0,1-14.41-68.71c-2.46-34.26-.75-70.69-1-82.83q3.22-4.09,6.58-8.2c-2.33,14.46-5.28,46.75-3.48,77.59,2.37,40.93,22.27,76.28,22.27,76.28a264.39,264.39,0,0,1-16.15-74.71c-2.1-33.63-.13-69.42-.19-82.14q3-3.58,6.05-7.2a507.42,507.42,0,0,0-3.17,81.47c2.07,42.24,19.57,76.22,19.57,76.22s-.81-2.22-2-6.22l0,0,0-.08a297,297,0,0,1-12.14-69.18c-1.79-34.13-.12-71-.11-84.7q3.36-3.9,6.85-7.79a500.27,500.27,0,0,0-4.95,77.34c.8,41.51,16.12,78.57,16.12,78.57a328.35,328.35,0,0,1-11.16-76.57c-.74-33.11,1.73-68,2.16-81.76q3.75-4.14,7.64-8.27c-3.74,15.67-8.76,47.41-8.37,79.19.53,44.43,23.33,88.75,23.33,88.75s-15-40.15-15.79-85.07c-.61-35.87,3.81-72.67,4.62-86.85q4.58-4.76,9.33-9.49C465.64,203.25,459,237.74,459,272.24c-.05,43.74,22.06,87.28,22.06,87.28s-1-2.64-2.39-7.3h0c-4.11-13.39-12.08-43.57-12.19-76.36-.17-38.42,5.64-77.88,5.92-88.62q4.22-4.12,8.57-8.23c-4,13.86-10.5,48.39-10.55,82.58-.09,43.9,22.16,86.32,22.16,86.32s-14.51-38.8-14.65-83.14c-.11-37.66,5.5-76.73,6-88.53q3.75-3.48,7.63-6.92c-4.05,11.65-12,46.56-12.9,81.3-1.14,42.37,19.47,84,19.47,84s-.89-2.54-2.18-7v0c-3.7-12.89-10.76-41.89-10.07-73.61.85-38.19,7.86-77.62,8.05-86.73q3.57-3.14,7.21-6.24c-3.41,11.12-10.23,47.8-10.38,84.17-.15,43.34,19.66,85.6,19.66,85.6s-12.91-38.53-13-82.32c0-39.37,5.68-80.14,5.59-89q3.18-2.69,6.45-5.34c-3.3,11.89-10,48.39-10.85,84-1,43,15.66,83.2,15.66,83.2a304,304,0,0,1-9.77-80.56c.78-38,6.41-77.88,6.79-88.13,2-1.63,4-3.25,6.11-4.87-2.41,13.07-6.76,49.31-6.81,83.48-.09,42.15,13.63,77.47,13.63,77.47s-.59-2.27-1.48-6.34h0a343.6,343.6,0,0,1-7.53-69.89c0-35.6,3.31-73.83,3.72-85.9q4.56-3.56,9.26-7C524,152,516.63,185.24,516.5,218.23c-.15,41.54,23.72,82,23.72,82s-1-2.47-2.59-6.85h0c-4.42-12.56-13-40.87-13-72-.05-36.11,6.21-73.47,6.63-84.1,1.74-1.28,3.49-2.54,5.26-3.8-2.66,11.5-6.88,45.4-4.93,77.59,2.39,39.08,24,72.75,24,72.75a224.38,224.38,0,0,1-17.35-71.31c-2.24-34.05.55-70.43.21-80.42q5.82-4.09,11.82-8.09c-4.11,11.37-10.89,43.24-9.35,74.8,1,20.16,9.05,40,16.66,54.48V241.67a170.63,170.63,0,0,1-7.47-40c-1.91-34.53,3.39-70.28,3.16-79.69,1.42-.93,2.87-1.85,4.31-2.77V112.1C468.94,169,412.5,243.45,379.15,300.52c-7.27,8-34.84,48-54.79,89.63C302,436.81,299.73,487.64,299.73,487.64ZM360.89,338q1.64-3.12,3.39-6.39c-.56,3.25-1.29,9.52-2,17.72C361.74,343.07,361.29,339,360.89,338Z" transform="translate(0 0)"/><path class="cls-1" d="M557.58,126.78v87.07a104.11,104.11,0,0,1-5.74-28.36A223.49,223.49,0,0,1,557.58,126.78Z" transform="translate(0 0)"/><path class="cls-1" d="M478,356.8s17.44-23.07,44.2-34.21a251.73,251.73,0,0,1,35.36-11.41v4c-10.37,3.29-22.81,7.48-34.48,12.39A159.06,159.06,0,0,0,478,356.8Z" transform="translate(0 0)"/><path class="cls-1" d="M472.4,372.17s15.89-24.72,43.4-38.51a289.73,289.73,0,0,1,41.78-16.54v3.78c-11.57,4.57-26.47,10.67-40.15,17.61A165.63,165.63,0,0,0,472.4,372.17Z" transform="translate(0 0)"/><path class="cls-1" d="M472.77,348.13l0,0,0,0c-2.59,2-4,3.18-4,3.18S489,328.12,519.22,317a305.53,305.53,0,0,1,38.36-11v4.07c-11.41,3.21-24.86,7.24-37.53,12A190.66,190.66,0,0,0,472.77,348.13Z" transform="translate(0 0)"/><path class="cls-1" d="M500.6,260.61s26.73-13.45,57-11.13v5.41l-.55,0A160.14,160.14,0,0,0,500.6,260.61Z" transform="translate(0 0)"/><path class="cls-1" d="M499.43,391.2c2.67-2.18,5.42-4.36,8.21-6.52-3.16,2.55-6.29,5.18-9.3,7.87C474.63,413.74,466,441.61,466,441.61s.79-1.59,2.36-4.3v0l0,0a174.43,174.43,0,0,1,33.09-40.71c20.93-18.83,46.57-36.34,52.19-41.25-.58,1.44-1.15,2.88-1.7,4.31-3.57.9-33.32,20.83-55.76,43.31-23.19,23.21-29.88,52-29.88,52s4.93-11.86,15.71-27a110.61,110.61,0,0,0-11.19,28.36s.62-1.62,1.9-4.38v0a157.92,157.92,0,0,1,28.88-41.84c18.49-19,41.58-37,47.5-42.63-.48,1.4-.94,2.8-1.39,4.19-6.2,3.32-31.14,22.72-50,44.94-21,24.73-25.84,56.65-25.84,56.65s.58-1.83,1.78-5v.06l0-.09a173.35,173.35,0,0,1,27.7-47.15c17.21-20.55,38.71-39.9,45.56-47.05-.43,1.38-.84,2.75-1.24,4.11-4.86,2.73-30.63,25.4-49.7,50-20.47,26.33-24.74,57.06-24.74,57.06s.54-1.8,1.69-4.92v0l0-.07A188.86,188.86,0,0,1,488.06,449,127.65,127.65,0,0,0,476,487.25a175,175,0,0,1,25.7-51.36c16.31-22.39,37.21-44.39,42.06-50.68-.38,1.49-.75,3-1.1,4.42-2.56,1.49-26.5,31.52-43,60.65-16.8,29.68-17.29,57.37-17.29,57.37s4.56-25.57,21.36-55.54c15.09-26.92,35.26-55.16,38.65-61.3-.34,1.45-.65,2.89-1,4.3h0l0,0h0c-1.71.45-23.77,32.51-38.13,63.13s-12.53,58-12.53,58,2.43-25.63,16.77-56.48c13.19-28.4,31.64-58.58,33.79-63.85-.3,1.46-.59,2.89-.86,4.31-2.95,3.17-20.44,32.54-31.69,60.2-11.8,29-9.19,53.91-9.19,53.91s.09-1.6.42-4.45v0a192.72,192.72,0,0,1,12.64-48.36c10-24.86,24-51.44,27.44-59.27-.25,1.39-.49,2.75-.71,4.1-2.73,2.95-19.41,35.25-29,65.36-10,31.23-3.91,57.38-3.91,57.38s-1.45-25,8.47-56.46c8.3-26.32,20.76-54.58,24-63.58-.29,1.89-.56,3.73-.79,5.51-2.79,4.6-14.92,33.88-21.63,60.83-7.2,29-1.24,52.12-1.24,52.12s-.13-1.5-.22-4.22h0a181.92,181.92,0,0,1,5.29-47.4c5.68-23.13,14.42-48.11,17.37-57.79-.23,2-.42,3.92-.59,5.77-1.7,2-9.92,35.13-11.33,64.66-1.43,30,11.8,52,11.8,52s-8.3-21.91-7-52.13c.9-20.42,4.19-42.55,5.85-54.88,0,1.13-.09,2.2-.12,3.23-1.49,5.17-4.86,35.81-3.25,62.82,1.75,29.09,15.65,49.27,15.65,49.27s-9.52-20.51-11.4-49.84c-1.23-19.18-.64-40.09-.39-52.36a308.55,308.55,0,0,0,7.32,48.13,104.05,104.05,0,0,0,13.36,30.89v-6a156.25,156.25,0,0,1-9.09-26.16c-6.62-26.47-10-57-11.43-61,0-.58.09-1.16.15-1.76,1.23,8.19,8.8,36.45,20.06,60.09.1.22.21.42.31.63V477.14c-10.3-26.06-17.45-55.09-19.14-57.16v-.05c.09-.68.19-1.37.29-2.07,1.61,8.21,8.68,31.44,18.86,52.12V458.57c-9.31-19.9-16.31-39.34-18.5-43.13.26-1.69.54-3.41.85-5.19.43,3.64,7.58,24.82,17.65,44.81V446.6c-9.12-18.28-16.08-35.43-17.43-36.8v0l0,0,0,0-.06,0c.21-1.17.43-2.35.66-3.55.36,2.54,7.53,20.83,16.89,38.3v-5.78c-8.91-16.62-16-32.38-16.82-32.8v0c.25-1.34.53-2.7.82-4.08.43,2.74,7.14,20.11,16,36.43V425.68c-.86-1.69-1.71-3.37-2.52-5-4.85-14.79-8.57-28.48-10.13-32.94q.81-3,1.73-6.1c.69,6.16,4.63,24.85,10.92,43.3V413.24c-5.31-15.94-9.1-30-10.48-33.09.89-2.91,1.84-5.87,2.88-8.88a345.93,345.93,0,0,0,7.6,34.65V395.23c-3.22-11.55-5.68-21.35-7-25.72,2-5.72,4.34-11.58,7-17.5V346.2c-.4.88-.81,1.76-1.19,2.63-6.14,2.5-37.68,20.87-61.33,40-25.47,20.61-31.57,43-31.57,43S473.91,412,499.43,391.2Zm38.71,31a127.8,127.8,0,0,0,2.24,13.46c-1.44-3.84-2.45-6.35-3-7Q537.71,425.56,538.14,422.17Zm10.76-6.66c-4-8-6.7-13.78-7.25-14.09h0q.45-2.15,1-4.35A144.7,144.7,0,0,0,548.9,415.51Zm-4.41-26.12c.56,3.48,1.83,9.53,3.64,16.79-2.5-5.35-4.32-9.24-5.19-10.56C543.42,393.58,543.93,391.51,544.49,389.39Zm.7-9.45c-.35,1.24-.69,2.48-1,3.7-1.48.83-5.44,4.15-10.72,9.15C538.89,386.93,543.15,382.4,545.19,379.94Zm6.31-19.18c-.64,1.7-1.26,3.4-1.85,5.08-2.18.88-8.28,4.65-16.12,10.28C542.37,368.65,549.26,363.06,551.5,360.76Zm-23.2,8.66c12.69-9,23.54-16.28,27.52-19.33-.57,1.33-1.14,2.66-1.68,4C551.58,354.82,541.05,360.74,528.3,369.42Z" transform="translate(0 0)"/><path class="cls-1" d="M489.6,292.54h0c-3,1.26-4.72,2.08-4.72,2.08s26-17.48,58.07-20.69c4.86-.48,9.78-.81,14.64-1v4.87c-5.08.31-10.22.72-15.29,1.24A194.26,194.26,0,0,0,489.6,292.54Z" transform="translate(0 0)"/><path class="cls-1" d="M468,403.43s8.09-21.85,35.2-40.13c18.51-12.48,41.2-24.13,54.43-30.2v2.5c-12.35,7-32.88,18.6-50.31,30.45C480.07,384.56,468,403.43,468,403.43Z" transform="translate(0 0)"/><path class="cls-1" d="M463,394.92s10.13-21.45,39-38.68c18.89-11.28,41.58-21.69,55.59-27.45v2.55c-13.13,6.62-33.85,17-51.71,27.76C476.92,376.56,463,394.92,463,394.92Z" transform="translate(0 0)"/><path class="cls-1" d="M495.37,271.3l-.11.06.06,0c-3.36,1.07-5.25,1.8-5.25,1.8s30.07-16.71,62.7-16.17c1.6,0,3.21.08,4.81.14v5.79c-2.23-.08-4.47-.14-6.69-.16C526.54,262.44,505,268.25,495.37,271.3Z" transform="translate(0 0)"/><path class="cls-1" d="M514.53,240a131.17,131.17,0,0,1,43.05-6.36v4.74A168.26,168.26,0,0,0,514.53,240Z" transform="translate(0 0)"/><path class="cls-1" d="M544.44,270.36a202.22,202.22,0,0,0-56.28,9.7h0c-3.27,1.07-5.1,1.78-5.1,1.78s28.82-16.2,62.56-16.8c4-.07,8,0,12,.08v5.2C553.21,270.26,548.8,270.26,544.44,270.36Z" transform="translate(0 0)"/><path class="cls-1" d="M471.84,406.06c-.59.79-1.1,1.5-1.55,2.14l0,.07v0c-1.57,2.24-2.33,3.53-2.33,3.53s.24-.75.79-2.09a89,89,0,0,0-7.14,9.64s3.72-11.09,15.34-24.18a102.45,102.45,0,0,1,24.22-24.19c19.64-14.13,44.4-27.37,56.43-33v2.12c-7.37,4.53-19.51,11.74-32.23,20,14.55-8.18,27.38-14.35,32.23-16.2v1.12c-7.72,5-35.54,20.51-58,36.44A166.71,166.71,0,0,0,471.84,406.06Z" transform="translate(0 0)"/><path class="cls-1" d="M499.85,251.74s26.71-11.8,57.73-9v5.41A174.81,174.81,0,0,0,499.85,251.74Z" transform="translate(0 0)"/><path class="cls-1" d="M466,383l0,.05v0c-2,2.17-3,3.45-3,3.45s11-22.4,41.27-39.15c17.74-9.81,38.62-18.68,53.33-24.26v3.14c-13.69,6.28-32.7,15.14-49.38,24.44C485.71,363.21,471.75,376.79,466,383Z" transform="translate(0 0)"/><path class="cls-1" d="M465.51,345.29s21.88-23.91,54-34.75a315.39,315.39,0,0,1,38.11-10v4.41c-11.54,2.95-24.8,6.6-37.37,10.91A194.45,194.45,0,0,0,465.51,345.29Z" transform="translate(0 0)"/><path class="cls-1" d="M475.23,332.2h0c-2.81,2-4.36,3.2-4.36,3.2s23.09-24.56,54.6-33.75a258.5,258.5,0,0,1,32.12-7v5.08c-10.1,2.1-21.25,4.69-31.94,7.87A182.31,182.31,0,0,0,475.23,332.2Z" transform="translate(0 0)"/><path class="cls-1" d="M487.2,301.94l0,0h0c-2.87,1.42-4.45,2.33-4.45,2.33s23.65-18.95,55.21-23.5c6.5-.93,13.15-1.57,19.63-2v4.91c-6.47.61-13.11,1.36-19.6,2.33A177.49,177.49,0,0,0,487.2,301.94Z" transform="translate(0 0)"/><path class="cls-1" d="M479.74,320.24a120.85,120.85,0,0,1,29.41-19.62,178.69,178.69,0,0,0-28,12.81l0,0,0,0c-2.85,1.64-4.4,2.66-4.4,2.66s22.63-20.83,55-27.42c8.53-1.75,17.37-3,25.79-3.92v8.94c-8.29,1.21-17.08,2.69-25.56,4.55A159.58,159.58,0,0,0,479.74,320.24Z" transform="translate(0 0)"/></g></svg>