<svg id="Layer_1" data-name="Layer 1" xmlns="http://www.w3.org/2000/svg" viewBox="0 0 382.48 375.35"><defs><style>.cls-1{fill:#e4002b;}</style></defs><path class="cls-1" d="M388.47,288.67a4.22,4.22,0,0,0,4.21-4.21V74a4.21,4.21,0,0,0-4.21-4.21H280.75V41.75a4.21,4.21,0,0,0-4.21-4.21H229.26V37a27.82,27.82,0,1,0-55.64,0v.51H126.34a4.21,4.21,0,0,0-4.21,4.21V69.83H14.41A4.21,4.21,0,0,0,10.2,74V284.46a4.22,4.22,0,0,0,4.21,4.21h29v55.18h-29a4.22,4.22,0,0,0-4.21,4.21v32.29a4.22,4.22,0,0,0,4.21,4.21H388.47a4.22,4.22,0,0,0,4.21-4.21V348.06a4.22,4.22,0,0,0-4.21-4.21h-29V288.67Zm-4.21,87.47H18.62V352.27H384.26ZM51.79,343.85V288.93h299.3v54.92ZM182,37a19.4,19.4,0,0,1,38.8,0v.51H182ZM130.55,46H272.33V69.83H130.55ZM18.62,78.25H384.26v202H18.62Z" transform="translate(-10.2 -9.21)"/><path class="cls-1" d="M365,93.35h-327a4.21,4.21,0,0,0-4.21,4.21V260.94a4.2,4.2,0,0,0,4.21,4.21H365a4.2,4.2,0,0,0,4.21-4.21V97.56A4.21,4.21,0,0,0,365,93.35Zm-4.21,163.38H42.14v-155h318.6Z" transform="translate(-10.2 -9.21)"/><path class="cls-1" d="M78.14,165.56c7,0,8.83,4.4,8.83,4.4s-14.59,12.39-14.59,28.38v19.58h33.37V198.34c0-20.19,24.39-50.37,24.39-50.37l-9.8-7.39s-5,5.59-12.59,5.59-11.39-5.59-23.58-5.59c-12,0-17.79,5.59-17.79,5.59v-4.8H53.79v33.38H65.18S68,165.56,78.14,165.56Z" transform="translate(-10.2 -9.21)"/><path class="cls-1" d="M298.29,165.56c7,0,8.83,4.4,8.83,4.4s-14.59,12.39-14.59,28.38v19.58H325.9V198.34c0-20.19,24.39-50.37,24.39-50.37l-9.8-7.39s-5,5.59-12.59,5.59-11.39-5.59-23.58-5.59c-12,0-17.79,5.59-17.79,5.59v-4.8H273.94v33.38h11.39S288.13,165.56,298.29,165.56Z" transform="translate(-10.2 -9.21)"/><path class="cls-1" d="M186.4,165.56c7,0,8.83,4.4,8.83,4.4s-14.59,12.39-14.59,28.38v19.58H214V198.34C214,178.15,238.4,148,238.4,148l-9.79-7.39s-5,5.59-12.6,5.59-11.39-5.59-23.58-5.59c-12,0-17.79,5.59-17.79,5.59v-4.8H162.05v33.38h11.39S176.24,165.56,186.4,165.56Z" transform="translate(-10.2 -9.21)"/><path class="cls-1" d="M144.07,246a4.21,4.21,0,0,0,4.21-4.21v-125a4.21,4.21,0,1,0-8.41,0v125A4.21,4.21,0,0,0,144.07,246Z" transform="translate(-10.2 -9.21)"/><path class="cls-1" d="M256.81,246a4.22,4.22,0,0,0,4.21-4.21v-125a4.21,4.21,0,1,0-8.42,0v125A4.21,4.21,0,0,0,256.81,246Z" transform="translate(-10.2 -9.21)"/></svg>