<svg id="Layer_1" data-name="Layer 1" xmlns="http://www.w3.org/2000/svg" viewBox="0 0 381.4 373.16"><defs><style>.cls-1{fill:#e4002b;}</style></defs><path class="cls-1" d="M385.91,288.11H13.69a4.21,4.21,0,0,0-4.21,4.21v22.79A71.55,71.55,0,0,0,81,386.58H318.64a71.55,71.55,0,0,0,71.47-71.47V292.32A4.2,4.2,0,0,0,385.91,288.11Zm-4.21,27a63.12,63.12,0,0,1-63.06,63.05H81a63.12,63.12,0,0,1-63-63.05V296.53H381.7Z" transform="translate(-9.3 -13.42)"/><path class="cls-1" d="M13.69,157.19H385.91a4.21,4.21,0,0,0,4.2-4.21V141A127.72,127.72,0,0,0,262.54,13.42H137.06A127.72,127.72,0,0,0,9.48,141v12A4.22,4.22,0,0,0,13.69,157.19ZM17.9,141A119.3,119.3,0,0,1,137.06,21.84H262.54A119.3,119.3,0,0,1,381.7,141v7.77H17.9Z" transform="translate(-9.3 -13.42)"/><path class="cls-1" d="M13.69,180.49c13.8,0,20.42,6.44,28.08,13.9,7.85,7.63,16.74,16.28,33.95,16.28s26.1-8.65,34-16.28c7.66-7.46,14.27-13.9,28.07-13.9s20.41,6.44,28.08,13.9c7.84,7.63,16.73,16.28,34,16.28s26.11-8.65,34-16.28c7.66-7.46,14.28-13.9,28.08-13.9s20.42,6.44,28.09,13.9c7.85,7.63,16.74,16.28,34,16.28s26.11-8.65,34-16.28c7.66-7.46,14.28-13.9,28.09-13.9a4.21,4.21,0,0,0,0-8.42c-17.23,0-26.12,8.65-34,16.28-7.67,7.46-14.29,13.9-28.09,13.9s-20.43-6.44-28.09-13.9c-7.85-7.63-16.74-16.28-34-16.28s-26.11,8.65-33.95,16.28c-7.67,7.46-14.29,13.9-28.09,13.9s-20.42-6.44-28.08-13.9c-7.85-7.63-16.74-16.28-33.95-16.28s-26.1,8.65-33.94,16.28c-7.67,7.46-14.28,13.9-28.08,13.9s-20.41-6.44-28.08-13.9c-7.84-7.63-16.73-16.28-33.95-16.28a4.21,4.21,0,1,0,0,8.42Z" transform="translate(-9.3 -13.42)"/><path class="cls-1" d="M93,59a6.57,6.57,0,0,0-2,4.74,6.2,6.2,0,0,0,.54,2.59A6,6,0,0,0,93,68.52a6.48,6.48,0,0,0,4.74,2,6,6,0,0,0,2.59-.54,5.85,5.85,0,0,0,2.15-1.45A6.8,6.8,0,0,0,104,66.37a7,7,0,0,0,.48-2.59,6.56,6.56,0,0,0-2-4.74A6.87,6.87,0,0,0,93,59Z" transform="translate(-9.3 -13.42)"/><path class="cls-1" d="M148.24,46a6.7,6.7,0,0,0-.59-1.13,5.53,5.53,0,0,0-.86-1,6.87,6.87,0,0,0-9.48,0,6.6,6.6,0,0,0-2,4.74,6.81,6.81,0,0,0,6.73,6.74,6.53,6.53,0,0,0,4.74-2,5.65,5.65,0,0,0,1.45-2.15,6,6,0,0,0,.54-2.59,5.18,5.18,0,0,0-.16-1.29A5.26,5.26,0,0,0,148.24,46Z" transform="translate(-9.3 -13.42)"/><path class="cls-1" d="M179.21,59a6.76,6.76,0,0,0,0,9.48,6.71,6.71,0,0,0,9.54,0,5.93,5.93,0,0,0,1.45-2.15,7.1,7.1,0,0,0,.54-2.59,6.77,6.77,0,0,0-2-4.74A6.94,6.94,0,0,0,179.21,59Z" transform="translate(-9.3 -13.42)"/><path class="cls-1" d="M301.54,59a6.73,6.73,0,0,0,4.8,11.47,6.13,6.13,0,0,0,2.58-.54,6.42,6.42,0,0,0,2.16-1.45,5.81,5.81,0,0,0,1.45-2.15,6.05,6.05,0,0,0,.54-2.59,6.77,6.77,0,0,0-2-4.74A6.94,6.94,0,0,0,301.54,59Z" transform="translate(-9.3 -13.42)"/><path class="cls-1" d="M251.94,50.73a4.94,4.94,0,0,0-.64-1.17,5.25,5.25,0,0,0-.81-1,7,7,0,0,0-9.5,0,4.84,4.84,0,0,0-.8,1,5.37,5.37,0,0,0-.65,1.17,4.68,4.68,0,0,0-.37,1.24,5.18,5.18,0,0,0-.16,1.29A6.9,6.9,0,0,0,241,58a6.55,6.55,0,0,0,7.3,1.44,6.45,6.45,0,0,0,2.2-1.44,6.65,6.65,0,0,0,2-4.78,5.18,5.18,0,0,0-.16-1.29A5.1,5.1,0,0,0,251.94,50.73Z" transform="translate(-9.3 -13.42)"/><path class="cls-1" d="M36.69,277.3H363.31a27.4,27.4,0,0,0,0-54.79H36.69a27.4,27.4,0,0,0,0,54.79Zm0-47.15H363.31a19.75,19.75,0,1,1,0,39.5H36.69a19.75,19.75,0,0,1,0-39.5Z" transform="translate(-9.3 -13.42)"/></svg>