<svg id="Layer_1" data-name="Layer 1" xmlns="http://www.w3.org/2000/svg" viewBox="0 0 382.23 363.42"><defs><style>.cls-1{fill:#e4002b;}</style></defs><path class="cls-1" d="M389.88,163.05,342.79,116a4.21,4.21,0,0,0-5.42-.46L318,129.32a4.21,4.21,0,0,0-.53,6.4L329.74,148,223,254.76c-87.94,87.93-141.54,54.67-174.2,22l-22-22a4.19,4.19,0,0,0-5.95,0L10.12,265.38a4.19,4.19,0,0,0,0,5.95L84,345.2c24.29,24.3,51.56,36.51,81.34,36.51a120.45,120.45,0,0,0,27.7-3.35c40.49-9.59,72.55-37,88.06-52.55S298,294.54,296.36,284.1a49,49,0,0,0-5.53-16.05L389.88,169A4.19,4.19,0,0,0,389.88,163.05ZM282.53,264.46a4.22,4.22,0,0,0-.43,5.45c.74,1,17.75,25.23-7,49.95-17.08,17.08-106.29,98.3-185.2,19.39l-70.89-70.9,4.7-4.7,19.07,19.06c24.27,24.28,47.51,36,73.14,37,34.58,1.24,72.56-18.57,113-59L338.67,151a4.21,4.21,0,0,0,0-6L327,133.29l12.41-8.86L381,166Z" transform="translate(-8.88 -18.29)"/><path class="cls-1" d="M140,205.32a25.35,25.35,0,1,0,17.92-7.43A25.16,25.16,0,0,0,140,205.32Zm34.86,17.92a17,17,0,1,1-5-12A16.82,16.82,0,0,1,174.81,223.24Z" transform="translate(-8.88 -18.29)"/><path class="cls-1" d="M108.64,172.28a4.2,4.2,0,0,0,3.23-6.91c-.33-.39-32.23-39.19-15.81-85.21,14.13-39.59,52.49-52.31,56.82-53.63a4.21,4.21,0,1,0-2.46-8c-7.74,2.36-47.1,16.29-62.29,58.85C70.1,127.84,104,169,105.41,170.77A4.2,4.2,0,0,0,108.64,172.28Z" transform="translate(-8.88 -18.29)"/><path class="cls-1" d="M119.68,83.64c-7.38,16.52-12.34,43.73,6,79.56.29.56.5,1,.59,1.18a4.21,4.21,0,1,0,7.74-3.31c-.13-.31-.42-.89-.83-1.7-16.82-32.87-12.45-57.46-5.81-72.29,11.86-26.51,35.79-37.33,45.53-40.76a4.21,4.21,0,0,0-2.8-7.94C159.34,42.17,132.87,54.15,119.68,83.64Z" transform="translate(-8.88 -18.29)"/><path class="cls-1" d="M151.38,89.75c-7.56,12.12-14.42,33.66-4.18,67.43.17.56.3,1,.39,1.31a4.2,4.2,0,0,0,4.06,3.09,4.28,4.28,0,0,0,1.11-.14,4.22,4.22,0,0,0,3-5.18c-.1-.36-.26-.87-.45-1.53-7.49-24.68-6.39-45,3.27-60.52a70.63,70.63,0,0,1,34.33-28.08,4.21,4.21,0,0,0-3-7.86A79.25,79.25,0,0,0,151.38,89.75Z" transform="translate(-8.88 -18.29)"/></svg>