<svg id="Layer_1" data-name="Layer 1" xmlns="http://www.w3.org/2000/svg" viewBox="0 0 382.23 382.23"><defs><style>.cls-1{fill:#e4002b;}</style></defs><path class="cls-1" d="M387.8,107.89a24.47,24.47,0,0,0-15-11.49L310.21,79.62V33.56A24.7,24.7,0,0,0,285.54,8.88H114.46A24.71,24.71,0,0,0,89.78,33.56V80.14L27.17,96.92A24.7,24.7,0,0,0,9.73,127.14L75.56,372.82a24.63,24.63,0,0,0,30.22,17.45L201,364.76l93.25,25a24.86,24.86,0,0,0,6.43.85,24.67,24.67,0,0,0,23.79-18.3l65.84-245.68A24.54,24.54,0,0,0,387.8,107.89ZM98.2,33.56A16.28,16.28,0,0,1,114.46,17.3H285.54a16.28,16.28,0,0,1,16.25,16.26V287.91a16.27,16.27,0,0,1-16.25,16.26h-.17L222.64,70.09a24.66,24.66,0,0,0-30.22-17.45L98.2,77.88Zm5.4,348.58a16.28,16.28,0,0,1-19.91-11.49L17.86,125A16.29,16.29,0,0,1,29.35,105L194.6,60.77a16.25,16.25,0,0,1,19.91,11.49L280.34,318a16.25,16.25,0,0,1-11.49,19.91h0Zm278.53-257.7L316.3,370.13a16.25,16.25,0,0,1-19.91,11.49l-79.17-21.21L271,346a24.68,24.68,0,0,0,17.45-30.22l-.88-3.28a24.7,24.7,0,0,0,22.61-24.58V88.34l60.43,16.19a16.25,16.25,0,0,1,11.49,19.91Z" transform="translate(-8.88 -8.88)"/><path class="cls-1" d="M138.61,153.4A6,6,0,0,0,133,152a5.89,5.89,0,0,0-4.1,3.79l-24.44,64.9a6.15,6.15,0,0,0,1.85,6.42l53.29,43.71a6,6,0,0,0,5.6,1.35,5.9,5.9,0,0,0,4.11-3.77l24.36-64.7a1.59,1.59,0,0,1,.07-.2,6.13,6.13,0,0,0-1.85-6.43Zm24,109-49.53-40.63,22.57-59.95,49.53,40.63Z" transform="translate(-8.88 -8.88)"/></svg>