<svg id="Layer_1" data-name="Layer 1" xmlns="http://www.w3.org/2000/svg" viewBox="0 0 382.22 379.14"><defs><style>.cls-1{fill:#e4002b;}</style></defs><path class="cls-1" d="M347.12,156.21a4.21,4.21,0,0,0-7.38,2.77V327.81a35.46,35.46,0,0,0-14-8.72c-9.91-3.42-21.4-3.21-32.32.57s-20.08,10.72-25.76,19.53c-5.89,9.14-7.39,19.2-4.23,28.32,4.76,13.78,19.26,22,35.85,22a52.93,52.93,0,0,0,17.3-3c18.78-6.5,31.18-22.07,31.55-37.63a2.09,2.09,0,0,0,.05-.21V170.2l18,20.62a67.11,67.11,0,0,1,16.54,44.11v10.31a4.21,4.21,0,0,0,8.42,0V234.93a75.47,75.47,0,0,0-18.62-49.65ZM313.81,378.63c-18.55,6.42-37.58.19-42.45-13.87-2.29-6.63-1.1-14.09,3.36-21,4.66-7.24,12.28-13,21.43-16.14a45.13,45.13,0,0,1,14.66-2.53,37.45,37.45,0,0,1,12.17,2c7.78,2.68,13.33,7.81,15.62,14.44C343.47,355.55,332.35,372.22,313.81,378.63Z" transform="translate(-8.89 -10.43)"/><path class="cls-1" d="M217.86,13.22a4.19,4.19,0,0,0-3.91-.44L89.47,62a4.23,4.23,0,0,0-2.66,3.92V234.79c-10.32-10.57-28.58-14.34-46.34-8.21-22.92,7.94-36.38,29.41-30,47.86,4.77,13.78,19.27,22,35.85,22a53,53,0,0,0,17.31-3C74.57,289.74,83.71,282.8,89.39,274a34.53,34.53,0,0,0,5.82-18.3h0V121L211.29,75.08v110.5C201,175,182.7,171.23,165,177.37c-22.93,7.94-36.38,29.4-30,47.86,3.16,9.12,10.56,16.1,20.84,19.64a45.65,45.65,0,0,0,14.91,2.42,53.64,53.64,0,0,0,17.41-3c10.93-3.79,20.08-10.72,25.76-19.54a34.65,34.65,0,0,0,5.82-18.31h0V16.69A4.19,4.19,0,0,0,217.86,13.22ZM82.32,269.42c-4.67,7.24-12.28,13-21.44,16.14-18.54,6.42-37.58.19-42.45-13.88s6.26-30.73,24.8-37.14A45.14,45.14,0,0,1,57.92,232c13,0,24.19,6.1,27.75,16.41C88,255,86.78,262.51,82.32,269.42Zm12.91-157.5V68.77L211.29,22.88V66ZM206.79,220.21c-4.66,7.24-12.28,13-21.43,16.14s-18.69,3.37-26.83.56c-7.78-2.68-13.33-7.81-15.62-14.43-4.87-14.07,6.25-30.74,24.79-37.15a45,45,0,0,1,14.7-2.53c13,0,24.18,6.1,27.75,16.41C212.44,205.83,211.25,213.29,206.79,220.21Z" transform="translate(-8.89 -10.43)"/><path class="cls-1" d="M188,332.91l-19.13-2a26.43,26.43,0,0,1-23.37-23.37l-2-19.12a4.21,4.21,0,0,0-8.38,0l-2,19.12a26.43,26.43,0,0,1-23.37,23.37l-19.12,2a4.21,4.21,0,0,0,0,8.37l19.12,2a26.43,26.43,0,0,1,23.37,23.37l2,19.12a4.21,4.21,0,0,0,8.38,0l2-19.12a26.43,26.43,0,0,1,23.37-23.37l19.13-2a4.21,4.21,0,0,0,0-8.37Zm-48.72,24a35.11,35.11,0,0,0-19.86-19.87,35.09,35.09,0,0,0,19.86-19.86,35.12,35.12,0,0,0,19.86,19.86A35.13,35.13,0,0,0,139.29,357Z" transform="translate(-8.89 -10.43)"/><path class="cls-1" d="M289.92,67.09l19.12,2A26.43,26.43,0,0,1,332.41,92.5l2,19.12a4.21,4.21,0,0,0,8.38,0l2-19.12a26.43,26.43,0,0,1,23.37-23.37l19.13-2a4.21,4.21,0,0,0,0-8.37l-19.13-2a26.43,26.43,0,0,1-23.37-23.37l-2-19.12a4.21,4.21,0,0,0-8.38,0l-2,19.12A26.43,26.43,0,0,1,309,56.69l-19.12,2a4.21,4.21,0,0,0,0,8.37ZM338.63,43a35.13,35.13,0,0,0,19.86,19.87,35.12,35.12,0,0,0-19.86,19.86,35.12,35.12,0,0,0-19.86-19.86A35.13,35.13,0,0,0,338.63,43Z" transform="translate(-8.89 -10.43)"/><path class="cls-1" d="M270.93,240.69l1.2,11.35a4.21,4.21,0,0,0,8.37,0l1.21-11.35a14,14,0,0,1,12.36-12.36l11.36-1.21a4.21,4.21,0,0,0,0-8.37l-11.36-1.21a14,14,0,0,1-12.36-12.35l-1.21-11.36a4.21,4.21,0,0,0-8.37,0l-1.2,11.36a14,14,0,0,1-12.36,12.35l-11.36,1.21a4.21,4.21,0,0,0,0,8.37l11.36,1.21A14,14,0,0,1,270.93,240.69ZM276.32,215a22.69,22.69,0,0,0,7.91,7.91,22.53,22.53,0,0,0-7.91,7.91,22.53,22.53,0,0,0-7.91-7.91A22.69,22.69,0,0,0,276.32,215Z" transform="translate(-8.89 -10.43)"/></svg>