<svg id="Layer_1" data-name="Layer 1" xmlns="http://www.w3.org/2000/svg" viewBox="0 0 381.37 260.81"><defs><style>.cls-1{fill:#fff;}.cls-2{fill:#ff5a20;}.cls-3{fill:#00b200;}.cls-4{fill:#ff9700;}.cls-5{fill:#c9ff00;}.cls-6{fill:#ffce00;}.cls-7{fill:#ff6d00;}.cls-8{fill:#ff2c1e;}</style></defs><path class="cls-1" d="M145.31,261.47a13.26,13.26,0,1,1,0-14.7c.45-.34-5.23,3.65-5.23,3.65a6.92,6.92,0,1,0,0,7.44Z" transform="translate(-9.32 -6.59)"/><polygon class="cls-1" points="161.52 234.58 167.91 234.58 167.91 260.47 161.52 260.47 161.52 250.4 153.62 250.4 153.62 260.47 147.35 260.47 147.35 234.58 153.62 234.58 153.62 244.8 161.52 244.8 161.52 234.58"/><polygon class="cls-1" points="233.5 234.58 233.5 260.47 228.01 260.47 220.08 246.34 220.08 260.47 213.8 260.47 213.8 234.58 219.48 234.58 227.22 248.52 227.22 234.58 233.5 234.58"/><polygon class="cls-1" points="266.5 234.58 266.5 260.47 261.01 260.47 253.08 246.34 253.08 260.47 246.81 260.47 246.81 234.58 252.48 234.58 260.23 248.52 260.23 234.58 266.5 234.58"/><polygon class="cls-1" points="279.81 260.47 279.81 234.58 296.61 234.58 296.61 240.06 286.09 240.06 286.09 245.03 295.33 245.03 295.33 250.4 286.09 250.4 286.09 254.99 296.95 254.99 296.95 260.47 279.81 260.47"/><polygon class="cls-1" points="309.17 260.47 309.17 234.58 315.52 234.58 315.52 254.99 324.84 254.99 324.84 260.47 309.17 260.47"/><path class="cls-1" d="M200.68,241.17a10.28,10.28,0,0,0-10.28,10.28v15.62h6.39v-6.88h7.78v6.88H211V251.45a10.28,10.28,0,0,0-10.28-10.28m-3.89,13.42v-3.14a3.89,3.89,0,0,1,7.78,0v3.14Z" transform="translate(-9.32 -6.59)"/><rect class="cls-1" x="176.88" y="123.16" width="13.35" height="81.81"/><path class="cls-1" d="M152.75,127.63a26.07,26.07,0,0,0-26,26v57.9h13.35V177.65h25.36v33.92h13.36v-57.9A26.07,26.07,0,0,0,152.75,127.63Zm-12.68,36.66V153.67a12.68,12.68,0,0,1,25.36,0v10.62Z" transform="translate(-9.32 -6.59)"/><rect class="cls-1" x="365.29" y="123.16" width="13.35" height="81.81"/><path class="cls-1" d="M340.52,127.63a26.07,26.07,0,0,0-26,26V191.3h13.35V177.65H353.2v33.92h13.36v-57.9A26.07,26.07,0,0,0,340.52,127.63Zm-12.68,36.66V153.67a12.68,12.68,0,0,1,25.36,0v10.62Z" transform="translate(-9.32 -6.59)"/><path class="cls-1" d="M259.26,127.63a26.07,26.07,0,0,0-26,26v57.9h13.35V177.65h25.36v33.92H285.3v-57.9A26.07,26.07,0,0,0,259.26,127.63Zm-12.68,36.66V153.67a12.68,12.68,0,0,1,25.36,0v10.62Z" transform="translate(-9.32 -6.59)"/><rect class="cls-1" x="199.74" y="157.7" width="14.45" height="13.35"/><polygon class="cls-1" points="336.85 204.97 284.19 204.97 283.97 123.18 297.33 123.14 297.51 191.62 336.85 191.62 336.85 204.97"/><rect class="cls-1" x="58.03" y="212.93" width="320.61" height="13.35"/><path class="cls-1" d="M93.48,213.63a26.07,26.07,0,0,1-26-26V173H80.8V187.6a12.68,12.68,0,1,0,25.36,0V129.75h13.35V187.6A26.06,26.06,0,0,1,93.48,213.63Z" transform="translate(-9.32 -6.59)"/><circle class="cls-2" cx="84.16" cy="178.95" r="9.25"/><path class="cls-3" d="M44.36,177.24A26,26,0,0,1,26,132.81l10.3-10.31,9.45,9.44L35.39,142.25a12.68,12.68,0,0,0,17.93,17.93l40.91-40.9,9.44,9.44-40.9,40.9A26,26,0,0,1,44.36,177.24Z" transform="translate(-9.32 -6.59)"/><circle class="cls-4" cx="37.1" cy="142.57" r="9.25"/><path class="cls-5" d="M93.2,116.79H35.35a26,26,0,0,1,0-52.07H49.93V78.08H35.35a12.68,12.68,0,1,0,0,25.36H93.2Z" transform="translate(-9.32 -6.59)"/><circle class="cls-6" cx="29.12" cy="83.13" r="9.25"/><path class="cls-6" d="M94.23,101,53.32,60A26,26,0,1,1,90.14,23.23l10.31,10.3L91,43,80.7,32.67A12.68,12.68,0,1,0,62.77,50.6l40.9,40.9Z" transform="translate(-9.32 -6.59)"/><circle class="cls-5" cx="65.5" cy="37.1" r="9.25"/><path class="cls-4" d="M119.51,90.47H106.16V32.63a26,26,0,1,1,52.07,0V47.2H144.87V32.63a12.68,12.68,0,0,0-25.36,0Z" transform="translate(-9.32 -6.59)"/><circle class="cls-3" cx="123.32" cy="28.53" r="9.25"/><path class="cls-7" d="M131.44,101,122,91.5l40.9-40.9a26,26,0,0,1,36.82,36.82l-10.3,10.31L180,88.28,190.28,78A12.68,12.68,0,0,0,172.35,60Z" transform="translate(-9.32 -6.59)"/><circle class="cls-1" cx="372.12" cy="92.38" r="9.25"/><path class="cls-8" d="M275.7,39.61A6.65,6.65,0,0,0,271,34.9c-4.16-1.12-20.83-1.12-20.83-1.12s-16.67,0-20.83,1.12a6.67,6.67,0,0,0-4.71,4.71c-1.12,4.16-1.12,12.83-1.12,12.83s0,8.68,1.12,12.84A6.67,6.67,0,0,0,229.33,70c4.16,1.12,20.83,1.12,20.83,1.12s16.67,0,20.83-1.12a6.65,6.65,0,0,0,4.71-4.71c1.12-4.16,1.12-12.84,1.12-12.84S276.82,43.77,275.7,39.61Z" transform="translate(-9.32 -6.59)"/><polygon class="cls-1" points="235.51 53.85 249.36 45.85 235.51 37.85 235.51 53.85"/><path class="cls-1" d="M300.89,67.74a5.86,5.86,0,0,1-2.25-3.32,21.9,21.9,0,0,1-.66-6V55a19.63,19.63,0,0,1,.76-6.06,6.08,6.08,0,0,1,2.38-3.34,7.71,7.71,0,0,1,4.25-1,7.27,7.27,0,0,1,4.16,1.07A6.18,6.18,0,0,1,311.82,49a20.57,20.57,0,0,1,.72,6v3.4a20.8,20.8,0,0,1-.7,6,6,6,0,0,1-2.29,3.32,9.37,9.37,0,0,1-8.66,0Zm5.91-3.66a11.45,11.45,0,0,0,.44-3.74V53.06a11.33,11.33,0,0,0-.44-3.68,1.56,1.56,0,0,0-1.54-1.16,1.54,1.54,0,0,0-1.51,1.16,11.33,11.33,0,0,0-.44,3.68v7.28a11.87,11.87,0,0,0,.42,3.74,1.54,1.54,0,0,0,1.53,1.14A1.56,1.56,0,0,0,306.8,64.08Z" transform="translate(-9.32 -6.59)"/><path class="cls-1" d="M381.88,58.49v1.18a31.26,31.26,0,0,0,.13,3.38,3.24,3.24,0,0,0,.55,1.64,1.58,1.58,0,0,0,1.3.51,1.62,1.62,0,0,0,1.62-.91,8.1,8.1,0,0,0,.48-3.05l4.53.26a6.35,6.35,0,0,1,0,.84,6.19,6.19,0,0,1-1.77,4.84,7.23,7.23,0,0,1-5,1.61c-2.59,0-4.41-.82-5.45-2.44s-1.56-4.15-1.56-7.55V54.72q0-5.26,1.62-7.69t5.55-2.42a7.31,7.31,0,0,1,4.15,1,5.27,5.27,0,0,1,2,3.09,22.09,22.09,0,0,1,.59,5.8v4Zm.66-9.84a3.3,3.3,0,0,0-.53,1.62,31.74,31.74,0,0,0-.13,3.42v1.67h3.85V53.69a26.59,26.59,0,0,0-.16-3.42,3.25,3.25,0,0,0-.55-1.64,1.56,1.56,0,0,0-1.24-.47A1.5,1.5,0,0,0,382.54,48.65Z" transform="translate(-9.32 -6.59)"/><path class="cls-1" d="M288.08,58.05l-6-21.62h5.23l2.09,9.8c.54,2.42.93,4.48,1.19,6.18h.15q.27-1.83,1.18-6.14l2.17-9.84h5.23l-6.06,21.62V68.42h-5.19Z" transform="translate(-9.32 -6.59)"/><path class="cls-1" d="M329.53,45.05V68.42h-4.12L325,65.57h-.11a5.39,5.39,0,0,1-5,3.24,3.94,3.94,0,0,1-3.43-1.53,8.17,8.17,0,0,1-1.11-4.77V45.05h5.26V62.21a5.38,5.38,0,0,0,.34,2.23,1.19,1.19,0,0,0,1.15.67,2.31,2.31,0,0,0,1.31-.42,2.68,2.68,0,0,0,.94-1.07V45.05Z" transform="translate(-9.32 -6.59)"/><path class="cls-1" d="M356.52,45.05V68.42H352.4l-.46-2.85h-.11a5.39,5.39,0,0,1-5,3.24,4,4,0,0,1-3.44-1.53,8.25,8.25,0,0,1-1.1-4.77V45.05h5.26V62.21a5.38,5.38,0,0,0,.34,2.23,1.19,1.19,0,0,0,1.15.67,2.31,2.31,0,0,0,1.31-.42,2.68,2.68,0,0,0,.94-1.07V45.05Z" transform="translate(-9.32 -6.59)"/><path class="cls-1" d="M343.83,40.67H338.6V68.42h-5.14V40.67h-5.23V36.43h15.6Z" transform="translate(-9.32 -6.59)"/><path class="cls-1" d="M373.93,48.79a5.93,5.93,0,0,0-1.54-3.2,4.11,4.11,0,0,0-2.94-1,4.91,4.91,0,0,0-2.7.82,5.63,5.63,0,0,0-1.95,2.16h0V35.25h-5.07V68.42H364l.53-2.21h.12a4.4,4.4,0,0,0,1.83,1.87,5.38,5.38,0,0,0,2.71.69,4.14,4.14,0,0,0,3.92-2.46q1.26-2.46,1.26-7.68v-3.7A30.44,30.44,0,0,0,373.93,48.79Zm-4.82,9.53a29.58,29.58,0,0,1-.21,4,4.29,4.29,0,0,1-.7,2,1.64,1.64,0,0,1-1.34.61,2.48,2.48,0,0,1-1.2-.3,2.28,2.28,0,0,1-.9-.92V50.51a3.38,3.38,0,0,1,.92-1.57,2,2,0,0,1,1.41-.61,1.43,1.43,0,0,1,1.24.63,5,5,0,0,1,.61,2.12,40.71,40.71,0,0,1,.17,4.23Z" transform="translate(-9.32 -6.59)"/></svg>