<svg id="Layer_1" data-name="Layer 1" xmlns="http://www.w3.org/2000/svg" xmlns:xlink="http://www.w3.org/1999/xlink" viewBox="0 0 361.54 161.05"><defs><style>.cls-1{fill:#562303;}.cls-2{fill:url(#linear-gradient);}.cls-3{fill:#6d0b19;}.cls-4{fill:url(#linear-gradient-2);}.cls-5{fill:url(#linear-gradient-3);}.cls-6{fill:url(#linear-gradient-4);}.cls-7{fill:url(#linear-gradient-5);}.cls-8{fill:url(#linear-gradient-6);}.cls-9{fill:url(#linear-gradient-7);}.cls-10{fill:url(#linear-gradient-8);}</style><linearGradient id="linear-gradient" x1="-18.35" y1="34.29" x2="82.7" y2="34.29" gradientUnits="userSpaceOnUse"><stop offset="0" stop-color="#cf8b23"/><stop offset="0.25" stop-color="#d08d26"/><stop offset="0.42" stop-color="#d3952f"/><stop offset="0.56" stop-color="#d7a13e"/><stop offset="0.7" stop-color="#deb353"/><stop offset="0.82" stop-color="#e6ca6f"/><stop offset="0.93" stop-color="#f0e591"/><stop offset="1" stop-color="#f7f8a8"/></linearGradient><linearGradient id="linear-gradient-2" x1="32.17" y1="98.88" x2="32.17" y2="-30.3" gradientUnits="userSpaceOnUse"><stop offset="0" stop-color="#b723a6"/><stop offset="0.68" stop-color="#ff2b06"/><stop offset="0.95" stop-color="#ff611a"/></linearGradient><linearGradient id="linear-gradient-3" x1="110.89" y1="34.29" x2="211.95" y2="34.29" xlink:href="#linear-gradient"/><linearGradient id="linear-gradient-4" x1="161.42" y1="98.88" x2="161.42" y2="-30.3" xlink:href="#linear-gradient-2"/><linearGradient id="linear-gradient-5" x1="242.13" y1="34.29" x2="343.19" y2="34.29" xlink:href="#linear-gradient"/><linearGradient id="linear-gradient-6" x1="292.66" y1="98.88" x2="292.66" y2="-30.3" xlink:href="#linear-gradient-2"/><linearGradient id="linear-gradient-7" x1="117.01" y1="161.05" x2="117.01" gradientUnits="userSpaceOnUse"><stop offset="0" stop-color="#cf8b23" stop-opacity="0"/><stop offset="0.33" stop-color="#cf8b23"/><stop offset="0.42" stop-color="#d08d26"/><stop offset="0.49" stop-color="#d3952f"/><stop offset="0.55" stop-color="#d7a13e"/><stop offset="0.6" stop-color="#deb353"/><stop offset="0.65" stop-color="#e6ca6f"/><stop offset="0.69" stop-color="#f0e591"/><stop offset="0.72" stop-color="#f7f8a8"/><stop offset="1" stop-color="#f7f8a8" stop-opacity="0"/></linearGradient><linearGradient id="linear-gradient-8" x1="246.25" y1="161.05" x2="246.25" y2="0" xlink:href="#linear-gradient-7"/></defs><path class="cls-1" d="M34.07,107.72a4.9,4.9,0,0,1-4.22-7.39C41.5,80.56,44,49.48,38.54,35c-.48.48-.93.94-1.37,1.41l-.2.21c-.65.7-1.26,1.36-1.82,2l-.34.39c-.63.74-1.26,1.5-1.86,2.29l0,0c-.09.13-.18.27-.28.4-.59.76-1.14,1.54-1.68,2.32l-.12.16c-.07.13-.14.25-.22.37-.48.72-.93,1.46-1.37,2.17a3.71,3.71,0,0,1-.28.41,4.11,4.11,0,0,1-.21.42c-.37.66-.74,1.34-1.08,2a4.25,4.25,0,0,1-.27.46l-.12.28c-.41.84-.81,1.67-1.16,2.53a4,4,0,0,1-.24.51c-.05.13-.09.26-.15.38-.42,1-.8,2-1.15,3a5.15,5.15,0,0,1-.23.54c0,.13-.06.25-.1.37-.25.76-.48,1.55-.71,2.33l-.12.4c-.05.16-.1.31-.16.46l-.09.41c-.23.89-.44,1.77-.64,2.66l-.13.55c0,.19-.05.39-.09.59-.28,1.32-.53,2.8-.77,4.55a4.89,4.89,0,0,1-4.43,4.24l-.43,0A4.91,4.91,0,0,1,12,70.44c-3.19-10.1-3.22-18.87-.17-26.13l-.25.25c-.46.4-.89.82-1.32,1.24l-.69.66-.28.24L9,47.06c-.69.71-1.35,1.43-2,2.17q-.17.18-.33.33l-.21.26c-1.14,1.34-2,2.47-2.83,3.57a4.87,4.87,0,0,1-4,2,5,5,0,0,1-2-.4,4.92,4.92,0,0,1-2.85-5.46C-3.28,40.12.23,33.65,4.5,29.29L3,30.1c-.16.09-.33.17-.49.24a4.17,4.17,0,0,1-.44.29c-1,.6-2.11,1.28-3.24,2.05a5.17,5.17,0,0,1-.68.39,6.12,6.12,0,0,1-.5.39c-1.23.86-2.53,1.81-3.86,2.83l-.4.28c-.12.11-.25.23-.38.33l-.32.26c-.45.35-.9.71-1.33,1.08a4.9,4.9,0,0,1-3.2,1.18,4.9,4.9,0,0,1-3.25-1.23,4.91,4.91,0,0,1-.82-6.41,67.72,67.72,0,0,1,6.78-8.62l-.3.13-2,.88a4.91,4.91,0,0,1-2,.43,4.91,4.91,0,0,1-4.11-2.23A4.91,4.91,0,0,1-16.72,16C-7.21,7.52,2.14,3.19,11,3.19a28,28,0,0,1,4.11.31C11.09-6.63,13.1-17.67,21.26-29.2a4.9,4.9,0,0,1,4-2.07,4.94,4.94,0,0,1,1.91.39,4.91,4.91,0,0,1,2.91,5.42c-.25,1.37-.47,2.87-.65,4.58a3.11,3.11,0,0,1-.06.44,3.44,3.44,0,0,1,0,.46c-.1,1-.18,1.94-.22,2.88a2.83,2.83,0,0,1,0,.41,4.33,4.33,0,0,1,0,.72c0,.88,0,1.76,0,2.64a4.52,4.52,0,0,1,0,.52,4.53,4.53,0,0,1,.05.53c0,1.19.09,2.19.19,3.14a4.15,4.15,0,0,1,0,.61c0,.1,0,.19,0,.28.1.93.23,1.91.38,2.84,0,.14,0,.27.05.41a3.86,3.86,0,0,1,.1.49,1.55,1.55,0,0,1,0,.21,29.42,29.42,0,0,1,2.37-4.93c5-8.34,14.3-14.15,27.54-17.27A4.84,4.84,0,0,1,61-26.63a4.89,4.89,0,0,1,4.53,3.05,4.89,4.89,0,0,1-2,6l-.61.37c-.48.3-.95.59-1.44.87a3.07,3.07,0,0,1-.31.17,4.14,4.14,0,0,1-.48.34c-1.29.8-2.58,1.66-3.94,2.62a5,5,0,0,1-.71.41c-.11.11-.24.22-.36.32h0a47.08,47.08,0,0,1,5.14-.27c1.65,0,3.4.08,5.2.24a4.9,4.9,0,0,1,4.46,4.68,4.91,4.91,0,0,1-4.06,5c-.47.08-.93.19-1.38.3a3.41,3.41,0,0,1-.48.09,4,4,0,0,1-.52.15c-1.17.28-2.3.6-3.63,1L60-1.08a5,5,0,0,1-.64.25c-1,.31-1.9.64-2.8,1A3.75,3.75,0,0,1,56,.34l-.29.13c-.84.36-1.57.69-2.22,1a22,22,0,0,1,4.11-.39c7.3,0,14.21,3.69,20.52,11a4.91,4.91,0,0,1-3.62,8.12c3.53,4.27,6.4,10.21,8.06,18.39a4.91,4.91,0,0,1-8.73,3.92C73,41.28,72,40.07,71,38.88a2.25,2.25,0,0,1-.24-.3,3.15,3.15,0,0,1-.36-.37c-.63-.72-1.29-1.42-1.95-2.1-.11-.11-.21-.23-.31-.35l-.29-.26-.68-.65c-.44-.41-.87-.83-1.31-1.22a4,4,0,0,1-.36-.35,5.07,5.07,0,0,1-.46-.35c-.78-.69-1.6-1.34-2.42-2l-.33-.27L62,30.46c-.76-.56-1.51-1.09-2.29-1.61l-.44-.33-.59-.36c-.49-.31-1-.62-1.53-.92a4.19,4.19,0,0,1-.5-.31l-.33-.17c-.76-.42-1.56-.86-2.35-1.26l-.24-.13-.26-.11c-.77-.36-1.47-.7-2.18-1a7.21,7.21,0,0,1-3.07,3.21,6.67,6.67,0,0,1-1,.42,8.13,8.13,0,0,1-.51,1.38,4.86,4.86,0,0,1,.33.54c7.22,13.81,13.55,48.2,7.46,72.83a4.92,4.92,0,0,1-4.43,3.72l-8.15.55-7.32.78A4.53,4.53,0,0,1,34.07,107.72Z" transform="translate(18.35 35.21)"/><path class="cls-2" d="M34.07,103.79a4.91,4.91,0,0,1-4.22-7.4C41.5,76.62,44,45.54,38.54,31c-.48.48-.93.95-1.37,1.41l-.2.22c-.65.69-1.26,1.35-1.82,2-.06.08-.29.34-.34.39-.63.74-1.26,1.5-1.86,2.29l0,0c-.09.14-.18.27-.28.4-.59.76-1.14,1.55-1.68,2.33l-.12.16c-.07.12-.14.24-.22.36-.48.72-.93,1.46-1.37,2.18a3.6,3.6,0,0,1-.28.4,2.74,2.74,0,0,1-.21.42c-.37.66-.74,1.35-1.08,2a3.47,3.47,0,0,1-.27.46l-.12.29c-.41.83-.81,1.66-1.16,2.53q-.11.26-.24.51c-.05.12-.09.25-.15.37-.42,1-.8,2-1.15,3a5.31,5.31,0,0,1-.23.55c0,.12-.06.24-.1.36-.25.77-.48,1.55-.71,2.34l-.12.4c-.05.15-.1.3-.16.45l-.09.41c-.23.89-.44,1.77-.64,2.67l-.13.54a5.58,5.58,0,0,1-.09.59c-.28,1.32-.53,2.81-.77,4.55a4.89,4.89,0,0,1-4.43,4.24,3.17,3.17,0,0,1-.43,0A4.91,4.91,0,0,1,12,66.5c-3.19-10.1-3.22-18.86-.17-26.13a3,3,0,0,1-.25.25c-.46.4-.89.82-1.32,1.24l-.69.66a3.22,3.22,0,0,1-.28.24,3.65,3.65,0,0,1-.31.36c-.69.71-1.35,1.43-2,2.17l-.33.34-.21.25c-1.14,1.34-2,2.48-2.83,3.57a4.88,4.88,0,0,1-4,2,5,5,0,0,1-2-.41,4.92,4.92,0,0,1-2.85-5.46C-3.28,36.18.23,29.71,4.5,25.35c-.49.26-1,.53-1.5.82l-.49.24c-.14.1-.29.19-.44.28-1,.6-2.11,1.29-3.24,2a5.17,5.17,0,0,1-.68.39,6.12,6.12,0,0,1-.5.39c-1.23.86-2.53,1.81-3.86,2.83l-.4.28A3.9,3.9,0,0,1-7,33l-.32.26c-.45.35-.9.71-1.33,1.08a4.9,4.9,0,0,1-3.2,1.18,4.9,4.9,0,0,1-3.25-1.23,4.9,4.9,0,0,1-.82-6.4,67.85,67.85,0,0,1,6.78-8.63l-.3.14c-.66.27-1.33.57-2,.87a4.76,4.76,0,0,1-2,.43,4.91,4.91,0,0,1-4.11-2.23,4.91,4.91,0,0,1,.84-6.33C-7.21,3.58,2.14-.74,11-.74a28,28,0,0,1,4.11.3c-4.06-10.13-2.05-21.17,6.11-32.69a4.91,4.91,0,0,1,4-2.08,4.94,4.94,0,0,1,1.91.39,4.91,4.91,0,0,1,2.91,5.42c-.25,1.37-.47,2.87-.65,4.59a3.18,3.18,0,0,1-.06.43,3.44,3.44,0,0,1,0,.46c-.1,1-.18,1.94-.22,2.89a2.69,2.69,0,0,1,0,.4,4.42,4.42,0,0,1,0,.73c0,.87,0,1.75,0,2.63a4.43,4.43,0,0,1,0,.52,4.75,4.75,0,0,1,.05.53c0,1.19.09,2.19.19,3.14a4.28,4.28,0,0,1,0,.62,2.51,2.51,0,0,1,0,.27c.1.93.23,1.91.38,2.84,0,.14,0,.27.05.41a3.86,3.86,0,0,1,.1.49,1.55,1.55,0,0,1,0,.21,29.33,29.33,0,0,1,2.37-4.92c5-8.34,14.3-14.15,27.54-17.28A4.84,4.84,0,0,1,61-30.57a4.89,4.89,0,0,1,4.53,3.05,4.89,4.89,0,0,1-2,6.05l-.61.38c-.48.29-.95.58-1.44.86a3.07,3.07,0,0,1-.31.17,4.14,4.14,0,0,1-.48.34c-1.29.8-2.58,1.66-3.94,2.62a4.21,4.21,0,0,1-.71.41c-.11.11-.24.22-.36.32l0,0a44.66,44.66,0,0,1,5.14-.28c1.65,0,3.4.08,5.2.24a4.91,4.91,0,0,1,4.46,4.68,4.91,4.91,0,0,1-4.06,5c-.47.08-.93.2-1.38.3a3.41,3.41,0,0,1-.48.09c-.16.06-.34.11-.52.16-1.17.27-2.3.59-3.63,1A3.25,3.25,0,0,1,60-5a5,5,0,0,1-.64.25c-1,.32-1.9.64-2.8,1L56-3.6l-.29.13c-.84.36-1.57.69-2.22,1a21.2,21.2,0,0,1,4.11-.4c7.3,0,14.21,3.7,20.52,11a4.9,4.9,0,0,1-3.62,8.12c3.53,4.27,6.4,10.21,8.06,18.39a4.91,4.91,0,0,1-8.73,3.92C73,37.34,72,36.13,71,35a2.34,2.34,0,0,1-.24-.31,3.06,3.06,0,0,1-.36-.36c-.63-.73-1.29-1.43-1.95-2.11-.11-.11-.21-.23-.31-.35a3.47,3.47,0,0,1-.29-.25l-.68-.65c-.44-.42-.87-.84-1.31-1.23a3,3,0,0,1-.36-.35A3.73,3.73,0,0,1,65,29c-.78-.68-1.6-1.34-2.42-2-.12-.08-.22-.18-.33-.27L62,26.52c-.76-.56-1.51-1.09-2.29-1.61a3.61,3.61,0,0,1-.44-.33l-.59-.36c-.49-.31-1-.62-1.53-.92a4.19,4.19,0,0,1-.5-.31l-.33-.16c-.76-.43-1.56-.86-2.35-1.26l-.24-.13-.26-.12c-.77-.36-1.47-.69-2.18-1a7.23,7.23,0,0,1-3.07,3.2,6.67,6.67,0,0,1-1,.42,8.13,8.13,0,0,1-.51,1.38,4.86,4.86,0,0,1,.33.54c7.22,13.81,13.55,48.2,7.46,72.84a4.91,4.91,0,0,1-4.43,3.71l-8.15.55-7.32.79A4.53,4.53,0,0,1,34.07,103.79Z" transform="translate(18.35 35.21)"/><path class="cls-3" d="M34.07,100.88a1,1,0,0,1-.86-1.51c12.69-21.51,15-54.61,8.55-69.83a1,1,0,0,1,.49-1.3,1.07,1.07,0,0,1,.43-.09,1,1,0,0,1,.88.53C50.5,42,56.57,75,50.7,98.77a1,1,0,0,1-.91.76l-8.23.55-7.38.79ZM16.69,67a1,1,0,0,1-1-.7C9.46,46.45,16.43,32.87,36.46,26a1,1,0,0,1,.33-.06,1,1,0,0,1,.67,1.74c-1.13,1-2.19,2.08-3.14,3.11l-.12.1-.09.12c-.71.76-1.37,1.46-2,2.19l-.16.16-.12.17c-.79.91-1.45,1.72-2,2.48a.67.67,0,0,1-.14.15.72.72,0,0,1-.15.27c-.69.89-1.32,1.8-1.8,2.49a1,1,0,0,1-.22.23,1.19,1.19,0,0,1-.15.35c-.51.76-1,1.55-1.46,2.31l-.07.12a1,1,0,0,1-.35.34.9.9,0,0,1-.13.47c-.4.71-.8,1.45-1.17,2.19a1,1,0,0,1-.32.37.94.94,0,0,1-.1.43c-.46,1-.88,1.84-1.26,2.76a1,1,0,0,1-.29.4.9.9,0,0,1-.08.45c-.5,1.19-.89,2.21-1.24,3.22a.91.91,0,0,1-.33.46,1,1,0,0,1,0,.53c-.26.83-.52,1.68-.77,2.53l-.08.29a1,1,0,0,1-.3.46,1,1,0,0,1,0,.53c-.25,1-.47,1.91-.69,2.87l0,.2a1.16,1.16,0,0,1-.2.4,1.1,1.1,0,0,1,0,.51c-.31,1.42-.57,3-.82,4.85a1,1,0,0,1-.9.86Zm-17-18.44a1.14,1.14,0,0,1-.4-.08,1,1,0,0,1-.58-1.12c3.39-16.92,12.63-25.5,27.47-25.5a48.9,48.9,0,0,1,10,1.12,1,1,0,0,1,.8,1,1,1,0,0,1-.79,1c-1.27.27-2.59.61-4.28,1.08l-.12,0-.13.05c-.95.28-1.89.59-2.8.9l-.16,0-.17.08c-1,.37-2,.74-3,1.14a.77.77,0,0,1-.26.07,1,1,0,0,1-.17.1l-.28.12c-.85.38-1.66.74-2.45,1.13a1,1,0,0,1-.39.11,1.05,1.05,0,0,1-.27.2c-.65.33-1.3.69-1.94,1l-.55.31a.93.93,0,0,1-.46.12,1,1,0,0,1-.32.32l-.79.48-1.34.83a1.07,1.07,0,0,1-.41.15,1.07,1.07,0,0,1-.32.35c-.83.55-1.62,1.1-2.44,1.71a1,1,0,0,1-.41.18,1.07,1.07,0,0,1-.3.37c-.78.6-1.61,1.29-2.62,2.16a.89.89,0,0,1-.5.23A1,1,0,0,1,9,38.7c-.49.44-1,.89-1.42,1.34l-.68.65a1,1,0,0,1-.45.24,1,1,0,0,1-.26.48c-.67.69-1.36,1.44-2.12,2.29a.86.86,0,0,1-.37.26,1.06,1.06,0,0,1-.21.39c-1.21,1.42-2.17,2.64-3,3.82A1,1,0,0,1-.36,48.59Zm78.16-11a1,1,0,0,1-.8-.4c-1-1.29-2-2.57-3.06-3.8a.93.93,0,0,1-.21-.42.89.89,0,0,1-.41-.28c-.59-.67-1.25-1.38-2.09-2.25A1,1,0,0,1,71,30a.93.93,0,0,1-.46-.24l-.64-.61c-.48-.47-1-.94-1.47-1.37a1.15,1.15,0,0,1-.3-.46,1,1,0,0,1-.5-.24c-.8-.69-1.68-1.41-2.62-2.13a.91.91,0,0,1-.29-.36,1.12,1.12,0,0,1-.42-.18c-.85-.63-1.65-1.19-2.45-1.72a.92.92,0,0,1-.32-.36,1.07,1.07,0,0,1-.39-.14l-.42-.26c-.55-.34-1.11-.69-1.71-1a.89.89,0,0,1-.37-.35.86.86,0,0,1-.44-.12c-.81-.45-1.65-.91-2.49-1.33a1.05,1.05,0,0,1-.27-.2,1,1,0,0,1-.33-.09c-.93-.44-1.85-.88-2.78-1.25a.72.72,0,0,1-.24-.14l-.18,0c-1.11-.45-2.08-.82-3-1.13l-.15-.07a.65.65,0,0,1-.2,0c-.6-.21-1.17-.4-1.73-.57a3.34,3.34,0,0,1-.49,5.56,3.16,3.16,0,0,1-1.49.37,3.25,3.25,0,0,1-2.89-1.81l0-.08a4,4,0,0,1-.42.49,3.21,3.21,0,0,1,1.68,1.59,3.36,3.36,0,0,1-1.4,4.41,3.25,3.25,0,0,1-1.49.37,3.22,3.22,0,0,1-2.9-1.82,3.35,3.35,0,0,1,.69-3.89,3.27,3.27,0,0,1-1.69-1.57,3.35,3.35,0,0,1,1.41-4.44,3.1,3.1,0,0,1,1.47-.36,3.25,3.25,0,0,1,2.9,1.82l0,.07a3.36,3.36,0,0,1,1.14-1,3.45,3.45,0,0,1,1.15-.34c-1-.29-2.14-.57-3.28-.8a1,1,0,0,1,0-2A49.3,49.3,0,0,1,51.29,11C66.1,11,75.35,19.52,78.78,36.4a1,1,0,0,1-1,1.2Zm-89.64-5a1,1,0,0,1-.66-.25A1,1,0,0,1-12.67,31c8.3-12.38,17.56-18.66,27.53-18.66,5.67,0,11.65,2,17.81,6.08a26.27,26.27,0,0,0-15-7.33,1.35,1.35,0,0,1-.34-.11l-.24,0H17a32.32,32.32,0,0,0-4-.26,1,1,0,0,1-.5-.13,1,1,0,0,1-.5.16c-1.4.06-2.83.18-4.39.36H7.42A1,1,0,0,1,6.94,11a1,1,0,0,1-.57.29A52.18,52.18,0,0,0,1,12.47a.77.77,0,0,1-.25,0,1.35,1.35,0,0,1-.29,0,1,1,0,0,1-.51.33c-1.26.33-2.57.73-3.89,1.19a1.26,1.26,0,0,1-.33,0A1,1,0,0,1-4.74,14l-.19.21a1,1,0,0,1-.43.31c-1.14.43-2.85,1.07-4.59,1.84a1.1,1.1,0,0,1-.4.08h-.13l0,.05a1,1,0,0,1-.42.32c-.7.29-1.39.6-2.11.92a1,1,0,0,1-.41.09,1,1,0,0,1-.84-.46A1,1,0,0,1-14.11,16C-5.34,8.15,3.13,4.16,11,4.16A25.2,25.2,0,0,1,24.61,8.29c-10-11.36-10.08-24.16-.17-38.17a1,1,0,0,1,.82-.42,1.09,1.09,0,0,1,.39.08,1,1,0,0,1,.59,1.1c-.27,1.48-.5,3.08-.69,4.9a1,1,0,0,1-.16.44,1,1,0,0,1,.07.47c-.13,1.25-.2,2.24-.24,3.13a.93.93,0,0,1-.16.51,1,1,0,0,1,.15.58c0,.85-.05,1.77,0,2.9a1,1,0,0,1-.15.54.93.93,0,0,1,.17.53c0,1.31.1,2.4.21,3.44a1,1,0,0,1-.08.5,1.05,1.05,0,0,1,.15.43c.11,1,.25,2,.4,3a.9.9,0,0,1,0,.46,1,1,0,0,1,.19.44c.13.81.29,1.56.48,2.47a.91.91,0,0,1,0,.49.93.93,0,0,1,.24.46c.19.91.43,1.81.71,2.75a1,1,0,0,1,0,.42.88.88,0,0,1,.12.26c.2.65.42,1.28.63,1.92L28.6,3a1.42,1.42,0,0,1,0,.2,1.34,1.34,0,0,1,.12.24c.35,1,.74,2,1.17,3a1.05,1.05,0,0,1,.06.24l.06.1c.42,1,.83,1.88,1.26,2.75a1.06,1.06,0,0,1,.06.19.56.56,0,0,1,.05.08c.29.6.61,1.23.95,1.9-1.36-8.66-.26-16,3.28-21.88,4.47-7.4,12.91-12.61,25.1-15.49l.23,0a1,1,0,0,1,.92.62,1,1,0,0,1-.41,1.23l-.64.4-1.36.82a1,1,0,0,1-.47.13h0a1,1,0,0,1-.37.41c-1.36.85-2.72,1.75-4.13,2.75a1,1,0,0,1-.55.18l-.28,0a1,1,0,0,1-.38.63l-.31.23c-1,.78-2,1.53-2.95,2.32a.94.94,0,0,1-.51.22,1,1,0,0,1-.32.5,48.47,48.47,0,0,0-4.09,3.81,1,1,0,0,1-.59.3,1,1,0,0,1-.26.62A41.8,41.8,0,0,0,41.42-7.1a.93.93,0,0,1-.43.33,1,1,0,0,1-.19.53c-.81,1.16-1.56,2.33-2.22,3.5a.91.91,0,0,1-.23.28.89.89,0,0,1-.12.39,29.59,29.59,0,0,0-2.66,7.26C38.89-6,47.33-11.72,60.78-11.72c1.54,0,3.17.07,4.85.22a1,1,0,0,1,.91,1,1,1,0,0,1-.83,1c-.54.1-1.07.23-1.58.35l-.17,0-.23,0a.75.75,0,0,1-.21,0,.93.93,0,0,1-.41.2c-1.27.3-2.46.64-3.86,1.06a.93.93,0,0,1-.29,0,1.09,1.09,0,0,1-.25,0h-.06a1,1,0,0,1-.52.38c-1.08.34-2.09.7-3.08,1.1a1,1,0,0,1-.37.08h-.1a1,1,0,0,1-.36.26c-1.69.72-3,1.33-4.08,1.91a1,1,0,0,1-.47.12h0a1.06,1.06,0,0,1-.37.36,26.66,26.66,0,0,0-2.94,1.88,1,1,0,0,1-.41.18,1.06,1.06,0,0,1-.28.32A24.11,24.11,0,0,0,43.11.82a1,1,0,0,1-.28.2.91.91,0,0,1-.17.23A22.53,22.53,0,0,0,36,15.07a1,1,0,0,1-.71.85c0,.32.11.64.17,1a1,1,0,0,1-.45,1c.2.24.4.49.59.74A1,1,0,0,1,35.49,20a1,1,0,0,1-.29.17l.95.71A1,1,0,0,1,35,22.55,26,26,0,0,0,20.32,18a27.71,27.71,0,0,0-3.37.21h-.12a1.09,1.09,0,0,1-.26,0,1.1,1.1,0,0,1-.35.11,30.39,30.39,0,0,0-4,.82,1.09,1.09,0,0,1-.26,0,.9.9,0,0,1-.28,0,1,1,0,0,1-.44.26,39.5,39.5,0,0,0-4.07,1.47,1,1,0,0,1-.38.07,1,1,0,0,1-.3,0,1,1,0,0,1-.47.43c-1.55.68-3.22,1.52-4.95,2.49a1,1,0,0,1-.49.13H.51a1,1,0,0,1-.41.44C-1,25-2.15,25.69-3.36,26.5a1,1,0,0,1-.56.18l-.2,0-.12.25a1.06,1.06,0,0,1-.34.41c-1.3.9-2.65,1.89-4,2.93a1,1,0,0,1-.51.21l0,.06a1,1,0,0,1-.29.39l-.34.26c-.48.38-1,.77-1.43,1.17A1,1,0,0,1-11.84,32.58Zm45-16.89c0-.15-.06-.31-.1-.45l-.24.07Zm41.32-2.37a1,1,0,0,1-.38-.07c-1.13-.46-2.34-.94-3.54-1.37a1,1,0,0,1-.28-.16h-.05a.89.89,0,0,1-.32-.05c-.8-.26-1.54-.48-2.27-.67a1,1,0,0,1-.37-.19h-.17a1.24,1.24,0,0,1-.27,0c-.7-.19-1.45-.36-2.15-.51a1,1,0,0,1-.36-.16.75.75,0,0,1-.26,0l-.2,0c-.75-.15-1.58-.28-2.54-.41a1,1,0,0,1-.34-.1,1.12,1.12,0,0,1-.27,0h-.11c-.69-.08-1.43-.14-2.25-.17a1.24,1.24,0,0,1-.39-.09l-.27,0h-.05c-.63,0-1.27,0-1.88,0h0a.9.9,0,0,1-.37-.07A1,1,0,0,1,55,9.4h-.3c-.62,0-1.24.06-1.88.11h-.27a.94.94,0,0,1-.29.06c-.7,0-1.44.13-2.33.26h-.17a.79.79,0,0,1-.22.05c-.83.11-1.69.27-2.42.4l-.09,0a.73.73,0,0,1-.21.06c-.72.14-1.44.31-2.21.51h-.06l-.16.06c-1.13.28-2.26.64-3.3,1a1.06,1.06,0,0,1-.31,0,1,1,0,0,1-.86-.49,1,1,0,0,1,.19-1.25C46.1,4.8,52,2,57.64,2c6.12,0,12,3.24,17.57,9.63a1,1,0,0,1,.06,1.23A1,1,0,0,1,74.46,13.32Z" transform="translate(18.35 35.21)"/><path class="cls-4" d="M49.72,97.53c5.64-22.8.05-55.83-7-69.38,6.29,14.9,4.43,48.63-8.61,70.73l7.42-.79ZM36.79,25.91Q7.5,36,16.69,65c.22-1.67.49-3.33.83-4.93a11.9,11.9,0,0,1-1.31-2.4,15.79,15.79,0,0,0,1.48,1.47c.24-1,.47-2.05.74-3.09a11.45,11.45,0,0,1-1.74-3,17,17,0,0,0,2,1.94c.28-1,.56-1.92.86-2.85a11.46,11.46,0,0,1-1.85-3.07A15.41,15.41,0,0,0,20,51.2c.39-1.11.81-2.18,1.27-3.28a10.69,10.69,0,0,1-1.51-2.64,13.34,13.34,0,0,0,1.88,1.8c.39-1,.83-1.88,1.28-2.82a11.41,11.41,0,0,1-1.52-2.67,12.71,12.71,0,0,0,1.95,1.86c.38-.75.79-1.51,1.19-2.23a12.1,12.1,0,0,1-1.62-2.84,11.48,11.48,0,0,0,2.12,2c.49-.81,1-1.65,1.55-2.47a11.17,11.17,0,0,1-1.09-2.07,15.81,15.81,0,0,0,1.47,1.48c.59-.85,1.19-1.7,1.83-2.53A11.49,11.49,0,0,1,28,33.3a10.48,10.48,0,0,0,1,1.08c.66-.88,1.35-1.72,2.06-2.53a12.42,12.42,0,0,1-.55-1.16,10.84,10.84,0,0,0,.82.84c.62-.75,1.31-1.49,2-2.23-.15-.28-.27-.54-.41-.86a7.49,7.49,0,0,0,.63.63q1.5-1.61,3.2-3.16ZM35.93,23Q5.66,16.68-.36,46.59c1-1.36,2-2.64,3.08-3.89a10.58,10.58,0,0,1,0-2.75A14,14,0,0,0,3.32,42c.7-.79,1.4-1.56,2.14-2.32a11.34,11.34,0,0,1-.08-3.48A13.9,13.9,0,0,0,6.2,39c.71-.67,1.39-1.35,2.13-2a11.72,11.72,0,0,1-.12-3.6,17,17,0,0,0,.91,2.92c.87-.75,1.77-1.51,2.67-2.2a13.13,13.13,0,0,1,0-3.08,11.74,11.74,0,0,0,.75,2.51c.81-.6,1.62-1.16,2.47-1.73a12.11,12.11,0,0,1,0-3.14,15.29,15.29,0,0,0,.79,2.63c.7-.45,1.43-.89,2.13-1.32a11.69,11.69,0,0,1,0-3.31,13.51,13.51,0,0,0,.87,2.84c.82-.45,1.66-.93,2.51-1.36a14.52,14.52,0,0,1,.08-2.34,11,11,0,0,0,.59,2c.89-.45,1.82-.85,2.78-1.28a16.11,16.11,0,0,1,.08-1.63c.12.5.22,1,.37,1.46,1-.41,2-.78,3-1.16,0-.41,0-.83.08-1.27.08.39.17.78.28,1.14.93-.31,1.87-.62,2.84-.91,0-.3,0-.62.06-.94.08.29.14.58.2.86,1.43-.39,2.86-.77,4.34-1.09Zm-.39-2.26Q8.63,0-11.84,30.58c.58-.5,1.2-1,1.79-1.46A11.57,11.57,0,0,1-8.18,26.3c-.42.8-.75,1.5-1,2.16q2.05-1.58,4-3A11.58,11.58,0,0,1-3.3,22.72a15.69,15.69,0,0,0-.62,2c1.19-.8,2.37-1.56,3.52-2.23a12.79,12.79,0,0,1,1.81-2.71A14.34,14.34,0,0,0,.6,21.89c1.7-.95,3.38-1.81,5-2.54a11.57,11.57,0,0,1,2-3,14.8,14.8,0,0,0-.78,2.55A43.72,43.72,0,0,1,11,17.38a12.26,12.26,0,0,1,1.78-2.64A13.53,13.53,0,0,0,12,17.12a31.24,31.24,0,0,1,4.11-.84,11.54,11.54,0,0,1,1.37-1.9,12.09,12.09,0,0,0-.63,1.81,26.9,26.9,0,0,1,18.71,4.53Zm-.7-2.44Q13.75-8.65-13.45,15.76c.73-.33,1.43-.64,2.14-.93a10.56,10.56,0,0,1,2.47-2.29,18.43,18.43,0,0,0-1.51,1.85c1.57-.69,3.14-1.3,4.65-1.85a11,11,0,0,1,2.44-2.22A16.76,16.76,0,0,0-4.32,12c1.34-.46,2.66-.86,4-1.21A10.75,10.75,0,0,1,2,8.65,17.73,17.73,0,0,0,.7,10.51,52,52,0,0,1,6.22,9.34,10.64,10.64,0,0,1,8.84,6.92,19.33,19.33,0,0,0,7.42,9.16c1.55-.18,3-.3,4.45-.37a10.7,10.7,0,0,1,2.36-2.11,12.78,12.78,0,0,0-1.31,2.08A33.29,33.29,0,0,1,17.08,9a12.69,12.69,0,0,1,1.77-1.5c-.38.51-.71,1-1.05,1.59a27.18,27.18,0,0,1,17,9.16Zm-2.2-5Q7.81-5.64,25.26-30.3c-.31,1.66-.53,3.33-.7,5a12.28,12.28,0,0,0-2,1.88,12.7,12.7,0,0,1,1.87-1c-.11,1.07-.2,2.14-.24,3.19A11.57,11.57,0,0,0,21.69-19a12.35,12.35,0,0,1,2.52-1.18c-.05,1-.05,2,0,3a10.11,10.11,0,0,0-2.69,2.35,12.65,12.65,0,0,1,2.71-1.27c0,1.17.09,2.34.22,3.51a11.19,11.19,0,0,0-2.24,2,13,13,0,0,1,2.3-1.09c.11,1,.26,2.06.42,3.06a11.79,11.79,0,0,0-2.28,2.06,15,15,0,0,1,2.43-1.15c.14.86.31,1.68.49,2.52A10.14,10.14,0,0,0,23.16-3,10.55,10.55,0,0,1,25.77-4.2c.21,1,.45,1.89.73,2.83A9.56,9.56,0,0,0,24.83.27a12.23,12.23,0,0,1,1.83-.95c.31,1,.65,2,1,3a9.59,9.59,0,0,0-1.13,1.16,14.71,14.71,0,0,1,1.3-.7c.36,1,.76,2.06,1.19,3.07-.28.29-.58.59-.86.93a8,8,0,0,1,1-.57c.41.93.83,1.88,1.27,2.78-.23.21-.43.46-.65.69l.76-.43c.65,1.36,1.37,2.72,2.12,4.06Zm1.87,2.75Q25.84-17.38,61-25.66c-.68.41-1.32.81-2,1.21a10,10,0,0,0-3.23.74,14.46,14.46,0,0,1,2.34-.17c-1.46.9-2.85,1.83-4.18,2.77a9.9,9.9,0,0,0-3.2.73,14.73,14.73,0,0,1,2,.12c-1.12.86-2.21,1.71-3.28,2.58a10.66,10.66,0,0,0-3.12.72,14.45,14.45,0,0,1,2.28,0,49.13,49.13,0,0,0-4.17,3.89,10.54,10.54,0,0,0-3.45.75,14.32,14.32,0,0,1,2.58.18A42.84,42.84,0,0,0,40.62-8.7,12.45,12.45,0,0,0,37.55-8,13.33,13.33,0,0,1,40-7.82a42,42,0,0,0-2.28,3.59,11.65,11.65,0,0,0-2.21.63,12.72,12.72,0,0,1,1.85.07,29.15,29.15,0,0,0-2.84,19.6ZM35,14Q36.39-14.1,65.54-11.5c-.63.11-1.23.26-1.81.39a9.51,9.51,0,0,0-2.7-.25,14.7,14.7,0,0,1,1.85.46c-1.37.32-2.66.7-3.92,1.08A8.46,8.46,0,0,0,56.33-10a8.54,8.54,0,0,1,1.5.61c-1.09.34-2.14.72-3.15,1.13a7.88,7.88,0,0,0-2.59-.24A11.83,11.83,0,0,1,53.83-8c-1.46.62-2.87,1.26-4.16,2a8.08,8.08,0,0,0-2.84-.32,13.3,13.3,0,0,1,1.94.81,27.71,27.71,0,0,0-3,1.94,7.89,7.89,0,0,0-2.54-.23A9.7,9.7,0,0,1,45-3.09a23.5,23.5,0,0,0-2.61,2.2A9,9,0,0,0,40.53-1,7.54,7.54,0,0,1,42-.46,23.42,23.42,0,0,0,35,14Zm5.74-4Q59-6.54,74.46,11.32c-1.21-.49-2.4-1-3.59-1.38A10.07,10.07,0,0,0,69.8,8.07a11.36,11.36,0,0,1,.41,1.65c-.79-.26-1.55-.49-2.34-.69a8.83,8.83,0,0,0-1.25-2.41,12,12,0,0,1,.46,2.2c-.72-.19-1.49-.37-2.21-.52a8.65,8.65,0,0,0-1.3-2.49A9.8,9.8,0,0,1,64,8.16c-.87-.17-1.74-.3-2.61-.42a8.42,8.42,0,0,0-1.19-2.11,8.49,8.49,0,0,1,.45,2c-.77-.09-1.53-.14-2.32-.17a8,8,0,0,0-1.19-2.14,11.89,11.89,0,0,1,.49,2.08c-.66,0-1.34,0-2,0a9.19,9.19,0,0,0-1.22-2.26A10.6,10.6,0,0,1,55,7.4c-.74,0-1.47.06-2.23.12A9,9,0,0,0,51.8,6a16.65,16.65,0,0,1,.39,1.62c-.81.06-1.59.15-2.4.27-.2-.35-.42-.73-.66-1.09.09.38.2.76.28,1.15-.82.11-1.67.26-2.48.41-.16-.27-.34-.53-.55-.82a6.25,6.25,0,0,1,.25.9c-.76.15-1.51.32-2.27.52A6.92,6.92,0,0,0,44,8.3c0,.22.12.44.18.68-1.12.28-2.24.63-3.37,1Zm.62,2.11Q71.69,5.72,77.8,35.6c-1-1.35-2-2.64-3.1-3.85a13.64,13.64,0,0,0,0-2.77,15.58,15.58,0,0,1-.58,2.07c-.69-.79-1.4-1.56-2.12-2.29A12.15,12.15,0,0,0,72,25.27,13,13,0,0,1,71.19,28c-.7-.66-1.41-1.37-2.13-2a11,11,0,0,0,.1-3.61,14.84,14.84,0,0,1-.91,2.91c-.86-.75-1.76-1.48-2.66-2.18a11.25,11.25,0,0,0,0-3.07,14.19,14.19,0,0,1-.73,2.52c-.82-.61-1.64-1.18-2.48-1.74a12.48,12.48,0,0,0,0-3.13,15.43,15.43,0,0,1-.79,2.61c-.69-.43-1.41-.89-2.17-1.31a11.19,11.19,0,0,0,.08-3.3,13.56,13.56,0,0,1-.89,2.84c-.82-.46-1.67-.92-2.51-1.35a16,16,0,0,0-.09-2.36,18.35,18.35,0,0,1-.54,2.06c-.94-.45-1.87-.89-2.84-1.28A15.54,15.54,0,0,0,52.61,14c-.1.49-.24,1-.36,1.46-1-.4-2-.79-3-1.15A7.63,7.63,0,0,0,49.13,13a11.5,11.5,0,0,1-.26,1.13c-.95-.33-1.88-.63-2.84-.91,0-.3,0-.62-.06-.94-.08.28-.14.58-.21.86-1.43-.4-2.88-.79-4.36-1.09ZM38.26,14.6a2.19,2.19,0,0,1,3,1,2.3,2.3,0,0,1-1,3.08,2.21,2.21,0,0,1-3-1,2.36,2.36,0,0,1,1-3.1Zm5.54.48a2.23,2.23,0,0,1,3,1,2.35,2.35,0,0,1-1,3.1,2.22,2.22,0,0,1-3-1,2.39,2.39,0,0,1,1-3.12Zm-4.54,5a2.19,2.19,0,0,1,3,1,2.33,2.33,0,0,1-1,3.1,2.23,2.23,0,0,1-3-1,2.36,2.36,0,0,1,1-3.1Z" transform="translate(18.35 35.21)"/><path class="cls-1" d="M163.31,107.72a4.9,4.9,0,0,1-4.22-7.39c11.66-19.77,14.15-50.85,8.69-65.38-.47.48-.93.94-1.37,1.41l-.2.21c-.65.7-1.26,1.36-1.82,2l-.34.39c-.63.74-1.26,1.5-1.86,2.29l0,0c-.09.13-.18.27-.28.4-.59.76-1.14,1.54-1.68,2.32l-.12.16a2.77,2.77,0,0,1-.22.37c-.47.72-.93,1.46-1.36,2.17-.09.14-.18.28-.28.41l-.21.42c-.37.66-.74,1.34-1.09,2-.08.16-.17.31-.26.46l-.13.28c-.41.84-.81,1.67-1.16,2.53a4,4,0,0,1-.24.51c0,.13-.09.26-.14.38-.42,1-.81,2-1.16,3a3.65,3.65,0,0,1-.23.54,2.24,2.24,0,0,1-.1.37c-.25.76-.48,1.55-.71,2.33l-.12.4c0,.16-.1.31-.16.46a3.38,3.38,0,0,1-.09.41c-.23.89-.43,1.77-.64,2.66l-.13.55c0,.19-.05.39-.09.59-.28,1.32-.53,2.8-.76,4.55a4.91,4.91,0,0,1-4.44,4.24l-.43,0a4.89,4.89,0,0,1-4.67-3.43c-3.19-10.1-3.22-18.87-.18-26.13l-.25.25c-.45.4-.89.82-1.32,1.24l-.69.66-.27.24-.32.36c-.69.71-1.35,1.43-2,2.17q-.16.18-.33.33a2.56,2.56,0,0,1-.2.26c-1.15,1.34-2,2.47-2.83,3.57a4.91,4.91,0,0,1-8.8-3.82c1.89-9.45,5.4-15.92,9.67-20.28l-1.5.81a4.44,4.44,0,0,1-.49.24,3.35,3.35,0,0,1-.44.29c-1,.6-2.11,1.28-3.23,2.05a4.7,4.7,0,0,1-.69.39,4.78,4.78,0,0,1-.5.39c-1.23.86-2.53,1.81-3.86,2.83l-.4.28c-.12.11-.25.23-.38.33l-.32.26c-.45.35-.9.71-1.33,1.08a4.91,4.91,0,0,1-7.27-6.46,67.72,67.72,0,0,1,6.78-8.62l-.3.13-2,.88A4.91,4.91,0,0,1,112.52,16C122,7.52,131.38,3.19,140.29,3.19a28.22,28.22,0,0,1,4.11.31c-4.07-10.13-2.06-21.17,6.1-32.7a4.9,4.9,0,0,1,4-2.07,4.91,4.91,0,0,1,1.91.39,4.89,4.89,0,0,1,2.91,5.42c-.25,1.37-.46,2.87-.64,4.58,0,.15,0,.3-.07.44a3.44,3.44,0,0,1,0,.46c-.09,1-.18,1.94-.21,2.88,0,.14,0,.27,0,.41a3.47,3.47,0,0,1,0,.72c0,.88,0,1.76,0,2.64a4.52,4.52,0,0,1,0,.52,4.53,4.53,0,0,1,.05.53c0,1.19.09,2.19.19,3.14a4.15,4.15,0,0,1,0,.61c0,.1,0,.19,0,.28.1.93.24,1.91.38,2.84A2.87,2.87,0,0,1,159-5a3.88,3.88,0,0,1,.11.49l0,.21a29.42,29.42,0,0,1,2.37-4.93c5-8.34,14.3-14.15,27.54-17.27a4.9,4.9,0,0,1,1.13-.13,4.91,4.91,0,0,1,4.54,3.05,4.91,4.91,0,0,1-2,6l-.62.37c-.48.3-1,.59-1.44.87a3.07,3.07,0,0,1-.31.17,4.14,4.14,0,0,1-.48.34c-1.29.8-2.58,1.66-3.94,2.62a4.92,4.92,0,0,1-.7.41c-.12.11-.24.22-.37.32h0a46.76,46.76,0,0,1,5.13-.27c1.66,0,3.41.08,5.2.24a4.9,4.9,0,0,1,4.46,4.68,4.91,4.91,0,0,1-4.06,5c-.47.08-.93.19-1.38.3a3.55,3.55,0,0,1-.47.09,5.08,5.08,0,0,1-.52.15c-1.17.28-2.3.6-3.64,1l-.42.11a4.86,4.86,0,0,1-.63.25c-1,.31-1.91.64-2.81,1a3.75,3.75,0,0,1-.47.17L185,.47c-.85.36-1.58.69-2.23,1a22,22,0,0,1,4.11-.39c7.31,0,14.21,3.69,20.53,11a4.91,4.91,0,0,1-3.63,8.12c3.53,4.27,6.4,10.21,8.07,18.39a4.91,4.91,0,0,1-8.73,3.92c-.91-1.2-1.88-2.41-2.9-3.6-.08-.09-.16-.2-.24-.3s-.24-.24-.36-.37c-.63-.72-1.29-1.42-2-2.1-.11-.11-.21-.23-.31-.35l-.29-.26-.68-.65c-.43-.41-.87-.83-1.31-1.22a4,4,0,0,1-.36-.35,3.87,3.87,0,0,1-.45-.35c-.79-.69-1.6-1.34-2.43-2l-.33-.27-.32-.22c-.76-.56-1.51-1.09-2.29-1.61l-.44-.33-.59-.36c-.49-.31-1-.62-1.53-.92a5.19,5.19,0,0,1-.5-.31l-.32-.17c-.77-.42-1.57-.86-2.36-1.26l-.24-.13-.26-.11c-.77-.36-1.47-.7-2.18-1a7.21,7.21,0,0,1-3.07,3.21,6.22,6.22,0,0,1-1,.42,7.36,7.36,0,0,1-.51,1.38,4.86,4.86,0,0,1,.33.54c7.22,13.81,13.55,48.2,7.46,72.83a4.9,4.9,0,0,1-4.43,3.72l-8.14.55-7.33.78A4.41,4.41,0,0,1,163.31,107.72Z" transform="translate(18.35 35.21)"/><path class="cls-5" d="M163.31,103.79a4.91,4.91,0,0,1-4.22-7.4c11.66-19.77,14.15-50.85,8.69-65.38l-1.37,1.41-.2.22c-.65.69-1.26,1.35-1.82,2-.06.08-.29.34-.34.39-.63.74-1.26,1.5-1.86,2.29l0,0c-.09.14-.18.27-.28.4-.59.76-1.14,1.55-1.68,2.33l-.12.16a3.48,3.48,0,0,1-.22.36c-.47.72-.93,1.46-1.36,2.18-.09.14-.18.27-.28.4s-.14.29-.21.42c-.37.66-.74,1.35-1.09,2a5,5,0,0,1-.26.46c0,.1-.09.19-.13.29-.41.83-.81,1.66-1.16,2.53q-.1.26-.24.51c0,.12-.09.25-.14.37-.42,1-.81,2-1.16,3a3.76,3.76,0,0,1-.23.55,2.42,2.42,0,0,1-.1.36c-.25.77-.48,1.55-.71,2.34l-.12.4c0,.15-.1.3-.16.45a3.38,3.38,0,0,1-.09.41c-.23.89-.43,1.77-.64,2.67l-.13.54a5.58,5.58,0,0,1-.09.59c-.28,1.32-.53,2.81-.76,4.55a4.91,4.91,0,0,1-4.44,4.24,3.1,3.1,0,0,1-.43,0,4.89,4.89,0,0,1-4.67-3.43c-3.19-10.1-3.22-18.86-.18-26.13l-.25.25c-.45.4-.89.82-1.32,1.24l-.69.66-.27.24a3.73,3.73,0,0,1-.32.36c-.69.71-1.35,1.43-2,2.17l-.33.34-.2.25c-1.15,1.34-2,2.48-2.83,3.57a4.91,4.91,0,0,1-8.8-3.82c1.89-9.45,5.4-15.92,9.67-20.28-.49.26-1,.53-1.5.82-.16.08-.32.17-.49.24a4.73,4.73,0,0,1-.44.28c-1,.6-2.11,1.29-3.23,2a4.7,4.7,0,0,1-.69.39,4.78,4.78,0,0,1-.5.39c-1.23.86-2.53,1.81-3.86,2.83l-.4.28a3.9,3.9,0,0,1-.38.33l-.32.26c-.45.35-.9.71-1.33,1.08a4.9,4.9,0,0,1-7.27-6.45,67.85,67.85,0,0,1,6.78-8.63l-.3.14c-.66.27-1.32.57-2,.87a4.74,4.74,0,0,1-2,.43,4.91,4.91,0,0,1-3.28-8.56C122,3.58,131.38-.74,140.29-.74a28.21,28.21,0,0,1,4.11.3c-4.07-10.13-2.06-21.17,6.1-32.69a4.91,4.91,0,0,1,4-2.08,4.91,4.91,0,0,1,1.91.39,4.89,4.89,0,0,1,2.91,5.42c-.25,1.37-.46,2.87-.64,4.59,0,.14,0,.29-.07.43a3.44,3.44,0,0,1,0,.46c-.09,1-.18,1.94-.21,2.89,0,.13,0,.27,0,.4a3.55,3.55,0,0,1,0,.73c0,.87,0,1.75,0,2.63a4.43,4.43,0,0,1,0,.52,4.75,4.75,0,0,1,.05.53c0,1.19.09,2.19.19,3.14a4.28,4.28,0,0,1,0,.62,2.51,2.51,0,0,1,0,.27c.1.93.24,1.91.38,2.84a2.87,2.87,0,0,1,0,.41,3.88,3.88,0,0,1,.11.49l0,.21a29.33,29.33,0,0,1,2.37-4.92c5-8.34,14.3-14.15,27.54-17.28a4.9,4.9,0,0,1,1.13-.13,4.91,4.91,0,0,1,4.54,3.05,4.91,4.91,0,0,1-2,6.05l-.62.38c-.48.29-1,.58-1.44.86a3.07,3.07,0,0,1-.31.17,4.14,4.14,0,0,1-.48.34c-1.29.8-2.58,1.66-3.94,2.62a4.13,4.13,0,0,1-.7.41c-.12.11-.24.22-.37.32l0,0a44.35,44.35,0,0,1,5.13-.28c1.66,0,3.41.08,5.2.24a4.91,4.91,0,0,1,4.46,4.68,4.91,4.91,0,0,1-4.06,5c-.47.08-.93.2-1.38.3a3.55,3.55,0,0,1-.47.09l-.52.16c-1.17.27-2.3.59-3.64,1a3.25,3.25,0,0,1-.42.11,4.86,4.86,0,0,1-.63.25c-1,.32-1.91.64-2.81,1l-.47.16-.28.13c-.85.36-1.58.69-2.23,1a21.2,21.2,0,0,1,4.11-.4c7.31,0,14.21,3.7,20.53,11a4.91,4.91,0,0,1-3.63,8.12c3.53,4.27,6.4,10.21,8.07,18.39a4.91,4.91,0,0,1-8.73,3.92c-.91-1.2-1.88-2.41-2.9-3.59l-.24-.31-.36-.36c-.63-.73-1.29-1.43-2-2.11-.11-.11-.21-.23-.31-.35a3.47,3.47,0,0,1-.29-.25l-.68-.65c-.43-.42-.87-.84-1.31-1.23a3,3,0,0,1-.36-.35,3,3,0,0,1-.45-.35q-1.19-1-2.43-2c-.11-.08-.22-.18-.33-.27l-.32-.22c-.76-.56-1.51-1.09-2.29-1.61a4.59,4.59,0,0,1-.44-.33l-.59-.36c-.49-.31-1-.62-1.53-.92a5.19,5.19,0,0,1-.5-.31,3.18,3.18,0,0,1-.32-.16c-.77-.43-1.57-.86-2.36-1.26l-.24-.13-.26-.12c-.77-.36-1.47-.69-2.18-1a7.23,7.23,0,0,1-3.07,3.2,6.22,6.22,0,0,1-1,.42,7.36,7.36,0,0,1-.51,1.38,4.86,4.86,0,0,1,.33.54c7.22,13.81,13.55,48.2,7.46,72.84a4.89,4.89,0,0,1-4.43,3.71l-8.14.55-7.33.79A4.41,4.41,0,0,1,163.31,103.79Z" transform="translate(18.35 35.21)"/><path class="cls-3" d="M163.31,100.88a1,1,0,0,1-.86-1.51c12.69-21.51,15-54.61,8.55-69.83a1,1,0,0,1,.49-1.3,1.11,1.11,0,0,1,.43-.09,1,1,0,0,1,.89.53c6.93,13.27,13,46.34,7.13,70.09a1,1,0,0,1-.91.76l-8.23.55-7.38.79ZM145.93,67a1,1,0,0,1-1-.7c-6.28-19.88.69-33.46,20.72-40.36a1,1,0,0,1,.33-.06,1,1,0,0,1,.67,1.74q-1.69,1.56-3.14,3.11l-.12.1-.09.12c-.71.76-1.37,1.46-2,2.19a1.21,1.21,0,0,1-.16.16.66.66,0,0,1-.12.17c-.79.91-1.45,1.72-2,2.48l-.15.15a.87.87,0,0,1-.14.27c-.7.89-1.33,1.8-1.81,2.49a.8.8,0,0,1-.22.23,1.19,1.19,0,0,1-.15.35c-.51.76-1,1.55-1.46,2.31l-.07.12a.92.92,0,0,1-.34.34,1.14,1.14,0,0,1-.13.47c-.4.71-.8,1.45-1.18,2.19a.93.93,0,0,1-.31.37,1.08,1.08,0,0,1-.1.43c-.47,1-.89,1.84-1.27,2.76a1,1,0,0,1-.29.4,1,1,0,0,1-.07.45c-.5,1.19-.9,2.21-1.25,3.22a.91.91,0,0,1-.33.46,1.06,1.06,0,0,1,0,.53c-.27.83-.53,1.68-.78,2.53l-.08.29a1.1,1.1,0,0,1-.29.46,1,1,0,0,1,0,.53c-.25,1-.46,1.91-.69,2.87l0,.2a1,1,0,0,1-.2.4.89.89,0,0,1,0,.51c-.3,1.42-.57,3-.81,4.85A1,1,0,0,1,146,67ZM128.88,48.59a1.14,1.14,0,0,1-.4-.08,1,1,0,0,1-.58-1.12c3.39-16.92,12.63-25.5,27.47-25.5a49,49,0,0,1,10,1.12,1,1,0,0,1,.79,1,1,1,0,0,1-.79,1c-1.27.27-2.59.61-4.28,1.08l-.12,0-.12.05c-1,.28-1.89.59-2.81.9l-.15,0-.18.08c-1,.37-2,.74-3,1.14a.77.77,0,0,1-.26.07,1,1,0,0,1-.17.1l-.28.12c-.84.38-1.66.74-2.45,1.13a.92.92,0,0,1-.39.11,1.05,1.05,0,0,1-.27.2c-.65.33-1.3.69-1.93,1l-.56.31a.93.93,0,0,1-.46.12,1,1,0,0,1-.32.32l-.78.48-1.35.83a1,1,0,0,1-.41.15,1.07,1.07,0,0,1-.32.35c-.82.55-1.62,1.1-2.44,1.71a1,1,0,0,1-.41.18,1,1,0,0,1-.3.37c-.77.6-1.61,1.29-2.62,2.16a.89.89,0,0,1-.5.23,1,1,0,0,1-.29.45c-.49.44-.95.89-1.42,1.34l-.68.65a1,1,0,0,1-.45.24,1,1,0,0,1-.26.48c-.67.69-1.36,1.44-2.11,2.29a1,1,0,0,1-.38.26,1.06,1.06,0,0,1-.21.39c-1.21,1.42-2.17,2.64-3,3.82A1,1,0,0,1,128.88,48.59ZM207,37.6a1,1,0,0,1-.8-.4c-1-1.29-2-2.57-3.06-3.8A1,1,0,0,1,203,33a.89.89,0,0,1-.41-.28c-.58-.67-1.25-1.38-2.09-2.25a1,1,0,0,1-.25-.48.92.92,0,0,1-.47-.24l-.64-.61c-.48-.47-1-.94-1.46-1.37a1,1,0,0,1-.3-.46,1,1,0,0,1-.51-.24c-.8-.69-1.68-1.41-2.62-2.13a1,1,0,0,1-.29-.36,1.12,1.12,0,0,1-.42-.18c-.85-.63-1.65-1.19-2.45-1.72a1,1,0,0,1-.32-.36,1.07,1.07,0,0,1-.39-.14l-.41-.26c-.55-.34-1.12-.69-1.72-1a1,1,0,0,1-.37-.35.88.88,0,0,1-.44-.12c-.81-.45-1.65-.91-2.48-1.33a1,1,0,0,1-.28-.2,1,1,0,0,1-.33-.09c-.93-.44-1.85-.88-2.78-1.25a.72.72,0,0,1-.24-.14l-.18,0c-1.1-.45-2.08-.82-3-1.13l-.15-.07a.84.84,0,0,1-.2,0c-.6-.21-1.17-.4-1.73-.57a3.22,3.22,0,0,1,.92,1.14,3.35,3.35,0,0,1-1.41,4.42,3.12,3.12,0,0,1-1.48.37,3.23,3.23,0,0,1-2.89-1.81.2.2,0,0,1,0-.08,3.29,3.29,0,0,1-.42.49,3.21,3.21,0,0,1,1.68,1.59,3.36,3.36,0,0,1-1.4,4.41,3.21,3.21,0,0,1-4.39-1.45,3.36,3.36,0,0,1,.69-3.89,3.27,3.27,0,0,1-1.69-1.57A3.36,3.36,0,0,1,167,14.71a3.13,3.13,0,0,1,1.47-.36,3.25,3.25,0,0,1,2.9,1.82l0,.07a3.36,3.36,0,0,1,1.14-1,3.44,3.44,0,0,1,1.16-.34c-1-.29-2.15-.57-3.29-.8a1,1,0,0,1,0-2A49.3,49.3,0,0,1,180.53,11c14.81,0,24.06,8.55,27.49,25.43a1,1,0,0,1-.57,1.11A1,1,0,0,1,207,37.6Zm-89.64-5a1,1,0,0,1-.66-.25,1,1,0,0,1-.17-1.31c8.3-12.38,17.56-18.66,27.53-18.66,5.67,0,11.65,2,17.81,6.08a26.27,26.27,0,0,0-15-7.33,1.35,1.35,0,0,1-.34-.11,1,1,0,0,1-.24,0h-.13a32.2,32.2,0,0,0-4-.26,1,1,0,0,1-.5-.13,1,1,0,0,1-.5.16c-1.4.06-2.83.18-4.38.36h-.12a.94.94,0,0,1-.47-.12,1,1,0,0,1-.58.29,52.18,52.18,0,0,0-5.42,1.14.73.73,0,0,1-.25,0,1.26,1.26,0,0,1-.28,0,1.11,1.11,0,0,1-.52.33c-1.26.33-2.56.73-3.89,1.19a1.13,1.13,0,0,1-.32,0,1,1,0,0,1-.43-.09c-.06.07-.13.14-.18.21a1,1,0,0,1-.44.31c-1.14.43-2.85,1.07-4.58,1.84a1.15,1.15,0,0,1-.41.08h-.12l0,.05a1.07,1.07,0,0,1-.41.32c-.7.29-1.4.6-2.12.92a1,1,0,0,1-.41.09,1,1,0,0,1-.83-.46,1,1,0,0,1,.17-1.29c8.77-7.86,17.24-11.85,25.16-11.85a25.19,25.19,0,0,1,13.56,4.13c-10-11.36-10.08-24.16-.16-38.17a1,1,0,0,1,.81-.42,1,1,0,0,1,.39.08,1,1,0,0,1,.6,1.1c-.28,1.48-.51,3.08-.7,4.9a1,1,0,0,1-.15.44,1.07,1.07,0,0,1,.06.47c-.13,1.25-.2,2.24-.24,3.13a.93.93,0,0,1-.16.51,1,1,0,0,1,.15.58c0,.85,0,1.77,0,2.9a1,1,0,0,1-.15.54.93.93,0,0,1,.17.53c0,1.31.11,2.4.21,3.44a1,1,0,0,1-.08.5,1.05,1.05,0,0,1,.15.43c.11,1,.25,2,.41,3a1,1,0,0,1,0,.46,1,1,0,0,1,.19.44c.13.81.29,1.56.48,2.47a1,1,0,0,1,0,.49,1,1,0,0,1,.23.46c.2.91.43,1.81.71,2.75a1,1,0,0,1,0,.42.91.91,0,0,1,.13.26c.2.65.41,1.28.62,1.92L157.84,3a1.42,1.42,0,0,1,0,.2,1.41,1.41,0,0,1,.13.24c.34,1,.73,2,1.16,3a2.17,2.17,0,0,1,.07.24l0,.1c.43,1,.83,1.88,1.26,2.75a.6.6,0,0,1,.06.19.22.22,0,0,1,0,.08c.29.6.61,1.23,1,1.9-1.35-8.66-.26-16,3.29-21.88,4.46-7.4,12.91-12.61,25.09-15.49l.23,0a1,1,0,0,1,.92.62,1,1,0,0,1-.4,1.23l-.65.4-1.36.82a.94.94,0,0,1-.46.13h0a1,1,0,0,1-.37.41c-1.36.85-2.71,1.75-4.13,2.75a1,1,0,0,1-.55.18l-.28,0a1,1,0,0,1-.38.63l-.3.23c-1,.78-2,1.53-2.95,2.32a1,1,0,0,1-.52.22,1,1,0,0,1-.32.5,50.06,50.06,0,0,0-4.09,3.81,1,1,0,0,1-.59.3,1,1,0,0,1-.26.62,39.61,39.61,0,0,0-2.82,3.36,1,1,0,0,1-.44.33,1,1,0,0,1-.18.53,38.47,38.47,0,0,0-2.22,3.5,1.11,1.11,0,0,1-.24.28,1,1,0,0,1-.11.39,29.62,29.62,0,0,0-2.67,7.26C168.13-6,176.57-11.72,190-11.72c1.54,0,3.17.07,4.85.22a1,1,0,0,1,.91,1,1,1,0,0,1-.83,1c-.54.1-1.07.23-1.58.35l-.17,0-.23,0a.75.75,0,0,1-.21,0,.88.88,0,0,1-.41.2c-1.26.3-2.46.64-3.86,1.06a.92.92,0,0,1-.28,0,1.17,1.17,0,0,1-.26,0h-.06a1,1,0,0,1-.52.38c-1.08.34-2.09.7-3.08,1.1a1,1,0,0,1-.37.08h-.1a1,1,0,0,1-.36.26c-1.68.72-3,1.33-4.07,1.91a1,1,0,0,1-.48.12h0a1.06,1.06,0,0,1-.37.36,26.66,26.66,0,0,0-2.94,1.88,1,1,0,0,1-.41.18,1.06,1.06,0,0,1-.28.32A22.93,22.93,0,0,0,172.36.82a1.15,1.15,0,0,1-.29.2.91.91,0,0,1-.17.23,22.53,22.53,0,0,0-6.63,13.82,1,1,0,0,1-.71.85c.06.32.11.64.18,1a1,1,0,0,1-.46,1c.2.24.4.49.59.74a1,1,0,0,1-.14,1.38,1,1,0,0,1-.29.17l.95.71a1,1,0,0,1-.61,1.8,1,1,0,0,1-.56-.17A26,26,0,0,0,149.57,18a27.47,27.47,0,0,0-3.37.21h-.12a1.24,1.24,0,0,1-.27,0,1.1,1.1,0,0,1-.35.11,30.39,30.39,0,0,0-4,.82,1.09,1.09,0,0,1-.26,0,.9.9,0,0,1-.28,0,1,1,0,0,1-.44.26,41.26,41.26,0,0,0-4.07,1.47,1,1,0,0,1-.38.07,1,1,0,0,1-.3,0,1,1,0,0,1-.47.43c-1.55.68-3.22,1.52-4.95,2.49a1,1,0,0,1-.49.13h-.09a1,1,0,0,1-.4.44c-1.09.63-2.25,1.37-3.46,2.18a1,1,0,0,1-.56.18l-.21,0-.12.25a1,1,0,0,1-.34.41c-1.3.9-2.64,1.89-4,2.93a1,1,0,0,1-.51.21l0,.06a1,1,0,0,1-.29.39l-.33.26c-.48.38-1,.77-1.43,1.17A1,1,0,0,1,117.4,32.58Zm45-16.89c0-.15-.07-.31-.11-.45l-.24.07C162.16,15.43,162.27,15.56,162.39,15.69Zm41.31-2.37a1,1,0,0,1-.38-.07c-1.13-.46-2.34-.94-3.54-1.37a1,1,0,0,1-.28-.16h-.05a.84.84,0,0,1-.31-.05c-.81-.26-1.55-.48-2.28-.67a1.09,1.09,0,0,1-.37-.19h-.17a1.09,1.09,0,0,1-.26,0c-.71-.19-1.45-.36-2.15-.51a.85.85,0,0,1-.36-.16.84.84,0,0,1-.27,0l-.2,0c-.75-.15-1.58-.28-2.54-.41a.91.91,0,0,1-.33-.1l-.27,0h-.12c-.69-.08-1.43-.14-2.25-.17a1.24,1.24,0,0,1-.38-.09,1.33,1.33,0,0,1-.28,0h0c-.62,0-1.27,0-1.87,0h-.05a.94.94,0,0,1-.37-.07.88.88,0,0,1-.33.07H184c-.63,0-1.25.06-1.89.11h-.26a1.07,1.07,0,0,1-.3.06c-.7,0-1.43.13-2.32.26H179a1,1,0,0,1-.23.05c-.83.11-1.69.27-2.42.4l-.09,0a.65.65,0,0,1-.21.06c-.72.14-1.44.31-2.21.51h-.06l-.16.06c-1.13.28-2.25.64-3.3,1a1.06,1.06,0,0,1-.31,0,1,1,0,0,1-.67-1.74C175.34,4.8,181.24,2,186.88,2c6.12,0,12,3.24,17.57,9.63a1,1,0,0,1,.06,1.23A1,1,0,0,1,203.7,13.32Z" transform="translate(18.35 35.21)"/><path class="cls-6" d="M179,97.53c5.64-22.8,0-55.83-7.05-69.38,6.3,14.9,4.43,48.63-8.61,70.73l7.42-.79ZM166,25.91Q136.74,36,145.93,65c.23-1.67.49-3.33.83-4.93a11.9,11.9,0,0,1-1.31-2.4,15.79,15.79,0,0,0,1.48,1.47c.24-1,.47-2.05.75-3.09a11.19,11.19,0,0,1-1.75-3,17.8,17.8,0,0,0,2,1.94c.28-1,.56-1.92.86-2.85A11.46,11.46,0,0,1,147,49.14a15.49,15.49,0,0,0,2.22,2.06c.38-1.11.8-2.18,1.27-3.28A10.4,10.4,0,0,1,149,45.28a13.34,13.34,0,0,0,1.88,1.8c.39-1,.83-1.88,1.29-2.82a11.08,11.08,0,0,1-1.53-2.67,13.18,13.18,0,0,0,1.95,1.86c.38-.75.79-1.51,1.2-2.23a11.43,11.43,0,0,1-1.62-2.84,11.12,11.12,0,0,0,2.11,2c.49-.81,1-1.65,1.55-2.47a11.81,11.81,0,0,1-1.09-2.07,17.13,17.13,0,0,0,1.47,1.48c.59-.85,1.19-1.7,1.83-2.53a11.49,11.49,0,0,1-.73-1.49,11.68,11.68,0,0,0,1,1.08c.66-.88,1.36-1.72,2.06-2.53a12.42,12.42,0,0,1-.55-1.16,10.84,10.84,0,0,0,.82.84c.63-.75,1.31-1.49,2-2.23-.15-.28-.28-.54-.42-.86a7.49,7.49,0,0,0,.63.63q1.5-1.61,3.2-3.16ZM165.17,23q-30.27-6.3-36.29,23.61c1-1.36,2-2.64,3.08-3.89A10.58,10.58,0,0,1,132,40a14,14,0,0,0,.58,2.08c.7-.79,1.41-1.56,2.14-2.32a11.67,11.67,0,0,1-.08-3.48,13.9,13.9,0,0,0,.82,2.73c.71-.67,1.4-1.35,2.13-2a11.44,11.44,0,0,1-.11-3.6,15.41,15.41,0,0,0,.91,2.92c.86-.75,1.76-1.51,2.66-2.2A13.13,13.13,0,0,1,141,31a12.35,12.35,0,0,0,.75,2.51c.81-.6,1.62-1.16,2.47-1.73a11.71,11.71,0,0,1,0-3.14,16.19,16.19,0,0,0,.78,2.63c.7-.45,1.43-.89,2.13-1.32a11.69,11.69,0,0,1,0-3.31,14.8,14.8,0,0,0,.87,2.84c.83-.45,1.67-.93,2.52-1.36a13.46,13.46,0,0,1,.08-2.34,11,11,0,0,0,.58,2c.89-.45,1.82-.85,2.78-1.28a16.11,16.11,0,0,1,.08-1.63c.12.5.22,1,.37,1.46,1-.41,2-.78,3-1.16,0-.41,0-.83.08-1.27.08.39.17.78.28,1.14.93-.31,1.88-.62,2.84-.91,0-.3,0-.62.06-.94.08.29.14.58.2.86,1.43-.39,2.87-.77,4.34-1.09Zm-.39-2.26Q137.87,0,117.41,30.58c.57-.5,1.19-1,1.79-1.46a11.51,11.51,0,0,1,1.86-2.82c-.42.8-.75,1.5-1,2.16q2.05-1.58,4-3a11.58,11.58,0,0,1,1.85-2.78,14.09,14.09,0,0,0-.61,2c1.18-.8,2.37-1.56,3.51-2.23a12.79,12.79,0,0,1,1.81-2.71,14.34,14.34,0,0,0-.81,2.15c1.7-.95,3.38-1.81,5-2.54a11.37,11.37,0,0,1,2-3,14,14,0,0,0-.79,2.55c1.41-.58,2.8-1.09,4.17-1.5A12,12,0,0,1,142,14.74a14.44,14.44,0,0,0-.79,2.38,31.57,31.57,0,0,1,4.11-.84,12.16,12.16,0,0,1,1.37-1.9,12.06,12.06,0,0,0-.62,1.81,26.89,26.89,0,0,1,18.7,4.53Zm-.69-2.44Q143-8.65,115.79,15.76c.73-.33,1.44-.64,2.14-.93a10.62,10.62,0,0,1,2.48-2.29,17.32,17.32,0,0,0-1.52,1.85c1.58-.69,3.15-1.3,4.65-1.85A11.27,11.27,0,0,1,126,10.32a15,15,0,0,0-1,1.72c1.33-.46,2.65-.86,3.95-1.21a10.59,10.59,0,0,1,2.39-2.18,17.86,17.86,0,0,0-1.33,1.86,51.62,51.62,0,0,1,5.53-1.17,10.58,10.58,0,0,1,2.61-2.42,20.78,20.78,0,0,0-1.42,2.24c1.55-.18,3-.3,4.46-.37a10.42,10.42,0,0,1,2.35-2.11,12.78,12.78,0,0,0-1.31,2.08,33.29,33.29,0,0,1,4.16.27,12.69,12.69,0,0,1,1.77-1.5c-.37.51-.71,1-1.05,1.59a27.23,27.23,0,0,1,17.05,9.16Zm-2.21-5q-24.82-19-7.38-43.62c-.31,1.66-.53,3.33-.7,5a11.83,11.83,0,0,0-2,1.88,11.78,11.78,0,0,1,1.87-1c-.11,1.07-.21,2.14-.24,3.19A11.38,11.38,0,0,0,150.93-19a12.35,12.35,0,0,1,2.52-1.18c0,1,0,2,0,3a10.26,10.26,0,0,0-2.69,2.35,12.88,12.88,0,0,1,2.71-1.27c0,1.17.1,2.34.22,3.51a11.46,11.46,0,0,0-2.24,2,13.13,13.13,0,0,1,2.31-1.09c.11,1,.25,2.06.41,3.06a11.79,11.79,0,0,0-2.28,2.06,15,15,0,0,1,2.43-1.15c.14.86.31,1.68.5,2.52A10,10,0,0,0,152.4-3,10.45,10.45,0,0,1,155-4.2c.2,1,.44,1.89.72,2.83A9.92,9.92,0,0,0,154.07.27a12.74,12.74,0,0,1,1.83-.95c.31,1,.66,2,1,3a10.4,10.4,0,0,0-1.13,1.16,14.71,14.71,0,0,1,1.3-.7c.36,1,.76,2.06,1.19,3.07-.28.29-.58.59-.86.93a9.75,9.75,0,0,1,1-.57c.41.93.83,1.88,1.27,2.78-.22.21-.43.46-.65.69l.76-.43c.65,1.36,1.38,2.72,2.12,4.06Zm1.88,2.75q-8.67-33.45,26.46-41.73l-2,1.21a9.94,9.94,0,0,0-3.24.74,14.54,14.54,0,0,1,2.34-.17c-1.46.9-2.85,1.83-4.18,2.77a9.9,9.9,0,0,0-3.2.73,14.73,14.73,0,0,1,2,.12c-1.11.86-2.21,1.71-3.28,2.58a10.73,10.73,0,0,0-3.12.72,14.45,14.45,0,0,1,2.28,0,52.36,52.36,0,0,0-4.17,3.89,10.59,10.59,0,0,0-3.45.75,14.32,14.32,0,0,1,2.58.18,42.68,42.68,0,0,0-2.88,3.44,12.42,12.42,0,0,0-3.08.73,13.33,13.33,0,0,1,2.44.15A42,42,0,0,0,167-4.23a11.86,11.86,0,0,0-2.21.63,12.67,12.67,0,0,1,1.85.07,29.08,29.08,0,0,0-2.83,19.6Zm.52-2.11q1.35-28.06,30.5-25.46c-.62.11-1.23.26-1.81.39a9.47,9.47,0,0,0-2.7-.25,14.28,14.28,0,0,1,1.85.46c-1.37.32-2.65.7-3.91,1.08a8.52,8.52,0,0,0-2.63-.23,8.75,8.75,0,0,1,1.49.61c-1.09.34-2.14.72-3.15,1.13a7.86,7.86,0,0,0-2.59-.24,11.83,11.83,0,0,1,1.74.57c-1.46.62-2.87,1.26-4.16,2a8.08,8.08,0,0,0-2.84-.32,13.3,13.3,0,0,1,1.94.81,27.71,27.71,0,0,0-3,1.94,7.89,7.89,0,0,0-2.54-.23,9.44,9.44,0,0,1,1.84.74,24.45,24.45,0,0,0-2.61,2.2A9,9,0,0,0,169.77-1a7.3,7.3,0,0,1,1.42.51A23.48,23.48,0,0,0,164.28,14ZM170,10q18.21-16.51,33.68,1.35c-1.21-.49-2.4-1-3.58-1.38a11.35,11.35,0,0,0-1.07-1.87,12.76,12.76,0,0,1,.4,1.65c-.78-.26-1.55-.49-2.34-.69a9.07,9.07,0,0,0-1.24-2.41,12.82,12.82,0,0,1,.45,2.2c-.72-.19-1.49-.37-2.21-.52a8.65,8.65,0,0,0-1.3-2.49,9.8,9.8,0,0,1,.47,2.35c-.87-.17-1.74-.3-2.61-.42a8.68,8.68,0,0,0-1.18-2.11,9,9,0,0,1,.45,2c-.78-.09-1.54-.14-2.33-.17a8.26,8.26,0,0,0-1.18-2.14,11.87,11.87,0,0,1,.48,2.08c-.66,0-1.33,0-2,0a9.19,9.19,0,0,0-1.22-2.26,10.6,10.6,0,0,1,.48,2.26c-.74,0-1.47.06-2.22.12A9.72,9.72,0,0,0,181,6a16.65,16.65,0,0,1,.39,1.62c-.81.06-1.59.15-2.39.27-.21-.35-.43-.73-.67-1.09.09.38.2.76.28,1.15-.82.11-1.67.26-2.47.41-.16-.27-.35-.53-.56-.82a6.25,6.25,0,0,1,.25.9c-.76.15-1.51.32-2.27.52a6.92,6.92,0,0,0-.39-.61c0,.22.13.44.18.68-1.12.28-2.24.63-3.37,1Zm.62,2.11Q200.93,5.72,207,35.6c-1-1.35-2-2.64-3.1-3.85a13.64,13.64,0,0,0-.05-2.77,15.58,15.58,0,0,1-.58,2.07c-.69-.79-1.4-1.56-2.12-2.29a11.8,11.8,0,0,0,.07-3.49,13.63,13.63,0,0,1-.82,2.73c-.71-.66-1.41-1.37-2.14-2a10.71,10.71,0,0,0,.1-3.61,15.51,15.51,0,0,1-.9,2.91c-.87-.75-1.76-1.48-2.67-2.18a11.25,11.25,0,0,0,0-3.07,14.16,14.16,0,0,1-.72,2.52c-.83-.61-1.64-1.18-2.49-1.74a12.48,12.48,0,0,0,0-3.13,15.4,15.4,0,0,1-.78,2.61c-.7-.43-1.41-.89-2.18-1.31a11.19,11.19,0,0,0,.08-3.3,13,13,0,0,1-.89,2.84c-.82-.46-1.67-.92-2.51-1.35a17.45,17.45,0,0,0-.08-2.36,18.39,18.39,0,0,1-.55,2.06c-.93-.45-1.87-.89-2.84-1.28a15.54,15.54,0,0,0-.06-1.65c-.1.49-.24,1-.36,1.46-1-.4-2-.79-3-1.15a7.63,7.63,0,0,0-.09-1.24,11.5,11.5,0,0,1-.26,1.13c-.94-.33-1.87-.63-2.84-.91,0-.3,0-.62-.06-.94-.08.28-.14.58-.21.86-1.43-.4-2.87-.79-4.36-1.09ZM167.5,14.6a2.19,2.19,0,0,1,3,1,2.3,2.3,0,0,1-1,3.08,2.21,2.21,0,0,1-3-1,2.37,2.37,0,0,1,1-3.1Zm5.55.48a2.22,2.22,0,0,1,3,1,2.35,2.35,0,0,1-1,3.1,2.2,2.2,0,0,1-3-1,2.37,2.37,0,0,1,1-3.12Zm-4.54,5a2.18,2.18,0,0,1,3,1,2.33,2.33,0,0,1-1,3.1,2.21,2.21,0,0,1-3-1,2.34,2.34,0,0,1,1-3.1Z" transform="translate(18.35 35.21)"/><path class="cls-1" d="M294.55,107.72a4.9,4.9,0,0,1-4.22-7.39C302,80.56,304.48,49.48,299,35c-.48.48-.94.94-1.38,1.41a2.08,2.08,0,0,1-.2.21c-.65.7-1.26,1.36-1.81,2-.07.07-.3.34-.34.39-.64.74-1.27,1.5-1.87,2.29l0,0c-.09.13-.18.27-.28.4-.59.76-1.14,1.54-1.68,2.32l-.11.16c-.07.13-.14.25-.22.37-.48.72-.94,1.46-1.37,2.17-.09.14-.18.28-.28.41a4.11,4.11,0,0,1-.21.42c-.37.66-.74,1.34-1.09,2-.08.16-.17.31-.26.46s-.08.19-.13.28c-.41.84-.81,1.67-1.16,2.53a4,4,0,0,1-.24.51c0,.13-.09.26-.14.38-.42,1-.81,2-1.16,3a5.09,5.09,0,0,1-.22.54c0,.13-.07.25-.11.37-.24.76-.48,1.55-.71,2.33l-.12.4a3.57,3.57,0,0,1-.16.46,3.38,3.38,0,0,1-.09.41c-.23.89-.43,1.77-.64,2.66l-.13.55c0,.19-.05.39-.09.59-.28,1.32-.53,2.8-.76,4.55a4.9,4.9,0,0,1-4.44,4.24l-.43,0a4.9,4.9,0,0,1-4.67-3.43c-3.19-10.1-3.22-18.87-.17-26.13a3.07,3.07,0,0,1-.26.25c-.45.4-.88.82-1.32,1.24l-.69.66-.27.24-.32.36c-.69.71-1.34,1.43-2,2.17a2.57,2.57,0,0,1-.33.33,2.56,2.56,0,0,1-.2.26c-1.14,1.34-2,2.47-2.83,3.57a4.91,4.91,0,0,1-4,2,5,5,0,0,1-1.95-.4,4.89,4.89,0,0,1-2.85-5.46c1.89-9.45,5.39-15.92,9.67-20.28l-1.51.81a4.44,4.44,0,0,1-.49.24,4,4,0,0,1-.43.29c-1,.6-2.11,1.28-3.24,2.05a4.7,4.7,0,0,1-.69.39,4.78,4.78,0,0,1-.5.39c-1.23.86-2.53,1.81-3.86,2.83l-.4.28c-.12.11-.24.23-.37.33l-.33.26c-.44.35-.9.71-1.32,1.08a4.91,4.91,0,0,1-7.28-6.46,66.87,66.87,0,0,1,6.79-8.62l-.3.13c-.67.28-1.33.58-2,.88a4.91,4.91,0,0,1-6.12-1.8,4.92,4.92,0,0,1,.84-6.33c9.52-8.52,18.86-12.85,27.77-12.85a28.22,28.22,0,0,1,4.11.31c-4.06-10.13-2.06-21.17,6.1-32.7a4.9,4.9,0,0,1,4-2.07,4.94,4.94,0,0,1,1.91.39,4.91,4.91,0,0,1,2.91,5.42c-.26,1.37-.47,2.87-.65,4.58,0,.15,0,.3-.07.44s0,.31,0,.46c-.1,1-.18,1.94-.22,2.88l0,.41a5.77,5.77,0,0,1,0,.72c-.05.88,0,1.76,0,2.64a4.51,4.51,0,0,1,0,.52,4.55,4.55,0,0,1,0,.53c0,1.19.09,2.19.19,3.14a4.15,4.15,0,0,1,0,.61c0,.1,0,.19,0,.28.11.93.24,1.91.39,2.84,0,.14,0,.27,0,.41a3.88,3.88,0,0,1,.11.49l0,.21a28.71,28.71,0,0,1,2.38-4.93c5-8.34,14.29-14.15,27.53-17.27a4.9,4.9,0,0,1,1.13-.13A4.91,4.91,0,0,1,326-23.58a4.91,4.91,0,0,1-2,6l-.62.37c-.48.3-.95.59-1.44.87l-.3.17a5.36,5.36,0,0,1-.49.34c-1.29.8-2.57,1.66-3.94,2.62a4.92,4.92,0,0,1-.7.41c-.12.11-.24.22-.37.32h0a46.76,46.76,0,0,1,5.13-.27c1.66,0,3.41.08,5.2.24a4.9,4.9,0,0,1,4.46,4.68,4.9,4.9,0,0,1-4.05,5c-.48.08-.94.19-1.39.3a3.55,3.55,0,0,1-.47.09,4.44,4.44,0,0,1-.52.15c-1.17.28-2.3.6-3.63,1l-.43.11a4.35,4.35,0,0,1-.63.25c-1,.31-1.91.64-2.8,1a4.59,4.59,0,0,1-.48.17l-.28.13c-.84.36-1.58.69-2.23,1a22.16,22.16,0,0,1,4.11-.39c7.31,0,14.21,3.69,20.53,11A4.91,4.91,0,0,1,335,20.17c3.53,4.27,6.41,10.21,8.07,18.39a4.91,4.91,0,0,1-8.73,3.92c-.91-1.2-1.88-2.41-2.9-3.6l-.24-.3c-.12-.11-.24-.24-.36-.37-.63-.72-1.29-1.42-1.95-2.1-.11-.11-.21-.23-.31-.35l-.29-.26-.68-.65c-.43-.41-.86-.83-1.31-1.22-.12-.11-.25-.23-.36-.35a3.87,3.87,0,0,1-.45-.35c-.79-.69-1.6-1.34-2.43-2l-.32-.27a3.62,3.62,0,0,1-.32-.22c-.77-.56-1.52-1.09-2.3-1.61l-.44-.33-.58-.36c-.5-.31-1-.62-1.54-.92a5.19,5.19,0,0,1-.5-.31l-.32-.17c-.77-.42-1.57-.86-2.36-1.26l-.24-.13-.26-.11c-.77-.36-1.47-.7-2.18-1a7.15,7.15,0,0,1-3.07,3.21,5.82,5.82,0,0,1-1,.42,6.72,6.72,0,0,1-.51,1.38,4.86,4.86,0,0,1,.33.54c7.22,13.81,13.55,48.2,7.46,72.83a4.9,4.9,0,0,1-4.43,3.72l-8.14.55-7.32.78A4.71,4.71,0,0,1,294.55,107.72Z" transform="translate(18.35 35.21)"/><path class="cls-7" d="M294.55,103.79a4.91,4.91,0,0,1-4.22-7.4C302,76.62,304.48,45.54,299,31q-.72.72-1.38,1.41l-.2.22c-.65.69-1.26,1.35-1.81,2l-.34.39c-.64.74-1.27,1.5-1.87,2.29l0,0c-.09.14-.18.27-.28.4-.59.76-1.14,1.55-1.68,2.33l-.11.16c-.07.12-.14.24-.22.36-.48.72-.94,1.46-1.37,2.18-.09.14-.18.27-.28.4a2.74,2.74,0,0,1-.21.42c-.37.66-.74,1.35-1.09,2a5,5,0,0,1-.26.46c0,.1-.08.19-.13.29-.41.83-.81,1.66-1.16,2.53q-.11.26-.24.51c0,.12-.09.25-.14.37-.42,1-.81,2-1.16,3a5.25,5.25,0,0,1-.22.55c0,.12-.07.24-.11.36-.24.77-.48,1.55-.71,2.34l-.12.4a4,4,0,0,1-.16.45,3.38,3.38,0,0,1-.09.41c-.23.89-.43,1.77-.64,2.67l-.13.54a5.58,5.58,0,0,1-.09.59c-.28,1.32-.53,2.81-.76,4.55a4.9,4.9,0,0,1-4.44,4.24,3.1,3.1,0,0,1-.43,0,4.9,4.9,0,0,1-4.67-3.43c-3.19-10.1-3.22-18.86-.17-26.13a3.07,3.07,0,0,1-.26.25c-.45.4-.88.82-1.32,1.24l-.69.66c-.09.09-.18.16-.27.24a3.73,3.73,0,0,1-.32.36c-.69.71-1.34,1.43-2,2.17a3.51,3.51,0,0,1-.33.34l-.2.25c-1.14,1.34-2,2.48-2.83,3.57a4.92,4.92,0,0,1-4,2,5,5,0,0,1-1.95-.41,4.89,4.89,0,0,1-2.85-5.46c1.89-9.45,5.39-15.92,9.67-20.28-.5.26-1,.53-1.51.82-.16.08-.32.17-.49.24l-.43.28c-1,.6-2.11,1.29-3.24,2a4.7,4.7,0,0,1-.69.39,4.78,4.78,0,0,1-.5.39c-1.23.86-2.53,1.81-3.86,2.83l-.4.28a3.8,3.8,0,0,1-.37.33l-.33.26c-.44.35-.9.71-1.32,1.08a4.91,4.91,0,0,1-7.28-6.45,67,67,0,0,1,6.79-8.63l-.3.14c-.67.27-1.33.57-2,.87a4.71,4.71,0,0,1-2,.43,4.91,4.91,0,0,1-3.28-8.56C253.28,3.58,262.62-.74,271.53-.74a28.21,28.21,0,0,1,4.11.3c-4.06-10.13-2.06-21.17,6.1-32.69a4.91,4.91,0,0,1,4-2.08,4.94,4.94,0,0,1,1.91.39,4.91,4.91,0,0,1,2.91,5.42c-.26,1.37-.47,2.87-.65,4.59,0,.14,0,.29-.07.43s0,.31,0,.46c-.1,1-.18,1.94-.22,2.89l0,.4a5.88,5.88,0,0,1,0,.73c-.05.87,0,1.75,0,2.63a4.47,4.47,0,0,1,0,.52,4.73,4.73,0,0,1,0,.53c0,1.19.09,2.19.19,3.14a4.28,4.28,0,0,1,0,.62,2.51,2.51,0,0,1,0,.27c.11.93.24,1.91.39,2.84,0,.14,0,.27,0,.41a3.88,3.88,0,0,1,.11.49l0,.21a28.62,28.62,0,0,1,2.38-4.92c5-8.34,14.29-14.15,27.53-17.28a4.9,4.9,0,0,1,1.13-.13A4.91,4.91,0,0,1,326-27.52a4.91,4.91,0,0,1-2,6.05l-.62.38c-.48.29-.95.58-1.44.86l-.3.17a5.36,5.36,0,0,1-.49.34c-1.29.8-2.57,1.66-3.94,2.62a4.13,4.13,0,0,1-.7.41c-.12.11-.24.22-.37.32l0,0a44.35,44.35,0,0,1,5.13-.28c1.66,0,3.41.08,5.2.24a4.91,4.91,0,0,1,4.46,4.68,4.9,4.9,0,0,1-4.05,5c-.48.08-.94.2-1.39.3a3.55,3.55,0,0,1-.47.09l-.52.16c-1.17.27-2.3.59-3.63,1a3.89,3.89,0,0,1-.43.11,4.35,4.35,0,0,1-.63.25c-1,.32-1.91.64-2.8,1l-.48.16-.28.13c-.84.36-1.58.69-2.23,1a21.35,21.35,0,0,1,4.11-.4c7.31,0,14.21,3.7,20.53,11A4.91,4.91,0,0,1,335,16.23c3.53,4.27,6.41,10.21,8.07,18.39a4.91,4.91,0,0,1-8.73,3.92c-.91-1.2-1.88-2.41-2.9-3.59l-.24-.31-.36-.36c-.63-.73-1.29-1.43-1.95-2.11-.11-.11-.21-.23-.31-.35l-.29-.25-.68-.65c-.43-.42-.86-.84-1.31-1.23a4,4,0,0,1-.36-.35,3,3,0,0,1-.45-.35q-1.18-1-2.43-2a4.15,4.15,0,0,1-.32-.27,3.62,3.62,0,0,1-.32-.22c-.77-.56-1.52-1.09-2.3-1.61a4.59,4.59,0,0,1-.44-.33l-.58-.36c-.5-.31-1-.62-1.54-.92a5.19,5.19,0,0,1-.5-.31l-.32-.16c-.77-.43-1.57-.86-2.36-1.26l-.24-.13-.26-.12c-.77-.36-1.47-.69-2.18-1a7.18,7.18,0,0,1-3.07,3.2,5.82,5.82,0,0,1-1,.42,6.72,6.72,0,0,1-.51,1.38,4.86,4.86,0,0,1,.33.54c7.22,13.81,13.55,48.2,7.46,72.84a4.89,4.89,0,0,1-4.43,3.71l-8.14.55-7.32.79A4.71,4.71,0,0,1,294.55,103.79Z" transform="translate(18.35 35.21)"/><path class="cls-3" d="M294.56,100.88a1,1,0,0,1-.87-1.51c12.69-21.51,15-54.61,8.55-69.83a1,1,0,0,1,.5-1.3,1,1,0,0,1,.42-.09,1,1,0,0,1,.89.53C311,42,317.05,75,311.18,98.77a1,1,0,0,1-.9.76l-8.24.55-7.38.79ZM277.18,67a1,1,0,0,1-1-.7c-6.28-19.88.7-33.46,20.72-40.36a1,1,0,0,1,.33-.06,1,1,0,0,1,.86.49,1,1,0,0,1-.18,1.25c-1.13,1-2.19,2.08-3.15,3.11l-.12.1-.09.12c-.71.76-1.36,1.46-2,2.19a1.29,1.29,0,0,1-.17.16.66.66,0,0,1-.12.17c-.78.91-1.45,1.72-2,2.48a.67.67,0,0,1-.14.15,1.17,1.17,0,0,1-.15.27c-.69.89-1.33,1.8-1.8,2.49a1,1,0,0,1-.23.23,1.17,1.17,0,0,1-.14.35c-.51.76-1,1.55-1.46,2.31l-.07.12a1,1,0,0,1-.35.34,1.14,1.14,0,0,1-.13.47c-.4.71-.8,1.45-1.18,2.19a.93.93,0,0,1-.31.37,1.08,1.08,0,0,1-.1.43c-.47,1-.89,1.84-1.26,2.76a1.18,1.18,0,0,1-.29.4,1,1,0,0,1-.08.45c-.5,1.19-.9,2.21-1.25,3.22a.91.91,0,0,1-.33.46,1.06,1.06,0,0,1,0,.53c-.27.83-.52,1.68-.78,2.53l-.08.29a1,1,0,0,1-.29.46,1.06,1.06,0,0,1,0,.53c-.26,1-.47,1.91-.69,2.87l-.05.2a1,1,0,0,1-.19.4,1,1,0,0,1,0,.51c-.3,1.42-.57,3-.81,4.85a1,1,0,0,1-.91.86ZM260.12,48.59a1.09,1.09,0,0,1-.39-.08,1,1,0,0,1-.59-1.12c3.39-16.92,12.63-25.5,27.47-25.5a48.92,48.92,0,0,1,10,1.12,1,1,0,0,1,0,1.95c-1.26.27-2.58.61-4.28,1.08l-.11,0-.13.05c-1,.28-1.89.59-2.81.9l-.15,0-.18.08c-1,.37-2,.74-3,1.14a.84.84,0,0,1-.26.07l-.17.1-.29.12c-.84.38-1.66.74-2.45,1.13a.88.88,0,0,1-.39.11,1.05,1.05,0,0,1-.27.2c-.65.33-1.29.69-1.93,1l-.56.31a.93.93,0,0,1-.46.12,1,1,0,0,1-.32.32l-.78.48-1.34.83a1.06,1.06,0,0,1-.42.15.89.89,0,0,1-.32.35c-.82.55-1.62,1.1-2.43,1.71a1.14,1.14,0,0,1-.41.18,1,1,0,0,1-.31.37c-.77.6-1.6,1.29-2.62,2.16a.86.86,0,0,1-.49.23,1.13,1.13,0,0,1-.29.45c-.49.44-1,.89-1.43,1.34l-.68.65a1,1,0,0,1-.45.24,1,1,0,0,1-.26.48c-.67.69-1.36,1.44-2.11,2.29a1,1,0,0,1-.38.26,1.2,1.2,0,0,1-.2.39c-1.22,1.42-2.18,2.64-3,3.82A1,1,0,0,1,260.12,48.59Zm78.16-11a1,1,0,0,1-.8-.4c-1-1.29-2-2.57-3.06-3.8a1,1,0,0,1-.21-.42.94.94,0,0,1-.41-.28c-.58-.67-1.25-1.38-2.08-2.25a1,1,0,0,1-.26-.48,1,1,0,0,1-.47-.24l-.64-.61c-.48-.47-1-.94-1.46-1.37a1,1,0,0,1-.3-.46,1,1,0,0,1-.51-.24c-.8-.69-1.68-1.41-2.62-2.13a1.12,1.12,0,0,1-.29-.36,1,1,0,0,1-.41-.18c-.86-.63-1.66-1.19-2.45-1.72a1,1,0,0,1-.33-.36,1.07,1.07,0,0,1-.39-.14l-.41-.26c-.55-.34-1.12-.69-1.72-1a1,1,0,0,1-.37-.35.88.88,0,0,1-.44-.12c-.81-.45-1.65-.91-2.48-1.33a.9.9,0,0,1-.27-.2.9.9,0,0,1-.33-.09c-.93-.44-1.86-.88-2.78-1.25a.77.77,0,0,1-.25-.14l-.18,0c-1.1-.45-2.08-.82-3-1.13a.61.61,0,0,1-.14-.07.8.8,0,0,1-.21,0c-.6-.21-1.17-.4-1.72-.57a3.31,3.31,0,0,1,.91,1.14,3.35,3.35,0,0,1-1.41,4.42,3.09,3.09,0,0,1-1.48.37,3.24,3.24,0,0,1-2.89-1.81.2.2,0,0,1,0-.08,2.79,2.79,0,0,1-.42.49,3.14,3.14,0,0,1,1.68,1.59,3.35,3.35,0,0,1-1.4,4.41,3.21,3.21,0,0,1-4.39-1.45,3.38,3.38,0,0,1,.69-3.89,3.31,3.31,0,0,1-1.69-1.57,3.36,3.36,0,0,1,1.42-4.44,3.06,3.06,0,0,1,1.46-.36,3.25,3.25,0,0,1,2.9,1.82l0,.07a3.36,3.36,0,0,1,1.14-1,3.44,3.44,0,0,1,1.16-.34c-1.05-.29-2.15-.57-3.29-.8a1,1,0,0,1,0-2A49.31,49.31,0,0,1,311.78,11c14.81,0,24.05,8.55,27.48,25.43a1,1,0,0,1-1,1.2Zm-89.63-5a1,1,0,0,1-.67-.25,1,1,0,0,1-.16-1.31c8.29-12.38,17.56-18.66,27.52-18.66,5.68,0,11.65,2,17.81,6.08a26.27,26.27,0,0,0-15-7.33,1.23,1.23,0,0,1-.34-.11,1.07,1.07,0,0,1-.25,0h-.12a32.48,32.48,0,0,0-4-.26.94.94,0,0,0-1,0c-1.39.06-2.83.18-4.38.36h-.12a1,1,0,0,1-.47-.12,1,1,0,0,1-.58.29,52.18,52.18,0,0,0-5.42,1.14.73.73,0,0,1-.25,0,1.26,1.26,0,0,1-.28,0,1.06,1.06,0,0,1-.52.33c-1.25.33-2.56.73-3.89,1.19a1.13,1.13,0,0,1-.32,0,1,1,0,0,1-.43-.09l-.18.21a1,1,0,0,1-.43.31c-1.14.43-2.86,1.07-4.59,1.84a1.14,1.14,0,0,1-.4.08H250l0,.05a1.07,1.07,0,0,1-.41.32c-.7.29-1.4.6-2.11.92a1,1,0,0,1-.41.09,1,1,0,0,1-.84-.46,1,1,0,0,1,.17-1.29c8.78-7.86,17.24-11.85,25.16-11.85a25.17,25.17,0,0,1,13.56,4.13c-10-11.36-10.07-24.16-.16-38.17a1,1,0,0,1,.81-.42,1,1,0,0,1,.39.08,1,1,0,0,1,.6,1.1c-.28,1.48-.5,3.08-.7,4.9a1,1,0,0,1-.15.44.94.94,0,0,1,.06.47c-.12,1.25-.2,2.24-.23,3.13a1,1,0,0,1-.17.51,1,1,0,0,1,.16.58c-.05.85-.05,1.77,0,2.9a1.11,1.11,0,0,1-.14.54,1.11,1.11,0,0,1,.17.53c0,1.31.1,2.4.2,3.44a1,1,0,0,1-.08.5.92.92,0,0,1,.15.43c.11,1,.25,2,.41,3a1.19,1.19,0,0,1,0,.46,1,1,0,0,1,.18.44c.13.81.29,1.56.49,2.47a1.16,1.16,0,0,1,0,.49,1,1,0,0,1,.24.46c.19.91.42,1.81.7,2.75a1.22,1.22,0,0,1,0,.42,1.23,1.23,0,0,1,.12.26c.2.65.41,1.28.62,1.92L289.08,3a.71.71,0,0,1,0,.2.94.94,0,0,1,.13.24c.34,1,.73,2,1.16,3a1.09,1.09,0,0,1,.07.24l0,.1c.43,1,.84,1.88,1.26,2.75a1.07,1.07,0,0,1,.07.19l0,.08c.29.6.61,1.23,1,1.9-1.36-8.66-.26-16,3.28-21.88,4.47-7.4,12.91-12.61,25.09-15.49l.23,0a1,1,0,0,1,.93.62,1,1,0,0,1-.41,1.23l-.65.4-1.35.82a1,1,0,0,1-.47.13h0a1,1,0,0,1-.38.41c-1.36.85-2.71,1.75-4.13,2.75a1,1,0,0,1-.55.18l-.28,0a1,1,0,0,1-.37.63l-.31.23c-1,.78-2,1.53-2.95,2.32a1,1,0,0,1-.52.22,1,1,0,0,1-.32.5,50.06,50.06,0,0,0-4.09,3.81,1,1,0,0,1-.59.3,1,1,0,0,1-.26.62,41.58,41.58,0,0,0-2.82,3.36,1,1,0,0,1-.44.33,1,1,0,0,1-.18.53,38.47,38.47,0,0,0-2.22,3.5.81.81,0,0,1-.24.28,1,1,0,0,1-.11.39,29.18,29.18,0,0,0-2.66,7.26c3.31-11.23,11.76-16.91,25.2-16.91,1.54,0,3.18.07,4.85.22a1,1,0,0,1,.91,1,1,1,0,0,1-.83,1c-.54.1-1.07.23-1.58.35l-.17,0-.23,0a.75.75,0,0,1-.21,0,.83.83,0,0,1-.41.2c-1.26.3-2.45.64-3.85,1.06a1,1,0,0,1-.29,0,1.17,1.17,0,0,1-.26,0h-.06a1,1,0,0,1-.51.38c-1.09.34-2.09.7-3.09,1.1a1,1,0,0,1-.37.08h-.1a.92.92,0,0,1-.35.26c-1.69.72-3,1.33-4.08,1.91a1,1,0,0,1-.47.12h-.05a1,1,0,0,1-.37.36,27.46,27.46,0,0,0-2.93,1.88,1.12,1.12,0,0,1-.42.18,1.06,1.06,0,0,1-.28.32A22.93,22.93,0,0,0,303.6.82a1.1,1.1,0,0,1-.28.2,1.3,1.3,0,0,1-.18.23,22.59,22.59,0,0,0-6.63,13.82,1,1,0,0,1-.7.85c.05.32.11.64.17,1a1,1,0,0,1-.45,1l.59.74A1,1,0,0,1,296,20a.85.85,0,0,1-.29.17l.95.71a1,1,0,0,1-.61,1.8,1,1,0,0,1-.55-.17A26,26,0,0,0,280.81,18a27.59,27.59,0,0,0-3.37.21h-.12a1.24,1.24,0,0,1-.27,0,1,1,0,0,1-.35.11,29.94,29.94,0,0,0-4,.82l-.26,0a.92.92,0,0,1-.29,0,1,1,0,0,1-.44.26,40.25,40.25,0,0,0-4.06,1.47,1.07,1.07,0,0,1-.39.07.92.92,0,0,1-.29,0,1,1,0,0,1-.47.43c-1.56.68-3.23,1.52-5,2.49a1,1,0,0,1-.49.13H261a1,1,0,0,1-.4.44c-1.09.63-2.25,1.37-3.46,2.18a1,1,0,0,1-.56.18l-.21,0-.12.25a.91.91,0,0,1-.34.41c-1.29.9-2.64,1.89-4,2.93a1,1,0,0,1-.51.21l0,.06a1.14,1.14,0,0,1-.3.39l-.33.26c-.48.38-1,.77-1.43,1.17A1,1,0,0,1,248.65,32.58Zm45-16.89c0-.15-.07-.31-.1-.45l-.25.07C293.4,15.43,293.51,15.56,293.63,15.69Zm41.31-2.37a1,1,0,0,1-.37-.07c-1.13-.46-2.34-.94-3.55-1.37a1,1,0,0,1-.28-.16h-.05a.84.84,0,0,1-.31-.05c-.8-.26-1.55-.48-2.27-.67a1,1,0,0,1-.38-.19h-.17a1.15,1.15,0,0,1-.26,0c-.71-.19-1.45-.36-2.15-.51a1,1,0,0,1-.36-.16.84.84,0,0,1-.27,0l-.19,0c-.75-.15-1.59-.28-2.55-.41a.91.91,0,0,1-.33-.1,1.24,1.24,0,0,1-.27,0h-.12c-.69-.08-1.43-.14-2.25-.17a1.24,1.24,0,0,1-.38-.09,1.27,1.27,0,0,1-.28,0h0c-.63,0-1.27,0-1.88,0h-.05a.94.94,0,0,1-.37-.07.88.88,0,0,1-.33.07h-.29c-.62,0-1.25.06-1.89.11H313a1,1,0,0,1-.3.06c-.69,0-1.43.13-2.32.26h-.17a.86.86,0,0,1-.23.05c-.83.11-1.69.27-2.42.4l-.08,0-.21.06c-.73.14-1.45.31-2.21.51H305l-.15.06c-1.14.28-2.26.64-3.3,1a1.15,1.15,0,0,1-.31,0,1,1,0,0,1-.87-.49,1,1,0,0,1,.2-1.25C306.59,4.8,312.48,2,318.12,2c6.13,0,12,3.24,17.58,9.63a1,1,0,0,1,.05,1.23A1,1,0,0,1,334.94,13.32Z" transform="translate(18.35 35.21)"/><path class="cls-8" d="M310.21,97.53c5.64-22.8,0-55.83-7-69.38,6.3,14.9,4.43,48.63-8.6,70.73l7.41-.79ZM297.27,25.91Q268,36,277.18,65c.22-1.67.48-3.33.82-4.93a11.88,11.88,0,0,1-1.3-2.4,14.67,14.67,0,0,0,1.48,1.47c.24-1,.47-2.05.74-3.09a11.17,11.17,0,0,1-1.74-3,16.93,16.93,0,0,0,2,1.94c.28-1,.57-1.92.87-2.85a11.47,11.47,0,0,1-1.86-3.07,15.49,15.49,0,0,0,2.22,2.06c.38-1.11.81-2.18,1.27-3.28a10.1,10.1,0,0,1-1.51-2.64,13.27,13.27,0,0,0,1.87,1.8c.39-1,.84-1.88,1.29-2.82a11.42,11.42,0,0,1-1.53-2.67,13.18,13.18,0,0,0,1.95,1.86c.38-.75.79-1.51,1.2-2.23a11.43,11.43,0,0,1-1.62-2.84,11.43,11.43,0,0,0,2.11,2c.5-.81,1-1.65,1.55-2.47a11.16,11.16,0,0,1-1.08-2.07,15.73,15.73,0,0,0,1.46,1.48c.59-.85,1.19-1.7,1.84-2.53a10.34,10.34,0,0,1-.74-1.49,13.2,13.2,0,0,0,1,1.08c.66-.88,1.36-1.72,2.06-2.53a12.42,12.42,0,0,1-.55-1.16,9.39,9.39,0,0,0,.83.84c.62-.75,1.3-1.49,2-2.23-.15-.28-.27-.54-.41-.86a7.36,7.36,0,0,0,.62.63c1-1.07,2.07-2.12,3.2-3.16ZM296.41,23q-30.27-6.3-36.29,23.61c1-1.36,2-2.64,3.09-3.89a10.58,10.58,0,0,1,0-2.75A15.26,15.26,0,0,0,263.8,42c.7-.79,1.41-1.56,2.14-2.32a11.67,11.67,0,0,1-.08-3.48,13.92,13.92,0,0,0,.83,2.73c.7-.67,1.39-1.35,2.12-2a11.44,11.44,0,0,1-.11-3.6,16.17,16.17,0,0,0,.91,2.92c.87-.75,1.76-1.51,2.67-2.2a12.58,12.58,0,0,1,0-3.08A13,13,0,0,0,273,33.5c.82-.6,1.62-1.16,2.48-1.73a12.11,12.11,0,0,1,0-3.14,16.19,16.19,0,0,0,.78,2.63c.71-.45,1.43-.89,2.14-1.32a11.69,11.69,0,0,1,0-3.31,14.1,14.1,0,0,0,.86,2.84c.83-.45,1.67-.93,2.52-1.36a14.52,14.52,0,0,1,.08-2.34,11,11,0,0,0,.58,2c.9-.45,1.82-.85,2.78-1.28a16.11,16.11,0,0,1,.08-1.63c.12.5.22,1,.37,1.46,1-.41,2-.78,3-1.16,0-.41,0-.83.07-1.27.09.39.18.78.28,1.14.93-.31,1.88-.62,2.84-.91.05-.3.05-.62.07-.94.08.29.14.58.2.86,1.43-.39,2.86-.77,4.33-1.09ZM296,20.72Q269.11,0,248.65,30.58c.57-.5,1.2-1,1.79-1.46a11.51,11.51,0,0,1,1.86-2.82,22.06,22.06,0,0,0-1,2.16q2-1.58,4-3a11.89,11.89,0,0,1,1.85-2.78,14.09,14.09,0,0,0-.61,2c1.18-.8,2.37-1.56,3.52-2.23a12.42,12.42,0,0,1,1.81-2.71,13.41,13.41,0,0,0-.82,2.15c1.7-.95,3.39-1.81,5-2.54a11.63,11.63,0,0,1,2-3,14.86,14.86,0,0,0-.79,2.55c1.41-.58,2.8-1.09,4.17-1.5a12.32,12.32,0,0,1,1.79-2.64,13.53,13.53,0,0,0-.78,2.38,31.1,31.1,0,0,1,4.1-.84,12.25,12.25,0,0,1,1.38-1.9,11.06,11.06,0,0,0-.63,1.81A26.89,26.89,0,0,1,296,20.72Zm-.69-2.44Q274.24-8.65,247,15.76q1.08-.49,2.13-.93a10.62,10.62,0,0,1,2.48-2.29,16,16,0,0,0-1.51,1.85c1.57-.69,3.14-1.3,4.64-1.85a11.27,11.27,0,0,1,2.44-2.22A15,15,0,0,0,256.17,12c1.34-.46,2.65-.86,3.95-1.21a10.59,10.59,0,0,1,2.39-2.18,17.86,17.86,0,0,0-1.33,1.86,52.14,52.14,0,0,1,5.53-1.17,10.46,10.46,0,0,1,2.62-2.42,19.46,19.46,0,0,0-1.43,2.24c1.56-.18,3-.3,4.46-.37a10.64,10.64,0,0,1,2.35-2.11,12.78,12.78,0,0,0-1.31,2.08,33.29,33.29,0,0,1,4.16.27,13.3,13.3,0,0,1,1.77-1.5c-.37.51-.7,1-1.05,1.59a27.23,27.23,0,0,1,17.05,9.16Zm-2.21-5q-24.83-19-7.38-43.62c-.31,1.66-.53,3.33-.7,5a12.24,12.24,0,0,0-2,1.88,12.23,12.23,0,0,1,1.87-1c-.11,1.07-.2,2.14-.24,3.19A11.6,11.6,0,0,0,282.17-19a12.43,12.43,0,0,1,2.53-1.18c-.05,1-.05,2,0,3A10.26,10.26,0,0,0,282-14.82a13,13,0,0,1,2.72-1.27c0,1.17.09,2.34.21,3.51a11.46,11.46,0,0,0-2.24,2A13.13,13.13,0,0,1,285-11.64c.11,1,.25,2.06.41,3.06a11.79,11.79,0,0,0-2.28,2.06,15.07,15.07,0,0,1,2.44-1.15c.13.86.31,1.68.49,2.52A10.17,10.17,0,0,0,283.64-3a10.62,10.62,0,0,1,2.62-1.22c.2,1,.44,1.89.72,2.83A10.31,10.31,0,0,0,285.31.27a12.74,12.74,0,0,1,1.83-.95c.32,1,.66,2,1,3A11.37,11.37,0,0,0,287,3.49a14.71,14.71,0,0,1,1.3-.7c.36,1,.77,2.06,1.19,3.07-.28.29-.57.59-.86.93a9.75,9.75,0,0,1,1-.57c.41.93.83,1.88,1.27,2.78-.22.21-.43.46-.65.69l.76-.43c.66,1.36,1.38,2.72,2.12,4.06ZM295,16.07q-8.67-33.45,26.46-41.73l-2,1.21a9.83,9.83,0,0,0-3.23.74,14.39,14.39,0,0,1,2.34-.17c-1.47.9-2.86,1.83-4.19,2.77a9.9,9.9,0,0,0-3.2.73,14.89,14.89,0,0,1,2,.12c-1.12.86-2.22,1.71-3.29,2.58a10.73,10.73,0,0,0-3.12.72A14.45,14.45,0,0,1,309-17a52.36,52.36,0,0,0-4.17,3.89,10.65,10.65,0,0,0-3.45.75,14.44,14.44,0,0,1,2.59.18,40.86,40.86,0,0,0-2.89,3.44A12.25,12.25,0,0,0,298-8a13.28,13.28,0,0,1,2.43.15,41.87,41.87,0,0,0-2.27,3.59A11.74,11.74,0,0,0,296-3.6a12.67,12.67,0,0,1,1.85.07A29.14,29.14,0,0,0,295,16.07Zm.52-2.11Q296.87-14.1,326-11.5c-.62.11-1.23.26-1.81.39a9.47,9.47,0,0,0-2.7-.25,14.28,14.28,0,0,1,1.85.46c-1.37.32-2.65.7-3.91,1.08a8.49,8.49,0,0,0-2.63-.23,8.43,8.43,0,0,1,1.49.61c-1.09.34-2.13.72-3.15,1.13a7.83,7.83,0,0,0-2.59-.24,11.45,11.45,0,0,1,1.74.57c-1.46.62-2.86,1.26-4.15,2a8.11,8.11,0,0,0-2.84-.32,13.17,13.17,0,0,1,1.93.81,28.7,28.7,0,0,0-3,1.94,7.86,7.86,0,0,0-2.54-.23,9.79,9.79,0,0,1,1.85.74,23.62,23.62,0,0,0-2.62,2.2A8.87,8.87,0,0,0,301-1a7.45,7.45,0,0,1,1.41.51A23.48,23.48,0,0,0,295.52,14Zm5.75-4q18.19-16.51,33.67,1.35c-1.21-.49-2.4-1-3.58-1.38a10.67,10.67,0,0,0-1.07-1.87,12.76,12.76,0,0,1,.4,1.65c-.78-.26-1.55-.49-2.33-.69a9.12,9.12,0,0,0-1.25-2.41,12.82,12.82,0,0,1,.45,2.2c-.72-.19-1.49-.37-2.2-.52a8.45,8.45,0,0,0-1.31-2.49,9.8,9.8,0,0,1,.47,2.35c-.87-.17-1.74-.3-2.6-.42a9.09,9.09,0,0,0-1.19-2.11,9,9,0,0,1,.45,2c-.77-.09-1.54-.14-2.33-.17a8.26,8.26,0,0,0-1.18-2.14,11.87,11.87,0,0,1,.48,2.08c-.66,0-1.33,0-2,0A9.48,9.48,0,0,0,315,5.14a11.22,11.22,0,0,1,.47,2.26c-.73,0-1.47.06-2.22.12A9.72,9.72,0,0,0,312.28,6a16.65,16.65,0,0,1,.39,1.62c-.8.06-1.59.15-2.39.27-.2-.35-.43-.73-.67-1.09.09.38.2.76.28,1.15-.82.11-1.67.26-2.47.41-.16-.27-.34-.53-.55-.82a7.88,7.88,0,0,1,.25.9c-.77.15-1.51.32-2.28.52a6.92,6.92,0,0,0-.39-.61c.05.22.13.44.18.68-1.12.28-2.24.63-3.36,1Zm.61,2.11q30.3-6.36,36.4,23.52c-1-1.35-2-2.64-3.1-3.85a13.64,13.64,0,0,0-.05-2.77,17.2,17.2,0,0,1-.57,2.07c-.69-.79-1.41-1.56-2.13-2.29a11.78,11.78,0,0,0,.08-3.49,13.66,13.66,0,0,1-.83,2.73c-.7-.66-1.41-1.37-2.13-2a11,11,0,0,0,.1-3.61,15.54,15.54,0,0,1-.91,2.91c-.86-.75-1.76-1.48-2.67-2.18a10.86,10.86,0,0,0,0-3.07,14.16,14.16,0,0,1-.72,2.52c-.83-.61-1.64-1.18-2.49-1.74a12.48,12.48,0,0,0,0-3.13,15.4,15.4,0,0,1-.78,2.61c-.7-.43-1.41-.89-2.18-1.31a11.19,11.19,0,0,0,.08-3.3,13.54,13.54,0,0,1-.88,2.84c-.83-.46-1.68-.92-2.52-1.35a17.45,17.45,0,0,0-.08-2.36,16.47,16.47,0,0,1-.55,2.06c-.93-.45-1.87-.89-2.83-1.28a13.33,13.33,0,0,0-.07-1.65c-.09.49-.24,1-.35,1.46-1-.4-2-.79-3-1.15a7.63,7.63,0,0,0-.09-1.24,11.5,11.5,0,0,1-.26,1.13c-.94-.33-1.87-.63-2.84-.91,0-.3,0-.62-.06-.94-.08.28-.14.58-.21.86-1.43-.4-2.87-.79-4.36-1.09Zm-3.14,2.52a2.19,2.19,0,0,1,3,1,2.3,2.3,0,0,1-1,3.08,2.2,2.2,0,0,1-3-1,2.36,2.36,0,0,1,1-3.1Zm5.55.48a2.24,2.24,0,0,1,3,1,2.35,2.35,0,0,1-1,3.1,2.2,2.2,0,0,1-3-1,2.38,2.38,0,0,1,1-3.12Zm-4.54,5a2.2,2.2,0,0,1,3,1,2.34,2.34,0,0,1-1,3.1,2.21,2.21,0,0,1-3-1,2.35,2.35,0,0,1,1-3.1Z" transform="translate(18.35 35.21)"/><rect class="cls-9" x="115.8" width="2.42" height="161.05"/><rect class="cls-10" x="245.04" width="2.42" height="161.05"/></svg>